G04 DipTrace 4.3.0.2*
G04 TopSilk.gbr*
%MOIN*%
G04 #@! TF.FileFunction,Legend,Top*
G04 #@! TF.Part,Single*
%ADD10C,0.01*%
%ADD52C,0.00772*%
%ADD53C,0.012351*%
%ADD54C,0.015439*%
%FSLAX26Y26*%
G04*
G70*
G90*
G75*
G01*
G04 TopSilk*
%LPD*%
X3410000Y1230060D2*
D10*
Y1369940D1*
X3290000Y1230060D2*
Y1369940D1*
X3410000D2*
G03X3290000Y1369940I-60000J60D01*
G01*
Y1230060D2*
G03X3410000Y1230060I60000J-60D01*
G01*
X2410000D2*
Y1369940D1*
X2290000Y1230060D2*
Y1369940D1*
X2410000D2*
G03X2290000Y1369940I-60000J60D01*
G01*
Y1230060D2*
G03X2410000Y1230060I60000J-60D01*
G01*
X1410000D2*
Y1369940D1*
X1290000Y1230060D2*
Y1369940D1*
X1410000D2*
G03X1290000Y1369940I-60000J60D01*
G01*
Y1230060D2*
G03X1410000Y1230060I60000J-60D01*
G01*
X600000Y724993D2*
Y775043D1*
X625000Y750018D2*
X575000D1*
X500037Y900031D2*
G02X500037Y900031I99963J0D01*
G01*
X3100000Y724993D2*
Y775043D1*
X3125000Y750018D2*
X3075000D1*
X3000037Y900031D2*
G02X3000037Y900031I99963J0D01*
G01*
X50007Y75064D2*
Y224936D1*
X50231Y74764D2*
G03X50231Y225236I99796J75236D01*
G01*
X50007Y425064D2*
Y574936D1*
X50231Y424764D2*
G03X50231Y575236I99796J75236D01*
G01*
X50007Y775064D2*
Y924936D1*
X50231Y774764D2*
G03X50231Y925236I99796J75236D01*
G01*
X700000Y575000D2*
Y225000D1*
X3000000Y575000D2*
X700000D1*
X3000000D2*
Y225000D1*
Y450050D2*
X2974699D1*
Y349950D1*
X725301Y450050D2*
Y349950D1*
Y450050D2*
X700000D1*
X3000000Y225000D2*
X1930500D1*
X1769500D2*
X700000D1*
X1769500Y255100D2*
Y225000D1*
X1930500Y255100D2*
X1769500D1*
X1930500D2*
Y225000D1*
X3000000Y349950D2*
X2974699D1*
X725301D2*
X700000D1*
X1950000Y150000D2*
X2750000D1*
X1950000Y50000D2*
Y150000D1*
Y50000D2*
X2750000D1*
Y150000D1*
X1050000D2*
X1850000D1*
X1050000Y50000D2*
Y150000D1*
Y50000D2*
X1850000D1*
Y150000D1*
X2550000Y1950000D2*
X1750000D1*
X2550000Y2050000D2*
Y1950000D1*
Y2050000D2*
X1750000D1*
Y1950000D1*
X1690000D2*
Y2050000D1*
X690000Y1950000D2*
X1690000D1*
X690000D2*
Y2050000D1*
X765000D1*
X1690000D1*
X2850000Y150000D2*
X3650000D1*
X2850000Y50000D2*
Y150000D1*
Y50000D2*
X3650000D1*
Y150000D1*
X3450000Y1950000D2*
X2650000D1*
X3450000Y2050000D2*
Y1950000D1*
Y2050000D2*
X2650000D1*
Y1950000D1*
X3650000Y250000D2*
X3850000D1*
X3650000Y2050000D2*
X3850000D1*
Y250000D1*
X3650000Y2050000D2*
Y250000D1*
X875000Y1775000D2*
X1475000D1*
X875000Y1875000D2*
X1475000D1*
X875000Y1775000D2*
Y1875000D1*
X1475000Y1775000D2*
Y1875000D1*
X50000Y1775000D2*
X650000D1*
X50000Y1875000D2*
X650000D1*
X50000Y1775000D2*
Y1875000D1*
X650000Y1775000D2*
Y1875000D1*
X3425000Y950000D2*
X3325000D1*
X3425000Y250000D2*
Y950000D1*
Y250000D2*
X3325000D1*
Y950000D1*
X2850000Y750180D2*
Y949820D1*
X2950000D2*
X2850000D1*
X2950000Y750180D2*
Y949820D1*
Y750180D2*
X2850000D1*
X2750000D2*
Y949820D1*
X2850000D2*
X2750000D1*
X2850000Y750180D2*
Y949820D1*
Y750180D2*
X2750000D1*
X2550000D2*
Y949820D1*
X2650000D2*
X2550000D1*
X2650000Y750180D2*
Y949820D1*
Y750180D2*
X2550000D1*
X2650000D2*
Y949820D1*
X2750000D2*
X2650000D1*
X2750000Y750180D2*
Y949820D1*
Y750180D2*
X2650000D1*
X2450000D2*
Y949820D1*
X2550000D2*
X2450000D1*
X2550000Y750180D2*
Y949820D1*
Y750180D2*
X2450000D1*
X2350000D2*
Y949820D1*
X2450000D2*
X2350000D1*
X2450000Y750180D2*
Y949820D1*
Y750180D2*
X2350000D1*
X2150000D2*
Y949820D1*
X2250000D2*
X2150000D1*
X2250000Y750180D2*
Y949820D1*
Y750180D2*
X2150000D1*
X2250000D2*
Y949820D1*
X2350000D2*
X2250000D1*
X2350000Y750180D2*
Y949820D1*
Y750180D2*
X2250000D1*
X2050000D2*
Y949820D1*
X2150000D2*
X2050000D1*
X2150000Y750180D2*
Y949820D1*
Y750180D2*
X2050000D1*
X1750000D2*
Y949820D1*
X1850000D2*
X1750000D1*
X1850000Y750180D2*
Y949820D1*
Y750180D2*
X1750000D1*
X1850000D2*
Y949820D1*
X1950000D2*
X1850000D1*
X1950000Y750180D2*
Y949820D1*
Y750180D2*
X1850000D1*
X1650000D2*
Y949820D1*
X1750000D2*
X1650000D1*
X1750000Y750180D2*
Y949820D1*
Y750180D2*
X1650000D1*
X1550000D2*
Y949820D1*
X1650000D2*
X1550000D1*
X1650000Y750180D2*
Y949820D1*
Y750180D2*
X1550000D1*
X1350000D2*
Y949820D1*
X1450000D2*
X1350000D1*
X1450000Y750180D2*
Y949820D1*
Y750180D2*
X1350000D1*
X1450000D2*
Y949820D1*
X1550000D2*
X1450000D1*
X1550000Y750180D2*
Y949820D1*
Y750180D2*
X1450000D1*
X1250000D2*
Y949820D1*
X1350000D2*
X1250000D1*
X1350000Y750180D2*
Y949820D1*
Y750180D2*
X1250000D1*
X1150000D2*
Y949820D1*
X1250000D2*
X1150000D1*
X1250000Y750180D2*
Y949820D1*
Y750180D2*
X1150000D1*
X950000D2*
Y949820D1*
X1050000D2*
X950000D1*
X1050000Y750180D2*
Y949820D1*
Y750180D2*
X950000D1*
X1050000D2*
Y949820D1*
X1150000D2*
X1050000D1*
X1150000Y750180D2*
Y949820D1*
Y750180D2*
X1050000D1*
X850000D2*
Y949820D1*
X950000D2*
X850000D1*
X950000Y750180D2*
Y949820D1*
Y750180D2*
X850000D1*
X750000D2*
Y949820D1*
X850000D2*
X750000D1*
X850000Y750180D2*
Y949820D1*
Y750180D2*
X750000D1*
X1950000D2*
Y949820D1*
X2050000D2*
X1950000D1*
X2050000Y750180D2*
Y949820D1*
Y750180D2*
X1950000D1*
X530000Y730150D2*
X470000D1*
X530000Y569850D2*
Y730150D1*
Y569850D2*
X470000D1*
Y730150D1*
X455000D2*
X395000D1*
X455000Y569850D2*
Y730150D1*
Y569850D2*
X395000D1*
Y730150D1*
X380000D2*
X320000D1*
X380000Y569850D2*
Y730150D1*
Y569850D2*
X320000D1*
Y730150D1*
X3255512Y1325134D2*
G03X3255512Y1274866I-8J-25134D01*
G01*
Y1195514D2*
X2444488D1*
X3255512Y1404486D2*
X2444488D1*
Y1195514D1*
X3255512Y1274866D2*
Y1195514D1*
Y1404486D2*
Y1325134D1*
X2255512D2*
G03X2255512Y1274866I-8J-25134D01*
G01*
Y1195514D2*
X1444488D1*
X2255512Y1404486D2*
X1444488D1*
Y1195514D1*
X2255512Y1274866D2*
Y1195514D1*
Y1404486D2*
Y1325134D1*
X1255512D2*
G03X1255512Y1274866I-8J-25134D01*
G01*
Y1195514D2*
X444488D1*
X1255512Y1404486D2*
X444488D1*
Y1195514D1*
X1255512Y1274866D2*
Y1195514D1*
Y1404486D2*
Y1325134D1*
X3425000Y950000D2*
X3850000D1*
Y250000D2*
X3400000D1*
G36*
X680000Y262500D2*
X679126Y254703D1*
X676542Y247247D1*
X672361Y240458D1*
X666765Y234632D1*
X660000Y230024D1*
X652361Y226835D1*
X644181Y225205D1*
X635819D1*
X627639Y226835D1*
X620000Y230024D1*
X613235Y234632D1*
X607639Y240458D1*
X603458Y247247D1*
X600874Y254703D1*
X600000Y262500D1*
X600874Y270297D1*
X603458Y277753D1*
X607639Y284542D1*
X613235Y290368D1*
X620000Y294976D1*
X627639Y298165D1*
X635819Y299795D1*
X644181D1*
X652361Y298165D1*
X660000Y294976D1*
X666765Y290368D1*
X672361Y284542D1*
X676542Y277753D1*
X679126Y270297D1*
X680000Y262500D1*
G37*
X1235233Y1748988D2*
D52*
Y1713118D1*
X1237609Y1705933D1*
X1242418Y1701179D1*
X1249603Y1698747D1*
X1254356D1*
X1261541Y1701179D1*
X1266349Y1705933D1*
X1268726Y1713118D1*
Y1748988D1*
X1322467Y1698747D2*
X1303288Y1748988D1*
X1284165Y1698747D1*
X1291350Y1715494D2*
X1315282D1*
X1337906Y1725056D2*
X1359406D1*
X1366591Y1727488D1*
X1369023Y1729864D1*
X1371399Y1734617D1*
Y1739426D1*
X1369023Y1744179D1*
X1366591Y1746611D1*
X1359406Y1748988D1*
X1337906D1*
Y1698747D1*
X1354653Y1725056D2*
X1371399Y1698747D1*
X1403585Y1748988D2*
Y1698747D1*
X1386839Y1748988D2*
X1420332D1*
X1435771Y1739371D2*
X1440580Y1741802D1*
X1447765Y1748932D1*
Y1698747D1*
X409482Y1749738D2*
Y1713868D1*
X411858Y1706683D1*
X416667Y1701930D1*
X423852Y1699498D1*
X428605D1*
X435790Y1701930D1*
X440599Y1706683D1*
X442975Y1713868D1*
Y1749738D1*
X496716Y1699498D2*
X477538Y1749738D1*
X458414Y1699498D1*
X465599Y1716245D2*
X489531D1*
X512155Y1725806D2*
X533655D1*
X540840Y1728238D1*
X543272Y1730615D1*
X545649Y1735368D1*
Y1740177D1*
X543272Y1744930D1*
X540840Y1747362D1*
X533655Y1749738D1*
X512155D1*
Y1699498D1*
X528902Y1725806D2*
X545649Y1699498D1*
X577835Y1749738D2*
Y1699498D1*
X561088Y1749738D2*
X594581D1*
X612453Y1737745D2*
Y1740121D1*
X614829Y1744930D1*
X617206Y1747306D1*
X622014Y1749683D1*
X631576D1*
X636329Y1747306D1*
X638706Y1744930D1*
X641137Y1740121D1*
Y1735368D1*
X638706Y1730560D1*
X633952Y1723430D1*
X610021Y1699498D1*
X643514D1*
X3298606Y317836D2*
X3248366D1*
X3298606Y298713D1*
X3248366Y279589D1*
X3298606D1*
X3248366Y333275D2*
X3250742Y335652D1*
X3248366Y338084D1*
X3245934Y335652D1*
X3248366Y333275D1*
X3265112Y335652D2*
X3298606D1*
X3272297Y382263D2*
X3267489Y377455D1*
X3265112Y372646D1*
Y365516D1*
X3267489Y360708D1*
X3272297Y355955D1*
X3279482Y353523D1*
X3284235D1*
X3291420Y355955D1*
X3296174Y360708D1*
X3298606Y365516D1*
Y372646D1*
X3296174Y377455D1*
X3291420Y382263D1*
X3265112Y397702D2*
X3298606D1*
X3279482D2*
X3272297Y400134D1*
X3267489Y404887D1*
X3265112Y409696D1*
Y416881D1*
Y444258D2*
X3267489Y439505D1*
X3272297Y434697D1*
X3279482Y432320D1*
X3284235D1*
X3291420Y434697D1*
X3296174Y439505D1*
X3298606Y444258D1*
Y451443D1*
X3296174Y456252D1*
X3291420Y461005D1*
X3284235Y463437D1*
X3279482D1*
X3272297Y461005D1*
X3267489Y456252D1*
X3265112Y451443D1*
Y444258D1*
X3255551Y512369D2*
X3250742Y507616D1*
X3248366Y500431D1*
Y490870D1*
X3250742Y483685D1*
X3255551Y478876D1*
X3260304D1*
X3265112Y481308D1*
X3267489Y483685D1*
X3269865Y488438D1*
X3274674Y502808D1*
X3277050Y507616D1*
X3279482Y509993D1*
X3284235Y512369D1*
X3291420D1*
X3296174Y507616D1*
X3298606Y500431D1*
Y490870D1*
X3296174Y483685D1*
X3291420Y478876D1*
X3248366Y527809D2*
X3298606D1*
Y544555D1*
X3296174Y551740D1*
X3291420Y556549D1*
X3286612Y558925D1*
X3279482Y561302D1*
X3267489D1*
X3260304Y558925D1*
X3255551Y556549D1*
X3250742Y551740D1*
X3248366Y544555D1*
Y527809D1*
X1887751Y1693824D2*
D53*
X1880058Y1686219D1*
X1872453Y1674723D1*
X1864759Y1659425D1*
X1860957Y1640235D1*
Y1624936D1*
X1864759Y1605835D1*
X1872453Y1590537D1*
X1880058Y1579041D1*
X1887751Y1571435D1*
X1969846Y1653765D2*
X1966043Y1661370D1*
X1958350Y1669064D1*
X1950745Y1672866D1*
X1935446D1*
X1927753Y1669064D1*
X1920148Y1661370D1*
X1916257Y1653765D1*
X1912454Y1642269D1*
Y1623079D1*
X1916257Y1611672D1*
X1920148Y1603978D1*
X1927753Y1596373D1*
X1935446Y1592482D1*
X1950745D1*
X1958350Y1596373D1*
X1966043Y1603978D1*
X1969846Y1611672D1*
X1994549Y1693824D2*
X2002242Y1686219D1*
X2009847Y1674723D1*
X2017541Y1659425D1*
X2021343Y1640235D1*
Y1624936D1*
X2017541Y1605835D1*
X2009847Y1590537D1*
X2002242Y1579041D1*
X1994549Y1571435D1*
X2049937Y1653677D2*
Y1657479D1*
X2053740Y1665173D1*
X2057542Y1668975D1*
X2065236Y1672778D1*
X2080534D1*
X2088139Y1668975D1*
X2091942Y1665173D1*
X2095833Y1657479D1*
Y1649874D1*
X2091942Y1642180D1*
X2084337Y1630773D1*
X2046046Y1592482D1*
X2099635D1*
X2147330Y1672778D2*
X2135834Y1668975D1*
X2128141Y1657479D1*
X2124338Y1638378D1*
Y1626882D1*
X2128141Y1607781D1*
X2135834Y1596285D1*
X2147330Y1592482D1*
X2154935D1*
X2166432Y1596285D1*
X2174037Y1607781D1*
X2177928Y1626882D1*
Y1638378D1*
X2174037Y1657479D1*
X2166432Y1668975D1*
X2154935Y1672778D1*
X2147330D1*
X2174037Y1657479D2*
X2128141Y1607781D1*
X2202630Y1657479D2*
X2210324Y1661370D1*
X2221820Y1672778D1*
Y1592482D1*
X2292419Y1661370D2*
X2288616Y1668975D1*
X2277120Y1672778D1*
X2269515D1*
X2258019Y1668975D1*
X2250325Y1657479D1*
X2246523Y1638378D1*
Y1619277D1*
X2250325Y1603978D1*
X2258019Y1596285D1*
X2269515Y1592482D1*
X2273317D1*
X2284725Y1596285D1*
X2292419Y1603978D1*
X2296221Y1615474D1*
Y1619277D1*
X2292419Y1630773D1*
X2284725Y1638378D1*
X2273317Y1642180D1*
X2269515D1*
X2258019Y1638378D1*
X2250325Y1630773D1*
X2246523Y1619277D1*
X2459968Y1592482D2*
X2429283Y1672866D1*
X2398685Y1592482D1*
X2410182Y1619277D2*
X2448472D1*
X2484671Y1672866D2*
Y1592482D1*
X2538260Y1672866D2*
X2484671Y1619277D1*
X2503772Y1638466D2*
X2538260Y1592482D1*
X2608859Y1661370D2*
X2605057Y1668975D1*
X2593560Y1672778D1*
X2585955D1*
X2574459Y1668975D1*
X2566766Y1657479D1*
X2562963Y1638378D1*
Y1619277D1*
X2566766Y1603978D1*
X2574459Y1596285D1*
X2585955Y1592482D1*
X2589758D1*
X2601166Y1596285D1*
X2608859Y1603978D1*
X2612662Y1615474D1*
Y1619277D1*
X2608859Y1630773D1*
X2601166Y1638378D1*
X2589758Y1642180D1*
X2585955D1*
X2574459Y1638378D1*
X2566766Y1630773D1*
X2562963Y1619277D1*
X2637364Y1672866D2*
Y1592482D1*
X2664159D1*
X2675655Y1596373D1*
X2683349Y1603978D1*
X2687151Y1611672D1*
X2690954Y1623079D1*
Y1642269D1*
X2687151Y1653765D1*
X2683349Y1661370D1*
X2675655Y1669064D1*
X2664159Y1672866D1*
X2637364D1*
X2769246D2*
Y1592482D1*
X2715657Y1672866D1*
Y1592482D1*
X1600000Y1788438D2*
D54*
X1643000D1*
X1657370Y1793302D1*
X1662234Y1798055D1*
X1666987Y1807562D1*
Y1817179D1*
X1662234Y1826685D1*
X1657370Y1831549D1*
X1643000Y1836302D1*
X1600000D1*
Y1735822D1*
X1633494Y1788438D2*
X1666987Y1735822D1*
X1697866Y1836302D2*
X1764852Y1735822D1*
Y1836302D2*
X1697866Y1735822D1*
X1955056Y1836302D2*
X1892933D1*
Y1735822D1*
X1955056D1*
X1892933Y1788438D2*
X1931179D1*
X1985934Y1802808D2*
Y1735822D1*
Y1783685D2*
X2000304Y1798055D1*
X2009921Y1802808D1*
X2024181D1*
X2033798Y1798055D1*
X2038551Y1783685D1*
Y1735822D1*
Y1783685D2*
X2052921Y1798055D1*
X2062538Y1802808D1*
X2076797D1*
X2086414Y1798055D1*
X2091278Y1783685D1*
Y1735822D1*
X2122156Y1802808D2*
Y1754945D1*
X2126910Y1740685D1*
X2136526Y1735822D1*
X2150897D1*
X2160403Y1740685D1*
X2174773Y1754945D1*
Y1802808D2*
Y1735822D1*
X2205651Y1836302D2*
Y1735822D1*
X2293900Y1802808D2*
Y1735822D1*
Y1788438D2*
X2284393Y1798055D1*
X2274777Y1802808D1*
X2260517D1*
X2250900Y1798055D1*
X2241394Y1788438D1*
X2236530Y1774068D1*
Y1764562D1*
X2241394Y1750192D1*
X2250900Y1740685D1*
X2260517Y1735822D1*
X2274777D1*
X2284393Y1740685D1*
X2293900Y1750192D1*
X2339148Y1836302D2*
Y1754945D1*
X2343902Y1740685D1*
X2353518Y1735822D1*
X2363025D1*
X2324778Y1802808D2*
X2358272D1*
X2417780D2*
X2408273Y1798055D1*
X2398656Y1788438D1*
X2393903Y1774068D1*
Y1764562D1*
X2398656Y1750192D1*
X2408273Y1740685D1*
X2417780Y1735822D1*
X2432150D1*
X2441767Y1740685D1*
X2451273Y1750192D1*
X2456137Y1764562D1*
Y1774068D1*
X2451273Y1788438D1*
X2441767Y1798055D1*
X2432150Y1802808D1*
X2417780D1*
X2487015D2*
Y1735822D1*
Y1774068D2*
X2491879Y1788438D1*
X2501385Y1798055D1*
X2511002Y1802808D1*
X2525372D1*
X2720439Y1821932D2*
X2710933Y1831549D1*
X2696563Y1836302D1*
X2677440D1*
X2663070Y1831549D1*
X2653453Y1821932D1*
Y1812425D1*
X2658316Y1802808D1*
X2663070Y1798055D1*
X2672576Y1793302D1*
X2701316Y1783685D1*
X2710933Y1778932D1*
X2715686Y1774068D1*
X2720439Y1764562D1*
Y1750192D1*
X2710933Y1740685D1*
X2696563Y1735822D1*
X2677440D1*
X2663070Y1740685D1*
X2653453Y1750192D1*
X2751318Y1836302D2*
Y1735822D1*
Y1783685D2*
X2765688Y1798055D1*
X2775305Y1802808D1*
X2789675D1*
X2799181Y1798055D1*
X2803935Y1783685D1*
Y1735822D1*
X2834813Y1836302D2*
X2839566Y1831549D1*
X2844430Y1836302D1*
X2839566Y1841165D1*
X2834813Y1836302D1*
X2839566Y1802808D2*
Y1735822D1*
X2875308Y1774068D2*
X2932678D1*
Y1783685D1*
X2927925Y1793302D1*
X2923172Y1798055D1*
X2913555Y1802808D1*
X2899185D1*
X2889678Y1798055D1*
X2880062Y1788438D1*
X2875308Y1774068D1*
Y1764562D1*
X2880062Y1750192D1*
X2889678Y1740685D1*
X2899185Y1735822D1*
X2913555D1*
X2923172Y1740685D1*
X2932678Y1750192D1*
X2963557Y1836302D2*
Y1735822D1*
X3051805Y1836302D2*
Y1735822D1*
Y1788438D2*
X3042299Y1798055D1*
X3032682Y1802808D1*
X3018312D1*
X3008805Y1798055D1*
X2999188Y1788438D1*
X2994435Y1774068D1*
Y1764562D1*
X2999188Y1750192D1*
X3008805Y1740685D1*
X3018312Y1735822D1*
X3032682D1*
X3042299Y1740685D1*
X3051805Y1750192D1*
X3237500Y1740308D2*
X3266241Y1673322D1*
X3294870Y1740308D1*
X3335366Y1773691D2*
X3387872D1*
X3359242Y1735445D1*
X3373612D1*
X3383119Y1730692D1*
X3387872Y1725938D1*
X3392735Y1711568D1*
Y1702062D1*
X3387872Y1687692D1*
X3378365Y1678075D1*
X3363995Y1673322D1*
X3349625D1*
X3335366Y1678075D1*
X3330612Y1682939D1*
X3325749Y1692445D1*
X3333806Y1504219D2*
D52*
X3329053Y1501842D1*
X3324244Y1497034D1*
X3321868Y1492280D1*
Y1482719D1*
X3324244Y1477910D1*
X3329053Y1473157D1*
X3333806Y1470725D1*
X3340991Y1468349D1*
X3352985D1*
X3360114Y1470725D1*
X3364923Y1473157D1*
X3369676Y1477910D1*
X3372108Y1482719D1*
Y1492280D1*
X3369676Y1497034D1*
X3364923Y1501842D1*
X3360114Y1504219D1*
X3331485Y1519658D2*
X3329053Y1524466D1*
X3321923Y1531651D1*
X3372108D1*
X2333806Y1493469D2*
X2329053Y1491092D1*
X2324244Y1486284D1*
X2321868Y1481530D1*
Y1471969D1*
X2324244Y1467160D1*
X2329053Y1462407D1*
X2333806Y1459975D1*
X2340991Y1457599D1*
X2352985D1*
X2360114Y1459975D1*
X2364923Y1462407D1*
X2369676Y1467160D1*
X2372108Y1471969D1*
Y1481530D1*
X2369676Y1486284D1*
X2364923Y1491092D1*
X2360114Y1493469D1*
X2333861Y1511340D2*
X2331485D1*
X2326676Y1513716D1*
X2324300Y1516093D1*
X2321923Y1520901D1*
Y1530463D1*
X2324300Y1535216D1*
X2326676Y1537593D1*
X2331485Y1540025D1*
X2336238D1*
X2341046Y1537593D1*
X2348176Y1532840D1*
X2372108Y1508908D1*
Y1542401D1*
X1333806Y1493469D2*
X1329053Y1491092D1*
X1324244Y1486284D1*
X1321868Y1481530D1*
Y1471969D1*
X1324244Y1467160D1*
X1329053Y1462407D1*
X1333806Y1459975D1*
X1340991Y1457599D1*
X1352985D1*
X1360114Y1459975D1*
X1364923Y1462407D1*
X1369676Y1467160D1*
X1372108Y1471969D1*
Y1481530D1*
X1369676Y1486284D1*
X1364923Y1491092D1*
X1360114Y1493469D1*
X1321923Y1513716D2*
Y1539969D1*
X1341046Y1525655D1*
Y1532840D1*
X1343423Y1537593D1*
X1345800Y1539969D1*
X1352985Y1542401D1*
X1357738D1*
X1364923Y1539969D1*
X1369731Y1535216D1*
X1372108Y1528031D1*
Y1520846D1*
X1369731Y1513716D1*
X1367299Y1511340D1*
X1362546Y1508908D1*
X433806Y879774D2*
X429053Y877397D1*
X424244Y872589D1*
X421868Y867836D1*
Y858274D1*
X424244Y853466D1*
X429053Y848712D1*
X433806Y846280D1*
X440991Y843904D1*
X452985D1*
X460114Y846280D1*
X464923Y848712D1*
X469676Y853466D1*
X472108Y858274D1*
Y867836D1*
X469676Y872589D1*
X464923Y877397D1*
X460114Y879774D1*
X472108Y919145D2*
X421923D1*
X455361Y895213D1*
Y931083D1*
X3233806Y880962D2*
X3229053Y878586D1*
X3224244Y873777D1*
X3221868Y869024D1*
Y859462D1*
X3224244Y854654D1*
X3229053Y849901D1*
X3233806Y847469D1*
X3240991Y845092D1*
X3252985D1*
X3260114Y847469D1*
X3264923Y849901D1*
X3269676Y854654D1*
X3272108Y859462D1*
Y869024D1*
X3269676Y873777D1*
X3264923Y878586D1*
X3260114Y880962D1*
X3221923Y925086D2*
Y901210D1*
X3243423Y898833D1*
X3241046Y901210D1*
X3238614Y908395D1*
Y915525D1*
X3241046Y922710D1*
X3245800Y927518D1*
X3252985Y929895D1*
X3257738D1*
X3264923Y927518D1*
X3269731Y922710D1*
X3272108Y915525D1*
Y908395D1*
X3269731Y901210D1*
X3267299Y898833D1*
X3262546Y896401D1*
X132044Y348224D2*
Y297984D1*
X148790D1*
X155975Y300416D1*
X160784Y305169D1*
X163160Y309977D1*
X165537Y317107D1*
Y329100D1*
X163160Y336286D1*
X160784Y341039D1*
X155975Y345847D1*
X148790Y348224D1*
X132044D1*
X180976Y338607D2*
X185785Y341039D1*
X192970Y348168D1*
Y297984D1*
X121294Y698224D2*
Y647984D1*
X138040D1*
X145225Y650416D1*
X150034Y655169D1*
X152410Y659977D1*
X154787Y667107D1*
Y679100D1*
X152410Y686286D1*
X150034Y691039D1*
X145225Y695847D1*
X138040Y698224D1*
X121294D1*
X172658Y686230D2*
Y688607D1*
X175035Y693415D1*
X177411Y695792D1*
X182220Y698168D1*
X191781D1*
X196534Y695792D1*
X198911Y693415D1*
X201343Y688607D1*
Y683854D1*
X198911Y679045D1*
X194158Y671915D1*
X170226Y647984D1*
X203720D1*
X121294Y1048224D2*
Y997984D1*
X138040D1*
X145225Y1000416D1*
X150034Y1005169D1*
X152410Y1009977D1*
X154787Y1017107D1*
Y1029100D1*
X152410Y1036286D1*
X150034Y1041039D1*
X145225Y1045847D1*
X138040Y1048224D1*
X121294D1*
X175035Y1048168D2*
X201288D1*
X186973Y1029045D1*
X194158D1*
X198911Y1026669D1*
X201288Y1024292D1*
X203720Y1017107D1*
Y1012354D1*
X201288Y1005169D1*
X196534Y1000360D1*
X189349Y997984D1*
X182164D1*
X175035Y1000360D1*
X172658Y1002792D1*
X170226Y1007545D1*
X601777Y398249D2*
X640023D1*
X647208Y395873D1*
X649585Y393441D1*
X652017Y388688D1*
Y383879D1*
X649585Y379126D1*
X647208Y376750D1*
X640023Y374318D1*
X635270D1*
X611394Y413689D2*
X608962Y418497D1*
X601832Y425682D1*
X652017D1*
X1969537Y189324D2*
X1991092D1*
X1998222Y191700D1*
X2000654Y194132D1*
X2003030Y198886D1*
Y206071D1*
X2000654Y210824D1*
X1998222Y213256D1*
X1991092Y215632D1*
X1969537D1*
Y165392D1*
X2018470Y206015D2*
X2023278Y208447D1*
X2030463Y215577D1*
Y165392D1*
X1058787Y189324D2*
X1080342D1*
X1087472Y191700D1*
X1089904Y194132D1*
X1092280Y198886D1*
Y206071D1*
X1089904Y210824D1*
X1087472Y213256D1*
X1080342Y215632D1*
X1058787D1*
Y165392D1*
X1110151Y203639D2*
Y206015D1*
X1112528Y210824D1*
X1114905Y213200D1*
X1119713Y215577D1*
X1129275D1*
X1134028Y213200D1*
X1136405Y210824D1*
X1138836Y206015D1*
Y201262D1*
X1136405Y196454D1*
X1131651Y189324D1*
X1107720Y165392D1*
X1141213D1*
X2458787Y1901824D2*
X2480342D1*
X2487472Y1904200D1*
X2489904Y1906632D1*
X2492280Y1911386D1*
Y1918571D1*
X2489904Y1923324D1*
X2487472Y1925756D1*
X2480342Y1928132D1*
X2458787D1*
Y1877892D1*
X2512528Y1928077D2*
X2538781D1*
X2524466Y1908954D1*
X2531651D1*
X2536405Y1906577D1*
X2538781Y1904200D1*
X2541213Y1897015D1*
Y1892262D1*
X2538781Y1885077D1*
X2534028Y1880269D1*
X2526843Y1877892D1*
X2519658D1*
X2512528Y1880269D1*
X2510151Y1882701D1*
X2507720Y1887454D1*
X697599Y1901824D2*
X719154D1*
X726284Y1904200D1*
X728715Y1906632D1*
X731092Y1911386D1*
Y1918571D1*
X728715Y1923324D1*
X726284Y1925756D1*
X719154Y1928132D1*
X697599D1*
Y1877892D1*
X770463D2*
Y1928077D1*
X746531Y1894639D1*
X782401D1*
X2858787Y189324D2*
X2880342D1*
X2887472Y191700D1*
X2889904Y194132D1*
X2892280Y198886D1*
Y206071D1*
X2889904Y210824D1*
X2887472Y213256D1*
X2880342Y215632D1*
X2858787D1*
Y165392D1*
X2936405Y215577D2*
X2912528D1*
X2910151Y194077D1*
X2912528Y196454D1*
X2919713Y198886D1*
X2926843D1*
X2934028Y196454D1*
X2938836Y191700D1*
X2941213Y184515D1*
Y179762D1*
X2938836Y172577D1*
X2934028Y167769D1*
X2926843Y165392D1*
X2919713D1*
X2912528Y167769D1*
X2910151Y170201D1*
X2907720Y174954D1*
X3366146Y1901824D2*
X3387701D1*
X3394831Y1904200D1*
X3397263Y1906632D1*
X3399639Y1911386D1*
Y1918571D1*
X3397263Y1923324D1*
X3394831Y1925756D1*
X3387701Y1928132D1*
X3366146D1*
Y1877892D1*
X3443764Y1920947D2*
X3441387Y1925700D1*
X3434202Y1928077D1*
X3429449D1*
X3422264Y1925700D1*
X3417455Y1918515D1*
X3415079Y1906577D1*
Y1894639D1*
X3417455Y1885077D1*
X3422264Y1880269D1*
X3429449Y1877892D1*
X3431825D1*
X3438955Y1880269D1*
X3443764Y1885077D1*
X3446140Y1892262D1*
Y1894639D1*
X3443764Y1901824D1*
X3438955Y1906577D1*
X3431825Y1908954D1*
X3429449D1*
X3422264Y1906577D1*
X3417455Y1901824D1*
X3415079Y1894639D1*
X3601824Y1891213D2*
Y1869658D1*
X3604200Y1862528D1*
X3606632Y1860096D1*
X3611386Y1857720D1*
X3618571D1*
X3623324Y1860096D1*
X3625756Y1862528D1*
X3628132Y1869658D1*
Y1891213D1*
X3577892D1*
Y1832719D2*
X3628077Y1808787D1*
Y1842280D1*
X883815Y1726824D2*
X905370D1*
X912500Y1729200D1*
X914931Y1731632D1*
X917308Y1736386D1*
Y1743571D1*
X914931Y1748324D1*
X912500Y1750756D1*
X905370Y1753132D1*
X883815D1*
Y1702892D1*
X944685Y1753077D2*
X937556Y1750700D1*
X935124Y1745947D1*
Y1741139D1*
X937556Y1736386D1*
X942309Y1733954D1*
X951871Y1731577D1*
X959056Y1729200D1*
X963809Y1724392D1*
X966185Y1719639D1*
Y1712454D1*
X963809Y1707701D1*
X961432Y1705269D1*
X954247Y1702892D1*
X944685D1*
X937556Y1705269D1*
X935124Y1707701D1*
X932747Y1712454D1*
Y1719639D1*
X935124Y1724392D1*
X939932Y1729200D1*
X947062Y1731577D1*
X956624Y1733954D1*
X961432Y1736386D1*
X963809Y1741139D1*
Y1745947D1*
X961432Y1750700D1*
X954247Y1753077D1*
X944685D1*
X59975Y1726824D2*
X81530D1*
X88660Y1729200D1*
X91092Y1731632D1*
X93469Y1736386D1*
Y1743571D1*
X91092Y1748324D1*
X88660Y1750756D1*
X81530Y1753132D1*
X59975D1*
Y1702892D1*
X140025Y1736386D2*
X137593Y1729200D1*
X132840Y1724392D1*
X125655Y1722015D1*
X123278D1*
X116093Y1724392D1*
X111340Y1729200D1*
X108908Y1736386D1*
Y1738762D1*
X111340Y1745947D1*
X116093Y1750700D1*
X123278Y1753077D1*
X125655D1*
X132840Y1750700D1*
X137593Y1745947D1*
X140025Y1736386D1*
Y1724392D1*
X137593Y1712454D1*
X132840Y1705269D1*
X125655Y1702892D1*
X120901D1*
X113716Y1705269D1*
X111340Y1710077D1*
X3473176Y270071D2*
Y291626D1*
X3470800Y298756D1*
X3468368Y301187D1*
X3463614Y303564D1*
X3456429D1*
X3451676Y301187D1*
X3449244Y298756D1*
X3446868Y291626D1*
Y270071D1*
X3497108D1*
X3456485Y319003D2*
X3454053Y323812D1*
X3446923Y330997D1*
X3497108D1*
X3446923Y360806D2*
X3449300Y353621D1*
X3456485Y348813D1*
X3468423Y346436D1*
X3475608D1*
X3487546Y348813D1*
X3494731Y353621D1*
X3497108Y360806D1*
Y365559D1*
X3494731Y372744D1*
X3487546Y377497D1*
X3475608Y379929D1*
X3468423D1*
X3456485Y377497D1*
X3449300Y372744D1*
X3446923Y365559D1*
Y360806D1*
X3456485Y377497D2*
X3487546Y348813D1*
X2895800Y808787D2*
Y830287D1*
X2893368Y837472D1*
X2890991Y839904D1*
X2886238Y842280D1*
X2881429D1*
X2876676Y839904D1*
X2874244Y837472D1*
X2871868Y830287D1*
Y808787D1*
X2922108D1*
X2895800Y825534D2*
X2922108Y842280D1*
X2883861Y860151D2*
X2881485D1*
X2876676Y862528D1*
X2874300Y864905D1*
X2871923Y869713D1*
Y879275D1*
X2874300Y884028D1*
X2876676Y886405D1*
X2881485Y888836D1*
X2886238D1*
X2891046Y886405D1*
X2898176Y881651D1*
X2922108Y857720D1*
Y891213D1*
X2795800Y808787D2*
Y830287D1*
X2793368Y837472D1*
X2790991Y839904D1*
X2786238Y842280D1*
X2781429D1*
X2776676Y839904D1*
X2774244Y837472D1*
X2771868Y830287D1*
Y808787D1*
X2822108D1*
X2795800Y825534D2*
X2822108Y842280D1*
X2771923Y862528D2*
Y888781D1*
X2791046Y874466D1*
Y881651D1*
X2793423Y886405D1*
X2795800Y888781D1*
X2802985Y891213D1*
X2807738D1*
X2814923Y888781D1*
X2819731Y884028D1*
X2822108Y876843D1*
Y869658D1*
X2819731Y862528D1*
X2817299Y860151D1*
X2812546Y857720D1*
X2595800Y807599D2*
Y829099D1*
X2593368Y836284D1*
X2590991Y838715D1*
X2586238Y841092D1*
X2581429D1*
X2576676Y838715D1*
X2574244Y836284D1*
X2571868Y829099D1*
Y807599D1*
X2622108D1*
X2595800Y824345D2*
X2622108Y841092D1*
Y880463D2*
X2571923D1*
X2605361Y856531D1*
Y892401D1*
X2695800Y808787D2*
Y830287D1*
X2693368Y837472D1*
X2690991Y839904D1*
X2686238Y842280D1*
X2681429D1*
X2676676Y839904D1*
X2674244Y837472D1*
X2671868Y830287D1*
Y808787D1*
X2722108D1*
X2695800Y825534D2*
X2722108Y842280D1*
X2671923Y886405D2*
Y862528D1*
X2693423Y860151D1*
X2691046Y862528D1*
X2688614Y869713D1*
Y876843D1*
X2691046Y884028D1*
X2695800Y888836D1*
X2702985Y891213D1*
X2707738D1*
X2714923Y888836D1*
X2719731Y884028D1*
X2722108Y876843D1*
Y869713D1*
X2719731Y862528D1*
X2717299Y860151D1*
X2712546Y857720D1*
X2495800Y810003D2*
Y831503D1*
X2493368Y838688D1*
X2490991Y841120D1*
X2486238Y843496D1*
X2481429D1*
X2476676Y841120D1*
X2474244Y838688D1*
X2471868Y831503D1*
Y810003D1*
X2522108D1*
X2495800Y826750D2*
X2522108Y843496D1*
X2479053Y887620D2*
X2474300Y885244D1*
X2471923Y878059D1*
Y873306D1*
X2474300Y866121D1*
X2481485Y861312D1*
X2493423Y858936D1*
X2505361D1*
X2514923Y861312D1*
X2519731Y866121D1*
X2522108Y873306D1*
Y875682D1*
X2519731Y882812D1*
X2514923Y887620D1*
X2507738Y889997D1*
X2505361D1*
X2498176Y887620D1*
X2493423Y882812D1*
X2491046Y875682D1*
Y873306D1*
X2493423Y866121D1*
X2498176Y861312D1*
X2505361Y858936D1*
X2395800Y808787D2*
Y830287D1*
X2393368Y837472D1*
X2390991Y839904D1*
X2386238Y842280D1*
X2381429D1*
X2376676Y839904D1*
X2374244Y837472D1*
X2371868Y830287D1*
Y808787D1*
X2422108D1*
X2395800Y825534D2*
X2422108Y842280D1*
Y867281D2*
X2371923Y891213D1*
Y857720D1*
X2195800Y808815D2*
Y830315D1*
X2193368Y837500D1*
X2190991Y839931D1*
X2186238Y842308D1*
X2181429D1*
X2176676Y839931D1*
X2174244Y837500D1*
X2171868Y830315D1*
Y808815D1*
X2222108D1*
X2195800Y825561D2*
X2222108Y842308D1*
X2171923Y869685D2*
X2174300Y862556D1*
X2179053Y860124D1*
X2183861D1*
X2188614Y862556D1*
X2191046Y867309D1*
X2193423Y876871D1*
X2195800Y884056D1*
X2200608Y888809D1*
X2205361Y891185D1*
X2212546D1*
X2217299Y888809D1*
X2219731Y886432D1*
X2222108Y879247D1*
Y869685D1*
X2219731Y862556D1*
X2217299Y860124D1*
X2212546Y857747D1*
X2205361D1*
X2200608Y860124D1*
X2195800Y864932D1*
X2193423Y872062D1*
X2191046Y881624D1*
X2188614Y886432D1*
X2183861Y888809D1*
X2179053D1*
X2174300Y886432D1*
X2171923Y879247D1*
Y869685D1*
X2295800Y809975D2*
Y831475D1*
X2293368Y838660D1*
X2290991Y841092D1*
X2286238Y843469D1*
X2281429D1*
X2276676Y841092D1*
X2274244Y838660D1*
X2271868Y831475D1*
Y809975D1*
X2322108D1*
X2295800Y826722D2*
X2322108Y843469D1*
X2288614Y890025D2*
X2295800Y887593D1*
X2300608Y882840D1*
X2302985Y875655D1*
Y873278D1*
X2300608Y866093D1*
X2295800Y861340D1*
X2288614Y858908D1*
X2286238D1*
X2279053Y861340D1*
X2274300Y866093D1*
X2271923Y873278D1*
Y875655D1*
X2274300Y882840D1*
X2279053Y887593D1*
X2288614Y890025D1*
X2300608D1*
X2312546Y887593D1*
X2319731Y882840D1*
X2322108Y875655D1*
Y870901D1*
X2319731Y863716D1*
X2314923Y861340D1*
X2095800Y795071D2*
Y816571D1*
X2093368Y823756D1*
X2090991Y826187D1*
X2086238Y828564D1*
X2081429D1*
X2076676Y826187D1*
X2074244Y823756D1*
X2071868Y816571D1*
Y795071D1*
X2122108D1*
X2095800Y811817D2*
X2122108Y828564D1*
X2081485Y844003D2*
X2079053Y848812D1*
X2071923Y855997D1*
X2122108D1*
X2071923Y885806D2*
X2074300Y878621D1*
X2081485Y873813D1*
X2093423Y871436D1*
X2100608D1*
X2112546Y873813D1*
X2119731Y878621D1*
X2122108Y885806D1*
Y890559D1*
X2119731Y897744D1*
X2112546Y902497D1*
X2100608Y904929D1*
X2093423D1*
X2081485Y902497D1*
X2074300Y897744D1*
X2071923Y890559D1*
Y885806D1*
X2081485Y902497D2*
X2112546Y873813D1*
X1795800Y805821D2*
Y827320D1*
X1793368Y834505D1*
X1790991Y836937D1*
X1786238Y839314D1*
X1781429D1*
X1776676Y836937D1*
X1774244Y834505D1*
X1771868Y827320D1*
Y805821D1*
X1822108D1*
X1795800Y822567D2*
X1822108Y839314D1*
X1781485Y854753D2*
X1779053Y859562D1*
X1771923Y866747D1*
X1822108D1*
X1781485Y882186D2*
X1779053Y886994D1*
X1771923Y894179D1*
X1822108D1*
X1895800Y795071D2*
Y816571D1*
X1893368Y823756D1*
X1890991Y826187D1*
X1886238Y828564D1*
X1881429D1*
X1876676Y826187D1*
X1874244Y823756D1*
X1871868Y816571D1*
Y795071D1*
X1922108D1*
X1895800Y811817D2*
X1922108Y828564D1*
X1881485Y844003D2*
X1879053Y848812D1*
X1871923Y855997D1*
X1922108D1*
X1883861Y873868D2*
X1881485D1*
X1876676Y876244D1*
X1874300Y878621D1*
X1871923Y883429D1*
Y892991D1*
X1874300Y897744D1*
X1876676Y900121D1*
X1881485Y902553D1*
X1886238D1*
X1891046Y900121D1*
X1898176Y895368D1*
X1922108Y871436D1*
Y904929D1*
X1695800Y795071D2*
Y816571D1*
X1693368Y823756D1*
X1690991Y826187D1*
X1686238Y828564D1*
X1681429D1*
X1676676Y826187D1*
X1674244Y823756D1*
X1671868Y816571D1*
Y795071D1*
X1722108D1*
X1695800Y811817D2*
X1722108Y828564D1*
X1681485Y844003D2*
X1679053Y848812D1*
X1671923Y855997D1*
X1722108D1*
X1671923Y876244D2*
Y902497D1*
X1691046Y888183D1*
Y895368D1*
X1693423Y900121D1*
X1695800Y902497D1*
X1702985Y904929D1*
X1707738D1*
X1714923Y902497D1*
X1719731Y897744D1*
X1722108Y890559D1*
Y883374D1*
X1719731Y876244D1*
X1717299Y873868D1*
X1712546Y871436D1*
X1595800Y793882D2*
Y815382D1*
X1593368Y822567D1*
X1590991Y824999D1*
X1586238Y827376D1*
X1581429D1*
X1576676Y824999D1*
X1574244Y822567D1*
X1571868Y815382D1*
Y793882D1*
X1622108D1*
X1595800Y810629D2*
X1622108Y827376D1*
X1581485Y842815D2*
X1579053Y847623D1*
X1571923Y854808D1*
X1622108D1*
Y894179D2*
X1571923D1*
X1605361Y870248D1*
Y906118D1*
X1395800Y795071D2*
Y816571D1*
X1393368Y823756D1*
X1390991Y826187D1*
X1386238Y828564D1*
X1381429D1*
X1376676Y826187D1*
X1374244Y823756D1*
X1371868Y816571D1*
Y795071D1*
X1422108D1*
X1395800Y811817D2*
X1422108Y828564D1*
X1381485Y844003D2*
X1379053Y848812D1*
X1371923Y855997D1*
X1422108D1*
X1371923Y900121D2*
Y876244D1*
X1393423Y873868D1*
X1391046Y876244D1*
X1388614Y883429D1*
Y890559D1*
X1391046Y897744D1*
X1395800Y902553D1*
X1402985Y904929D1*
X1407738D1*
X1414923Y902553D1*
X1419731Y897744D1*
X1422108Y890559D1*
Y883429D1*
X1419731Y876244D1*
X1417299Y873868D1*
X1412546Y871436D1*
X1495800Y796287D2*
Y817786D1*
X1493368Y824971D1*
X1490991Y827403D1*
X1486238Y829780D1*
X1481429D1*
X1476676Y827403D1*
X1474244Y824971D1*
X1471868Y817786D1*
Y796287D1*
X1522108D1*
X1495800Y813033D2*
X1522108Y829780D1*
X1481485Y845219D2*
X1479053Y850028D1*
X1471923Y857213D1*
X1522108D1*
X1479053Y901337D2*
X1474300Y898960D1*
X1471923Y891775D1*
Y887022D1*
X1474300Y879837D1*
X1481485Y875029D1*
X1493423Y872652D1*
X1505361D1*
X1514923Y875029D1*
X1519731Y879837D1*
X1522108Y887022D1*
Y889399D1*
X1519731Y896528D1*
X1514923Y901337D1*
X1507738Y903713D1*
X1505361D1*
X1498176Y901337D1*
X1493423Y896528D1*
X1491046Y889399D1*
Y887022D1*
X1493423Y879837D1*
X1498176Y875029D1*
X1505361Y872652D1*
X1295800Y795071D2*
Y816571D1*
X1293368Y823756D1*
X1290991Y826187D1*
X1286238Y828564D1*
X1281429D1*
X1276676Y826187D1*
X1274244Y823756D1*
X1271868Y816571D1*
Y795071D1*
X1322108D1*
X1295800Y811817D2*
X1322108Y828564D1*
X1281485Y844003D2*
X1279053Y848812D1*
X1271923Y855997D1*
X1322108D1*
Y880998D2*
X1271923Y904929D1*
Y871436D1*
X1195800Y795098D2*
Y816598D1*
X1193368Y823783D1*
X1190991Y826215D1*
X1186238Y828592D1*
X1181429D1*
X1176676Y826215D1*
X1174244Y823783D1*
X1171868Y816598D1*
Y795098D1*
X1222108D1*
X1195800Y811845D2*
X1222108Y828592D1*
X1181485Y844031D2*
X1179053Y848839D1*
X1171923Y856024D1*
X1222108D1*
X1171923Y883402D2*
X1174300Y876272D1*
X1179053Y873840D1*
X1183861D1*
X1188614Y876272D1*
X1191046Y881025D1*
X1193423Y890587D1*
X1195800Y897772D1*
X1200608Y902525D1*
X1205361Y904902D1*
X1212546D1*
X1217299Y902525D1*
X1219731Y900149D1*
X1222108Y892963D1*
Y883402D1*
X1219731Y876272D1*
X1217299Y873840D1*
X1212546Y871464D1*
X1205361D1*
X1200608Y873840D1*
X1195800Y878649D1*
X1193423Y885778D1*
X1191046Y895340D1*
X1188614Y900149D1*
X1183861Y902525D1*
X1179053D1*
X1174300Y900149D1*
X1171923Y892963D1*
Y883402D1*
X995800Y796259D2*
Y817759D1*
X993368Y824944D1*
X990991Y827376D1*
X986238Y829752D1*
X981429D1*
X976676Y827376D1*
X974244Y824944D1*
X971868Y817759D1*
Y796259D1*
X1022108D1*
X995800Y813006D2*
X1022108Y829752D1*
X981485Y845192D2*
X979053Y850000D1*
X971923Y857185D1*
X1022108D1*
X988614Y903741D2*
X995800Y901309D1*
X1000608Y896556D1*
X1002985Y889371D1*
Y886994D1*
X1000608Y879809D1*
X995800Y875056D1*
X988614Y872624D1*
X986238D1*
X979053Y875056D1*
X974300Y879809D1*
X971923Y886994D1*
Y889371D1*
X974300Y896556D1*
X979053Y901309D1*
X988614Y903741D1*
X1000608D1*
X1012546Y901309D1*
X1019731Y896556D1*
X1022108Y889371D1*
Y884618D1*
X1019731Y877433D1*
X1014923Y875056D1*
X1095800Y784321D2*
Y805821D1*
X1093368Y813006D1*
X1090991Y815437D1*
X1086238Y817814D1*
X1081429D1*
X1076676Y815437D1*
X1074244Y813006D1*
X1071868Y805821D1*
Y784321D1*
X1122108D1*
X1095800Y801067D2*
X1122108Y817814D1*
X1083861Y835685D2*
X1081485D1*
X1076676Y838062D1*
X1074300Y840438D1*
X1071923Y845247D1*
Y854808D1*
X1074300Y859562D1*
X1076676Y861938D1*
X1081485Y864370D1*
X1086238D1*
X1091046Y861938D1*
X1098176Y857185D1*
X1122108Y833253D1*
Y866747D1*
X1071923Y896556D2*
X1074300Y889371D1*
X1081485Y884563D1*
X1093423Y882186D1*
X1100608D1*
X1112546Y884563D1*
X1119731Y889371D1*
X1122108Y896556D1*
Y901309D1*
X1119731Y908494D1*
X1112546Y913247D1*
X1100608Y915679D1*
X1093423D1*
X1081485Y913247D1*
X1074300Y908494D1*
X1071923Y901309D1*
Y896556D1*
X1081485Y913247D2*
X1112546Y884563D1*
X895800Y795071D2*
Y816571D1*
X893368Y823756D1*
X890991Y826187D1*
X886238Y828564D1*
X881429D1*
X876676Y826187D1*
X874244Y823756D1*
X871868Y816571D1*
Y795071D1*
X922108D1*
X895800Y811817D2*
X922108Y828564D1*
X883861Y846435D2*
X881485D1*
X876676Y848812D1*
X874300Y851188D1*
X871923Y855997D1*
Y865558D1*
X874300Y870312D1*
X876676Y872688D1*
X881485Y875120D1*
X886238D1*
X891046Y872688D1*
X898176Y867935D1*
X922108Y844003D1*
Y877497D1*
X881485Y892936D2*
X879053Y897744D1*
X871923Y904929D1*
X922108D1*
X795800Y784321D2*
Y805821D1*
X793368Y813006D1*
X790991Y815437D1*
X786238Y817814D1*
X781429D1*
X776676Y815437D1*
X774244Y813006D1*
X771868Y805821D1*
Y784321D1*
X822108D1*
X795800Y801067D2*
X822108Y817814D1*
X783861Y835685D2*
X781485D1*
X776676Y838062D1*
X774300Y840438D1*
X771923Y845247D1*
Y854808D1*
X774300Y859562D1*
X776676Y861938D1*
X781485Y864370D1*
X786238D1*
X791046Y861938D1*
X798176Y857185D1*
X822108Y833253D1*
Y866747D1*
X783861Y884618D2*
X781485D1*
X776676Y886994D1*
X774300Y889371D1*
X771923Y894179D1*
Y903741D1*
X774300Y908494D1*
X776676Y910871D1*
X781485Y913303D1*
X786238D1*
X791046Y910871D1*
X798176Y906118D1*
X822108Y882186D1*
Y915679D1*
X1995800Y784321D2*
Y805821D1*
X1993368Y813006D1*
X1990991Y815437D1*
X1986238Y817814D1*
X1981429D1*
X1976676Y815437D1*
X1974244Y813006D1*
X1971868Y805821D1*
Y784321D1*
X2022108D1*
X1995800Y801067D2*
X2022108Y817814D1*
X1983861Y835685D2*
X1981485D1*
X1976676Y838062D1*
X1974300Y840438D1*
X1971923Y845247D1*
Y854808D1*
X1974300Y859562D1*
X1976676Y861938D1*
X1981485Y864370D1*
X1986238D1*
X1991046Y861938D1*
X1998176Y857185D1*
X2022108Y833253D1*
Y866747D1*
X1971923Y886994D2*
Y913247D1*
X1991046Y898933D1*
Y906118D1*
X1993423Y910871D1*
X1995800Y913247D1*
X2002985Y915679D1*
X2007738D1*
X2014923Y913247D1*
X2019731Y908494D1*
X2022108Y901309D1*
Y894124D1*
X2019731Y886994D1*
X2017299Y884618D1*
X2012546Y882186D1*
X495800Y583132D2*
Y604632D1*
X493368Y611817D1*
X490991Y614249D1*
X486238Y616626D1*
X481429D1*
X476676Y614249D1*
X474244Y611817D1*
X471868Y604632D1*
Y583132D1*
X522108D1*
X495800Y599879D2*
X522108Y616626D1*
X483861Y634497D2*
X481485D1*
X476676Y636873D1*
X474300Y639250D1*
X471923Y644059D1*
Y653620D1*
X474300Y658373D1*
X476676Y660750D1*
X481485Y663182D1*
X486238D1*
X491046Y660750D1*
X498176Y655997D1*
X522108Y632065D1*
Y665558D1*
Y704929D2*
X471923D1*
X505361Y680998D1*
Y716868D1*
X420800Y584321D2*
Y605821D1*
X418368Y613006D1*
X415991Y615437D1*
X411238Y617814D1*
X406429D1*
X401676Y615437D1*
X399244Y613006D1*
X396868Y605821D1*
Y584321D1*
X447108D1*
X420800Y601067D2*
X447108Y617814D1*
X408861Y635685D2*
X406485D1*
X401676Y638062D1*
X399300Y640438D1*
X396923Y645247D1*
Y654808D1*
X399300Y659562D1*
X401676Y661938D1*
X406485Y664370D1*
X411238D1*
X416046Y661938D1*
X423176Y657185D1*
X447108Y633253D1*
Y666747D1*
X396923Y710871D2*
Y686994D1*
X418423Y684618D1*
X416046Y686994D1*
X413614Y694179D1*
Y701309D1*
X416046Y708494D1*
X420800Y713303D1*
X427985Y715679D1*
X432738D1*
X439923Y713303D1*
X444731Y708494D1*
X447108Y701309D1*
Y694179D1*
X444731Y686994D1*
X442299Y684618D1*
X437546Y682186D1*
X345800Y585537D2*
Y607037D1*
X343368Y614222D1*
X340991Y616653D1*
X336238Y619030D1*
X331429D1*
X326676Y616653D1*
X324244Y614222D1*
X321868Y607037D1*
Y585537D1*
X372108D1*
X345800Y602283D2*
X372108Y619030D1*
X333861Y636901D2*
X331485D1*
X326676Y639278D1*
X324300Y641654D1*
X321923Y646463D1*
Y656024D1*
X324300Y660778D1*
X326676Y663154D1*
X331485Y665586D1*
X336238D1*
X341046Y663154D1*
X348176Y658401D1*
X372108Y634469D1*
Y667963D1*
X329053Y712087D2*
X324300Y709710D1*
X321923Y702525D1*
Y697772D1*
X324300Y690587D1*
X331485Y685778D1*
X343423Y683402D1*
X355361D1*
X364923Y685778D1*
X369731Y690587D1*
X372108Y697772D1*
Y700149D1*
X369731Y707278D1*
X364923Y712087D1*
X357738Y714463D1*
X355361D1*
X348176Y712087D1*
X343423Y707278D1*
X341046Y700149D1*
Y697772D1*
X343423Y690587D1*
X348176Y685778D1*
X355361Y683402D1*
X3169537Y1553132D2*
Y1517262D1*
X3171914Y1510077D1*
X3176722Y1505324D1*
X3183907Y1502892D1*
X3188660D1*
X3195845Y1505324D1*
X3200654Y1510077D1*
X3203030Y1517262D1*
Y1553132D1*
X3218470Y1543515D2*
X3223278Y1545947D1*
X3230463Y1553077D1*
Y1502892D1*
X2158787Y1553132D2*
Y1517262D1*
X2161164Y1510077D1*
X2165972Y1505324D1*
X2173157Y1502892D1*
X2177910D1*
X2185095Y1505324D1*
X2189904Y1510077D1*
X2192280Y1517262D1*
Y1553132D1*
X2210151Y1541139D2*
Y1543515D1*
X2212528Y1548324D1*
X2214905Y1550700D1*
X2219713Y1553077D1*
X2229275D1*
X2234028Y1550700D1*
X2236405Y1548324D1*
X2238836Y1543515D1*
Y1538762D1*
X2236405Y1533954D1*
X2231651Y1526824D1*
X2207720Y1502892D1*
X2241213D1*
X1158787Y1553132D2*
Y1517262D1*
X1161164Y1510077D1*
X1165972Y1505324D1*
X1173157Y1502892D1*
X1177910D1*
X1185095Y1505324D1*
X1189904Y1510077D1*
X1192280Y1517262D1*
Y1553132D1*
X1212528Y1553077D2*
X1238781D1*
X1224466Y1533954D1*
X1231651D1*
X1236405Y1531577D1*
X1238781Y1529200D1*
X1241213Y1522015D1*
Y1517262D1*
X1238781Y1510077D1*
X1234028Y1505269D1*
X1226843Y1502892D1*
X1219658D1*
X1212528Y1505269D1*
X1210151Y1507701D1*
X1207720Y1512454D1*
M02*
