G04 DipTrace 2.4.0.2*
%INBottomSilk.gbr*%
%MOIN*%
%ADD10C,0.01*%
%ADD66C,0.0124*%
%ADD67C,0.0154*%
%FSLAX44Y44*%
G04*
G70*
G90*
G75*
G01*
%LNBotSilk*%
%LPD*%
X3937Y21437D2*
D10*
X7937D1*
Y16437D1*
X3937D1*
Y21437D1*
Y8937D2*
X8937D1*
Y5437D1*
X3937D1*
Y8937D1*
X22487Y21625D2*
D66*
X22563Y21549D1*
X22640Y21434D1*
X22716Y21281D1*
X22754Y21089D1*
Y20936D1*
X22716Y20745D1*
X22640Y20592D1*
X22563Y20477D1*
X22487Y20401D1*
X21666Y21225D2*
X21704Y21301D1*
X21781Y21378D1*
X21857Y21416D1*
X22010D1*
X22087Y21378D1*
X22163Y21301D1*
X22201Y21225D1*
X22239Y21110D1*
Y20918D1*
X22201Y20804D1*
X22163Y20727D1*
X22087Y20651D1*
X22010Y20612D1*
X21857D1*
X21781Y20651D1*
X21704Y20727D1*
X21666Y20804D1*
X21419Y21625D2*
X21342Y21549D1*
X21266Y21434D1*
X21189Y21281D1*
X21151Y21089D1*
Y20936D1*
X21189Y20745D1*
X21266Y20592D1*
X21342Y20477D1*
X21419Y20401D1*
X20865Y21224D2*
Y21262D1*
X20827Y21339D1*
X20789Y21377D1*
X20712Y21415D1*
X20559D1*
X20483Y21377D1*
X20445Y21339D1*
X20406Y21262D1*
Y21186D1*
X20445Y21109D1*
X20521Y20995D1*
X20904Y20612D1*
X20368D1*
X19891Y21415D2*
X20006Y21377D1*
X20083Y21262D1*
X20121Y21071D1*
Y20956D1*
X20083Y20765D1*
X20006Y20650D1*
X19891Y20612D1*
X19815D1*
X19700Y20650D1*
X19624Y20765D1*
X19585Y20956D1*
Y21071D1*
X19624Y21262D1*
X19700Y21377D1*
X19815Y21415D1*
X19891D1*
X19624Y21262D2*
X20083Y20765D1*
X19338Y21262D2*
X19261Y21301D1*
X19146Y21415D1*
Y20612D1*
X18440Y21301D2*
X18478Y21377D1*
X18593Y21415D1*
X18669D1*
X18784Y21377D1*
X18861Y21262D1*
X18899Y21071D1*
Y20880D1*
X18861Y20727D1*
X18784Y20650D1*
X18669Y20612D1*
X18631D1*
X18517Y20650D1*
X18440Y20727D1*
X18402Y20842D1*
Y20880D1*
X18440Y20995D1*
X18517Y21071D1*
X18631Y21109D1*
X18669D1*
X18784Y21071D1*
X18861Y20995D1*
X18899Y20880D1*
X16764Y20612D2*
X17071Y21416D1*
X17377Y20612D1*
X17262Y20880D2*
X16879D1*
X16517Y21416D2*
Y20612D1*
X15981Y21416D2*
X16517Y20880D1*
X16326Y21072D2*
X15981Y20612D1*
X15275Y21301D2*
X15313Y21377D1*
X15428Y21415D1*
X15504D1*
X15619Y21377D1*
X15696Y21262D1*
X15734Y21071D1*
Y20880D1*
X15696Y20727D1*
X15619Y20650D1*
X15504Y20612D1*
X15466D1*
X15352Y20650D1*
X15275Y20727D1*
X15237Y20842D1*
Y20880D1*
X15275Y20995D1*
X15352Y21071D1*
X15466Y21109D1*
X15504D1*
X15619Y21071D1*
X15696Y20995D1*
X15734Y20880D1*
X14990Y21416D2*
Y20612D1*
X14722D1*
X14607Y20651D1*
X14531Y20727D1*
X14493Y20804D1*
X14454Y20918D1*
Y21110D1*
X14493Y21225D1*
X14531Y21301D1*
X14607Y21378D1*
X14722Y21416D1*
X14990D1*
X13672D2*
Y20612D1*
X14207Y21416D1*
Y20612D1*
X32705Y12696D2*
D67*
X32275D1*
X32131Y12745D1*
X32083Y12793D1*
X32035Y12888D1*
Y12984D1*
X32083Y13079D1*
X32131Y13127D1*
X32275Y13175D1*
X32705D1*
Y12170D1*
X32370Y12696D2*
X32035Y12170D1*
X31726Y13175D2*
X31057Y12170D1*
Y13175D2*
X31726Y12170D1*
X29155Y13175D2*
X29776D1*
Y12170D1*
X29155D1*
X29776Y12696D2*
X29393D1*
X28846Y12840D2*
Y12170D1*
Y12649D2*
X28702Y12793D1*
X28606Y12840D1*
X28463D1*
X28367Y12793D1*
X28320Y12649D1*
Y12170D1*
Y12649D2*
X28176Y12793D1*
X28080Y12840D1*
X27937D1*
X27841Y12793D1*
X27792Y12649D1*
Y12170D1*
X27483Y12840D2*
Y12361D1*
X27436Y12219D1*
X27340Y12170D1*
X27196D1*
X27101Y12219D1*
X26957Y12361D1*
Y12840D2*
Y12170D1*
X26649Y13175D2*
Y12170D1*
X25766Y12840D2*
Y12170D1*
Y12696D2*
X25861Y12793D1*
X25957Y12840D1*
X26100D1*
X26196Y12793D1*
X26291Y12696D1*
X26340Y12553D1*
Y12458D1*
X26291Y12314D1*
X26196Y12219D1*
X26100Y12170D1*
X25957D1*
X25861Y12219D1*
X25766Y12314D1*
X25314Y13175D2*
Y12361D1*
X25266Y12219D1*
X25170Y12170D1*
X25075D1*
X25457Y12840D2*
X25122D1*
X24527D2*
X24622Y12793D1*
X24718Y12696D1*
X24766Y12553D1*
Y12458D1*
X24718Y12314D1*
X24622Y12219D1*
X24527Y12170D1*
X24384D1*
X24287Y12219D1*
X24192Y12314D1*
X24144Y12458D1*
Y12553D1*
X24192Y12696D1*
X24287Y12793D1*
X24384Y12840D1*
X24527D1*
X23835D2*
Y12170D1*
Y12553D2*
X23786Y12696D1*
X23691Y12793D1*
X23595Y12840D1*
X23451D1*
X21501Y13031D2*
X21596Y13127D1*
X21739Y13175D1*
X21931D1*
X22074Y13127D1*
X22171Y13031D1*
Y12936D1*
X22122Y12840D1*
X22074Y12793D1*
X21979Y12745D1*
X21692Y12649D1*
X21596Y12601D1*
X21548Y12553D1*
X21501Y12458D1*
Y12314D1*
X21596Y12219D1*
X21739Y12170D1*
X21931D1*
X22074Y12219D1*
X22171Y12314D1*
X21192Y13175D2*
Y12170D1*
Y12649D2*
X21048Y12793D1*
X20952Y12840D1*
X20808D1*
X20713Y12793D1*
X20666Y12649D1*
Y12170D1*
X20357Y13175D2*
X20309Y13127D1*
X20261Y13175D1*
X20309Y13224D1*
X20357Y13175D1*
X20309Y12840D2*
Y12170D1*
X19952Y12553D2*
X19378D1*
Y12649D1*
X19426Y12745D1*
X19473Y12793D1*
X19570Y12840D1*
X19713D1*
X19808Y12793D1*
X19904Y12696D1*
X19952Y12553D1*
Y12458D1*
X19904Y12314D1*
X19808Y12219D1*
X19713Y12170D1*
X19570D1*
X19473Y12219D1*
X19378Y12314D1*
X19069Y13175D2*
Y12170D1*
X18187Y13175D2*
Y12170D1*
Y12696D2*
X18282Y12793D1*
X18378Y12840D1*
X18522D1*
X18617Y12793D1*
X18713Y12696D1*
X18761Y12553D1*
Y12458D1*
X18713Y12314D1*
X18617Y12219D1*
X18522Y12170D1*
X18378D1*
X18282Y12219D1*
X18187Y12314D1*
X16537Y12840D2*
X16249Y12170D1*
X15963Y12840D1*
X15176Y12170D2*
Y13174D1*
X15654Y12505D1*
X14937D1*
M02*
