G04 DipTrace 2.4.0.2*
%INBottom.gbr*%
%MOIN*%
%ADD10C,0.01*%
%ADD16C,0.06*%
%ADD17R,0.06X0.06*%
%ADD18C,0.05*%
%ADD19R,0.05X0.05*%
%ADD20R,0.0591X0.0591*%
%ADD22C,0.0591*%
%ADD23R,0.0472X0.0472*%
%ADD25C,0.0472*%
%ADD26C,0.06*%
%ADD27C,0.05*%
%ADD28C,0.01*%
%ADD29C,0.04*%
%FSLAX44Y44*%
G04*
G70*
G90*
G75*
G01*
%LNBottom*%
%LPD*%
X39687Y18937D2*
D10*
X39437D1*
X37437Y16937D1*
X36687D1*
X35187Y18437D1*
X32437D1*
X30937Y16937D1*
X39687Y15937D2*
X39437D1*
X38687Y15187D1*
X26937D1*
X25187Y16937D1*
X24187D1*
X30937Y18437D2*
X29437D1*
X28937Y17937D1*
Y16937D1*
X39687Y17937D2*
X39437D1*
X37687Y16187D1*
X27437D1*
X26187Y17437D1*
Y18437D1*
X25187Y19437D1*
X19437D1*
X18687Y18687D1*
Y17437D1*
X18187Y16937D1*
X35937D2*
X35437Y17437D1*
X33437D1*
X32937Y16937D1*
X16187D2*
X16687Y17437D1*
Y19187D1*
X17437Y19937D1*
X26937D1*
X27687Y19187D1*
X35687D1*
X36437Y19937D1*
X39687D1*
X12187Y16937D2*
X12687Y17437D1*
Y18687D1*
X15187Y21187D1*
X35187D1*
X35937Y20437D1*
X39687Y16937D2*
X39437D1*
X38187Y15687D1*
X27187D1*
X25687Y17187D1*
Y18187D1*
X24937Y18937D1*
X23437D1*
X22687Y18187D1*
Y17437D1*
X22187Y16937D1*
X40187Y19937D2*
X40937D1*
X40187Y18937D2*
X40937D1*
X40187Y17937D2*
X40937D1*
X40187Y16937D2*
X40937D1*
X40187Y15937D2*
X40937D1*
X37687Y7937D2*
X37187D1*
X36937Y8187D1*
Y13437D1*
X37187Y13687D1*
X38187D1*
X38437Y13437D1*
Y12187D1*
X40187Y10437D1*
X41437D1*
X41937Y9937D1*
X37687Y8937D2*
X40937D1*
X37687Y10937D2*
X38187D1*
X39687Y9437D1*
X41437D1*
X41937Y8937D1*
X7937Y15687D2*
X8687Y14937D1*
X10187D1*
X10687Y15437D1*
Y16187D1*
X9437Y17437D1*
Y19687D1*
X10437Y20687D1*
X11687D1*
X13437Y22437D1*
X34937D1*
X35937Y23437D1*
Y23937D1*
X7937Y22187D2*
X8437Y21687D1*
X11187D1*
X12437Y22937D1*
X33437D1*
X33937Y23437D1*
Y23937D1*
X22937Y14437D2*
X22187Y15187D1*
X18437D1*
X17687Y15937D1*
Y16437D1*
X27687Y20187D2*
X28187Y20687D1*
X30687D1*
X30937Y20437D1*
Y19937D1*
X11937Y14437D2*
X11187Y15187D1*
Y17937D1*
X14937Y21687D1*
X32937D1*
X19687Y16437D2*
Y15937D1*
X19937Y15687D1*
X23187D1*
X23687Y15187D1*
X26187D1*
X26937Y14437D1*
X8937Y15687D2*
Y19937D1*
X10187Y21187D1*
X11437D1*
X12937Y22687D1*
X34187D1*
X34937Y23437D1*
Y23937D1*
X8937Y22187D2*
X9437Y22687D1*
X11437D1*
X11937Y23187D1*
X32687D1*
X32937Y23437D1*
Y23937D1*
D29*
X30937Y18437D3*
X35937Y16937D3*
Y20437D3*
X27687Y20187D3*
X32937Y21687D3*
D16*
X36937Y18937D3*
D17*
Y17937D3*
D16*
X26937Y18937D3*
D17*
Y17937D3*
D16*
X10187Y19437D3*
D17*
Y18437D3*
X9937Y12937D3*
D16*
Y13937D3*
D17*
X34937Y12937D3*
D16*
Y13937D3*
D18*
X5937Y5437D3*
D19*
X4937D3*
D18*
X5937Y8937D3*
D19*
X4937D3*
D18*
X5937Y12437D3*
D19*
X4937D3*
D16*
X31937Y7437D3*
X30937D3*
X29937D3*
X28937D3*
X27937D3*
X26937D3*
X25937D3*
X24937D3*
X23937D3*
X22937D3*
X21937D3*
X20937D3*
X19937D3*
X18937D3*
X17937D3*
X16937D3*
X15937D3*
X14937D3*
X13937D3*
D17*
X12937D3*
D16*
Y8437D3*
X13937D3*
X14937D3*
X15937D3*
X16937D3*
X17937D3*
X18937D3*
X19937D3*
X20937D3*
X21937D3*
X22937D3*
X23937D3*
X24937D3*
X25937D3*
X26937D3*
X27937D3*
X28937D3*
X29937D3*
X30937D3*
X31937D3*
D20*
X23937Y4937D3*
D22*
X24937D3*
X25937D3*
X26937D3*
X27937D3*
X28937D3*
X29937D3*
X30937D3*
D20*
X14937D3*
D22*
X15937D3*
X16937D3*
X17937D3*
X18937D3*
X19937D3*
X20937D3*
X21937D3*
D20*
X28937Y23937D3*
D22*
X27937D3*
X26937D3*
X25937D3*
X24937D3*
X23937D3*
X22937D3*
X21937D3*
D20*
X11337D3*
D22*
X12337D3*
X13337D3*
X14337D3*
X15337D3*
X16337D3*
X17337D3*
X18337D3*
X19337D3*
X20337D3*
D20*
X32937Y4937D3*
D22*
X33937D3*
X34937D3*
X35937D3*
X36937D3*
X37937D3*
X38937D3*
X39937D3*
D20*
X37937Y23937D3*
D22*
X36937D3*
X35937D3*
X34937D3*
X33937D3*
X32937D3*
X31937D3*
X30937D3*
D20*
X40937D3*
D22*
X41937D3*
X40937Y22937D3*
X41937D3*
X40937Y21937D3*
X41937D3*
X40937Y20937D3*
X41937D3*
X40937Y19937D3*
X41937D3*
X40937Y18937D3*
X41937D3*
X40937Y17937D3*
X41937D3*
X40937Y16937D3*
X41937D3*
X40937Y15937D3*
X41937D3*
X40937Y14937D3*
X41937D3*
X40937Y13937D3*
X41937D3*
X40937Y12937D3*
X41937D3*
X40937Y11937D3*
X41937D3*
X40937Y10937D3*
X41937D3*
X40937Y9937D3*
X41937D3*
X40937Y8937D3*
X41937D3*
X40937Y7937D3*
X41937D3*
X40937Y6937D3*
X41937D3*
D20*
X4937Y15687D3*
D22*
X5937D3*
X6937D3*
X7937D3*
X8937D3*
X9937D3*
D20*
X4937Y22187D3*
D22*
X5937D3*
X6937D3*
X7937D3*
X8937D3*
X9937D3*
D20*
X37687Y6937D3*
D22*
Y7937D3*
Y8937D3*
Y9937D3*
Y10937D3*
Y11937D3*
Y12937D3*
D23*
X21687Y16437D3*
D25*
X22187Y16937D3*
X21687Y17437D3*
D23*
X23687Y16437D3*
D25*
X24187Y16937D3*
X23687Y17437D3*
D23*
X19687Y16437D3*
D25*
X20187Y16937D3*
X19687Y17437D3*
D23*
X15687Y16437D3*
D25*
X16187Y16937D3*
X15687Y17437D3*
D23*
X17687Y16437D3*
D25*
X18187Y16937D3*
X17687Y17437D3*
D23*
X13687Y16437D3*
D25*
X14187Y16937D3*
X13687Y17437D3*
D23*
X11687Y16437D3*
D25*
X12187Y16937D3*
X11687Y17437D3*
D16*
X32937Y14437D3*
D26*
Y10437D3*
D16*
X31937Y14437D3*
D26*
Y10437D3*
D16*
X29937Y14437D3*
D26*
Y10437D3*
D16*
X30937Y14437D3*
D26*
Y10437D3*
D16*
X28937Y14437D3*
D26*
Y10437D3*
D16*
X27937Y14437D3*
D26*
Y10437D3*
D16*
X25937Y14437D3*
D26*
Y10437D3*
D16*
X26937Y14437D3*
D26*
Y10437D3*
D16*
X24937Y14437D3*
D26*
Y10437D3*
D16*
X21937Y14437D3*
D26*
Y10437D3*
D16*
X22937Y14437D3*
D26*
Y10437D3*
D16*
X20937Y14437D3*
D26*
Y10437D3*
D16*
X19937Y14437D3*
D26*
Y10437D3*
D16*
X17937Y14437D3*
D26*
Y10437D3*
D16*
X18937Y14437D3*
D26*
Y10437D3*
D16*
X16937Y14437D3*
D26*
Y10437D3*
D16*
X15937Y14437D3*
D26*
Y10437D3*
D16*
X13937Y14437D3*
D26*
Y10437D3*
D16*
X14937Y14437D3*
D26*
Y10437D3*
D16*
X12937Y14437D3*
D26*
Y10437D3*
D16*
X11937Y14437D3*
D26*
Y10437D3*
D16*
X23937Y14437D3*
D26*
Y10437D3*
D18*
X8937Y12437D3*
D27*
Y9437D3*
D18*
X8187Y12437D3*
D27*
Y9437D3*
D18*
X7437Y12437D3*
D27*
Y9437D3*
D20*
X34937Y19937D3*
D22*
X33937D3*
X32937D3*
X31937D3*
X30937D3*
X29937D3*
X28937D3*
Y16937D3*
X29937D3*
X30937D3*
X31937D3*
X32937D3*
X33937D3*
X34937D3*
D28*
X40187D3*
X39687D3*
Y18937D3*
X40187D3*
Y15937D3*
X39687D3*
X40187Y19937D3*
X39687D3*
X40187Y17937D3*
X39687D3*
X40187Y16937D2*
D10*
X39687D1*
Y18937D2*
X40187D1*
Y15937D2*
X39687D1*
X40187Y19937D2*
X39687D1*
X40187Y17937D2*
X39687D1*
M02*
