G04 DipTrace 2.4.0.2*
%INTop.gbr*%
%MOIN*%
%ADD10C,0.01*%
%ADD16C,0.06*%
%ADD17R,0.06X0.06*%
%ADD18C,0.05*%
%ADD19R,0.05X0.05*%
%ADD20R,0.0591X0.0591*%
%ADD22C,0.0591*%
%ADD23R,0.0472X0.0472*%
%ADD25C,0.0472*%
%ADD26C,0.06*%
%ADD27C,0.05*%
%ADD28C,0.01*%
%ADD29C,0.04*%
%FSLAX44Y44*%
G04*
G70*
G90*
G75*
G01*
%LNTop*%
%LPD*%
X39937Y18437D2*
D10*
X30937D1*
X39937Y16437D2*
X36437D1*
X35937Y16937D1*
Y20437D2*
X39937D1*
X27687Y22437D2*
X29687D1*
X29937Y22187D1*
Y19937D1*
X28187Y22937D2*
X31187D1*
X31937Y22187D1*
Y19937D1*
X39937Y17437D2*
X37937D1*
X37687Y17187D1*
X36437D1*
X35687Y17937D1*
X32937D1*
X32437Y17437D1*
Y16687D1*
X31187Y15437D1*
X28437D1*
X27187Y16687D1*
X25937D1*
X24437Y18187D1*
X21437D1*
X20187Y16937D1*
X14187D2*
X14687Y17437D1*
Y18937D1*
X15437Y19687D1*
X27437D1*
X28187Y18937D1*
X35687D1*
X36437Y19687D1*
X37437D1*
X37687Y19437D1*
X39937D1*
X26937Y23937D2*
Y23187D1*
X27187Y22937D1*
X27687D1*
X25937Y23937D2*
Y22937D1*
X26437Y22437D1*
X27187D1*
X8937Y12437D2*
Y14687D1*
X9437Y15187D1*
Y16187D1*
X13937Y20687D1*
X17687D1*
X18337Y21337D1*
Y23937D1*
X8187Y12437D2*
Y14937D1*
X8437Y15187D1*
Y18937D1*
X10687Y21187D1*
X16937D1*
X17337Y21587D1*
Y23937D1*
X7437Y12437D2*
Y18687D1*
X10437Y21687D1*
X15937D1*
X16337Y22087D1*
Y23937D1*
X40437Y20437D2*
X41437D1*
X41937Y19937D1*
X40437Y19437D2*
X41437D1*
X41937Y18937D1*
X40437Y18437D2*
X41437D1*
X41937Y17937D1*
X40437Y17437D2*
X41437D1*
X41937Y16937D1*
X40437Y16437D2*
X41437D1*
X41937Y15937D1*
X37687Y9937D2*
X38437D1*
X40437Y7937D1*
X40937D1*
X37687Y11937D2*
X39937Y9687D1*
Y9187D1*
X40687Y8437D1*
X41437D1*
X41937Y7937D1*
X8937Y9437D2*
Y7687D1*
X6687Y5437D1*
X5937D1*
X7437Y9437D2*
X6687Y10187D1*
Y11687D1*
X5937Y12437D1*
X8187Y9437D2*
Y8687D1*
X7687Y8187D1*
X6687D1*
X5937Y8937D1*
X23937Y14437D2*
Y12687D1*
X24937Y11687D1*
Y10437D1*
Y9937D1*
X25937Y8937D1*
Y8437D1*
X23937Y14437D2*
X23187Y15187D1*
X19937D1*
X19187Y15937D1*
Y18187D1*
X19687Y18687D1*
X24687D1*
X26187Y17187D1*
X27437D1*
X28687Y15937D1*
X30937D1*
X31937Y16937D1*
X30937Y14437D2*
Y12687D1*
X29937Y11687D1*
Y10437D1*
Y9937D1*
X30937Y8937D1*
Y8437D1*
X23687Y16437D2*
X25437D1*
X25687Y16187D1*
X26937D1*
X28187Y14937D1*
X30437D1*
X30937Y14437D1*
X22937D2*
Y12687D1*
X21937Y11687D1*
Y10437D1*
Y9937D1*
X22437Y9437D1*
X23437D1*
X23937Y8937D1*
Y8437D1*
X29937Y16937D2*
X28437Y18437D1*
X26187D1*
X25488Y19136D1*
X17386D1*
X16937Y18687D1*
Y16687D1*
X17187Y16437D1*
X17687D1*
X31937Y14437D2*
Y12687D1*
X32937Y11687D1*
Y10437D1*
Y9937D1*
X31937Y8937D1*
Y8437D1*
Y14437D2*
Y14937D1*
X33937Y16937D1*
X19937Y14437D2*
Y12687D1*
X20937Y11687D1*
Y10437D1*
Y9937D1*
X21937Y8937D1*
Y8437D1*
X15687Y16437D2*
Y15937D1*
X15937Y15687D1*
X18687D1*
X19937Y14437D1*
X13937Y10437D2*
Y11687D1*
X14937Y12687D1*
Y14437D1*
X13937Y10437D2*
Y9937D1*
X14437Y9437D1*
X15437D1*
X15937Y8937D1*
Y8437D1*
X11687Y16437D2*
Y15937D1*
X12437Y15187D1*
X14187D1*
X14937Y14437D1*
X15937D2*
Y12687D1*
X16937Y11687D1*
Y10437D1*
Y9937D1*
X17937Y8937D1*
Y8437D1*
X15937Y14437D2*
X14687Y15687D1*
X13437D1*
X12937Y16187D1*
Y17937D1*
X15187Y20187D1*
X27687D1*
X27937Y14437D2*
Y12687D1*
X28937Y11687D1*
Y10437D1*
Y9937D1*
X29937Y8937D1*
Y8437D1*
X21687Y16437D2*
X22437D1*
X23187Y15687D1*
X26687D1*
X27937Y14437D1*
X12937Y10437D2*
Y11687D1*
X11937Y12687D1*
Y14437D1*
X12937Y10437D2*
Y9937D1*
X13937Y8937D1*
Y8437D1*
X32937Y21687D2*
Y19937D1*
X26937Y14437D2*
Y12687D1*
X25937Y11687D1*
Y10437D1*
Y9937D1*
X26437Y9437D1*
X27437D1*
X27937Y8937D1*
Y8437D1*
X17937Y10437D2*
Y11687D1*
X18937Y12687D1*
Y14437D1*
X17937Y10437D2*
Y9937D1*
X18437Y9437D1*
X19437D1*
X19937Y8937D1*
Y8437D1*
X13687Y16437D2*
X14537D1*
X15787Y15187D1*
X18187D1*
X18937Y14437D1*
D29*
X30937Y18437D3*
X35937Y16937D3*
Y20437D3*
X27687Y20187D3*
X32937Y21687D3*
D16*
X36937Y18937D3*
D17*
Y17937D3*
D16*
X26937Y18937D3*
D17*
Y17937D3*
D16*
X10187Y19437D3*
D17*
Y18437D3*
X9937Y12937D3*
D16*
Y13937D3*
D17*
X34937Y12937D3*
D16*
Y13937D3*
D18*
X5937Y5437D3*
D19*
X4937D3*
D18*
X5937Y8937D3*
D19*
X4937D3*
D18*
X5937Y12437D3*
D19*
X4937D3*
D16*
X31937Y7437D3*
X30937D3*
X29937D3*
X28937D3*
X27937D3*
X26937D3*
X25937D3*
X24937D3*
X23937D3*
X22937D3*
X21937D3*
X20937D3*
X19937D3*
X18937D3*
X17937D3*
X16937D3*
X15937D3*
X14937D3*
X13937D3*
D17*
X12937D3*
D16*
Y8437D3*
X13937D3*
X14937D3*
X15937D3*
X16937D3*
X17937D3*
X18937D3*
X19937D3*
X20937D3*
X21937D3*
X22937D3*
X23937D3*
X24937D3*
X25937D3*
X26937D3*
X27937D3*
X28937D3*
X29937D3*
X30937D3*
X31937D3*
D20*
X23937Y4937D3*
D22*
X24937D3*
X25937D3*
X26937D3*
X27937D3*
X28937D3*
X29937D3*
X30937D3*
D20*
X14937D3*
D22*
X15937D3*
X16937D3*
X17937D3*
X18937D3*
X19937D3*
X20937D3*
X21937D3*
D20*
X28937Y23937D3*
D22*
X27937D3*
X26937D3*
X25937D3*
X24937D3*
X23937D3*
X22937D3*
X21937D3*
D20*
X11337D3*
D22*
X12337D3*
X13337D3*
X14337D3*
X15337D3*
X16337D3*
X17337D3*
X18337D3*
X19337D3*
X20337D3*
D20*
X32937Y4937D3*
D22*
X33937D3*
X34937D3*
X35937D3*
X36937D3*
X37937D3*
X38937D3*
X39937D3*
D20*
X37937Y23937D3*
D22*
X36937D3*
X35937D3*
X34937D3*
X33937D3*
X32937D3*
X31937D3*
X30937D3*
D20*
X40937D3*
D22*
X41937D3*
X40937Y22937D3*
X41937D3*
X40937Y21937D3*
X41937D3*
X40937Y20937D3*
X41937D3*
X40937Y19937D3*
X41937D3*
X40937Y18937D3*
X41937D3*
X40937Y17937D3*
X41937D3*
X40937Y16937D3*
X41937D3*
X40937Y15937D3*
X41937D3*
X40937Y14937D3*
X41937D3*
X40937Y13937D3*
X41937D3*
X40937Y12937D3*
X41937D3*
X40937Y11937D3*
X41937D3*
X40937Y10937D3*
X41937D3*
X40937Y9937D3*
X41937D3*
X40937Y8937D3*
X41937D3*
X40937Y7937D3*
X41937D3*
X40937Y6937D3*
X41937D3*
D20*
X4937Y15687D3*
D22*
X5937D3*
X6937D3*
X7937D3*
X8937D3*
X9937D3*
D20*
X4937Y22187D3*
D22*
X5937D3*
X6937D3*
X7937D3*
X8937D3*
X9937D3*
D20*
X37687Y6937D3*
D22*
Y7937D3*
Y8937D3*
Y9937D3*
Y10937D3*
Y11937D3*
Y12937D3*
D23*
X21687Y16437D3*
D25*
X22187Y16937D3*
X21687Y17437D3*
D23*
X23687Y16437D3*
D25*
X24187Y16937D3*
X23687Y17437D3*
D23*
X19687Y16437D3*
D25*
X20187Y16937D3*
X19687Y17437D3*
D23*
X15687Y16437D3*
D25*
X16187Y16937D3*
X15687Y17437D3*
D23*
X17687Y16437D3*
D25*
X18187Y16937D3*
X17687Y17437D3*
D23*
X13687Y16437D3*
D25*
X14187Y16937D3*
X13687Y17437D3*
D23*
X11687Y16437D3*
D25*
X12187Y16937D3*
X11687Y17437D3*
D16*
X32937Y14437D3*
D26*
Y10437D3*
D16*
X31937Y14437D3*
D26*
Y10437D3*
D16*
X29937Y14437D3*
D26*
Y10437D3*
D16*
X30937Y14437D3*
D26*
Y10437D3*
D16*
X28937Y14437D3*
D26*
Y10437D3*
D16*
X27937Y14437D3*
D26*
Y10437D3*
D16*
X25937Y14437D3*
D26*
Y10437D3*
D16*
X26937Y14437D3*
D26*
Y10437D3*
D16*
X24937Y14437D3*
D26*
Y10437D3*
D16*
X21937Y14437D3*
D26*
Y10437D3*
D16*
X22937Y14437D3*
D26*
Y10437D3*
D16*
X20937Y14437D3*
D26*
Y10437D3*
D16*
X19937Y14437D3*
D26*
Y10437D3*
D16*
X17937Y14437D3*
D26*
Y10437D3*
D16*
X18937Y14437D3*
D26*
Y10437D3*
D16*
X16937Y14437D3*
D26*
Y10437D3*
D16*
X15937Y14437D3*
D26*
Y10437D3*
D16*
X13937Y14437D3*
D26*
Y10437D3*
D16*
X14937Y14437D3*
D26*
Y10437D3*
D16*
X12937Y14437D3*
D26*
Y10437D3*
D16*
X11937Y14437D3*
D26*
Y10437D3*
D16*
X23937Y14437D3*
D26*
Y10437D3*
D18*
X8937Y12437D3*
D27*
Y9437D3*
D18*
X8187Y12437D3*
D27*
Y9437D3*
D18*
X7437Y12437D3*
D27*
Y9437D3*
D20*
X34937Y19937D3*
D22*
X33937D3*
X32937D3*
X31937D3*
X30937D3*
X29937D3*
X28937D3*
Y16937D3*
X29937D3*
X30937D3*
X31937D3*
X32937D3*
X33937D3*
X34937D3*
D28*
X39937Y16437D3*
X40437D3*
X39937Y18437D3*
X40437D3*
X27687Y22437D3*
X27187D3*
X28187Y22937D3*
X27687D3*
X40437Y20437D3*
X39937D3*
X40437Y17437D3*
X39937D3*
X40437Y19437D3*
X39937D3*
Y16437D2*
D10*
X40437D1*
X39937Y18437D2*
X40437D1*
X27687Y22437D2*
X27187D1*
X28187Y22937D2*
X27687D1*
X40437Y20437D2*
X39937D1*
X40437Y17437D2*
X39937D1*
X40437Y19437D2*
X39937D1*
M02*
