G04 DipTrace 4.3.0.2*
G04 4 - Bottom.gbr*
%MOIN*%
G04 #@! TF.FileFunction,Copper,L4,Bot*
G04 #@! TF.Part,Single*
G04 #@! TA.AperFunction,Conductor*
%ADD10C,0.01*%
G04 #@! TA.AperFunction,ViaPad*
%ADD18C,0.04*%
G04 #@! TA.AperFunction,ComponentPad*
%ADD25R,0.059055X0.059055*%
%ADD27C,0.059055*%
%FSLAX26Y26*%
G04*
G70*
G90*
G75*
G01*
G04 Bottom*
%LPD*%
X1400000Y100000D2*
D18*
Y162500D1*
X1450000Y212500D1*
X2712500D1*
X2750000Y250000D1*
Y425000D1*
X2800000D1*
X2750000D2*
Y525000D1*
X2800000D1*
X2750000D2*
Y625000D1*
X2800000D1*
X2975000Y1762500D2*
D10*
Y1925000D1*
X2950591Y1949409D1*
X2899409D1*
X2862500Y1912500D1*
X2325000D1*
X2300000Y1937500D1*
Y2000000D1*
X2200000D2*
Y1937500D1*
X2262500Y1875000D1*
X2850000D1*
X2875000Y1850000D1*
Y1762500D1*
X1362500Y1512500D2*
Y1637500D1*
X1462500Y1737500D1*
X2618749D1*
X2668749Y1687500D1*
X3537500D1*
X3625000Y1600000D1*
X3700000D1*
X2725000Y1575000D2*
Y1525000D1*
X2750000Y1500000D1*
X3700000D1*
X1162500Y1425000D2*
X1225000Y1362500D1*
X1325000D1*
X1437500Y1475000D1*
X2275000D1*
X2300000Y1450000D1*
X3750000D1*
X3800000Y1500000D1*
X1562500Y1425000D2*
X1612500Y1375000D1*
X2275000D1*
X2300000Y1400000D1*
X3700000D1*
X3100000Y1250000D2*
X3823315D1*
X3850000Y1276685D1*
Y1350000D1*
X3800000Y1400000D1*
X2187500Y1262500D2*
X2225000Y1300000D1*
X3700000D1*
X2012500Y1262500D2*
X2087500Y1337500D1*
X2300000D1*
X2312500Y1350000D1*
X3750000D1*
X3800000Y1300000D1*
X2375000Y1200000D2*
X3700000D1*
X2825000Y1575000D2*
X2862500Y1612500D1*
X3525000D1*
X3225000Y1012500D2*
X3437500D1*
X3612500Y837500D1*
Y537500D1*
X3650000Y500000D1*
X3700000D1*
X3475000Y1037500D2*
X3650000Y862500D1*
Y571213D1*
X3671213Y550000D1*
X3750000D1*
X3800000Y500000D1*
X3300000Y968749D2*
X3418751D1*
X3575000Y812500D1*
Y475000D1*
X3650000Y400000D1*
X3700000D1*
X175000Y1425000D2*
X250000D1*
X375001Y1550001D1*
Y1825000D1*
X100001D2*
X156251D1*
X175000Y1806251D1*
Y1775000D1*
X237500Y1825000D2*
Y1662500D1*
X175000Y1600000D1*
X3487500Y462500D2*
Y412500D1*
X3450000Y375000D1*
X2937500D1*
X2887500Y325000D1*
Y175000D1*
X2850000Y137500D1*
X2825000D1*
X2925000Y1912500D2*
Y1762500D1*
D18*
X175000Y1425000D3*
X375001Y1825000D3*
X100001D3*
X175000Y1775000D3*
X237500Y1825000D3*
X175000Y1600000D3*
X3437500Y875000D3*
X3037500Y562500D3*
X3087500Y137500D3*
X3487500Y75000D3*
X3175000Y137500D3*
X2787500Y731249D3*
X3437500Y1100000D3*
X2931250Y712500D3*
X3537500Y675000D3*
X3212500Y875000D3*
X3487500Y462500D3*
Y250000D3*
X2800000Y425000D3*
Y525000D3*
Y625000D3*
X2825000Y137500D3*
X100000Y1997047D3*
X237500Y1996024D3*
X375000Y1997047D3*
X425000Y1750000D3*
Y1575000D3*
Y1400000D3*
X1800000Y1425000D3*
Y1256249D3*
X3587500Y225000D3*
X1287500Y1425000D3*
X1087500D3*
X2975000Y1570748D3*
X425000Y850000D3*
X625000D3*
X825000D3*
X1025000D3*
X1225000D3*
X1425000D3*
X1625000D3*
X1825000D3*
X1325000Y300000D3*
X1225000D3*
X1125000D3*
X1025000D3*
X925000D3*
X825000D3*
X725000D3*
X625000D3*
X525000D3*
X425000D3*
X2325000D3*
X2675000Y1761693D3*
X2225000Y300000D3*
X3212500Y1100000D3*
X2125000Y300000D3*
X1000000Y1050000D3*
X2025000Y300000D3*
X2150000Y1050000D3*
X1925000Y300000D3*
X1600000Y1050000D3*
X1825000Y300000D3*
X1200000Y1050000D3*
X1725000Y300000D3*
X1400000Y1050000D3*
X1625000Y300000D3*
X1975000Y1050000D3*
X1525000Y300000D3*
X2325000Y1050000D3*
X1425000Y300000D3*
X1800000Y1050000D3*
X2025000Y850000D3*
X2293751Y1637500D3*
X1487500Y1425000D3*
X1887500D3*
X993751Y1256249D3*
X2062500Y1425000D3*
X2593749Y1687500D3*
X687500Y1425000D3*
X2237500D3*
X1945984Y1637500D3*
X604248Y1050000D3*
X2787500Y1068749D3*
X404248Y1050000D3*
X3043751Y875000D3*
X804248Y1050000D3*
X993751Y1425000D3*
X2825000Y1575000D3*
X2875000Y87500D3*
X3043751Y1100000D3*
X3275000Y562500D3*
X2593749Y1511043D3*
X2875000Y1762500D3*
X401299Y950000D3*
X1601299D3*
X601299D3*
X801299D3*
X1001299D3*
X1201299D3*
X3100000Y1250000D3*
X1401299Y950000D3*
X1801299D3*
X3300000Y968749D3*
X1976299Y950000D3*
X3475000Y1037500D3*
X2151299Y950000D3*
X3225000Y1012500D3*
X2326299Y950000D3*
X1362500Y1512500D3*
X1162500Y1425000D3*
X1562500D3*
X2187500Y1262500D3*
X2012500D3*
X2375000Y1200000D3*
X2975000Y1762500D3*
X2725000Y1575000D3*
X3525000Y1612500D3*
X2650000Y137500D3*
X2925000Y1762500D3*
Y1912500D3*
D25*
X1100000Y100000D3*
D27*
X1200000D3*
X1300000D3*
X1400000D3*
X1500000D3*
X1600000D3*
X1700000D3*
X1800000D3*
D25*
X2500000Y2000000D3*
D27*
X2400000D3*
X2300000D3*
X2200000D3*
X2100000D3*
X2000000D3*
X1900000D3*
X1800000D3*
D25*
X740000D3*
D27*
X840000D3*
X940000D3*
X1040000D3*
X1140000D3*
X1240000D3*
X1340000D3*
X1440000D3*
X1540000D3*
X1640000D3*
D25*
X3700000D3*
D27*
X3800000D3*
X3700000Y1900000D3*
X3800000D3*
X3700000Y1800000D3*
X3800000D3*
X3700000Y1700000D3*
X3800000D3*
X3700000Y1600000D3*
X3800000D3*
X3700000Y1500000D3*
X3800000D3*
X3700000Y1400000D3*
X3800000D3*
X3700000Y1300000D3*
X3800000D3*
X3700000Y1200000D3*
X3800000D3*
X3700000Y1100000D3*
X3800000D3*
X3700000Y1000000D3*
X3800000D3*
X3700000Y900000D3*
X3800000D3*
X3700000Y800000D3*
X3800000D3*
X3700000Y700000D3*
X3800000D3*
X3700000Y600000D3*
X3800000D3*
X3700000Y500000D3*
X3800000D3*
X3700000Y400000D3*
X3800000D3*
X3700000Y300000D3*
X3800000D3*
M02*
