M48
INCH
T01C0.02
T02C0.0354
T03C0.125
%
T01
X+034375Y+008750
X+033000Y+009687
X+032250Y+010125
X+032125Y+011000
X+030438Y+011000
X+031000Y+012500
X+029750Y+015707
X+028250Y+015750
X+027250Y+015750
X+025937Y+015110
X+025937Y+016875
X+026750Y+017617
X+028750Y+017625
X+029250Y+017625
X+029750Y+017625
X+029250Y+019125
X+035250Y+016125
X+034375Y+011000
X+034750Y+010375
X+032125Y+008750
X+030438Y+008750
X+029313Y+007125
X+027875Y+007312
X+028000Y+006250
X+028000Y+005250
X+028000Y+004250
X+030375Y+005625
X+032750Y+005625
X+034875Y+004625
X+034875Y+002500
X+035875Y+002250
X+034875Y+000750
X+031750Y+001375
X+030875Y+001375
X+028750Y+000875
X+028250Y+001375
X+026500Y+001375
X+023250Y+003000
X+022250Y+003000
X+021250Y+003000
X+020250Y+003000
X+019250Y+003000
X+018250Y+003000
X+017250Y+003000
X+016250Y+003000
X+015250Y+003000
X+014250Y+003000
X+013250Y+003000
X+012250Y+003000
X+011250Y+003000
X+010250Y+003000
X+009250Y+003000
X+008250Y+003000
X+007250Y+003000
X+006250Y+003000
X+005250Y+003000
X+004250Y+003000
X+004250Y+008500
X+004013Y+009500
X+004042Y+010500
X+006042Y+010500
X+006013Y+009500
X+006250Y+008500
X+008250Y+008500
X+008013Y+009500
X+008042Y+010500
X+010000Y+010500
X+010013Y+009500
X+010250Y+008500
X+012250Y+008500
X+012013Y+009500
X+012000Y+010500
X+014000Y+010500
X+014013Y+009500
X+014250Y+008500
X+016250Y+008500
X+016013Y+009500
X+016000Y+010500
X+018000Y+010500
X+018013Y+009500
X+018250Y+008500
X+019763Y+009500
X+019750Y+010500
X+021500Y+010500
X+021513Y+009500
X+020250Y+008500
X+023263Y+009500
X+023250Y+010500
X+023750Y+012000
X+021875Y+012625
X+022375Y+014250
X+020625Y+014250
X+020125Y+012625
X+018875Y+014250
X+018000Y+014250
X+018000Y+012562
X+015625Y+014250
X+014875Y+014250
X+013625Y+015125
X+012875Y+014250
X+011625Y+014250
X+010875Y+014250
X+009938Y+014250
X+009938Y+012562
X+006875Y+014250
X+004250Y+014000
X+004250Y+015750
X+004250Y+017500
X+003750Y+018250
X+002375Y+018250
X+001750Y+017750
X+001000Y+018250
X+001000Y+019970
X+002375Y+019960
X+003750Y+019970
X+001750Y+016000
X+001750Y+014250
X+019460Y+016375
X+022938Y+016375
X+027875Y+010687
X+035375Y+006750
T02
X+011000Y+001000
X+012000Y+001000
X+013000Y+001000
X+014000Y+001000
X+015000Y+001000
X+016000Y+001000
X+017000Y+001000
X+018000Y+001000
X+018000Y+020000
X+019000Y+020000
X+020000Y+020000
X+021000Y+020000
X+022000Y+020000
X+023000Y+020000
X+024000Y+020000
X+025000Y+020000
X+016400Y+020000
X+015400Y+020000
X+014400Y+020000
X+013400Y+020000
X+012400Y+020000
X+011400Y+020000
X+010400Y+020000
X+009400Y+020000
X+008400Y+020000
X+007400Y+020000
X+037000Y+020000
X+038000Y+020000
X+038000Y+019000
X+037000Y+019000
X+037000Y+018000
X+038000Y+018000
X+038000Y+017000
X+037000Y+017000
X+037000Y+016000
X+038000Y+016000
X+038000Y+015000
X+037000Y+015000
X+037000Y+014000
X+038000Y+014000
X+038000Y+013000
X+037000Y+013000
X+037000Y+012000
X+038000Y+012000
X+038000Y+011000
X+037000Y+011000
X+037000Y+010000
X+038000Y+010000
X+038000Y+009000
X+037000Y+009000
X+037000Y+008000
X+038000Y+008000
X+038000Y+007000
X+037000Y+007000
X+037000Y+006000
X+038000Y+006000
X+038000Y+005000
X+038000Y+004000
X+037000Y+004000
X+037000Y+005000
X+037000Y+003000
X+038000Y+003000
T03
X+006000Y+020000
X+005500Y+001000
X+038000Y+001000
X+035500Y+020000
T00
M30
