G04 DipTrace 4.3.0.2*
G04 2 - Layer 2.gbr*
%MOIN*%
G04 #@! TF.FileFunction,Copper,L2,Inr*
G04 #@! TF.Part,Single*
%ADD26C,0.059055*%
G04 #@! TA.AperFunction,CopperBalancing*
%ADD10C,0.01*%
G04 #@! TA.AperFunction,ViaPad*
%ADD18C,0.04*%
G04 #@! TA.AperFunction,CopperBalancing*
%ADD19C,0.02*%
%FSLAX26Y26*%
G04*
G70*
G90*
G75*
G01*
G04 Inner1_Plane*
%LPD*%
D18*
X175000Y1425000D3*
X375001Y1825000D3*
X100001D3*
X175000Y1775000D3*
X237500Y1825000D3*
X175000Y1600000D3*
X3437500Y875000D3*
X3037500Y562500D3*
X3087500Y137500D3*
X3487500Y75000D3*
X3175000Y137500D3*
X2787500Y731249D3*
X3437500Y1100000D3*
X2931250Y712500D3*
X3537500Y675000D3*
X3212500Y875000D3*
X3487500Y462500D3*
Y250000D3*
X2800000Y425000D3*
Y525000D3*
Y625000D3*
X2825000Y137500D3*
X100000Y1997047D3*
X237500Y1996024D3*
X375000Y1997047D3*
X425000Y1750000D3*
Y1575000D3*
Y1400000D3*
X1800000Y1425000D3*
Y1256249D3*
X3587500Y225000D3*
X1287500Y1425000D3*
X1087500D3*
X2975000Y1570748D3*
X425000Y850000D3*
X625000D3*
X825000D3*
X1025000D3*
X1225000D3*
X1425000D3*
X1625000D3*
X1825000D3*
X1325000Y300000D3*
X1225000D3*
X1125000D3*
X1025000D3*
X925000D3*
X825000D3*
X725000D3*
X625000D3*
X525000D3*
X425000D3*
X2325000D3*
X2675000Y1761693D3*
X2225000Y300000D3*
X3212500Y1100000D3*
X2125000Y300000D3*
X1000000Y1050000D3*
X2025000Y300000D3*
X2150000Y1050000D3*
X1925000Y300000D3*
X1600000Y1050000D3*
X1825000Y300000D3*
X1200000Y1050000D3*
X1725000Y300000D3*
X1400000Y1050000D3*
X1625000Y300000D3*
X1975000Y1050000D3*
X1525000Y300000D3*
X2325000Y1050000D3*
X1425000Y300000D3*
X1800000Y1050000D3*
X2025000Y850000D3*
X2293751Y1637500D3*
X1487500Y1425000D3*
X1887500D3*
X993751Y1256249D3*
X2062500Y1425000D3*
X2593749Y1687500D3*
X687500Y1425000D3*
X2237500D3*
X1945984Y1637500D3*
X604248Y1050000D3*
X2787500Y1068749D3*
X404248Y1050000D3*
X3043751Y875000D3*
X804248Y1050000D3*
X993751Y1425000D3*
X2825000Y1575000D3*
X2875000Y87500D3*
X3043751Y1100000D3*
X3275000Y562500D3*
X2593749Y1511043D3*
X2875000Y1762500D3*
X401299Y950000D3*
X1601299D3*
X601299D3*
X801299D3*
X1001299D3*
X1201299D3*
X3100000Y1250000D3*
X1401299Y950000D3*
X1801299D3*
X3300000Y968749D3*
X1976299Y950000D3*
X3475000Y1037500D3*
X2151299Y950000D3*
X3225000Y1012500D3*
X2326299Y950000D3*
X1362500Y1512500D3*
X1162500Y1425000D3*
X1562500D3*
X2187500Y1262500D3*
X2012500D3*
X2375000Y1200000D3*
X2975000Y1762500D3*
X2725000Y1575000D3*
X3525000Y1612500D3*
X2650000Y137500D3*
X2925000Y1762500D3*
Y1912500D3*
X31005Y2060131D2*
D10*
X545636D1*
X654364D2*
X3495636D1*
X3604364D2*
X3868995D1*
X31005Y2050262D2*
X536251D1*
X663749D2*
X3486251D1*
X3613749D2*
X3868995D1*
X31005Y2040394D2*
X529493D1*
X670507D2*
X719796D1*
X760204D2*
X819796D1*
X860204D2*
X919796D1*
X960204D2*
X1019796D1*
X1060204D2*
X1119796D1*
X1160204D2*
X1219796D1*
X1260204D2*
X1319796D1*
X1360204D2*
X1419796D1*
X1460204D2*
X1519796D1*
X1560204D2*
X1619796D1*
X1660204D2*
X1779796D1*
X1820204D2*
X1879796D1*
X1920204D2*
X1979796D1*
X2020204D2*
X2079796D1*
X2120204D2*
X2179796D1*
X2220204D2*
X2279796D1*
X2320204D2*
X2379796D1*
X2420204D2*
X2479796D1*
X2520204D2*
X3479493D1*
X3620507D2*
X3679796D1*
X3720204D2*
X3779796D1*
X3820204D2*
X3868995D1*
X31005Y2030525D2*
X88126D1*
X111874D2*
X229522D1*
X245478D2*
X363126D1*
X386874D2*
X524630D1*
X675370D2*
X706310D1*
X773690D2*
X806310D1*
X873690D2*
X906310D1*
X973690D2*
X1006310D1*
X1073690D2*
X1106310D1*
X1173690D2*
X1206310D1*
X1273690D2*
X1306310D1*
X1373690D2*
X1406310D1*
X1473690D2*
X1506310D1*
X1573690D2*
X1606310D1*
X1673690D2*
X1766310D1*
X1833690D2*
X1866310D1*
X1933690D2*
X1966310D1*
X2033690D2*
X2066310D1*
X2133690D2*
X2166310D1*
X2233690D2*
X2266310D1*
X2333690D2*
X2366310D1*
X2433690D2*
X2466310D1*
X2533690D2*
X3474630D1*
X3625370D2*
X3666310D1*
X3733690D2*
X3766310D1*
X3833690D2*
X3868995D1*
X31005Y2020656D2*
X72892D1*
X127108D2*
X211358D1*
X263642D2*
X347892D1*
X402108D2*
X521310D1*
X678690D2*
X699327D1*
X780673D2*
X799327D1*
X880673D2*
X899327D1*
X980673D2*
X999327D1*
X1080673D2*
X1099327D1*
X1180673D2*
X1199327D1*
X1280673D2*
X1299327D1*
X1380673D2*
X1399327D1*
X1480673D2*
X1499327D1*
X1580673D2*
X1599327D1*
X1680673D2*
X1759327D1*
X1840673D2*
X1859327D1*
X1940673D2*
X1959327D1*
X2040673D2*
X2059327D1*
X2140673D2*
X2159327D1*
X2240673D2*
X2259327D1*
X2340673D2*
X2359327D1*
X2440673D2*
X2459327D1*
X2540673D2*
X3471310D1*
X3628690D2*
X3659327D1*
X3740673D2*
X3759327D1*
X3840673D2*
X3868995D1*
X31005Y2010787D2*
X66593D1*
X133407D2*
X204542D1*
X270458D2*
X341593D1*
X408407D2*
X519337D1*
X680663D2*
X695597D1*
X784403D2*
X795597D1*
X884403D2*
X895597D1*
X984403D2*
X995597D1*
X1084403D2*
X1095597D1*
X1184403D2*
X1195597D1*
X1284403D2*
X1295597D1*
X1384403D2*
X1395597D1*
X1484403D2*
X1495597D1*
X1584403D2*
X1595597D1*
X1684403D2*
X1755597D1*
X1844403D2*
X1855597D1*
X1944403D2*
X1955597D1*
X2044403D2*
X2055597D1*
X2144403D2*
X2155597D1*
X2244403D2*
X2255597D1*
X2344403D2*
X2355597D1*
X2444403D2*
X2455597D1*
X2544403D2*
X3469337D1*
X3630663D2*
X3655597D1*
X3744403D2*
X3755597D1*
X3844403D2*
X3868995D1*
X31005Y2000919D2*
X64015D1*
X135985D2*
X201642D1*
X273358D2*
X339015D1*
X410985D2*
X518614D1*
X681386D2*
X694278D1*
X785722D2*
X794278D1*
X885722D2*
X894278D1*
X985722D2*
X994278D1*
X1085722D2*
X1094278D1*
X1185722D2*
X1194278D1*
X1285722D2*
X1294278D1*
X1385722D2*
X1394278D1*
X1485722D2*
X1494278D1*
X1585722D2*
X1594278D1*
X1685722D2*
X1754278D1*
X1845722D2*
X1854278D1*
X1945722D2*
X1954278D1*
X2045722D2*
X2054278D1*
X2145722D2*
X2154278D1*
X2245722D2*
X2254278D1*
X2345722D2*
X2354278D1*
X2445722D2*
X2454278D1*
X2545722D2*
X3468614D1*
X3631386D2*
X3654278D1*
X3745722D2*
X3754278D1*
X3845722D2*
X3868995D1*
X31005Y1991050D2*
X64317D1*
X135683D2*
X201651D1*
X273349D2*
X339317D1*
X410683D2*
X519103D1*
X680897D2*
X695177D1*
X784823D2*
X795177D1*
X884823D2*
X895177D1*
X984823D2*
X995177D1*
X1084823D2*
X1095177D1*
X1184823D2*
X1195177D1*
X1284823D2*
X1295177D1*
X1384823D2*
X1395177D1*
X1484823D2*
X1495177D1*
X1584823D2*
X1595177D1*
X1684823D2*
X1755177D1*
X1844823D2*
X1855177D1*
X1944823D2*
X1955177D1*
X2044823D2*
X2055177D1*
X2144823D2*
X2155177D1*
X2244823D2*
X2255177D1*
X2344823D2*
X2355177D1*
X2444823D2*
X2455177D1*
X2544823D2*
X3469103D1*
X3630897D2*
X3655177D1*
X3744823D2*
X3755177D1*
X3844823D2*
X3868995D1*
X31005Y1981181D2*
X67579D1*
X132421D2*
X204581D1*
X270419D2*
X342579D1*
X407421D2*
X520841D1*
X679159D2*
X698429D1*
X781571D2*
X798429D1*
X881571D2*
X898429D1*
X981571D2*
X998429D1*
X1081571D2*
X1098429D1*
X1181571D2*
X1198429D1*
X1281571D2*
X1298429D1*
X1381571D2*
X1398429D1*
X1481571D2*
X1498429D1*
X1581571D2*
X1598429D1*
X1681571D2*
X1758429D1*
X1841571D2*
X1858429D1*
X1941571D2*
X1958429D1*
X2041571D2*
X2058429D1*
X2141571D2*
X2158429D1*
X2241571D2*
X2258429D1*
X2341571D2*
X2358429D1*
X2441571D2*
X2458429D1*
X2541571D2*
X3470841D1*
X3629159D2*
X3658429D1*
X3741571D2*
X3758429D1*
X3841571D2*
X3868995D1*
X31005Y1971312D2*
X74981D1*
X125019D2*
X211437D1*
X263563D2*
X349981D1*
X400019D2*
X523897D1*
X676103D2*
X704688D1*
X775312D2*
X804688D1*
X875312D2*
X904688D1*
X975312D2*
X1004688D1*
X1075312D2*
X1104688D1*
X1175312D2*
X1204688D1*
X1275312D2*
X1304688D1*
X1375312D2*
X1404688D1*
X1475312D2*
X1504688D1*
X1575312D2*
X1604688D1*
X1675312D2*
X1764688D1*
X1835312D2*
X1864688D1*
X1935312D2*
X1964688D1*
X2035312D2*
X2064688D1*
X2135312D2*
X2164688D1*
X2235312D2*
X2264688D1*
X2335312D2*
X2364688D1*
X2435312D2*
X2464688D1*
X2535312D2*
X3473897D1*
X3626103D2*
X3664688D1*
X3735312D2*
X3764688D1*
X3835312D2*
X3868995D1*
X31005Y1961444D2*
X229923D1*
X245077D2*
X528458D1*
X671542D2*
X716329D1*
X763671D2*
X816329D1*
X863671D2*
X916329D1*
X963671D2*
X1016329D1*
X1063671D2*
X1116329D1*
X1163671D2*
X1216329D1*
X1263671D2*
X1316329D1*
X1363671D2*
X1416329D1*
X1463671D2*
X1516329D1*
X1563671D2*
X1616329D1*
X1663671D2*
X1776329D1*
X1823671D2*
X1876329D1*
X1923671D2*
X1976329D1*
X2023671D2*
X2076329D1*
X2123671D2*
X2176329D1*
X2223671D2*
X2276329D1*
X2323671D2*
X2376329D1*
X2423671D2*
X2476329D1*
X2523671D2*
X3478458D1*
X3621542D2*
X3676329D1*
X3723671D2*
X3776329D1*
X3823671D2*
X3868995D1*
X31005Y1951575D2*
X534825D1*
X665175D2*
X3484825D1*
X3615175D2*
X3868995D1*
X31005Y1941706D2*
X543634D1*
X656366D2*
X2904356D1*
X2945644D2*
X3493634D1*
X3606366D2*
X3682843D1*
X3717157D2*
X3782843D1*
X3817157D2*
X3868995D1*
X31005Y1931837D2*
X556378D1*
X643622D2*
X2894591D1*
X2955409D2*
X3506378D1*
X3593622D2*
X3667589D1*
X3732411D2*
X3767589D1*
X3832411D2*
X3868995D1*
X31005Y1921969D2*
X579659D1*
X620341D2*
X2890099D1*
X2959901D2*
X3529659D1*
X3570341D2*
X3660040D1*
X3739960D2*
X3760040D1*
X3839960D2*
X3868995D1*
X31005Y1912100D2*
X2888800D1*
X2961200D2*
X3655938D1*
X3744062D2*
X3755938D1*
X3844062D2*
X3868995D1*
X31005Y1902231D2*
X2890333D1*
X2959667D2*
X3654327D1*
X3745673D2*
X3754327D1*
X3845673D2*
X3868995D1*
X31005Y1892362D2*
X2895128D1*
X2954872D2*
X3654933D1*
X3745067D2*
X3754933D1*
X3845067D2*
X3868995D1*
X31005Y1882493D2*
X2905597D1*
X2944403D2*
X3657843D1*
X3742157D2*
X3757843D1*
X3842157D2*
X3868995D1*
X31005Y1872625D2*
X3663624D1*
X3736376D2*
X3763624D1*
X3836376D2*
X3868995D1*
X31005Y1862756D2*
X3674229D1*
X3725771D2*
X3774229D1*
X3825771D2*
X3868995D1*
X31005Y1852887D2*
X77521D1*
X122479D2*
X215021D1*
X259979D2*
X352521D1*
X397479D2*
X3868995D1*
X31005Y1843018D2*
X68761D1*
X131239D2*
X206261D1*
X268739D2*
X343761D1*
X406239D2*
X3686749D1*
X3713251D2*
X3786749D1*
X3813251D2*
X3868995D1*
X31005Y1833150D2*
X64757D1*
X135243D2*
X202257D1*
X272743D2*
X339757D1*
X410243D2*
X3668976D1*
X3731024D2*
X3768976D1*
X3831024D2*
X3868995D1*
X31005Y1823281D2*
X63839D1*
X136161D2*
X201339D1*
X273661D2*
X338839D1*
X411161D2*
X3660812D1*
X3739188D2*
X3760812D1*
X3839188D2*
X3868995D1*
X31005Y1813412D2*
X65763D1*
X134237D2*
X203263D1*
X271737D2*
X340763D1*
X409237D2*
X3656329D1*
X3743671D2*
X3756329D1*
X3843671D2*
X3868995D1*
X31005Y1803543D2*
X71095D1*
X128905D2*
X153399D1*
X196601D2*
X208595D1*
X266405D2*
X346095D1*
X403905D2*
X3654415D1*
X3745585D2*
X3754415D1*
X3845585D2*
X3868995D1*
X31005Y1793675D2*
X82950D1*
X117060D2*
X144161D1*
X205839D2*
X220440D1*
X254560D2*
X357950D1*
X392060D2*
X2659298D1*
X2690702D2*
X2857657D1*
X2892343D2*
X2907657D1*
X2942343D2*
X2957657D1*
X2992343D2*
X3654718D1*
X3745282D2*
X3754718D1*
X3845282D2*
X3868995D1*
X31005Y1783806D2*
X139923D1*
X210077D2*
X2646612D1*
X2703388D2*
X2845978D1*
X3004022D2*
X3657306D1*
X3742694D2*
X3757306D1*
X3842694D2*
X3868995D1*
X31005Y1773937D2*
X138819D1*
X211181D2*
X2640997D1*
X2709003D2*
X2840714D1*
X3009286D2*
X3662647D1*
X3737353D2*
X3762647D1*
X3837353D2*
X3868995D1*
X31005Y1764068D2*
X140538D1*
X209462D2*
X2638878D1*
X2711122D2*
X2838839D1*
X3011161D2*
X3672364D1*
X3727636D2*
X3772364D1*
X3827636D2*
X3868995D1*
X31005Y1754199D2*
X145606D1*
X204394D2*
X2639610D1*
X2710390D2*
X2839796D1*
X3010204D2*
X3868995D1*
X31005Y1744331D2*
X156729D1*
X193271D2*
X2643380D1*
X2706620D2*
X2843849D1*
X3006151D2*
X3693058D1*
X3706942D2*
X3793058D1*
X3806942D2*
X3868995D1*
X31005Y1734462D2*
X2651690D1*
X2698310D2*
X2852716D1*
X2897284D2*
X2902716D1*
X2947284D2*
X2952716D1*
X2997284D2*
X3670489D1*
X3729511D2*
X3770489D1*
X3829511D2*
X3868995D1*
X31005Y1724593D2*
X3661642D1*
X3738358D2*
X3761642D1*
X3838358D2*
X3868995D1*
X31005Y1714724D2*
X2570440D1*
X2617060D2*
X3656769D1*
X3743231D2*
X3756769D1*
X3843231D2*
X3868995D1*
X31005Y1704856D2*
X2562130D1*
X2625370D2*
X3654532D1*
X3745468D2*
X3754532D1*
X3845468D2*
X3868995D1*
X31005Y1694987D2*
X2558351D1*
X2629140D2*
X3654552D1*
X3745448D2*
X3754552D1*
X3845448D2*
X3868995D1*
X31005Y1685118D2*
X2557628D1*
X2629872D2*
X3656817D1*
X3743183D2*
X3756817D1*
X3843183D2*
X3868995D1*
X31005Y1675249D2*
X2559747D1*
X2627753D2*
X3661749D1*
X3738251D2*
X3761749D1*
X3838251D2*
X3868995D1*
X31005Y1665381D2*
X2271261D1*
X2316239D2*
X2565372D1*
X2622128D2*
X3670675D1*
X3729325D2*
X3770675D1*
X3829325D2*
X3868995D1*
X31005Y1655512D2*
X2262511D1*
X2324989D2*
X2578058D1*
X2609442D2*
X3694376D1*
X3705624D2*
X3794376D1*
X3805624D2*
X3868995D1*
X31005Y1645643D2*
X2258507D1*
X2328993D2*
X3512140D1*
X3537860D2*
X3868995D1*
X31005Y1635774D2*
X2257589D1*
X2329911D2*
X3497589D1*
X3552411D2*
X3672149D1*
X3727851D2*
X3772149D1*
X3827851D2*
X3868995D1*
X31005Y1625906D2*
X150167D1*
X199833D2*
X2259513D1*
X2327987D2*
X3491456D1*
X3558544D2*
X3662540D1*
X3737460D2*
X3762540D1*
X3837460D2*
X3868995D1*
X31005Y1616037D2*
X142667D1*
X207333D2*
X2264854D1*
X2322646D2*
X3488976D1*
X3561024D2*
X3657247D1*
X3742753D2*
X3757247D1*
X3842753D2*
X3868995D1*
X31005Y1606168D2*
X139347D1*
X210653D2*
X2276710D1*
X2310790D2*
X2707638D1*
X2742362D2*
X2807638D1*
X2842362D2*
X3489376D1*
X3560624D2*
X3654698D1*
X3745302D2*
X3754698D1*
X3845302D2*
X3868995D1*
X31005Y1596299D2*
X138995D1*
X211005D2*
X2695978D1*
X2754022D2*
X2795978D1*
X2854022D2*
X3492745D1*
X3557255D2*
X3654425D1*
X3745575D2*
X3754425D1*
X3845575D2*
X3868995D1*
X31005Y1586430D2*
X141524D1*
X208476D2*
X2690704D1*
X2759296D2*
X2790704D1*
X2859296D2*
X3500353D1*
X3549647D2*
X3656378D1*
X3743622D2*
X3756378D1*
X3843622D2*
X3868995D1*
X31005Y1576562D2*
X147735D1*
X202265D2*
X2688839D1*
X2761161D2*
X2788839D1*
X2861161D2*
X3660909D1*
X3739091D2*
X3760909D1*
X3839091D2*
X3868995D1*
X31005Y1566693D2*
X162608D1*
X187392D2*
X2689796D1*
X2760204D2*
X2789796D1*
X2860204D2*
X3669151D1*
X3730849D2*
X3769151D1*
X3830849D2*
X3868995D1*
X31005Y1556824D2*
X2693858D1*
X2756142D2*
X2793858D1*
X2856142D2*
X3687325D1*
X3712675D2*
X3787325D1*
X3812675D2*
X3868995D1*
X31005Y1546955D2*
X1354298D1*
X1370702D2*
X2702726D1*
X2747274D2*
X2802726D1*
X2847274D2*
X3868995D1*
X31005Y1537087D2*
X1336310D1*
X1388690D2*
X3673995D1*
X3726005D2*
X3773995D1*
X3826005D2*
X3868995D1*
X31005Y1527218D2*
X1329522D1*
X1395478D2*
X3663507D1*
X3736493D2*
X3763507D1*
X3836493D2*
X3868995D1*
X31005Y1517349D2*
X1326632D1*
X1398368D2*
X3657774D1*
X3742226D2*
X3757774D1*
X3842226D2*
X3868995D1*
X31005Y1507480D2*
X1326661D1*
X1398339D2*
X3654903D1*
X3745097D2*
X3754903D1*
X3845097D2*
X3868995D1*
X31005Y1497612D2*
X1329601D1*
X1395399D2*
X3654337D1*
X3745663D2*
X3754337D1*
X3845663D2*
X3868995D1*
X31005Y1487743D2*
X1336476D1*
X1388524D2*
X3655987D1*
X3744013D2*
X3755987D1*
X3844013D2*
X3868995D1*
X31005Y1477874D2*
X1355167D1*
X1369833D2*
X3660128D1*
X3739872D2*
X3760128D1*
X3839872D2*
X3868995D1*
X31005Y1468005D2*
X3667745D1*
X3732255D2*
X3767745D1*
X3832255D2*
X3868995D1*
X31005Y1458136D2*
X162130D1*
X187870D2*
X1149630D1*
X1175370D2*
X1549630D1*
X1575370D2*
X3683253D1*
X3716747D2*
X3783253D1*
X3816747D2*
X3868995D1*
X31005Y1448268D2*
X147589D1*
X202411D2*
X1135089D1*
X1189911D2*
X1535089D1*
X1589911D2*
X3868995D1*
X31005Y1438399D2*
X141446D1*
X208554D2*
X1128946D1*
X1196054D2*
X1528946D1*
X1596054D2*
X3676065D1*
X3723935D2*
X3776065D1*
X3823935D2*
X3868995D1*
X31005Y1428530D2*
X138976D1*
X211024D2*
X1126476D1*
X1198524D2*
X1526476D1*
X1598524D2*
X3664552D1*
X3735448D2*
X3764552D1*
X3835448D2*
X3868995D1*
X31005Y1418661D2*
X139376D1*
X210624D2*
X1126876D1*
X1198124D2*
X1526876D1*
X1598124D2*
X3658351D1*
X3741649D2*
X3758351D1*
X3841649D2*
X3868995D1*
X31005Y1408793D2*
X142755D1*
X207245D2*
X1130255D1*
X1194745D2*
X1530255D1*
X1594745D2*
X3655147D1*
X3744853D2*
X3755147D1*
X3844853D2*
X3868995D1*
X31005Y1398924D2*
X150353D1*
X199647D2*
X1137853D1*
X1187147D2*
X1537853D1*
X1587147D2*
X3654288D1*
X3745712D2*
X3754288D1*
X3845712D2*
X3868995D1*
X31005Y1389055D2*
X3655636D1*
X3744364D2*
X3755636D1*
X3844364D2*
X3868995D1*
X31005Y1379186D2*
X3659415D1*
X3740585D2*
X3759415D1*
X3840585D2*
X3868995D1*
X31005Y1369318D2*
X3666456D1*
X3733544D2*
X3766456D1*
X3833544D2*
X3868995D1*
X31005Y1359449D2*
X3680128D1*
X3719872D2*
X3780128D1*
X3819872D2*
X3868995D1*
X31005Y1349580D2*
X3868995D1*
X31005Y1339711D2*
X3678419D1*
X3721581D2*
X3778419D1*
X3821581D2*
X3868995D1*
X31005Y1329843D2*
X3665685D1*
X3734315D2*
X3765685D1*
X3834315D2*
X3868995D1*
X31005Y1319974D2*
X3658976D1*
X3741024D2*
X3758976D1*
X3841024D2*
X3868995D1*
X31005Y1310105D2*
X3655431D1*
X3744569D2*
X3755431D1*
X3844569D2*
X3868995D1*
X31005Y1300236D2*
X3654269D1*
X3745731D2*
X3754269D1*
X3845731D2*
X3868995D1*
X31005Y1290367D2*
X984093D1*
X1003407D2*
X1790343D1*
X1809657D2*
X1989991D1*
X2035009D2*
X2164991D1*
X2210009D2*
X3655323D1*
X3744677D2*
X3755323D1*
X3844677D2*
X3868995D1*
X31005Y1280499D2*
X967237D1*
X1020263D2*
X1773487D1*
X1826513D2*
X1981251D1*
X2043749D2*
X2156251D1*
X2218749D2*
X3081427D1*
X3118573D2*
X3658751D1*
X3741249D2*
X3758751D1*
X3841249D2*
X3868995D1*
X31005Y1270630D2*
X960626D1*
X1026884D2*
X1766876D1*
X1833124D2*
X1977247D1*
X2047753D2*
X2152247D1*
X2222753D2*
X3070479D1*
X3129521D2*
X3665265D1*
X3734735D2*
X3765265D1*
X3834735D2*
X3868995D1*
X31005Y1260761D2*
X957843D1*
X1029657D2*
X1764093D1*
X1835907D2*
X1976339D1*
X2048661D2*
X2151339D1*
X2223661D2*
X3065489D1*
X3134511D2*
X3677530D1*
X3722470D2*
X3777530D1*
X3822470D2*
X3868995D1*
X31005Y1250892D2*
X957960D1*
X1029540D2*
X1764210D1*
X1835790D2*
X1978272D1*
X2046728D2*
X2153272D1*
X2221728D2*
X3063810D1*
X3136190D2*
X3868995D1*
X31005Y1241024D2*
X961017D1*
X1026483D2*
X1767267D1*
X1832733D2*
X1983614D1*
X2041386D2*
X2158614D1*
X2216386D2*
X3064962D1*
X3135038D2*
X3681183D1*
X3718817D2*
X3781183D1*
X3818817D2*
X3868995D1*
X31005Y1231155D2*
X968067D1*
X1019433D2*
X1774317D1*
X1825683D2*
X1995479D1*
X2029521D2*
X2170479D1*
X2204521D2*
X2357618D1*
X2392382D2*
X3069269D1*
X3130731D2*
X3666905D1*
X3733095D2*
X3766905D1*
X3833095D2*
X3868995D1*
X31005Y1221286D2*
X988673D1*
X998827D2*
X1794923D1*
X1805077D2*
X2345968D1*
X2404032D2*
X3078644D1*
X3121356D2*
X3659659D1*
X3740341D2*
X3759659D1*
X3840341D2*
X3868995D1*
X31005Y1211417D2*
X2340704D1*
X2409296D2*
X3655753D1*
X3744247D2*
X3755753D1*
X3844247D2*
X3868995D1*
X31005Y1201549D2*
X2338839D1*
X2411161D2*
X3654298D1*
X3745702D2*
X3754298D1*
X3845702D2*
X3868995D1*
X31005Y1191680D2*
X2339796D1*
X2410204D2*
X3655050D1*
X3744950D2*
X3755050D1*
X3844950D2*
X3868995D1*
X31005Y1181811D2*
X2343868D1*
X2406132D2*
X3658136D1*
X3741864D2*
X3758136D1*
X3841864D2*
X3868995D1*
X31005Y1171942D2*
X2352745D1*
X2397255D2*
X3664171D1*
X3735829D2*
X3764171D1*
X3835829D2*
X3868995D1*
X31005Y1162073D2*
X3675294D1*
X3724706D2*
X3775294D1*
X3824706D2*
X3868995D1*
X31005Y1152205D2*
X3868995D1*
X31005Y1142336D2*
X3684571D1*
X3715429D2*
X3784571D1*
X3815429D2*
X3868995D1*
X31005Y1132467D2*
X3197901D1*
X3227099D2*
X3422901D1*
X3452099D2*
X3668233D1*
X3731767D2*
X3768233D1*
X3831767D2*
X3868995D1*
X31005Y1122598D2*
X3184513D1*
X3240487D2*
X3409513D1*
X3465487D2*
X3660401D1*
X3739599D2*
X3760401D1*
X3839599D2*
X3868995D1*
X31005Y1112730D2*
X3178683D1*
X3246317D2*
X3403683D1*
X3471317D2*
X3656124D1*
X3743876D2*
X3756124D1*
X3843876D2*
X3868995D1*
X31005Y1102861D2*
X3176417D1*
X3248583D2*
X3401417D1*
X3473583D2*
X3654366D1*
X3745634D2*
X3754366D1*
X3845634D2*
X3868995D1*
X31005Y1092992D2*
X3177003D1*
X3247997D2*
X3402003D1*
X3472997D2*
X3654825D1*
X3745175D2*
X3754825D1*
X3845175D2*
X3868995D1*
X31005Y1083123D2*
X391339D1*
X417157D2*
X591339D1*
X617157D2*
X791339D1*
X817157D2*
X987091D1*
X1012909D2*
X1187091D1*
X1212909D2*
X1387091D1*
X1412909D2*
X1587091D1*
X1612909D2*
X1787091D1*
X1812909D2*
X1962091D1*
X1987909D2*
X2137091D1*
X2162909D2*
X2312091D1*
X2337909D2*
X3180606D1*
X3244394D2*
X3405606D1*
X3469394D2*
X3657579D1*
X3742421D2*
X3757579D1*
X3842421D2*
X3868995D1*
X31005Y1073255D2*
X376827D1*
X431669D2*
X576827D1*
X631669D2*
X776827D1*
X831669D2*
X972579D1*
X1027421D2*
X1172579D1*
X1227421D2*
X1372579D1*
X1427421D2*
X1572579D1*
X1627421D2*
X1772579D1*
X1827421D2*
X1947579D1*
X2002421D2*
X2122579D1*
X2177421D2*
X2297579D1*
X2352421D2*
X3188614D1*
X3236386D2*
X3413614D1*
X3461386D2*
X3663146D1*
X3736854D2*
X3763146D1*
X3836854D2*
X3868995D1*
X31005Y1063386D2*
X370694D1*
X437802D2*
X570694D1*
X637802D2*
X770694D1*
X837802D2*
X966446D1*
X1033554D2*
X1166446D1*
X1233554D2*
X1366446D1*
X1433554D2*
X1566446D1*
X1633554D2*
X1766446D1*
X1833554D2*
X1941446D1*
X2008554D2*
X2116446D1*
X2183554D2*
X2291446D1*
X2358554D2*
X3450147D1*
X3499853D2*
X3673312D1*
X3726688D2*
X3773312D1*
X3826688D2*
X3868995D1*
X31005Y1053517D2*
X368224D1*
X440272D2*
X568224D1*
X640272D2*
X768224D1*
X840272D2*
X963976D1*
X1036024D2*
X1163976D1*
X1236024D2*
X1363976D1*
X1436024D2*
X1563976D1*
X1636024D2*
X1763976D1*
X1836024D2*
X1938976D1*
X2011024D2*
X2113976D1*
X2186024D2*
X2288976D1*
X2361024D2*
X3442657D1*
X3507343D2*
X3868995D1*
X31005Y1043648D2*
X368624D1*
X439872D2*
X568624D1*
X639872D2*
X768624D1*
X839872D2*
X964376D1*
X1035624D2*
X1164376D1*
X1235624D2*
X1364376D1*
X1435624D2*
X1564376D1*
X1635624D2*
X1764376D1*
X1835624D2*
X1939376D1*
X2010624D2*
X2114376D1*
X2185624D2*
X2289376D1*
X2360624D2*
X3207608D1*
X3242392D2*
X3439337D1*
X3510663D2*
X3689229D1*
X3710771D2*
X3789229D1*
X3810771D2*
X3868995D1*
X31005Y1033780D2*
X372013D1*
X436483D2*
X572013D1*
X636483D2*
X772013D1*
X836483D2*
X967765D1*
X1032235D2*
X1167765D1*
X1232235D2*
X1367765D1*
X1432235D2*
X1567765D1*
X1632235D2*
X1767765D1*
X1832235D2*
X1942765D1*
X2007235D2*
X2117765D1*
X2182235D2*
X2292765D1*
X2357235D2*
X3195958D1*
X3254042D2*
X3438995D1*
X3511005D2*
X3669679D1*
X3730321D2*
X3769679D1*
X3830321D2*
X3868995D1*
X31005Y1023911D2*
X379620D1*
X428876D2*
X579620D1*
X628876D2*
X779620D1*
X828876D2*
X975372D1*
X1024628D2*
X1175372D1*
X1224628D2*
X1375372D1*
X1424628D2*
X1575372D1*
X1624628D2*
X1775372D1*
X1824628D2*
X1950372D1*
X1999628D2*
X2125372D1*
X2174628D2*
X2300372D1*
X2349628D2*
X3190704D1*
X3259296D2*
X3441524D1*
X3508476D2*
X3661202D1*
X3738798D2*
X3761202D1*
X3838798D2*
X3868995D1*
X31005Y1014042D2*
X3188829D1*
X3261171D2*
X3447755D1*
X3502245D2*
X3656534D1*
X3743466D2*
X3756534D1*
X3843466D2*
X3868995D1*
X31005Y1004173D2*
X3189796D1*
X3260204D2*
X3462667D1*
X3487333D2*
X3654464D1*
X3745536D2*
X3754464D1*
X3845536D2*
X3868995D1*
X31005Y994304D2*
X3193868D1*
X3256132D2*
X3274796D1*
X3325204D2*
X3654640D1*
X3745360D2*
X3754640D1*
X3845360D2*
X3868995D1*
X31005Y984436D2*
X3202755D1*
X3247245D2*
X3267491D1*
X3332509D2*
X3657071D1*
X3742929D2*
X3757071D1*
X3842929D2*
X3868995D1*
X31005Y974567D2*
X3264288D1*
X3335712D2*
X3662208D1*
X3737792D2*
X3762208D1*
X3837792D2*
X3868995D1*
X31005Y964698D2*
X3264034D1*
X3335966D2*
X3671534D1*
X3728466D2*
X3771534D1*
X3828466D2*
X3868995D1*
X31005Y954829D2*
X3266671D1*
X3333329D2*
X3868995D1*
X31005Y944961D2*
X3273058D1*
X3326942D2*
X3868995D1*
X31005Y935092D2*
X3288692D1*
X3311308D2*
X3671271D1*
X3728729D2*
X3771271D1*
X3828729D2*
X3868995D1*
X31005Y925223D2*
X3662062D1*
X3737938D2*
X3762062D1*
X3837938D2*
X3868995D1*
X31005Y915354D2*
X3656993D1*
X3743007D2*
X3756993D1*
X3843007D2*
X3868995D1*
X31005Y905486D2*
X3193907D1*
X3231093D2*
X3654610D1*
X3745390D2*
X3754610D1*
X3845390D2*
X3868995D1*
X31005Y895617D2*
X3182970D1*
X3242030D2*
X3654483D1*
X3745517D2*
X3754483D1*
X3845517D2*
X3868995D1*
X31005Y885748D2*
X3177979D1*
X3247021D2*
X3656603D1*
X3743397D2*
X3756603D1*
X3843397D2*
X3868995D1*
X31005Y875879D2*
X3176310D1*
X3248690D2*
X3661329D1*
X3738671D2*
X3761329D1*
X3838671D2*
X3868995D1*
X31005Y866010D2*
X3177472D1*
X3247528D2*
X3669923D1*
X3730077D2*
X3769923D1*
X3830077D2*
X3868995D1*
X31005Y856142D2*
X3181778D1*
X3243222D2*
X3690226D1*
X3709774D2*
X3790226D1*
X3809774D2*
X3868995D1*
X31005Y846273D2*
X3191153D1*
X3233847D2*
X3868995D1*
X31005Y836404D2*
X3673019D1*
X3726981D2*
X3773019D1*
X3826981D2*
X3868995D1*
X31005Y826535D2*
X3662989D1*
X3737011D2*
X3762989D1*
X3837011D2*
X3868995D1*
X31005Y816667D2*
X3657491D1*
X3742509D2*
X3757491D1*
X3842509D2*
X3868995D1*
X31005Y806798D2*
X3654796D1*
X3745204D2*
X3754796D1*
X3845204D2*
X3868995D1*
X31005Y796929D2*
X3654376D1*
X3745624D2*
X3754376D1*
X3845624D2*
X3868995D1*
X31005Y787060D2*
X3656183D1*
X3743817D2*
X3756183D1*
X3843817D2*
X3868995D1*
X31005Y777192D2*
X3660528D1*
X3739472D2*
X3760528D1*
X3839472D2*
X3868995D1*
X31005Y767323D2*
X3668458D1*
X3731542D2*
X3768458D1*
X3831542D2*
X3868995D1*
X31005Y757454D2*
X2762999D1*
X2812001D2*
X3685206D1*
X3714794D2*
X3785206D1*
X3814794D2*
X3868995D1*
X31005Y747585D2*
X2755323D1*
X2819677D2*
X2927413D1*
X2935087D2*
X3868995D1*
X31005Y737717D2*
X2751896D1*
X2823104D2*
X2905694D1*
X2956806D2*
X3674962D1*
X3725038D2*
X3774962D1*
X3825038D2*
X3868995D1*
X31005Y727848D2*
X2751466D1*
X2823534D2*
X2898575D1*
X2963925D2*
X3663995D1*
X3736005D2*
X3763995D1*
X3836005D2*
X3868995D1*
X31005Y717979D2*
X2753897D1*
X2821103D2*
X2895479D1*
X2967021D2*
X3658048D1*
X3741952D2*
X3758048D1*
X3841952D2*
X3868995D1*
X31005Y708110D2*
X2759972D1*
X2815028D2*
X2895323D1*
X2967177D2*
X3524552D1*
X3550448D2*
X3655011D1*
X3744989D2*
X3755011D1*
X3844989D2*
X3868995D1*
X31005Y698241D2*
X2774269D1*
X2800731D2*
X2898067D1*
X2964433D2*
X3510060D1*
X3564940D2*
X3654308D1*
X3745692D2*
X3754308D1*
X3845692D2*
X3868995D1*
X31005Y688373D2*
X2904620D1*
X2957880D2*
X3503937D1*
X3571063D2*
X3655812D1*
X3744188D2*
X3755812D1*
X3844188D2*
X3868995D1*
X31005Y678504D2*
X2921124D1*
X2941376D2*
X3501476D1*
X3573524D2*
X3659776D1*
X3740224D2*
X3759776D1*
X3840224D2*
X3868995D1*
X31005Y668635D2*
X3501876D1*
X3573124D2*
X3667110D1*
X3732890D2*
X3767110D1*
X3832890D2*
X3868995D1*
X31005Y658766D2*
X2789054D1*
X2810946D2*
X3505265D1*
X3569735D2*
X3681671D1*
X3718329D2*
X3781671D1*
X3818329D2*
X3868995D1*
X31005Y648898D2*
X2773155D1*
X2826845D2*
X3512882D1*
X3562118D2*
X3868995D1*
X31005Y639029D2*
X2766720D1*
X2833280D2*
X3677149D1*
X3722851D2*
X3777149D1*
X3822851D2*
X3868995D1*
X31005Y629160D2*
X2764044D1*
X2835956D2*
X3665089D1*
X3734911D2*
X3765089D1*
X3834911D2*
X3868995D1*
X31005Y619291D2*
X2764269D1*
X2835731D2*
X3658644D1*
X3741356D2*
X3758644D1*
X3841356D2*
X3868995D1*
X31005Y609423D2*
X2767433D1*
X2832567D2*
X3655274D1*
X3744726D2*
X3755274D1*
X3844726D2*
X3868995D1*
X31005Y599554D2*
X2774679D1*
X2825321D2*
X3654278D1*
X3745722D2*
X3754278D1*
X3845722D2*
X3868995D1*
X31005Y589685D2*
X3655479D1*
X3744521D2*
X3755479D1*
X3844521D2*
X3868995D1*
X31005Y579816D2*
X3659083D1*
X3740917D2*
X3759083D1*
X3840917D2*
X3868995D1*
X31005Y569948D2*
X3665870D1*
X3734130D2*
X3765870D1*
X3834130D2*
X3868995D1*
X31005Y560079D2*
X2796085D1*
X2803915D2*
X3678829D1*
X3721171D2*
X3778829D1*
X3821171D2*
X3868995D1*
X31005Y550210D2*
X2774435D1*
X2825565D2*
X3868995D1*
X31005Y540341D2*
X2767315D1*
X2832685D2*
X3679679D1*
X3720321D2*
X3779679D1*
X3820321D2*
X3868995D1*
X31005Y530472D2*
X2764229D1*
X2835771D2*
X3666261D1*
X3733739D2*
X3766261D1*
X3833739D2*
X3868995D1*
X31005Y520604D2*
X2764073D1*
X2835927D2*
X3659298D1*
X3740702D2*
X3759298D1*
X3840702D2*
X3868995D1*
X31005Y510735D2*
X2766817D1*
X2833183D2*
X3655577D1*
X3744423D2*
X3755577D1*
X3844423D2*
X3868995D1*
X31005Y500866D2*
X2773380D1*
X2826620D2*
X3654278D1*
X3745722D2*
X3754278D1*
X3845722D2*
X3868995D1*
X31005Y490997D2*
X2789894D1*
X2810106D2*
X3465841D1*
X3509159D2*
X3655187D1*
X3744813D2*
X3755187D1*
X3844813D2*
X3868995D1*
X31005Y481129D2*
X3456632D1*
X3518368D2*
X3658448D1*
X3741552D2*
X3758448D1*
X3841552D2*
X3868995D1*
X31005Y471260D2*
X3452403D1*
X3522597D2*
X3664728D1*
X3735272D2*
X3764728D1*
X3835272D2*
X3868995D1*
X31005Y461391D2*
X3451319D1*
X3523681D2*
X3676417D1*
X3723583D2*
X3776417D1*
X3823583D2*
X3868995D1*
X31005Y451522D2*
X2775860D1*
X2824140D2*
X3453058D1*
X3521942D2*
X3868995D1*
X31005Y441654D2*
X2767989D1*
X2832011D2*
X3458136D1*
X3516864D2*
X3682706D1*
X3717294D2*
X3782706D1*
X3817294D2*
X3868995D1*
X31005Y431785D2*
X2764464D1*
X2835536D2*
X3469308D1*
X3505692D2*
X3667530D1*
X3732470D2*
X3767530D1*
X3832470D2*
X3868995D1*
X31005Y421916D2*
X2763937D1*
X2836063D2*
X3660011D1*
X3739989D2*
X3760011D1*
X3839989D2*
X3868995D1*
X31005Y412047D2*
X2766271D1*
X2833729D2*
X3655929D1*
X3744071D2*
X3755929D1*
X3844071D2*
X3868995D1*
X31005Y402178D2*
X2772198D1*
X2827802D2*
X3654327D1*
X3745673D2*
X3754327D1*
X3845673D2*
X3868995D1*
X31005Y392310D2*
X2785948D1*
X2814052D2*
X3654942D1*
X3745058D2*
X3754942D1*
X3845058D2*
X3868995D1*
X31005Y382441D2*
X3657862D1*
X3742138D2*
X3757862D1*
X3842138D2*
X3868995D1*
X31005Y372572D2*
X3663673D1*
X3736327D2*
X3763673D1*
X3836327D2*
X3868995D1*
X31005Y362703D2*
X3674308D1*
X3725692D2*
X3774308D1*
X3825692D2*
X3868995D1*
X31005Y352835D2*
X3868995D1*
X31005Y342966D2*
X3686573D1*
X3713427D2*
X3786573D1*
X3813427D2*
X3868995D1*
X31005Y333097D2*
X3668917D1*
X3731083D2*
X3768917D1*
X3831083D2*
X3868995D1*
X31005Y323228D2*
X3660772D1*
X3739228D2*
X3760772D1*
X3839228D2*
X3868995D1*
X31005Y313360D2*
X3656310D1*
X3743690D2*
X3756310D1*
X3843690D2*
X3868995D1*
X31005Y303491D2*
X3654405D1*
X3745595D2*
X3754405D1*
X3845595D2*
X3868995D1*
X31005Y293622D2*
X3654728D1*
X3745272D2*
X3754728D1*
X3845272D2*
X3868995D1*
X31005Y283753D2*
X3476515D1*
X3498485D2*
X3657325D1*
X3742675D2*
X3757325D1*
X3842675D2*
X3868995D1*
X31005Y273885D2*
X3460646D1*
X3514354D2*
X3662687D1*
X3737313D2*
X3762687D1*
X3837313D2*
X3868995D1*
X31005Y264016D2*
X3454210D1*
X3520790D2*
X3672433D1*
X3727567D2*
X3772433D1*
X3827567D2*
X3868995D1*
X31005Y254147D2*
X3451544D1*
X3523456D2*
X3868995D1*
X31005Y244278D2*
X3451769D1*
X3523231D2*
X3868995D1*
X31005Y234409D2*
X3454942D1*
X3520058D2*
X3868995D1*
X31005Y224541D2*
X3462188D1*
X3512812D2*
X3868995D1*
X31005Y214672D2*
X3868995D1*
X31005Y204803D2*
X3868995D1*
X31005Y194934D2*
X3868995D1*
X31005Y185066D2*
X3868995D1*
X31005Y175197D2*
X520567D1*
X579433D2*
X3770567D1*
X3829433D2*
X3868995D1*
X31005Y165328D2*
X502149D1*
X597851D2*
X2627442D1*
X2672558D2*
X2802442D1*
X2847558D2*
X3152442D1*
X3197558D2*
X3752149D1*
X3847851D2*
X3868995D1*
X31005Y155459D2*
X490802D1*
X609198D2*
X2618722D1*
X2681278D2*
X2793722D1*
X2856278D2*
X3143722D1*
X3206278D2*
X3740802D1*
X3859198D2*
X3868995D1*
X31005Y145591D2*
X482784D1*
X617216D2*
X2614747D1*
X2685253D2*
X2789747D1*
X2860253D2*
X3139747D1*
X3210253D2*
X3732784D1*
X31005Y135722D2*
X476974D1*
X623026D2*
X1072081D1*
X1127919D2*
X1172081D1*
X1227919D2*
X1272081D1*
X1327919D2*
X1372081D1*
X1427919D2*
X1472081D1*
X1527919D2*
X1572081D1*
X1627919D2*
X1672081D1*
X1727919D2*
X1772081D1*
X1827919D2*
X2613849D1*
X2686151D2*
X2788849D1*
X2861151D2*
X3138849D1*
X3211151D2*
X3726974D1*
X31005Y125853D2*
X472872D1*
X627128D2*
X1062501D1*
X1137499D2*
X1162501D1*
X1237499D2*
X1262501D1*
X1337499D2*
X1362501D1*
X1437499D2*
X1462501D1*
X1537499D2*
X1562501D1*
X1637499D2*
X1662501D1*
X1737499D2*
X1762501D1*
X1837499D2*
X2615782D1*
X2684218D2*
X2790782D1*
X2859218D2*
X3140782D1*
X3209218D2*
X3722872D1*
X31005Y115984D2*
X470216D1*
X629784D2*
X1057228D1*
X1142772D2*
X1157228D1*
X1242772D2*
X1257228D1*
X1342772D2*
X1357228D1*
X1442772D2*
X1457228D1*
X1542772D2*
X1557228D1*
X1642772D2*
X1657228D1*
X1742772D2*
X1757228D1*
X1842772D2*
X2621144D1*
X2678856D2*
X2796144D1*
X2853856D2*
X3146144D1*
X3203856D2*
X3720216D1*
X31005Y106115D2*
X468839D1*
X631161D2*
X1054688D1*
X1145312D2*
X1154688D1*
X1245312D2*
X1254688D1*
X1345312D2*
X1354688D1*
X1445312D2*
X1454688D1*
X1545312D2*
X1554688D1*
X1645312D2*
X1654688D1*
X1745312D2*
X1754688D1*
X1845312D2*
X2633058D1*
X2666942D2*
X2808058D1*
X2841942D2*
X3158058D1*
X3191942D2*
X3718839D1*
X31005Y96247D2*
X468692D1*
X631308D2*
X1054435D1*
X1145565D2*
X1154435D1*
X1245565D2*
X1254435D1*
X1345565D2*
X1354435D1*
X1445565D2*
X1454435D1*
X1545565D2*
X1554435D1*
X1645565D2*
X1654435D1*
X1745565D2*
X1754435D1*
X1845565D2*
X3718692D1*
X31005Y86378D2*
X469767D1*
X630233D2*
X1056397D1*
X1143603D2*
X1156397D1*
X1243603D2*
X1256397D1*
X1343603D2*
X1356397D1*
X1443603D2*
X1456397D1*
X1543603D2*
X1556397D1*
X1643603D2*
X1656397D1*
X1743603D2*
X1756397D1*
X1843603D2*
X3719767D1*
X31005Y76509D2*
X472110D1*
X627890D2*
X1060938D1*
X1139062D2*
X1160938D1*
X1239062D2*
X1260938D1*
X1339062D2*
X1360938D1*
X1439062D2*
X1460938D1*
X1539062D2*
X1560938D1*
X1639062D2*
X1660938D1*
X1739062D2*
X1760938D1*
X1839062D2*
X3722110D1*
X31005Y66640D2*
X475851D1*
X624149D2*
X1069210D1*
X1130790D2*
X1169210D1*
X1230790D2*
X1269210D1*
X1330790D2*
X1369210D1*
X1430790D2*
X1469210D1*
X1530790D2*
X1569210D1*
X1630790D2*
X1669210D1*
X1730790D2*
X1769210D1*
X1830790D2*
X3725851D1*
X31005Y56772D2*
X481222D1*
X618778D2*
X1087521D1*
X1112479D2*
X1187521D1*
X1212479D2*
X1287521D1*
X1312479D2*
X1387521D1*
X1412479D2*
X1487521D1*
X1512479D2*
X1587521D1*
X1612479D2*
X1687521D1*
X1712479D2*
X1787521D1*
X1812479D2*
X3731222D1*
X31005Y46903D2*
X488634D1*
X611366D2*
X3738634D1*
X31005Y37034D2*
X499015D1*
X600985D2*
X3749015D1*
X1144448Y95010D2*
X1143610Y90065D1*
X1142224Y85245D1*
X1140306Y80610D1*
X1137882Y76219D1*
X1134981Y72127D1*
X1131640Y68386D1*
X1127902Y65042D1*
X1123812Y62138D1*
X1119423Y59710D1*
X1114790Y57788D1*
X1109971Y56398D1*
X1105026Y55556D1*
X1100018Y55272D1*
X1095010Y55552D1*
X1090065Y56390D1*
X1085245Y57776D1*
X1080610Y59694D1*
X1076219Y62118D1*
X1072127Y65019D1*
X1068386Y68360D1*
X1065042Y72098D1*
X1062138Y76188D1*
X1059710Y80577D1*
X1057788Y85210D1*
X1056398Y90029D1*
X1055556Y94974D1*
X1055272Y99982D1*
X1055552Y104990D1*
X1056390Y109935D1*
X1057776Y114755D1*
X1059694Y119390D1*
X1062118Y123781D1*
X1065019Y127873D1*
X1068360Y131614D1*
X1072098Y134958D1*
X1076188Y137862D1*
X1080577Y140290D1*
X1085210Y142212D1*
X1090029Y143602D1*
X1094974Y144444D1*
X1099982Y144728D1*
X1104990Y144448D1*
X1109935Y143610D1*
X1114755Y142224D1*
X1119390Y140306D1*
X1123781Y137882D1*
X1127873Y134981D1*
X1131614Y131640D1*
X1134958Y127902D1*
X1137862Y123812D1*
X1140290Y119423D1*
X1142212Y114790D1*
X1143602Y109971D1*
X1144444Y105026D1*
X1144728Y100000D1*
X1144448Y95010D1*
X1244448D2*
X1243610Y90065D1*
X1242224Y85245D1*
X1240306Y80610D1*
X1237882Y76219D1*
X1234981Y72127D1*
X1231640Y68386D1*
X1227902Y65042D1*
X1223812Y62138D1*
X1219423Y59710D1*
X1214790Y57788D1*
X1209971Y56398D1*
X1205026Y55556D1*
X1200018Y55272D1*
X1195010Y55552D1*
X1190065Y56390D1*
X1185245Y57776D1*
X1180610Y59694D1*
X1176219Y62118D1*
X1172127Y65019D1*
X1168386Y68360D1*
X1165042Y72098D1*
X1162138Y76188D1*
X1159710Y80577D1*
X1157788Y85210D1*
X1156398Y90029D1*
X1155556Y94974D1*
X1155272Y99982D1*
X1155552Y104990D1*
X1156390Y109935D1*
X1157776Y114755D1*
X1159694Y119390D1*
X1162118Y123781D1*
X1165019Y127873D1*
X1168360Y131614D1*
X1172098Y134958D1*
X1176188Y137862D1*
X1180577Y140290D1*
X1185210Y142212D1*
X1190029Y143602D1*
X1194974Y144444D1*
X1199982Y144728D1*
X1204990Y144448D1*
X1209935Y143610D1*
X1214755Y142224D1*
X1219390Y140306D1*
X1223781Y137882D1*
X1227873Y134981D1*
X1231614Y131640D1*
X1234958Y127902D1*
X1237862Y123812D1*
X1240290Y119423D1*
X1242212Y114790D1*
X1243602Y109971D1*
X1244444Y105026D1*
X1244728Y100000D1*
X1244448Y95010D1*
X1344448D2*
X1343610Y90065D1*
X1342224Y85245D1*
X1340306Y80610D1*
X1337882Y76219D1*
X1334981Y72127D1*
X1331640Y68386D1*
X1327902Y65042D1*
X1323812Y62138D1*
X1319423Y59710D1*
X1314790Y57788D1*
X1309971Y56398D1*
X1305026Y55556D1*
X1300018Y55272D1*
X1295010Y55552D1*
X1290065Y56390D1*
X1285245Y57776D1*
X1280610Y59694D1*
X1276219Y62118D1*
X1272127Y65019D1*
X1268386Y68360D1*
X1265042Y72098D1*
X1262138Y76188D1*
X1259710Y80577D1*
X1257788Y85210D1*
X1256398Y90029D1*
X1255556Y94974D1*
X1255272Y99982D1*
X1255552Y104990D1*
X1256390Y109935D1*
X1257776Y114755D1*
X1259694Y119390D1*
X1262118Y123781D1*
X1265019Y127873D1*
X1268360Y131614D1*
X1272098Y134958D1*
X1276188Y137862D1*
X1280577Y140290D1*
X1285210Y142212D1*
X1290029Y143602D1*
X1294974Y144444D1*
X1299982Y144728D1*
X1304990Y144448D1*
X1309935Y143610D1*
X1314755Y142224D1*
X1319390Y140306D1*
X1323781Y137882D1*
X1327873Y134981D1*
X1331614Y131640D1*
X1334958Y127902D1*
X1337862Y123812D1*
X1340290Y119423D1*
X1342212Y114790D1*
X1343602Y109971D1*
X1344444Y105026D1*
X1344728Y100000D1*
X1344448Y95010D1*
X1444448D2*
X1443610Y90065D1*
X1442224Y85245D1*
X1440306Y80610D1*
X1437882Y76219D1*
X1434981Y72127D1*
X1431640Y68386D1*
X1427902Y65042D1*
X1423812Y62138D1*
X1419423Y59710D1*
X1414790Y57788D1*
X1409971Y56398D1*
X1405026Y55556D1*
X1400018Y55272D1*
X1395010Y55552D1*
X1390065Y56390D1*
X1385245Y57776D1*
X1380610Y59694D1*
X1376219Y62118D1*
X1372127Y65019D1*
X1368386Y68360D1*
X1365042Y72098D1*
X1362138Y76188D1*
X1359710Y80577D1*
X1357788Y85210D1*
X1356398Y90029D1*
X1355556Y94974D1*
X1355272Y99982D1*
X1355552Y104990D1*
X1356390Y109935D1*
X1357776Y114755D1*
X1359694Y119390D1*
X1362118Y123781D1*
X1365019Y127873D1*
X1368360Y131614D1*
X1372098Y134958D1*
X1376188Y137862D1*
X1380577Y140290D1*
X1385210Y142212D1*
X1390029Y143602D1*
X1394974Y144444D1*
X1399982Y144728D1*
X1404990Y144448D1*
X1409935Y143610D1*
X1414755Y142224D1*
X1419390Y140306D1*
X1423781Y137882D1*
X1427873Y134981D1*
X1431614Y131640D1*
X1434958Y127902D1*
X1437862Y123812D1*
X1440290Y119423D1*
X1442212Y114790D1*
X1443602Y109971D1*
X1444444Y105026D1*
X1444728Y100000D1*
X1444448Y95010D1*
X1544448D2*
X1543610Y90065D1*
X1542224Y85245D1*
X1540306Y80610D1*
X1537882Y76219D1*
X1534981Y72127D1*
X1531640Y68386D1*
X1527902Y65042D1*
X1523812Y62138D1*
X1519423Y59710D1*
X1514790Y57788D1*
X1509971Y56398D1*
X1505026Y55556D1*
X1500018Y55272D1*
X1495010Y55552D1*
X1490065Y56390D1*
X1485245Y57776D1*
X1480610Y59694D1*
X1476219Y62118D1*
X1472127Y65019D1*
X1468386Y68360D1*
X1465042Y72098D1*
X1462138Y76188D1*
X1459710Y80577D1*
X1457788Y85210D1*
X1456398Y90029D1*
X1455556Y94974D1*
X1455272Y99982D1*
X1455552Y104990D1*
X1456390Y109935D1*
X1457776Y114755D1*
X1459694Y119390D1*
X1462118Y123781D1*
X1465019Y127873D1*
X1468360Y131614D1*
X1472098Y134958D1*
X1476188Y137862D1*
X1480577Y140290D1*
X1485210Y142212D1*
X1490029Y143602D1*
X1494974Y144444D1*
X1499982Y144728D1*
X1504990Y144448D1*
X1509935Y143610D1*
X1514755Y142224D1*
X1519390Y140306D1*
X1523781Y137882D1*
X1527873Y134981D1*
X1531614Y131640D1*
X1534958Y127902D1*
X1537862Y123812D1*
X1540290Y119423D1*
X1542212Y114790D1*
X1543602Y109971D1*
X1544444Y105026D1*
X1544728Y100000D1*
X1544448Y95010D1*
X1644697Y98334D2*
X1644604Y96673D1*
X1644449Y95018D1*
X1644233Y93369D1*
X1643956Y91730D1*
X1643618Y90101D1*
X1643220Y88487D1*
X1642763Y86888D1*
X1642246Y85308D1*
X1641670Y83748D1*
X1641038Y82210D1*
X1640348Y80697D1*
X1639603Y79211D1*
X1638802Y77753D1*
X1637949Y76326D1*
X1637043Y74932D1*
X1636085Y73572D1*
X1635078Y72249D1*
X1634022Y70965D1*
X1632919Y69720D1*
X1631771Y68517D1*
X1630579Y67358D1*
X1629345Y66244D1*
X1628070Y65177D1*
X1626756Y64158D1*
X1625405Y63188D1*
X1624019Y62269D1*
X1622600Y61402D1*
X1621150Y60589D1*
X1619670Y59830D1*
X1618164Y59127D1*
X1616632Y58480D1*
X1615077Y57890D1*
X1613501Y57359D1*
X1611907Y56886D1*
X1610296Y56474D1*
X1608671Y56121D1*
X1607034Y55829D1*
X1605388Y55598D1*
X1603733Y55429D1*
X1602074Y55321D1*
X1600412Y55274D1*
X1598749Y55290D1*
X1597088Y55367D1*
X1595431Y55506D1*
X1593781Y55707D1*
X1592138Y55969D1*
X1590507Y56291D1*
X1588889Y56674D1*
X1587286Y57117D1*
X1585701Y57620D1*
X1584136Y58180D1*
X1582592Y58799D1*
X1581073Y59474D1*
X1579580Y60206D1*
X1578115Y60992D1*
X1576680Y61833D1*
X1575277Y62726D1*
X1573909Y63671D1*
X1572577Y64666D1*
X1571282Y65709D1*
X1570027Y66801D1*
X1568814Y67938D1*
X1567644Y69119D1*
X1566518Y70343D1*
X1565439Y71608D1*
X1564408Y72912D1*
X1563426Y74254D1*
X1562494Y75631D1*
X1561614Y77042D1*
X1560787Y78485D1*
X1560014Y79957D1*
X1559297Y81457D1*
X1558636Y82983D1*
X1558032Y84532D1*
X1557486Y86103D1*
X1556999Y87693D1*
X1556571Y89300D1*
X1556204Y90921D1*
X1555896Y92555D1*
X1555650Y94200D1*
X1555465Y95852D1*
X1555342Y97511D1*
X1555280Y99172D1*
Y100835D1*
X1555342Y102497D1*
X1555466Y104155D1*
X1555651Y105807D1*
X1555898Y107452D1*
X1556205Y109086D1*
X1556573Y110708D1*
X1557001Y112314D1*
X1557488Y113904D1*
X1558035Y115475D1*
X1558639Y117024D1*
X1559300Y118550D1*
X1560018Y120050D1*
X1560791Y121522D1*
X1561618Y122964D1*
X1562498Y124375D1*
X1563430Y125752D1*
X1564412Y127094D1*
X1565444Y128398D1*
X1566523Y129663D1*
X1567649Y130886D1*
X1568820Y132068D1*
X1570033Y133204D1*
X1571288Y134295D1*
X1572583Y135339D1*
X1573915Y136334D1*
X1575284Y137278D1*
X1576686Y138171D1*
X1578121Y139011D1*
X1579586Y139797D1*
X1581080Y140529D1*
X1582599Y141204D1*
X1584143Y141822D1*
X1585708Y142383D1*
X1587294Y142885D1*
X1588896Y143327D1*
X1590515Y143710D1*
X1592146Y144033D1*
X1593788Y144294D1*
X1595439Y144494D1*
X1597096Y144633D1*
X1598757Y144710D1*
X1600419Y144726D1*
X1602082Y144679D1*
X1603741Y144571D1*
X1605395Y144401D1*
X1607042Y144170D1*
X1608679Y143878D1*
X1610304Y143525D1*
X1611914Y143112D1*
X1613508Y142639D1*
X1615084Y142107D1*
X1616639Y141518D1*
X1618170Y140870D1*
X1619677Y140167D1*
X1621156Y139408D1*
X1622607Y138594D1*
X1624026Y137727D1*
X1625411Y136808D1*
X1626762Y135838D1*
X1628075Y134818D1*
X1629350Y133751D1*
X1630584Y132637D1*
X1631776Y131477D1*
X1632924Y130274D1*
X1634027Y129030D1*
X1635083Y127745D1*
X1636090Y126422D1*
X1637047Y125062D1*
X1637953Y123667D1*
X1638806Y122240D1*
X1639606Y120783D1*
X1640351Y119296D1*
X1641041Y117783D1*
X1641673Y116245D1*
X1642248Y114685D1*
X1642765Y113104D1*
X1643222Y111506D1*
X1643620Y109891D1*
X1643958Y108263D1*
X1644234Y106623D1*
X1644450Y104975D1*
X1644604Y103319D1*
X1644697Y101659D1*
X1644728Y100000D1*
X1644697Y98334D1*
X1744697D2*
X1744604Y96673D1*
X1744449Y95018D1*
X1744233Y93369D1*
X1743956Y91730D1*
X1743618Y90101D1*
X1743220Y88487D1*
X1742763Y86888D1*
X1742246Y85308D1*
X1741670Y83748D1*
X1741038Y82210D1*
X1740348Y80697D1*
X1739603Y79211D1*
X1738802Y77753D1*
X1737949Y76326D1*
X1737043Y74932D1*
X1736085Y73572D1*
X1735078Y72249D1*
X1734022Y70965D1*
X1732919Y69720D1*
X1731771Y68517D1*
X1730579Y67358D1*
X1729345Y66244D1*
X1728070Y65177D1*
X1726756Y64158D1*
X1725405Y63188D1*
X1724019Y62269D1*
X1722600Y61402D1*
X1721150Y60589D1*
X1719670Y59830D1*
X1718164Y59127D1*
X1716632Y58480D1*
X1715077Y57890D1*
X1713501Y57359D1*
X1711907Y56886D1*
X1710296Y56474D1*
X1708671Y56121D1*
X1707034Y55829D1*
X1705388Y55598D1*
X1703733Y55429D1*
X1702074Y55321D1*
X1700412Y55274D1*
X1698749Y55290D1*
X1697088Y55367D1*
X1695431Y55506D1*
X1693781Y55707D1*
X1692138Y55969D1*
X1690507Y56291D1*
X1688889Y56674D1*
X1687286Y57117D1*
X1685701Y57620D1*
X1684136Y58180D1*
X1682592Y58799D1*
X1681073Y59474D1*
X1679580Y60206D1*
X1678115Y60992D1*
X1676680Y61833D1*
X1675277Y62726D1*
X1673909Y63671D1*
X1672577Y64666D1*
X1671282Y65709D1*
X1670027Y66801D1*
X1668814Y67938D1*
X1667644Y69119D1*
X1666518Y70343D1*
X1665439Y71608D1*
X1664408Y72912D1*
X1663426Y74254D1*
X1662494Y75631D1*
X1661614Y77042D1*
X1660787Y78485D1*
X1660014Y79957D1*
X1659297Y81457D1*
X1658636Y82983D1*
X1658032Y84532D1*
X1657486Y86103D1*
X1656999Y87693D1*
X1656571Y89300D1*
X1656204Y90921D1*
X1655896Y92555D1*
X1655650Y94200D1*
X1655465Y95852D1*
X1655342Y97511D1*
X1655280Y99172D1*
Y100835D1*
X1655342Y102497D1*
X1655466Y104155D1*
X1655651Y105807D1*
X1655898Y107452D1*
X1656205Y109086D1*
X1656573Y110708D1*
X1657001Y112314D1*
X1657488Y113904D1*
X1658035Y115475D1*
X1658639Y117024D1*
X1659300Y118550D1*
X1660018Y120050D1*
X1660791Y121522D1*
X1661618Y122964D1*
X1662498Y124375D1*
X1663430Y125752D1*
X1664412Y127094D1*
X1665444Y128398D1*
X1666523Y129663D1*
X1667649Y130886D1*
X1668820Y132068D1*
X1670033Y133204D1*
X1671288Y134295D1*
X1672583Y135339D1*
X1673915Y136334D1*
X1675284Y137278D1*
X1676686Y138171D1*
X1678121Y139011D1*
X1679586Y139797D1*
X1681080Y140529D1*
X1682599Y141204D1*
X1684143Y141822D1*
X1685708Y142383D1*
X1687294Y142885D1*
X1688896Y143327D1*
X1690515Y143710D1*
X1692146Y144033D1*
X1693788Y144294D1*
X1695439Y144494D1*
X1697096Y144633D1*
X1698757Y144710D1*
X1700419Y144726D1*
X1702082Y144679D1*
X1703741Y144571D1*
X1705395Y144401D1*
X1707042Y144170D1*
X1708679Y143878D1*
X1710304Y143525D1*
X1711914Y143112D1*
X1713508Y142639D1*
X1715084Y142107D1*
X1716639Y141518D1*
X1718170Y140870D1*
X1719677Y140167D1*
X1721156Y139408D1*
X1722607Y138594D1*
X1724026Y137727D1*
X1725411Y136808D1*
X1726762Y135838D1*
X1728075Y134818D1*
X1729350Y133751D1*
X1730584Y132637D1*
X1731776Y131477D1*
X1732924Y130274D1*
X1734027Y129030D1*
X1735083Y127745D1*
X1736090Y126422D1*
X1737047Y125062D1*
X1737953Y123667D1*
X1738806Y122240D1*
X1739606Y120783D1*
X1740351Y119296D1*
X1741041Y117783D1*
X1741673Y116245D1*
X1742248Y114685D1*
X1742765Y113104D1*
X1743222Y111506D1*
X1743620Y109891D1*
X1743958Y108263D1*
X1744234Y106623D1*
X1744450Y104975D1*
X1744604Y103319D1*
X1744697Y101659D1*
X1744728Y100000D1*
X1744697Y98334D1*
X1844448Y95010D2*
X1843610Y90065D1*
X1842224Y85245D1*
X1840306Y80610D1*
X1837882Y76219D1*
X1834981Y72127D1*
X1831640Y68386D1*
X1827902Y65042D1*
X1823812Y62138D1*
X1819423Y59710D1*
X1814790Y57788D1*
X1809971Y56398D1*
X1805026Y55556D1*
X1800018Y55272D1*
X1795010Y55552D1*
X1790065Y56390D1*
X1785245Y57776D1*
X1780610Y59694D1*
X1776219Y62118D1*
X1772127Y65019D1*
X1768386Y68360D1*
X1765042Y72098D1*
X1762138Y76188D1*
X1759710Y80577D1*
X1757788Y85210D1*
X1756398Y90029D1*
X1755556Y94974D1*
X1755272Y99982D1*
X1755552Y104990D1*
X1756390Y109935D1*
X1757776Y114755D1*
X1759694Y119390D1*
X1762118Y123781D1*
X1765019Y127873D1*
X1768360Y131614D1*
X1772098Y134958D1*
X1776188Y137862D1*
X1780577Y140290D1*
X1785210Y142212D1*
X1790029Y143602D1*
X1794974Y144444D1*
X1799982Y144728D1*
X1804990Y144448D1*
X1809935Y143610D1*
X1814755Y142224D1*
X1819390Y140306D1*
X1823781Y137882D1*
X1827873Y134981D1*
X1831614Y131640D1*
X1834958Y127902D1*
X1837862Y123812D1*
X1840290Y119423D1*
X1842212Y114790D1*
X1843602Y109971D1*
X1844444Y105026D1*
X1844728Y100000D1*
X1844448Y95010D1*
X2544448Y1995010D2*
X2543610Y1990065D1*
X2542224Y1985245D1*
X2540306Y1980610D1*
X2537882Y1976219D1*
X2534981Y1972127D1*
X2531640Y1968386D1*
X2527902Y1965042D1*
X2523812Y1962138D1*
X2519423Y1959710D1*
X2514790Y1957788D1*
X2509971Y1956398D1*
X2505026Y1955556D1*
X2500018Y1955272D1*
X2495010Y1955552D1*
X2490065Y1956390D1*
X2485245Y1957776D1*
X2480610Y1959694D1*
X2476219Y1962118D1*
X2472127Y1965019D1*
X2468386Y1968360D1*
X2465042Y1972098D1*
X2462138Y1976188D1*
X2459710Y1980577D1*
X2457788Y1985210D1*
X2456398Y1990029D1*
X2455556Y1994974D1*
X2455272Y1999982D1*
X2455552Y2004990D1*
X2456390Y2009935D1*
X2457776Y2014755D1*
X2459694Y2019390D1*
X2462118Y2023781D1*
X2465019Y2027873D1*
X2468360Y2031614D1*
X2472098Y2034958D1*
X2476188Y2037862D1*
X2480577Y2040290D1*
X2485210Y2042212D1*
X2490029Y2043602D1*
X2494974Y2044444D1*
X2499982Y2044728D1*
X2504990Y2044448D1*
X2509935Y2043610D1*
X2514755Y2042224D1*
X2519390Y2040306D1*
X2523781Y2037882D1*
X2527873Y2034981D1*
X2531614Y2031640D1*
X2534958Y2027902D1*
X2537862Y2023812D1*
X2540290Y2019423D1*
X2542212Y2014790D1*
X2543602Y2009971D1*
X2544444Y2005026D1*
X2544728Y2000000D1*
X2544448Y1995010D1*
X2444448D2*
X2443610Y1990065D1*
X2442224Y1985245D1*
X2440306Y1980610D1*
X2437882Y1976219D1*
X2434981Y1972127D1*
X2431640Y1968386D1*
X2427902Y1965042D1*
X2423812Y1962138D1*
X2419423Y1959710D1*
X2414790Y1957788D1*
X2409971Y1956398D1*
X2405026Y1955556D1*
X2400018Y1955272D1*
X2395010Y1955552D1*
X2390065Y1956390D1*
X2385245Y1957776D1*
X2380610Y1959694D1*
X2376219Y1962118D1*
X2372127Y1965019D1*
X2368386Y1968360D1*
X2365042Y1972098D1*
X2362138Y1976188D1*
X2359710Y1980577D1*
X2357788Y1985210D1*
X2356398Y1990029D1*
X2355556Y1994974D1*
X2355272Y1999982D1*
X2355552Y2004990D1*
X2356390Y2009935D1*
X2357776Y2014755D1*
X2359694Y2019390D1*
X2362118Y2023781D1*
X2365019Y2027873D1*
X2368360Y2031614D1*
X2372098Y2034958D1*
X2376188Y2037862D1*
X2380577Y2040290D1*
X2385210Y2042212D1*
X2390029Y2043602D1*
X2394974Y2044444D1*
X2399982Y2044728D1*
X2404990Y2044448D1*
X2409935Y2043610D1*
X2414755Y2042224D1*
X2419390Y2040306D1*
X2423781Y2037882D1*
X2427873Y2034981D1*
X2431614Y2031640D1*
X2434958Y2027902D1*
X2437862Y2023812D1*
X2440290Y2019423D1*
X2442212Y2014790D1*
X2443602Y2009971D1*
X2444444Y2005026D1*
X2444728Y2000000D1*
X2444448Y1995010D1*
X2344448D2*
X2343610Y1990065D1*
X2342224Y1985245D1*
X2340306Y1980610D1*
X2337882Y1976219D1*
X2334981Y1972127D1*
X2331640Y1968386D1*
X2327902Y1965042D1*
X2323812Y1962138D1*
X2319423Y1959710D1*
X2314790Y1957788D1*
X2309971Y1956398D1*
X2305026Y1955556D1*
X2300018Y1955272D1*
X2295010Y1955552D1*
X2290065Y1956390D1*
X2285245Y1957776D1*
X2280610Y1959694D1*
X2276219Y1962118D1*
X2272127Y1965019D1*
X2268386Y1968360D1*
X2265042Y1972098D1*
X2262138Y1976188D1*
X2259710Y1980577D1*
X2257788Y1985210D1*
X2256398Y1990029D1*
X2255556Y1994974D1*
X2255272Y1999982D1*
X2255552Y2004990D1*
X2256390Y2009935D1*
X2257776Y2014755D1*
X2259694Y2019390D1*
X2262118Y2023781D1*
X2265019Y2027873D1*
X2268360Y2031614D1*
X2272098Y2034958D1*
X2276188Y2037862D1*
X2280577Y2040290D1*
X2285210Y2042212D1*
X2290029Y2043602D1*
X2294974Y2044444D1*
X2299982Y2044728D1*
X2304990Y2044448D1*
X2309935Y2043610D1*
X2314755Y2042224D1*
X2319390Y2040306D1*
X2323781Y2037882D1*
X2327873Y2034981D1*
X2331614Y2031640D1*
X2334958Y2027902D1*
X2337862Y2023812D1*
X2340290Y2019423D1*
X2342212Y2014790D1*
X2343602Y2009971D1*
X2344444Y2005026D1*
X2344728Y2000000D1*
X2344448Y1995010D1*
X2244448D2*
X2243610Y1990065D1*
X2242224Y1985245D1*
X2240306Y1980610D1*
X2237882Y1976219D1*
X2234981Y1972127D1*
X2231640Y1968386D1*
X2227902Y1965042D1*
X2223812Y1962138D1*
X2219423Y1959710D1*
X2214790Y1957788D1*
X2209971Y1956398D1*
X2205026Y1955556D1*
X2200018Y1955272D1*
X2195010Y1955552D1*
X2190065Y1956390D1*
X2185245Y1957776D1*
X2180610Y1959694D1*
X2176219Y1962118D1*
X2172127Y1965019D1*
X2168386Y1968360D1*
X2165042Y1972098D1*
X2162138Y1976188D1*
X2159710Y1980577D1*
X2157788Y1985210D1*
X2156398Y1990029D1*
X2155556Y1994974D1*
X2155272Y1999982D1*
X2155552Y2004990D1*
X2156390Y2009935D1*
X2157776Y2014755D1*
X2159694Y2019390D1*
X2162118Y2023781D1*
X2165019Y2027873D1*
X2168360Y2031614D1*
X2172098Y2034958D1*
X2176188Y2037862D1*
X2180577Y2040290D1*
X2185210Y2042212D1*
X2190029Y2043602D1*
X2194974Y2044444D1*
X2199982Y2044728D1*
X2204990Y2044448D1*
X2209935Y2043610D1*
X2214755Y2042224D1*
X2219390Y2040306D1*
X2223781Y2037882D1*
X2227873Y2034981D1*
X2231614Y2031640D1*
X2234958Y2027902D1*
X2237862Y2023812D1*
X2240290Y2019423D1*
X2242212Y2014790D1*
X2243602Y2009971D1*
X2244444Y2005026D1*
X2244728Y2000000D1*
X2244448Y1995010D1*
X2144448D2*
X2143610Y1990065D1*
X2142224Y1985245D1*
X2140306Y1980610D1*
X2137882Y1976219D1*
X2134981Y1972127D1*
X2131640Y1968386D1*
X2127902Y1965042D1*
X2123812Y1962138D1*
X2119423Y1959710D1*
X2114790Y1957788D1*
X2109971Y1956398D1*
X2105026Y1955556D1*
X2100018Y1955272D1*
X2095010Y1955552D1*
X2090065Y1956390D1*
X2085245Y1957776D1*
X2080610Y1959694D1*
X2076219Y1962118D1*
X2072127Y1965019D1*
X2068386Y1968360D1*
X2065042Y1972098D1*
X2062138Y1976188D1*
X2059710Y1980577D1*
X2057788Y1985210D1*
X2056398Y1990029D1*
X2055556Y1994974D1*
X2055272Y1999982D1*
X2055552Y2004990D1*
X2056390Y2009935D1*
X2057776Y2014755D1*
X2059694Y2019390D1*
X2062118Y2023781D1*
X2065019Y2027873D1*
X2068360Y2031614D1*
X2072098Y2034958D1*
X2076188Y2037862D1*
X2080577Y2040290D1*
X2085210Y2042212D1*
X2090029Y2043602D1*
X2094974Y2044444D1*
X2099982Y2044728D1*
X2104990Y2044448D1*
X2109935Y2043610D1*
X2114755Y2042224D1*
X2119390Y2040306D1*
X2123781Y2037882D1*
X2127873Y2034981D1*
X2131614Y2031640D1*
X2134958Y2027902D1*
X2137862Y2023812D1*
X2140290Y2019423D1*
X2142212Y2014790D1*
X2143602Y2009971D1*
X2144444Y2005026D1*
X2144728Y2000000D1*
X2144448Y1995010D1*
X2044448D2*
X2043610Y1990065D1*
X2042224Y1985245D1*
X2040306Y1980610D1*
X2037882Y1976219D1*
X2034981Y1972127D1*
X2031640Y1968386D1*
X2027902Y1965042D1*
X2023812Y1962138D1*
X2019423Y1959710D1*
X2014790Y1957788D1*
X2009971Y1956398D1*
X2005026Y1955556D1*
X2000018Y1955272D1*
X1995010Y1955552D1*
X1990065Y1956390D1*
X1985245Y1957776D1*
X1980610Y1959694D1*
X1976219Y1962118D1*
X1972127Y1965019D1*
X1968386Y1968360D1*
X1965042Y1972098D1*
X1962138Y1976188D1*
X1959710Y1980577D1*
X1957788Y1985210D1*
X1956398Y1990029D1*
X1955556Y1994974D1*
X1955272Y1999982D1*
X1955552Y2004990D1*
X1956390Y2009935D1*
X1957776Y2014755D1*
X1959694Y2019390D1*
X1962118Y2023781D1*
X1965019Y2027873D1*
X1968360Y2031614D1*
X1972098Y2034958D1*
X1976188Y2037862D1*
X1980577Y2040290D1*
X1985210Y2042212D1*
X1990029Y2043602D1*
X1994974Y2044444D1*
X1999982Y2044728D1*
X2004990Y2044448D1*
X2009935Y2043610D1*
X2014755Y2042224D1*
X2019390Y2040306D1*
X2023781Y2037882D1*
X2027873Y2034981D1*
X2031614Y2031640D1*
X2034958Y2027902D1*
X2037862Y2023812D1*
X2040290Y2019423D1*
X2042212Y2014790D1*
X2043602Y2009971D1*
X2044444Y2005026D1*
X2044728Y2000000D1*
X2044448Y1995010D1*
X1944448D2*
X1943610Y1990065D1*
X1942224Y1985245D1*
X1940306Y1980610D1*
X1937882Y1976219D1*
X1934981Y1972127D1*
X1931640Y1968386D1*
X1927902Y1965042D1*
X1923812Y1962138D1*
X1919423Y1959710D1*
X1914790Y1957788D1*
X1909971Y1956398D1*
X1905026Y1955556D1*
X1900018Y1955272D1*
X1895010Y1955552D1*
X1890065Y1956390D1*
X1885245Y1957776D1*
X1880610Y1959694D1*
X1876219Y1962118D1*
X1872127Y1965019D1*
X1868386Y1968360D1*
X1865042Y1972098D1*
X1862138Y1976188D1*
X1859710Y1980577D1*
X1857788Y1985210D1*
X1856398Y1990029D1*
X1855556Y1994974D1*
X1855272Y1999982D1*
X1855552Y2004990D1*
X1856390Y2009935D1*
X1857776Y2014755D1*
X1859694Y2019390D1*
X1862118Y2023781D1*
X1865019Y2027873D1*
X1868360Y2031614D1*
X1872098Y2034958D1*
X1876188Y2037862D1*
X1880577Y2040290D1*
X1885210Y2042212D1*
X1890029Y2043602D1*
X1894974Y2044444D1*
X1899982Y2044728D1*
X1904990Y2044448D1*
X1909935Y2043610D1*
X1914755Y2042224D1*
X1919390Y2040306D1*
X1923781Y2037882D1*
X1927873Y2034981D1*
X1931614Y2031640D1*
X1934958Y2027902D1*
X1937862Y2023812D1*
X1940290Y2019423D1*
X1942212Y2014790D1*
X1943602Y2009971D1*
X1944444Y2005026D1*
X1944728Y2000000D1*
X1944448Y1995010D1*
X1844448D2*
X1843610Y1990065D1*
X1842224Y1985245D1*
X1840306Y1980610D1*
X1837882Y1976219D1*
X1834981Y1972127D1*
X1831640Y1968386D1*
X1827902Y1965042D1*
X1823812Y1962138D1*
X1819423Y1959710D1*
X1814790Y1957788D1*
X1809971Y1956398D1*
X1805026Y1955556D1*
X1800018Y1955272D1*
X1795010Y1955552D1*
X1790065Y1956390D1*
X1785245Y1957776D1*
X1780610Y1959694D1*
X1776219Y1962118D1*
X1772127Y1965019D1*
X1768386Y1968360D1*
X1765042Y1972098D1*
X1762138Y1976188D1*
X1759710Y1980577D1*
X1757788Y1985210D1*
X1756398Y1990029D1*
X1755556Y1994974D1*
X1755272Y1999982D1*
X1755552Y2004990D1*
X1756390Y2009935D1*
X1757776Y2014755D1*
X1759694Y2019390D1*
X1762118Y2023781D1*
X1765019Y2027873D1*
X1768360Y2031614D1*
X1772098Y2034958D1*
X1776188Y2037862D1*
X1780577Y2040290D1*
X1785210Y2042212D1*
X1790029Y2043602D1*
X1794974Y2044444D1*
X1799982Y2044728D1*
X1804990Y2044448D1*
X1809935Y2043610D1*
X1814755Y2042224D1*
X1819390Y2040306D1*
X1823781Y2037882D1*
X1827873Y2034981D1*
X1831614Y2031640D1*
X1834958Y2027902D1*
X1837862Y2023812D1*
X1840290Y2019423D1*
X1842212Y2014790D1*
X1843602Y2009971D1*
X1844444Y2005026D1*
X1844728Y2000000D1*
X1844448Y1995010D1*
X784448D2*
X783610Y1990065D1*
X782224Y1985245D1*
X780306Y1980610D1*
X777882Y1976219D1*
X774981Y1972127D1*
X771640Y1968386D1*
X767902Y1965042D1*
X763812Y1962138D1*
X759423Y1959710D1*
X754790Y1957788D1*
X749971Y1956398D1*
X745026Y1955556D1*
X740018Y1955272D1*
X735010Y1955552D1*
X730065Y1956390D1*
X725245Y1957776D1*
X720610Y1959694D1*
X716219Y1962118D1*
X712127Y1965019D1*
X708386Y1968360D1*
X705042Y1972098D1*
X702138Y1976188D1*
X699710Y1980577D1*
X697788Y1985210D1*
X696398Y1990029D1*
X695556Y1994974D1*
X695272Y1999982D1*
X695552Y2004990D1*
X696390Y2009935D1*
X697776Y2014755D1*
X699694Y2019390D1*
X702118Y2023781D1*
X705019Y2027873D1*
X708360Y2031614D1*
X712098Y2034958D1*
X716188Y2037862D1*
X720577Y2040290D1*
X725210Y2042212D1*
X730029Y2043602D1*
X734974Y2044444D1*
X739982Y2044728D1*
X744990Y2044448D1*
X749935Y2043610D1*
X754755Y2042224D1*
X759390Y2040306D1*
X763781Y2037882D1*
X767873Y2034981D1*
X771614Y2031640D1*
X774958Y2027902D1*
X777862Y2023812D1*
X780290Y2019423D1*
X782212Y2014790D1*
X783602Y2009971D1*
X784444Y2005026D1*
X784728Y2000000D1*
X784448Y1995010D1*
X884448D2*
X883610Y1990065D1*
X882224Y1985245D1*
X880306Y1980610D1*
X877882Y1976219D1*
X874981Y1972127D1*
X871640Y1968386D1*
X867902Y1965042D1*
X863812Y1962138D1*
X859423Y1959710D1*
X854790Y1957788D1*
X849971Y1956398D1*
X845026Y1955556D1*
X840018Y1955272D1*
X835010Y1955552D1*
X830065Y1956390D1*
X825245Y1957776D1*
X820610Y1959694D1*
X816219Y1962118D1*
X812127Y1965019D1*
X808386Y1968360D1*
X805042Y1972098D1*
X802138Y1976188D1*
X799710Y1980577D1*
X797788Y1985210D1*
X796398Y1990029D1*
X795556Y1994974D1*
X795272Y1999982D1*
X795552Y2004990D1*
X796390Y2009935D1*
X797776Y2014755D1*
X799694Y2019390D1*
X802118Y2023781D1*
X805019Y2027873D1*
X808360Y2031614D1*
X812098Y2034958D1*
X816188Y2037862D1*
X820577Y2040290D1*
X825210Y2042212D1*
X830029Y2043602D1*
X834974Y2044444D1*
X839982Y2044728D1*
X844990Y2044448D1*
X849935Y2043610D1*
X854755Y2042224D1*
X859390Y2040306D1*
X863781Y2037882D1*
X867873Y2034981D1*
X871614Y2031640D1*
X874958Y2027902D1*
X877862Y2023812D1*
X880290Y2019423D1*
X882212Y2014790D1*
X883602Y2009971D1*
X884444Y2005026D1*
X884728Y2000000D1*
X884448Y1995010D1*
X984448D2*
X983610Y1990065D1*
X982224Y1985245D1*
X980306Y1980610D1*
X977882Y1976219D1*
X974981Y1972127D1*
X971640Y1968386D1*
X967902Y1965042D1*
X963812Y1962138D1*
X959423Y1959710D1*
X954790Y1957788D1*
X949971Y1956398D1*
X945026Y1955556D1*
X940018Y1955272D1*
X935010Y1955552D1*
X930065Y1956390D1*
X925245Y1957776D1*
X920610Y1959694D1*
X916219Y1962118D1*
X912127Y1965019D1*
X908386Y1968360D1*
X905042Y1972098D1*
X902138Y1976188D1*
X899710Y1980577D1*
X897788Y1985210D1*
X896398Y1990029D1*
X895556Y1994974D1*
X895272Y1999982D1*
X895552Y2004990D1*
X896390Y2009935D1*
X897776Y2014755D1*
X899694Y2019390D1*
X902118Y2023781D1*
X905019Y2027873D1*
X908360Y2031614D1*
X912098Y2034958D1*
X916188Y2037862D1*
X920577Y2040290D1*
X925210Y2042212D1*
X930029Y2043602D1*
X934974Y2044444D1*
X939982Y2044728D1*
X944990Y2044448D1*
X949935Y2043610D1*
X954755Y2042224D1*
X959390Y2040306D1*
X963781Y2037882D1*
X967873Y2034981D1*
X971614Y2031640D1*
X974958Y2027902D1*
X977862Y2023812D1*
X980290Y2019423D1*
X982212Y2014790D1*
X983602Y2009971D1*
X984444Y2005026D1*
X984728Y2000000D1*
X984448Y1995010D1*
X1084697Y1998334D2*
X1084604Y1996673D1*
X1084449Y1995018D1*
X1084233Y1993369D1*
X1083956Y1991730D1*
X1083618Y1990101D1*
X1083220Y1988487D1*
X1082763Y1986888D1*
X1082246Y1985308D1*
X1081670Y1983748D1*
X1081038Y1982210D1*
X1080348Y1980697D1*
X1079603Y1979211D1*
X1078802Y1977753D1*
X1077949Y1976326D1*
X1077043Y1974932D1*
X1076085Y1973572D1*
X1075078Y1972249D1*
X1074022Y1970965D1*
X1072919Y1969720D1*
X1071771Y1968517D1*
X1070579Y1967358D1*
X1069345Y1966244D1*
X1068070Y1965177D1*
X1066756Y1964158D1*
X1065405Y1963188D1*
X1064019Y1962269D1*
X1062600Y1961402D1*
X1061150Y1960589D1*
X1059670Y1959830D1*
X1058164Y1959127D1*
X1056632Y1958480D1*
X1055077Y1957890D1*
X1053501Y1957359D1*
X1051907Y1956886D1*
X1050296Y1956474D1*
X1048671Y1956121D1*
X1047034Y1955829D1*
X1045388Y1955598D1*
X1043733Y1955429D1*
X1042074Y1955321D1*
X1040412Y1955274D1*
X1038749Y1955290D1*
X1037088Y1955367D1*
X1035431Y1955506D1*
X1033781Y1955707D1*
X1032138Y1955969D1*
X1030507Y1956291D1*
X1028889Y1956674D1*
X1027286Y1957117D1*
X1025701Y1957620D1*
X1024136Y1958180D1*
X1022592Y1958799D1*
X1021073Y1959474D1*
X1019580Y1960206D1*
X1018115Y1960992D1*
X1016680Y1961833D1*
X1015277Y1962726D1*
X1013909Y1963671D1*
X1012577Y1964666D1*
X1011282Y1965709D1*
X1010027Y1966801D1*
X1008814Y1967938D1*
X1007644Y1969119D1*
X1006518Y1970343D1*
X1005439Y1971608D1*
X1004408Y1972912D1*
X1003426Y1974254D1*
X1002494Y1975631D1*
X1001614Y1977042D1*
X1000787Y1978485D1*
X1000014Y1979957D1*
X999297Y1981457D1*
X998636Y1982983D1*
X998032Y1984532D1*
X997486Y1986103D1*
X996999Y1987693D1*
X996571Y1989300D1*
X996204Y1990921D1*
X995896Y1992555D1*
X995650Y1994200D1*
X995465Y1995852D1*
X995342Y1997511D1*
X995280Y1999172D1*
Y2000835D1*
X995342Y2002497D1*
X995466Y2004155D1*
X995651Y2005807D1*
X995898Y2007452D1*
X996205Y2009086D1*
X996573Y2010708D1*
X997001Y2012314D1*
X997488Y2013904D1*
X998035Y2015475D1*
X998639Y2017024D1*
X999300Y2018550D1*
X1000018Y2020050D1*
X1000791Y2021522D1*
X1001618Y2022964D1*
X1002498Y2024375D1*
X1003430Y2025752D1*
X1004412Y2027094D1*
X1005444Y2028398D1*
X1006523Y2029663D1*
X1007649Y2030886D1*
X1008820Y2032068D1*
X1010033Y2033204D1*
X1011288Y2034295D1*
X1012583Y2035339D1*
X1013915Y2036334D1*
X1015284Y2037278D1*
X1016686Y2038171D1*
X1018121Y2039011D1*
X1019586Y2039797D1*
X1021080Y2040529D1*
X1022599Y2041204D1*
X1024143Y2041822D1*
X1025708Y2042383D1*
X1027294Y2042885D1*
X1028896Y2043327D1*
X1030515Y2043710D1*
X1032146Y2044033D1*
X1033788Y2044294D1*
X1035439Y2044494D1*
X1037096Y2044633D1*
X1038757Y2044710D1*
X1040419Y2044726D1*
X1042082Y2044679D1*
X1043741Y2044571D1*
X1045395Y2044401D1*
X1047042Y2044170D1*
X1048679Y2043878D1*
X1050304Y2043525D1*
X1051914Y2043112D1*
X1053508Y2042639D1*
X1055084Y2042107D1*
X1056639Y2041518D1*
X1058170Y2040870D1*
X1059677Y2040167D1*
X1061156Y2039408D1*
X1062607Y2038594D1*
X1064026Y2037727D1*
X1065411Y2036808D1*
X1066762Y2035838D1*
X1068075Y2034818D1*
X1069350Y2033751D1*
X1070584Y2032637D1*
X1071776Y2031477D1*
X1072924Y2030274D1*
X1074027Y2029030D1*
X1075083Y2027745D1*
X1076090Y2026422D1*
X1077047Y2025062D1*
X1077953Y2023667D1*
X1078806Y2022240D1*
X1079606Y2020783D1*
X1080351Y2019296D1*
X1081041Y2017783D1*
X1081673Y2016245D1*
X1082248Y2014685D1*
X1082765Y2013104D1*
X1083222Y2011506D1*
X1083620Y2009891D1*
X1083958Y2008263D1*
X1084234Y2006623D1*
X1084450Y2004975D1*
X1084604Y2003319D1*
X1084697Y2001659D1*
X1084728Y2000000D1*
X1084697Y1998334D1*
X1184448Y1995010D2*
X1183610Y1990065D1*
X1182224Y1985245D1*
X1180306Y1980610D1*
X1177882Y1976219D1*
X1174981Y1972127D1*
X1171640Y1968386D1*
X1167902Y1965042D1*
X1163812Y1962138D1*
X1159423Y1959710D1*
X1154790Y1957788D1*
X1149971Y1956398D1*
X1145026Y1955556D1*
X1140018Y1955272D1*
X1135010Y1955552D1*
X1130065Y1956390D1*
X1125245Y1957776D1*
X1120610Y1959694D1*
X1116219Y1962118D1*
X1112127Y1965019D1*
X1108386Y1968360D1*
X1105042Y1972098D1*
X1102138Y1976188D1*
X1099710Y1980577D1*
X1097788Y1985210D1*
X1096398Y1990029D1*
X1095556Y1994974D1*
X1095272Y1999982D1*
X1095552Y2004990D1*
X1096390Y2009935D1*
X1097776Y2014755D1*
X1099694Y2019390D1*
X1102118Y2023781D1*
X1105019Y2027873D1*
X1108360Y2031614D1*
X1112098Y2034958D1*
X1116188Y2037862D1*
X1120577Y2040290D1*
X1125210Y2042212D1*
X1130029Y2043602D1*
X1134974Y2044444D1*
X1139982Y2044728D1*
X1144990Y2044448D1*
X1149935Y2043610D1*
X1154755Y2042224D1*
X1159390Y2040306D1*
X1163781Y2037882D1*
X1167873Y2034981D1*
X1171614Y2031640D1*
X1174958Y2027902D1*
X1177862Y2023812D1*
X1180290Y2019423D1*
X1182212Y2014790D1*
X1183602Y2009971D1*
X1184444Y2005026D1*
X1184728Y2000000D1*
X1184448Y1995010D1*
X1284448D2*
X1283610Y1990065D1*
X1282224Y1985245D1*
X1280306Y1980610D1*
X1277882Y1976219D1*
X1274981Y1972127D1*
X1271640Y1968386D1*
X1267902Y1965042D1*
X1263812Y1962138D1*
X1259423Y1959710D1*
X1254790Y1957788D1*
X1249971Y1956398D1*
X1245026Y1955556D1*
X1240018Y1955272D1*
X1235010Y1955552D1*
X1230065Y1956390D1*
X1225245Y1957776D1*
X1220610Y1959694D1*
X1216219Y1962118D1*
X1212127Y1965019D1*
X1208386Y1968360D1*
X1205042Y1972098D1*
X1202138Y1976188D1*
X1199710Y1980577D1*
X1197788Y1985210D1*
X1196398Y1990029D1*
X1195556Y1994974D1*
X1195272Y1999982D1*
X1195552Y2004990D1*
X1196390Y2009935D1*
X1197776Y2014755D1*
X1199694Y2019390D1*
X1202118Y2023781D1*
X1205019Y2027873D1*
X1208360Y2031614D1*
X1212098Y2034958D1*
X1216188Y2037862D1*
X1220577Y2040290D1*
X1225210Y2042212D1*
X1230029Y2043602D1*
X1234974Y2044444D1*
X1239982Y2044728D1*
X1244990Y2044448D1*
X1249935Y2043610D1*
X1254755Y2042224D1*
X1259390Y2040306D1*
X1263781Y2037882D1*
X1267873Y2034981D1*
X1271614Y2031640D1*
X1274958Y2027902D1*
X1277862Y2023812D1*
X1280290Y2019423D1*
X1282212Y2014790D1*
X1283602Y2009971D1*
X1284444Y2005026D1*
X1284728Y2000000D1*
X1284448Y1995010D1*
X1384448D2*
X1383610Y1990065D1*
X1382224Y1985245D1*
X1380306Y1980610D1*
X1377882Y1976219D1*
X1374981Y1972127D1*
X1371640Y1968386D1*
X1367902Y1965042D1*
X1363812Y1962138D1*
X1359423Y1959710D1*
X1354790Y1957788D1*
X1349971Y1956398D1*
X1345026Y1955556D1*
X1340018Y1955272D1*
X1335010Y1955552D1*
X1330065Y1956390D1*
X1325245Y1957776D1*
X1320610Y1959694D1*
X1316219Y1962118D1*
X1312127Y1965019D1*
X1308386Y1968360D1*
X1305042Y1972098D1*
X1302138Y1976188D1*
X1299710Y1980577D1*
X1297788Y1985210D1*
X1296398Y1990029D1*
X1295556Y1994974D1*
X1295272Y1999982D1*
X1295552Y2004990D1*
X1296390Y2009935D1*
X1297776Y2014755D1*
X1299694Y2019390D1*
X1302118Y2023781D1*
X1305019Y2027873D1*
X1308360Y2031614D1*
X1312098Y2034958D1*
X1316188Y2037862D1*
X1320577Y2040290D1*
X1325210Y2042212D1*
X1330029Y2043602D1*
X1334974Y2044444D1*
X1339982Y2044728D1*
X1344990Y2044448D1*
X1349935Y2043610D1*
X1354755Y2042224D1*
X1359390Y2040306D1*
X1363781Y2037882D1*
X1367873Y2034981D1*
X1371614Y2031640D1*
X1374958Y2027902D1*
X1377862Y2023812D1*
X1380290Y2019423D1*
X1382212Y2014790D1*
X1383602Y2009971D1*
X1384444Y2005026D1*
X1384728Y2000000D1*
X1384448Y1995010D1*
X1484448D2*
X1483610Y1990065D1*
X1482224Y1985245D1*
X1480306Y1980610D1*
X1477882Y1976219D1*
X1474981Y1972127D1*
X1471640Y1968386D1*
X1467902Y1965042D1*
X1463812Y1962138D1*
X1459423Y1959710D1*
X1454790Y1957788D1*
X1449971Y1956398D1*
X1445026Y1955556D1*
X1440018Y1955272D1*
X1435010Y1955552D1*
X1430065Y1956390D1*
X1425245Y1957776D1*
X1420610Y1959694D1*
X1416219Y1962118D1*
X1412127Y1965019D1*
X1408386Y1968360D1*
X1405042Y1972098D1*
X1402138Y1976188D1*
X1399710Y1980577D1*
X1397788Y1985210D1*
X1396398Y1990029D1*
X1395556Y1994974D1*
X1395272Y1999982D1*
X1395552Y2004990D1*
X1396390Y2009935D1*
X1397776Y2014755D1*
X1399694Y2019390D1*
X1402118Y2023781D1*
X1405019Y2027873D1*
X1408360Y2031614D1*
X1412098Y2034958D1*
X1416188Y2037862D1*
X1420577Y2040290D1*
X1425210Y2042212D1*
X1430029Y2043602D1*
X1434974Y2044444D1*
X1439982Y2044728D1*
X1444990Y2044448D1*
X1449935Y2043610D1*
X1454755Y2042224D1*
X1459390Y2040306D1*
X1463781Y2037882D1*
X1467873Y2034981D1*
X1471614Y2031640D1*
X1474958Y2027902D1*
X1477862Y2023812D1*
X1480290Y2019423D1*
X1482212Y2014790D1*
X1483602Y2009971D1*
X1484444Y2005026D1*
X1484728Y2000000D1*
X1484448Y1995010D1*
X1584448D2*
X1583610Y1990065D1*
X1582224Y1985245D1*
X1580306Y1980610D1*
X1577882Y1976219D1*
X1574981Y1972127D1*
X1571640Y1968386D1*
X1567902Y1965042D1*
X1563812Y1962138D1*
X1559423Y1959710D1*
X1554790Y1957788D1*
X1549971Y1956398D1*
X1545026Y1955556D1*
X1540018Y1955272D1*
X1535010Y1955552D1*
X1530065Y1956390D1*
X1525245Y1957776D1*
X1520610Y1959694D1*
X1516219Y1962118D1*
X1512127Y1965019D1*
X1508386Y1968360D1*
X1505042Y1972098D1*
X1502138Y1976188D1*
X1499710Y1980577D1*
X1497788Y1985210D1*
X1496398Y1990029D1*
X1495556Y1994974D1*
X1495272Y1999982D1*
X1495552Y2004990D1*
X1496390Y2009935D1*
X1497776Y2014755D1*
X1499694Y2019390D1*
X1502118Y2023781D1*
X1505019Y2027873D1*
X1508360Y2031614D1*
X1512098Y2034958D1*
X1516188Y2037862D1*
X1520577Y2040290D1*
X1525210Y2042212D1*
X1530029Y2043602D1*
X1534974Y2044444D1*
X1539982Y2044728D1*
X1544990Y2044448D1*
X1549935Y2043610D1*
X1554755Y2042224D1*
X1559390Y2040306D1*
X1563781Y2037882D1*
X1567873Y2034981D1*
X1571614Y2031640D1*
X1574958Y2027902D1*
X1577862Y2023812D1*
X1580290Y2019423D1*
X1582212Y2014790D1*
X1583602Y2009971D1*
X1584444Y2005026D1*
X1584728Y2000000D1*
X1584448Y1995010D1*
X1684448D2*
X1683610Y1990065D1*
X1682224Y1985245D1*
X1680306Y1980610D1*
X1677882Y1976219D1*
X1674981Y1972127D1*
X1671640Y1968386D1*
X1667902Y1965042D1*
X1663812Y1962138D1*
X1659423Y1959710D1*
X1654790Y1957788D1*
X1649971Y1956398D1*
X1645026Y1955556D1*
X1640018Y1955272D1*
X1635010Y1955552D1*
X1630065Y1956390D1*
X1625245Y1957776D1*
X1620610Y1959694D1*
X1616219Y1962118D1*
X1612127Y1965019D1*
X1608386Y1968360D1*
X1605042Y1972098D1*
X1602138Y1976188D1*
X1599710Y1980577D1*
X1597788Y1985210D1*
X1596398Y1990029D1*
X1595556Y1994974D1*
X1595272Y1999982D1*
X1595552Y2004990D1*
X1596390Y2009935D1*
X1597776Y2014755D1*
X1599694Y2019390D1*
X1602118Y2023781D1*
X1605019Y2027873D1*
X1608360Y2031614D1*
X1612098Y2034958D1*
X1616188Y2037862D1*
X1620577Y2040290D1*
X1625210Y2042212D1*
X1630029Y2043602D1*
X1634974Y2044444D1*
X1639982Y2044728D1*
X1644990Y2044448D1*
X1649935Y2043610D1*
X1654755Y2042224D1*
X1659390Y2040306D1*
X1663781Y2037882D1*
X1667873Y2034981D1*
X1671614Y2031640D1*
X1674958Y2027902D1*
X1677862Y2023812D1*
X1680290Y2019423D1*
X1682212Y2014790D1*
X1683602Y2009971D1*
X1684444Y2005026D1*
X1684728Y2000000D1*
X1684448Y1995010D1*
X3744448D2*
X3743610Y1990065D1*
X3742224Y1985245D1*
X3740306Y1980610D1*
X3737882Y1976219D1*
X3734981Y1972127D1*
X3731640Y1968386D1*
X3727902Y1965042D1*
X3723812Y1962138D1*
X3719423Y1959710D1*
X3714790Y1957788D1*
X3709971Y1956398D1*
X3705026Y1955556D1*
X3700018Y1955272D1*
X3695010Y1955552D1*
X3690065Y1956390D1*
X3685245Y1957776D1*
X3680610Y1959694D1*
X3676219Y1962118D1*
X3672127Y1965019D1*
X3668386Y1968360D1*
X3665042Y1972098D1*
X3662138Y1976188D1*
X3659710Y1980577D1*
X3657788Y1985210D1*
X3656398Y1990029D1*
X3655556Y1994974D1*
X3655272Y1999982D1*
X3655552Y2004990D1*
X3656390Y2009935D1*
X3657776Y2014755D1*
X3659694Y2019390D1*
X3662118Y2023781D1*
X3665019Y2027873D1*
X3668360Y2031614D1*
X3672098Y2034958D1*
X3676188Y2037862D1*
X3680577Y2040290D1*
X3685210Y2042212D1*
X3690029Y2043602D1*
X3694974Y2044444D1*
X3699982Y2044728D1*
X3704990Y2044448D1*
X3709935Y2043610D1*
X3714755Y2042224D1*
X3719390Y2040306D1*
X3723781Y2037882D1*
X3727873Y2034981D1*
X3731614Y2031640D1*
X3734958Y2027902D1*
X3737862Y2023812D1*
X3740290Y2019423D1*
X3742212Y2014790D1*
X3743602Y2009971D1*
X3744444Y2005026D1*
X3744728Y2000000D1*
X3744448Y1995010D1*
X3844448D2*
X3843610Y1990065D1*
X3842224Y1985245D1*
X3840306Y1980610D1*
X3837882Y1976219D1*
X3834981Y1972127D1*
X3831640Y1968386D1*
X3827902Y1965042D1*
X3823812Y1962138D1*
X3819423Y1959710D1*
X3814790Y1957788D1*
X3809971Y1956398D1*
X3805026Y1955556D1*
X3800018Y1955272D1*
X3795010Y1955552D1*
X3790065Y1956390D1*
X3785245Y1957776D1*
X3780610Y1959694D1*
X3776219Y1962118D1*
X3772127Y1965019D1*
X3768386Y1968360D1*
X3765042Y1972098D1*
X3762138Y1976188D1*
X3759710Y1980577D1*
X3757788Y1985210D1*
X3756398Y1990029D1*
X3755556Y1994974D1*
X3755272Y1999982D1*
X3755552Y2004990D1*
X3756390Y2009935D1*
X3757776Y2014755D1*
X3759694Y2019390D1*
X3762118Y2023781D1*
X3765019Y2027873D1*
X3768360Y2031614D1*
X3772098Y2034958D1*
X3776188Y2037862D1*
X3780577Y2040290D1*
X3785210Y2042212D1*
X3790029Y2043602D1*
X3794974Y2044444D1*
X3799982Y2044728D1*
X3804990Y2044448D1*
X3809935Y2043610D1*
X3814755Y2042224D1*
X3819390Y2040306D1*
X3823781Y2037882D1*
X3827873Y2034981D1*
X3831614Y2031640D1*
X3834958Y2027902D1*
X3837862Y2023812D1*
X3840290Y2019423D1*
X3842212Y2014790D1*
X3843602Y2009971D1*
X3844444Y2005026D1*
X3844728Y2000000D1*
X3844448Y1995010D1*
X3744448Y1895010D2*
X3743610Y1890065D1*
X3742224Y1885245D1*
X3740306Y1880610D1*
X3737882Y1876219D1*
X3734981Y1872127D1*
X3731640Y1868386D1*
X3727902Y1865042D1*
X3723812Y1862138D1*
X3719423Y1859710D1*
X3714790Y1857788D1*
X3709971Y1856398D1*
X3705026Y1855556D1*
X3700018Y1855272D1*
X3695010Y1855552D1*
X3690065Y1856390D1*
X3685245Y1857776D1*
X3680610Y1859694D1*
X3676219Y1862118D1*
X3672127Y1865019D1*
X3668386Y1868360D1*
X3665042Y1872098D1*
X3662138Y1876188D1*
X3659710Y1880577D1*
X3657788Y1885210D1*
X3656398Y1890029D1*
X3655556Y1894974D1*
X3655272Y1899982D1*
X3655552Y1904990D1*
X3656390Y1909935D1*
X3657776Y1914755D1*
X3659694Y1919390D1*
X3662118Y1923781D1*
X3665019Y1927873D1*
X3668360Y1931614D1*
X3672098Y1934958D1*
X3676188Y1937862D1*
X3680577Y1940290D1*
X3685210Y1942212D1*
X3690029Y1943602D1*
X3694974Y1944444D1*
X3699982Y1944728D1*
X3704990Y1944448D1*
X3709935Y1943610D1*
X3714755Y1942224D1*
X3719390Y1940306D1*
X3723781Y1937882D1*
X3727873Y1934981D1*
X3731614Y1931640D1*
X3734958Y1927902D1*
X3737862Y1923812D1*
X3740290Y1919423D1*
X3742212Y1914790D1*
X3743602Y1909971D1*
X3744444Y1905026D1*
X3744728Y1900000D1*
X3744448Y1895010D1*
X3844448D2*
X3843610Y1890065D1*
X3842224Y1885245D1*
X3840306Y1880610D1*
X3837882Y1876219D1*
X3834981Y1872127D1*
X3831640Y1868386D1*
X3827902Y1865042D1*
X3823812Y1862138D1*
X3819423Y1859710D1*
X3814790Y1857788D1*
X3809971Y1856398D1*
X3805026Y1855556D1*
X3800018Y1855272D1*
X3795010Y1855552D1*
X3790065Y1856390D1*
X3785245Y1857776D1*
X3780610Y1859694D1*
X3776219Y1862118D1*
X3772127Y1865019D1*
X3768386Y1868360D1*
X3765042Y1872098D1*
X3762138Y1876188D1*
X3759710Y1880577D1*
X3757788Y1885210D1*
X3756398Y1890029D1*
X3755556Y1894974D1*
X3755272Y1899982D1*
X3755552Y1904990D1*
X3756390Y1909935D1*
X3757776Y1914755D1*
X3759694Y1919390D1*
X3762118Y1923781D1*
X3765019Y1927873D1*
X3768360Y1931614D1*
X3772098Y1934958D1*
X3776188Y1937862D1*
X3780577Y1940290D1*
X3785210Y1942212D1*
X3790029Y1943602D1*
X3794974Y1944444D1*
X3799982Y1944728D1*
X3804990Y1944448D1*
X3809935Y1943610D1*
X3814755Y1942224D1*
X3819390Y1940306D1*
X3823781Y1937882D1*
X3827873Y1934981D1*
X3831614Y1931640D1*
X3834958Y1927902D1*
X3837862Y1923812D1*
X3840290Y1919423D1*
X3842212Y1914790D1*
X3843602Y1909971D1*
X3844444Y1905026D1*
X3844728Y1900000D1*
X3844448Y1895010D1*
X3744448Y1795010D2*
X3743610Y1790065D1*
X3742224Y1785245D1*
X3740306Y1780610D1*
X3737882Y1776219D1*
X3734981Y1772127D1*
X3731640Y1768386D1*
X3727902Y1765042D1*
X3723812Y1762138D1*
X3719423Y1759710D1*
X3714790Y1757788D1*
X3709971Y1756398D1*
X3705026Y1755556D1*
X3700018Y1755272D1*
X3695010Y1755552D1*
X3690065Y1756390D1*
X3685245Y1757776D1*
X3680610Y1759694D1*
X3676219Y1762118D1*
X3672127Y1765019D1*
X3668386Y1768360D1*
X3665042Y1772098D1*
X3662138Y1776188D1*
X3659710Y1780577D1*
X3657788Y1785210D1*
X3656398Y1790029D1*
X3655556Y1794974D1*
X3655272Y1799982D1*
X3655552Y1804990D1*
X3656390Y1809935D1*
X3657776Y1814755D1*
X3659694Y1819390D1*
X3662118Y1823781D1*
X3665019Y1827873D1*
X3668360Y1831614D1*
X3672098Y1834958D1*
X3676188Y1837862D1*
X3680577Y1840290D1*
X3685210Y1842212D1*
X3690029Y1843602D1*
X3694974Y1844444D1*
X3699982Y1844728D1*
X3704990Y1844448D1*
X3709935Y1843610D1*
X3714755Y1842224D1*
X3719390Y1840306D1*
X3723781Y1837882D1*
X3727873Y1834981D1*
X3731614Y1831640D1*
X3734958Y1827902D1*
X3737862Y1823812D1*
X3740290Y1819423D1*
X3742212Y1814790D1*
X3743602Y1809971D1*
X3744444Y1805026D1*
X3744728Y1800000D1*
X3744448Y1795010D1*
X3844448D2*
X3843610Y1790065D1*
X3842224Y1785245D1*
X3840306Y1780610D1*
X3837882Y1776219D1*
X3834981Y1772127D1*
X3831640Y1768386D1*
X3827902Y1765042D1*
X3823812Y1762138D1*
X3819423Y1759710D1*
X3814790Y1757788D1*
X3809971Y1756398D1*
X3805026Y1755556D1*
X3800018Y1755272D1*
X3795010Y1755552D1*
X3790065Y1756390D1*
X3785245Y1757776D1*
X3780610Y1759694D1*
X3776219Y1762118D1*
X3772127Y1765019D1*
X3768386Y1768360D1*
X3765042Y1772098D1*
X3762138Y1776188D1*
X3759710Y1780577D1*
X3757788Y1785210D1*
X3756398Y1790029D1*
X3755556Y1794974D1*
X3755272Y1799982D1*
X3755552Y1804990D1*
X3756390Y1809935D1*
X3757776Y1814755D1*
X3759694Y1819390D1*
X3762118Y1823781D1*
X3765019Y1827873D1*
X3768360Y1831614D1*
X3772098Y1834958D1*
X3776188Y1837862D1*
X3780577Y1840290D1*
X3785210Y1842212D1*
X3790029Y1843602D1*
X3794974Y1844444D1*
X3799982Y1844728D1*
X3804990Y1844448D1*
X3809935Y1843610D1*
X3814755Y1842224D1*
X3819390Y1840306D1*
X3823781Y1837882D1*
X3827873Y1834981D1*
X3831614Y1831640D1*
X3834958Y1827902D1*
X3837862Y1823812D1*
X3840290Y1819423D1*
X3842212Y1814790D1*
X3843602Y1809971D1*
X3844444Y1805026D1*
X3844728Y1800000D1*
X3844448Y1795010D1*
X3744448Y1695010D2*
X3743610Y1690065D1*
X3742224Y1685245D1*
X3740306Y1680610D1*
X3737882Y1676219D1*
X3734981Y1672127D1*
X3731640Y1668386D1*
X3727902Y1665042D1*
X3723812Y1662138D1*
X3719423Y1659710D1*
X3714790Y1657788D1*
X3709971Y1656398D1*
X3705026Y1655556D1*
X3700018Y1655272D1*
X3695010Y1655552D1*
X3690065Y1656390D1*
X3685245Y1657776D1*
X3680610Y1659694D1*
X3676219Y1662118D1*
X3672127Y1665019D1*
X3668386Y1668360D1*
X3665042Y1672098D1*
X3662138Y1676188D1*
X3659710Y1680577D1*
X3657788Y1685210D1*
X3656398Y1690029D1*
X3655556Y1694974D1*
X3655272Y1699982D1*
X3655552Y1704990D1*
X3656390Y1709935D1*
X3657776Y1714755D1*
X3659694Y1719390D1*
X3662118Y1723781D1*
X3665019Y1727873D1*
X3668360Y1731614D1*
X3672098Y1734958D1*
X3676188Y1737862D1*
X3680577Y1740290D1*
X3685210Y1742212D1*
X3690029Y1743602D1*
X3694974Y1744444D1*
X3699982Y1744728D1*
X3704990Y1744448D1*
X3709935Y1743610D1*
X3714755Y1742224D1*
X3719390Y1740306D1*
X3723781Y1737882D1*
X3727873Y1734981D1*
X3731614Y1731640D1*
X3734958Y1727902D1*
X3737862Y1723812D1*
X3740290Y1719423D1*
X3742212Y1714790D1*
X3743602Y1709971D1*
X3744444Y1705026D1*
X3744728Y1700000D1*
X3744448Y1695010D1*
X3844448D2*
X3843610Y1690065D1*
X3842224Y1685245D1*
X3840306Y1680610D1*
X3837882Y1676219D1*
X3834981Y1672127D1*
X3831640Y1668386D1*
X3827902Y1665042D1*
X3823812Y1662138D1*
X3819423Y1659710D1*
X3814790Y1657788D1*
X3809971Y1656398D1*
X3805026Y1655556D1*
X3800018Y1655272D1*
X3795010Y1655552D1*
X3790065Y1656390D1*
X3785245Y1657776D1*
X3780610Y1659694D1*
X3776219Y1662118D1*
X3772127Y1665019D1*
X3768386Y1668360D1*
X3765042Y1672098D1*
X3762138Y1676188D1*
X3759710Y1680577D1*
X3757788Y1685210D1*
X3756398Y1690029D1*
X3755556Y1694974D1*
X3755272Y1699982D1*
X3755552Y1704990D1*
X3756390Y1709935D1*
X3757776Y1714755D1*
X3759694Y1719390D1*
X3762118Y1723781D1*
X3765019Y1727873D1*
X3768360Y1731614D1*
X3772098Y1734958D1*
X3776188Y1737862D1*
X3780577Y1740290D1*
X3785210Y1742212D1*
X3790029Y1743602D1*
X3794974Y1744444D1*
X3799982Y1744728D1*
X3804990Y1744448D1*
X3809935Y1743610D1*
X3814755Y1742224D1*
X3819390Y1740306D1*
X3823781Y1737882D1*
X3827873Y1734981D1*
X3831614Y1731640D1*
X3834958Y1727902D1*
X3837862Y1723812D1*
X3840290Y1719423D1*
X3842212Y1714790D1*
X3843602Y1709971D1*
X3844444Y1705026D1*
X3844728Y1700000D1*
X3844448Y1695010D1*
X3744448Y1595010D2*
X3743610Y1590065D1*
X3742224Y1585245D1*
X3740306Y1580610D1*
X3737882Y1576219D1*
X3734981Y1572127D1*
X3731640Y1568386D1*
X3727902Y1565042D1*
X3723812Y1562138D1*
X3719423Y1559710D1*
X3714790Y1557788D1*
X3709971Y1556398D1*
X3705026Y1555556D1*
X3700018Y1555272D1*
X3695010Y1555552D1*
X3690065Y1556390D1*
X3685245Y1557776D1*
X3680610Y1559694D1*
X3676219Y1562118D1*
X3672127Y1565019D1*
X3668386Y1568360D1*
X3665042Y1572098D1*
X3662138Y1576188D1*
X3659710Y1580577D1*
X3657788Y1585210D1*
X3656398Y1590029D1*
X3655556Y1594974D1*
X3655272Y1599982D1*
X3655552Y1604990D1*
X3656390Y1609935D1*
X3657776Y1614755D1*
X3659694Y1619390D1*
X3662118Y1623781D1*
X3665019Y1627873D1*
X3668360Y1631614D1*
X3672098Y1634958D1*
X3676188Y1637862D1*
X3680577Y1640290D1*
X3685210Y1642212D1*
X3690029Y1643602D1*
X3694974Y1644444D1*
X3699982Y1644728D1*
X3704990Y1644448D1*
X3709935Y1643610D1*
X3714755Y1642224D1*
X3719390Y1640306D1*
X3723781Y1637882D1*
X3727873Y1634981D1*
X3731614Y1631640D1*
X3734958Y1627902D1*
X3737862Y1623812D1*
X3740290Y1619423D1*
X3742212Y1614790D1*
X3743602Y1609971D1*
X3744444Y1605026D1*
X3744728Y1600000D1*
X3744448Y1595010D1*
X3844448D2*
X3843610Y1590065D1*
X3842224Y1585245D1*
X3840306Y1580610D1*
X3837882Y1576219D1*
X3834981Y1572127D1*
X3831640Y1568386D1*
X3827902Y1565042D1*
X3823812Y1562138D1*
X3819423Y1559710D1*
X3814790Y1557788D1*
X3809971Y1556398D1*
X3805026Y1555556D1*
X3800018Y1555272D1*
X3795010Y1555552D1*
X3790065Y1556390D1*
X3785245Y1557776D1*
X3780610Y1559694D1*
X3776219Y1562118D1*
X3772127Y1565019D1*
X3768386Y1568360D1*
X3765042Y1572098D1*
X3762138Y1576188D1*
X3759710Y1580577D1*
X3757788Y1585210D1*
X3756398Y1590029D1*
X3755556Y1594974D1*
X3755272Y1599982D1*
X3755552Y1604990D1*
X3756390Y1609935D1*
X3757776Y1614755D1*
X3759694Y1619390D1*
X3762118Y1623781D1*
X3765019Y1627873D1*
X3768360Y1631614D1*
X3772098Y1634958D1*
X3776188Y1637862D1*
X3780577Y1640290D1*
X3785210Y1642212D1*
X3790029Y1643602D1*
X3794974Y1644444D1*
X3799982Y1644728D1*
X3804990Y1644448D1*
X3809935Y1643610D1*
X3814755Y1642224D1*
X3819390Y1640306D1*
X3823781Y1637882D1*
X3827873Y1634981D1*
X3831614Y1631640D1*
X3834958Y1627902D1*
X3837862Y1623812D1*
X3840290Y1619423D1*
X3842212Y1614790D1*
X3843602Y1609971D1*
X3844444Y1605026D1*
X3844728Y1600000D1*
X3844448Y1595010D1*
X3744448Y1495010D2*
X3743610Y1490065D1*
X3742224Y1485245D1*
X3740306Y1480610D1*
X3737882Y1476219D1*
X3734981Y1472127D1*
X3731640Y1468386D1*
X3727902Y1465042D1*
X3723812Y1462138D1*
X3719423Y1459710D1*
X3714790Y1457788D1*
X3709971Y1456398D1*
X3705026Y1455556D1*
X3700018Y1455272D1*
X3695010Y1455552D1*
X3690065Y1456390D1*
X3685245Y1457776D1*
X3680610Y1459694D1*
X3676219Y1462118D1*
X3672127Y1465019D1*
X3668386Y1468360D1*
X3665042Y1472098D1*
X3662138Y1476188D1*
X3659710Y1480577D1*
X3657788Y1485210D1*
X3656398Y1490029D1*
X3655556Y1494974D1*
X3655272Y1499982D1*
X3655552Y1504990D1*
X3656390Y1509935D1*
X3657776Y1514755D1*
X3659694Y1519390D1*
X3662118Y1523781D1*
X3665019Y1527873D1*
X3668360Y1531614D1*
X3672098Y1534958D1*
X3676188Y1537862D1*
X3680577Y1540290D1*
X3685210Y1542212D1*
X3690029Y1543602D1*
X3694974Y1544444D1*
X3699982Y1544728D1*
X3704990Y1544448D1*
X3709935Y1543610D1*
X3714755Y1542224D1*
X3719390Y1540306D1*
X3723781Y1537882D1*
X3727873Y1534981D1*
X3731614Y1531640D1*
X3734958Y1527902D1*
X3737862Y1523812D1*
X3740290Y1519423D1*
X3742212Y1514790D1*
X3743602Y1509971D1*
X3744444Y1505026D1*
X3744728Y1500000D1*
X3744448Y1495010D1*
X3844448D2*
X3843610Y1490065D1*
X3842224Y1485245D1*
X3840306Y1480610D1*
X3837882Y1476219D1*
X3834981Y1472127D1*
X3831640Y1468386D1*
X3827902Y1465042D1*
X3823812Y1462138D1*
X3819423Y1459710D1*
X3814790Y1457788D1*
X3809971Y1456398D1*
X3805026Y1455556D1*
X3800018Y1455272D1*
X3795010Y1455552D1*
X3790065Y1456390D1*
X3785245Y1457776D1*
X3780610Y1459694D1*
X3776219Y1462118D1*
X3772127Y1465019D1*
X3768386Y1468360D1*
X3765042Y1472098D1*
X3762138Y1476188D1*
X3759710Y1480577D1*
X3757788Y1485210D1*
X3756398Y1490029D1*
X3755556Y1494974D1*
X3755272Y1499982D1*
X3755552Y1504990D1*
X3756390Y1509935D1*
X3757776Y1514755D1*
X3759694Y1519390D1*
X3762118Y1523781D1*
X3765019Y1527873D1*
X3768360Y1531614D1*
X3772098Y1534958D1*
X3776188Y1537862D1*
X3780577Y1540290D1*
X3785210Y1542212D1*
X3790029Y1543602D1*
X3794974Y1544444D1*
X3799982Y1544728D1*
X3804990Y1544448D1*
X3809935Y1543610D1*
X3814755Y1542224D1*
X3819390Y1540306D1*
X3823781Y1537882D1*
X3827873Y1534981D1*
X3831614Y1531640D1*
X3834958Y1527902D1*
X3837862Y1523812D1*
X3840290Y1519423D1*
X3842212Y1514790D1*
X3843602Y1509971D1*
X3844444Y1505026D1*
X3844728Y1500000D1*
X3844448Y1495010D1*
X3744448Y1395010D2*
X3743610Y1390065D1*
X3742224Y1385245D1*
X3740306Y1380610D1*
X3737882Y1376219D1*
X3734981Y1372127D1*
X3731640Y1368386D1*
X3727902Y1365042D1*
X3723812Y1362138D1*
X3719423Y1359710D1*
X3714790Y1357788D1*
X3709971Y1356398D1*
X3705026Y1355556D1*
X3700018Y1355272D1*
X3695010Y1355552D1*
X3690065Y1356390D1*
X3685245Y1357776D1*
X3680610Y1359694D1*
X3676219Y1362118D1*
X3672127Y1365019D1*
X3668386Y1368360D1*
X3665042Y1372098D1*
X3662138Y1376188D1*
X3659710Y1380577D1*
X3657788Y1385210D1*
X3656398Y1390029D1*
X3655556Y1394974D1*
X3655272Y1399982D1*
X3655552Y1404990D1*
X3656390Y1409935D1*
X3657776Y1414755D1*
X3659694Y1419390D1*
X3662118Y1423781D1*
X3665019Y1427873D1*
X3668360Y1431614D1*
X3672098Y1434958D1*
X3676188Y1437862D1*
X3680577Y1440290D1*
X3685210Y1442212D1*
X3690029Y1443602D1*
X3694974Y1444444D1*
X3699982Y1444728D1*
X3704990Y1444448D1*
X3709935Y1443610D1*
X3714755Y1442224D1*
X3719390Y1440306D1*
X3723781Y1437882D1*
X3727873Y1434981D1*
X3731614Y1431640D1*
X3734958Y1427902D1*
X3737862Y1423812D1*
X3740290Y1419423D1*
X3742212Y1414790D1*
X3743602Y1409971D1*
X3744444Y1405026D1*
X3744728Y1400000D1*
X3744448Y1395010D1*
X3844448D2*
X3843610Y1390065D1*
X3842224Y1385245D1*
X3840306Y1380610D1*
X3837882Y1376219D1*
X3834981Y1372127D1*
X3831640Y1368386D1*
X3827902Y1365042D1*
X3823812Y1362138D1*
X3819423Y1359710D1*
X3814790Y1357788D1*
X3809971Y1356398D1*
X3805026Y1355556D1*
X3800018Y1355272D1*
X3795010Y1355552D1*
X3790065Y1356390D1*
X3785245Y1357776D1*
X3780610Y1359694D1*
X3776219Y1362118D1*
X3772127Y1365019D1*
X3768386Y1368360D1*
X3765042Y1372098D1*
X3762138Y1376188D1*
X3759710Y1380577D1*
X3757788Y1385210D1*
X3756398Y1390029D1*
X3755556Y1394974D1*
X3755272Y1399982D1*
X3755552Y1404990D1*
X3756390Y1409935D1*
X3757776Y1414755D1*
X3759694Y1419390D1*
X3762118Y1423781D1*
X3765019Y1427873D1*
X3768360Y1431614D1*
X3772098Y1434958D1*
X3776188Y1437862D1*
X3780577Y1440290D1*
X3785210Y1442212D1*
X3790029Y1443602D1*
X3794974Y1444444D1*
X3799982Y1444728D1*
X3804990Y1444448D1*
X3809935Y1443610D1*
X3814755Y1442224D1*
X3819390Y1440306D1*
X3823781Y1437882D1*
X3827873Y1434981D1*
X3831614Y1431640D1*
X3834958Y1427902D1*
X3837862Y1423812D1*
X3840290Y1419423D1*
X3842212Y1414790D1*
X3843602Y1409971D1*
X3844444Y1405026D1*
X3844728Y1400000D1*
X3844448Y1395010D1*
X3744448Y1295010D2*
X3743610Y1290065D1*
X3742224Y1285245D1*
X3740306Y1280610D1*
X3737882Y1276219D1*
X3734981Y1272127D1*
X3731640Y1268386D1*
X3727902Y1265042D1*
X3723812Y1262138D1*
X3719423Y1259710D1*
X3714790Y1257788D1*
X3709971Y1256398D1*
X3705026Y1255556D1*
X3700018Y1255272D1*
X3695010Y1255552D1*
X3690065Y1256390D1*
X3685245Y1257776D1*
X3680610Y1259694D1*
X3676219Y1262118D1*
X3672127Y1265019D1*
X3668386Y1268360D1*
X3665042Y1272098D1*
X3662138Y1276188D1*
X3659710Y1280577D1*
X3657788Y1285210D1*
X3656398Y1290029D1*
X3655556Y1294974D1*
X3655272Y1299982D1*
X3655552Y1304990D1*
X3656390Y1309935D1*
X3657776Y1314755D1*
X3659694Y1319390D1*
X3662118Y1323781D1*
X3665019Y1327873D1*
X3668360Y1331614D1*
X3672098Y1334958D1*
X3676188Y1337862D1*
X3680577Y1340290D1*
X3685210Y1342212D1*
X3690029Y1343602D1*
X3694974Y1344444D1*
X3699982Y1344728D1*
X3704990Y1344448D1*
X3709935Y1343610D1*
X3714755Y1342224D1*
X3719390Y1340306D1*
X3723781Y1337882D1*
X3727873Y1334981D1*
X3731614Y1331640D1*
X3734958Y1327902D1*
X3737862Y1323812D1*
X3740290Y1319423D1*
X3742212Y1314790D1*
X3743602Y1309971D1*
X3744444Y1305026D1*
X3744728Y1300000D1*
X3744448Y1295010D1*
X3844448D2*
X3843610Y1290065D1*
X3842224Y1285245D1*
X3840306Y1280610D1*
X3837882Y1276219D1*
X3834981Y1272127D1*
X3831640Y1268386D1*
X3827902Y1265042D1*
X3823812Y1262138D1*
X3819423Y1259710D1*
X3814790Y1257788D1*
X3809971Y1256398D1*
X3805026Y1255556D1*
X3800018Y1255272D1*
X3795010Y1255552D1*
X3790065Y1256390D1*
X3785245Y1257776D1*
X3780610Y1259694D1*
X3776219Y1262118D1*
X3772127Y1265019D1*
X3768386Y1268360D1*
X3765042Y1272098D1*
X3762138Y1276188D1*
X3759710Y1280577D1*
X3757788Y1285210D1*
X3756398Y1290029D1*
X3755556Y1294974D1*
X3755272Y1299982D1*
X3755552Y1304990D1*
X3756390Y1309935D1*
X3757776Y1314755D1*
X3759694Y1319390D1*
X3762118Y1323781D1*
X3765019Y1327873D1*
X3768360Y1331614D1*
X3772098Y1334958D1*
X3776188Y1337862D1*
X3780577Y1340290D1*
X3785210Y1342212D1*
X3790029Y1343602D1*
X3794974Y1344444D1*
X3799982Y1344728D1*
X3804990Y1344448D1*
X3809935Y1343610D1*
X3814755Y1342224D1*
X3819390Y1340306D1*
X3823781Y1337882D1*
X3827873Y1334981D1*
X3831614Y1331640D1*
X3834958Y1327902D1*
X3837862Y1323812D1*
X3840290Y1319423D1*
X3842212Y1314790D1*
X3843602Y1309971D1*
X3844444Y1305026D1*
X3844728Y1300000D1*
X3844448Y1295010D1*
X3744448Y1195010D2*
X3743610Y1190065D1*
X3742224Y1185245D1*
X3740306Y1180610D1*
X3737882Y1176219D1*
X3734981Y1172127D1*
X3731640Y1168386D1*
X3727902Y1165042D1*
X3723812Y1162138D1*
X3719423Y1159710D1*
X3714790Y1157788D1*
X3709971Y1156398D1*
X3705026Y1155556D1*
X3700018Y1155272D1*
X3695010Y1155552D1*
X3690065Y1156390D1*
X3685245Y1157776D1*
X3680610Y1159694D1*
X3676219Y1162118D1*
X3672127Y1165019D1*
X3668386Y1168360D1*
X3665042Y1172098D1*
X3662138Y1176188D1*
X3659710Y1180577D1*
X3657788Y1185210D1*
X3656398Y1190029D1*
X3655556Y1194974D1*
X3655272Y1199982D1*
X3655552Y1204990D1*
X3656390Y1209935D1*
X3657776Y1214755D1*
X3659694Y1219390D1*
X3662118Y1223781D1*
X3665019Y1227873D1*
X3668360Y1231614D1*
X3672098Y1234958D1*
X3676188Y1237862D1*
X3680577Y1240290D1*
X3685210Y1242212D1*
X3690029Y1243602D1*
X3694974Y1244444D1*
X3699982Y1244728D1*
X3704990Y1244448D1*
X3709935Y1243610D1*
X3714755Y1242224D1*
X3719390Y1240306D1*
X3723781Y1237882D1*
X3727873Y1234981D1*
X3731614Y1231640D1*
X3734958Y1227902D1*
X3737862Y1223812D1*
X3740290Y1219423D1*
X3742212Y1214790D1*
X3743602Y1209971D1*
X3744444Y1205026D1*
X3744728Y1200000D1*
X3744448Y1195010D1*
X3844448D2*
X3843610Y1190065D1*
X3842224Y1185245D1*
X3840306Y1180610D1*
X3837882Y1176219D1*
X3834981Y1172127D1*
X3831640Y1168386D1*
X3827902Y1165042D1*
X3823812Y1162138D1*
X3819423Y1159710D1*
X3814790Y1157788D1*
X3809971Y1156398D1*
X3805026Y1155556D1*
X3800018Y1155272D1*
X3795010Y1155552D1*
X3790065Y1156390D1*
X3785245Y1157776D1*
X3780610Y1159694D1*
X3776219Y1162118D1*
X3772127Y1165019D1*
X3768386Y1168360D1*
X3765042Y1172098D1*
X3762138Y1176188D1*
X3759710Y1180577D1*
X3757788Y1185210D1*
X3756398Y1190029D1*
X3755556Y1194974D1*
X3755272Y1199982D1*
X3755552Y1204990D1*
X3756390Y1209935D1*
X3757776Y1214755D1*
X3759694Y1219390D1*
X3762118Y1223781D1*
X3765019Y1227873D1*
X3768360Y1231614D1*
X3772098Y1234958D1*
X3776188Y1237862D1*
X3780577Y1240290D1*
X3785210Y1242212D1*
X3790029Y1243602D1*
X3794974Y1244444D1*
X3799982Y1244728D1*
X3804990Y1244448D1*
X3809935Y1243610D1*
X3814755Y1242224D1*
X3819390Y1240306D1*
X3823781Y1237882D1*
X3827873Y1234981D1*
X3831614Y1231640D1*
X3834958Y1227902D1*
X3837862Y1223812D1*
X3840290Y1219423D1*
X3842212Y1214790D1*
X3843602Y1209971D1*
X3844444Y1205026D1*
X3844728Y1200000D1*
X3844448Y1195010D1*
X3744448Y1095010D2*
X3743610Y1090065D1*
X3742224Y1085245D1*
X3740306Y1080610D1*
X3737882Y1076219D1*
X3734981Y1072127D1*
X3731640Y1068386D1*
X3727902Y1065042D1*
X3723812Y1062138D1*
X3719423Y1059710D1*
X3714790Y1057788D1*
X3709971Y1056398D1*
X3705026Y1055556D1*
X3700018Y1055272D1*
X3695010Y1055552D1*
X3690065Y1056390D1*
X3685245Y1057776D1*
X3680610Y1059694D1*
X3676219Y1062118D1*
X3672127Y1065019D1*
X3668386Y1068360D1*
X3665042Y1072098D1*
X3662138Y1076188D1*
X3659710Y1080577D1*
X3657788Y1085210D1*
X3656398Y1090029D1*
X3655556Y1094974D1*
X3655272Y1099982D1*
X3655552Y1104990D1*
X3656390Y1109935D1*
X3657776Y1114755D1*
X3659694Y1119390D1*
X3662118Y1123781D1*
X3665019Y1127873D1*
X3668360Y1131614D1*
X3672098Y1134958D1*
X3676188Y1137862D1*
X3680577Y1140290D1*
X3685210Y1142212D1*
X3690029Y1143602D1*
X3694974Y1144444D1*
X3699982Y1144728D1*
X3704990Y1144448D1*
X3709935Y1143610D1*
X3714755Y1142224D1*
X3719390Y1140306D1*
X3723781Y1137882D1*
X3727873Y1134981D1*
X3731614Y1131640D1*
X3734958Y1127902D1*
X3737862Y1123812D1*
X3740290Y1119423D1*
X3742212Y1114790D1*
X3743602Y1109971D1*
X3744444Y1105026D1*
X3744728Y1100000D1*
X3744448Y1095010D1*
X3844448D2*
X3843610Y1090065D1*
X3842224Y1085245D1*
X3840306Y1080610D1*
X3837882Y1076219D1*
X3834981Y1072127D1*
X3831640Y1068386D1*
X3827902Y1065042D1*
X3823812Y1062138D1*
X3819423Y1059710D1*
X3814790Y1057788D1*
X3809971Y1056398D1*
X3805026Y1055556D1*
X3800018Y1055272D1*
X3795010Y1055552D1*
X3790065Y1056390D1*
X3785245Y1057776D1*
X3780610Y1059694D1*
X3776219Y1062118D1*
X3772127Y1065019D1*
X3768386Y1068360D1*
X3765042Y1072098D1*
X3762138Y1076188D1*
X3759710Y1080577D1*
X3757788Y1085210D1*
X3756398Y1090029D1*
X3755556Y1094974D1*
X3755272Y1099982D1*
X3755552Y1104990D1*
X3756390Y1109935D1*
X3757776Y1114755D1*
X3759694Y1119390D1*
X3762118Y1123781D1*
X3765019Y1127873D1*
X3768360Y1131614D1*
X3772098Y1134958D1*
X3776188Y1137862D1*
X3780577Y1140290D1*
X3785210Y1142212D1*
X3790029Y1143602D1*
X3794974Y1144444D1*
X3799982Y1144728D1*
X3804990Y1144448D1*
X3809935Y1143610D1*
X3814755Y1142224D1*
X3819390Y1140306D1*
X3823781Y1137882D1*
X3827873Y1134981D1*
X3831614Y1131640D1*
X3834958Y1127902D1*
X3837862Y1123812D1*
X3840290Y1119423D1*
X3842212Y1114790D1*
X3843602Y1109971D1*
X3844444Y1105026D1*
X3844728Y1100000D1*
X3844448Y1095010D1*
X3744448Y995010D2*
X3743610Y990065D1*
X3742224Y985245D1*
X3740306Y980610D1*
X3737882Y976219D1*
X3734981Y972127D1*
X3731640Y968386D1*
X3727902Y965042D1*
X3723812Y962138D1*
X3719423Y959710D1*
X3714790Y957788D1*
X3709971Y956398D1*
X3705026Y955556D1*
X3700018Y955272D1*
X3695010Y955552D1*
X3690065Y956390D1*
X3685245Y957776D1*
X3680610Y959694D1*
X3676219Y962118D1*
X3672127Y965019D1*
X3668386Y968360D1*
X3665042Y972098D1*
X3662138Y976188D1*
X3659710Y980577D1*
X3657788Y985210D1*
X3656398Y990029D1*
X3655556Y994974D1*
X3655272Y999982D1*
X3655552Y1004990D1*
X3656390Y1009935D1*
X3657776Y1014755D1*
X3659694Y1019390D1*
X3662118Y1023781D1*
X3665019Y1027873D1*
X3668360Y1031614D1*
X3672098Y1034958D1*
X3676188Y1037862D1*
X3680577Y1040290D1*
X3685210Y1042212D1*
X3690029Y1043602D1*
X3694974Y1044444D1*
X3699982Y1044728D1*
X3704990Y1044448D1*
X3709935Y1043610D1*
X3714755Y1042224D1*
X3719390Y1040306D1*
X3723781Y1037882D1*
X3727873Y1034981D1*
X3731614Y1031640D1*
X3734958Y1027902D1*
X3737862Y1023812D1*
X3740290Y1019423D1*
X3742212Y1014790D1*
X3743602Y1009971D1*
X3744444Y1005026D1*
X3744728Y1000000D1*
X3744448Y995010D1*
X3844448D2*
X3843610Y990065D1*
X3842224Y985245D1*
X3840306Y980610D1*
X3837882Y976219D1*
X3834981Y972127D1*
X3831640Y968386D1*
X3827902Y965042D1*
X3823812Y962138D1*
X3819423Y959710D1*
X3814790Y957788D1*
X3809971Y956398D1*
X3805026Y955556D1*
X3800018Y955272D1*
X3795010Y955552D1*
X3790065Y956390D1*
X3785245Y957776D1*
X3780610Y959694D1*
X3776219Y962118D1*
X3772127Y965019D1*
X3768386Y968360D1*
X3765042Y972098D1*
X3762138Y976188D1*
X3759710Y980577D1*
X3757788Y985210D1*
X3756398Y990029D1*
X3755556Y994974D1*
X3755272Y999982D1*
X3755552Y1004990D1*
X3756390Y1009935D1*
X3757776Y1014755D1*
X3759694Y1019390D1*
X3762118Y1023781D1*
X3765019Y1027873D1*
X3768360Y1031614D1*
X3772098Y1034958D1*
X3776188Y1037862D1*
X3780577Y1040290D1*
X3785210Y1042212D1*
X3790029Y1043602D1*
X3794974Y1044444D1*
X3799982Y1044728D1*
X3804990Y1044448D1*
X3809935Y1043610D1*
X3814755Y1042224D1*
X3819390Y1040306D1*
X3823781Y1037882D1*
X3827873Y1034981D1*
X3831614Y1031640D1*
X3834958Y1027902D1*
X3837862Y1023812D1*
X3840290Y1019423D1*
X3842212Y1014790D1*
X3843602Y1009971D1*
X3844444Y1005026D1*
X3844728Y1000000D1*
X3844448Y995010D1*
X3744448Y895010D2*
X3743610Y890065D1*
X3742224Y885245D1*
X3740306Y880610D1*
X3737882Y876219D1*
X3734981Y872127D1*
X3731640Y868386D1*
X3727902Y865042D1*
X3723812Y862138D1*
X3719423Y859710D1*
X3714790Y857788D1*
X3709971Y856398D1*
X3705026Y855556D1*
X3700018Y855272D1*
X3695010Y855552D1*
X3690065Y856390D1*
X3685245Y857776D1*
X3680610Y859694D1*
X3676219Y862118D1*
X3672127Y865019D1*
X3668386Y868360D1*
X3665042Y872098D1*
X3662138Y876188D1*
X3659710Y880577D1*
X3657788Y885210D1*
X3656398Y890029D1*
X3655556Y894974D1*
X3655272Y899982D1*
X3655552Y904990D1*
X3656390Y909935D1*
X3657776Y914755D1*
X3659694Y919390D1*
X3662118Y923781D1*
X3665019Y927873D1*
X3668360Y931614D1*
X3672098Y934958D1*
X3676188Y937862D1*
X3680577Y940290D1*
X3685210Y942212D1*
X3690029Y943602D1*
X3694974Y944444D1*
X3699982Y944728D1*
X3704990Y944448D1*
X3709935Y943610D1*
X3714755Y942224D1*
X3719390Y940306D1*
X3723781Y937882D1*
X3727873Y934981D1*
X3731614Y931640D1*
X3734958Y927902D1*
X3737862Y923812D1*
X3740290Y919423D1*
X3742212Y914790D1*
X3743602Y909971D1*
X3744444Y905026D1*
X3744728Y900000D1*
X3744448Y895010D1*
X3844448D2*
X3843610Y890065D1*
X3842224Y885245D1*
X3840306Y880610D1*
X3837882Y876219D1*
X3834981Y872127D1*
X3831640Y868386D1*
X3827902Y865042D1*
X3823812Y862138D1*
X3819423Y859710D1*
X3814790Y857788D1*
X3809971Y856398D1*
X3805026Y855556D1*
X3800018Y855272D1*
X3795010Y855552D1*
X3790065Y856390D1*
X3785245Y857776D1*
X3780610Y859694D1*
X3776219Y862118D1*
X3772127Y865019D1*
X3768386Y868360D1*
X3765042Y872098D1*
X3762138Y876188D1*
X3759710Y880577D1*
X3757788Y885210D1*
X3756398Y890029D1*
X3755556Y894974D1*
X3755272Y899982D1*
X3755552Y904990D1*
X3756390Y909935D1*
X3757776Y914755D1*
X3759694Y919390D1*
X3762118Y923781D1*
X3765019Y927873D1*
X3768360Y931614D1*
X3772098Y934958D1*
X3776188Y937862D1*
X3780577Y940290D1*
X3785210Y942212D1*
X3790029Y943602D1*
X3794974Y944444D1*
X3799982Y944728D1*
X3804990Y944448D1*
X3809935Y943610D1*
X3814755Y942224D1*
X3819390Y940306D1*
X3823781Y937882D1*
X3827873Y934981D1*
X3831614Y931640D1*
X3834958Y927902D1*
X3837862Y923812D1*
X3840290Y919423D1*
X3842212Y914790D1*
X3843602Y909971D1*
X3844444Y905026D1*
X3844728Y900000D1*
X3844448Y895010D1*
X3744448Y795010D2*
X3743610Y790065D1*
X3742224Y785245D1*
X3740306Y780610D1*
X3737882Y776219D1*
X3734981Y772127D1*
X3731640Y768386D1*
X3727902Y765042D1*
X3723812Y762138D1*
X3719423Y759710D1*
X3714790Y757788D1*
X3709971Y756398D1*
X3705026Y755556D1*
X3700018Y755272D1*
X3695010Y755552D1*
X3690065Y756390D1*
X3685245Y757776D1*
X3680610Y759694D1*
X3676219Y762118D1*
X3672127Y765019D1*
X3668386Y768360D1*
X3665042Y772098D1*
X3662138Y776188D1*
X3659710Y780577D1*
X3657788Y785210D1*
X3656398Y790029D1*
X3655556Y794974D1*
X3655272Y799982D1*
X3655552Y804990D1*
X3656390Y809935D1*
X3657776Y814755D1*
X3659694Y819390D1*
X3662118Y823781D1*
X3665019Y827873D1*
X3668360Y831614D1*
X3672098Y834958D1*
X3676188Y837862D1*
X3680577Y840290D1*
X3685210Y842212D1*
X3690029Y843602D1*
X3694974Y844444D1*
X3699982Y844728D1*
X3704990Y844448D1*
X3709935Y843610D1*
X3714755Y842224D1*
X3719390Y840306D1*
X3723781Y837882D1*
X3727873Y834981D1*
X3731614Y831640D1*
X3734958Y827902D1*
X3737862Y823812D1*
X3740290Y819423D1*
X3742212Y814790D1*
X3743602Y809971D1*
X3744444Y805026D1*
X3744728Y800000D1*
X3744448Y795010D1*
X3844448D2*
X3843610Y790065D1*
X3842224Y785245D1*
X3840306Y780610D1*
X3837882Y776219D1*
X3834981Y772127D1*
X3831640Y768386D1*
X3827902Y765042D1*
X3823812Y762138D1*
X3819423Y759710D1*
X3814790Y757788D1*
X3809971Y756398D1*
X3805026Y755556D1*
X3800018Y755272D1*
X3795010Y755552D1*
X3790065Y756390D1*
X3785245Y757776D1*
X3780610Y759694D1*
X3776219Y762118D1*
X3772127Y765019D1*
X3768386Y768360D1*
X3765042Y772098D1*
X3762138Y776188D1*
X3759710Y780577D1*
X3757788Y785210D1*
X3756398Y790029D1*
X3755556Y794974D1*
X3755272Y799982D1*
X3755552Y804990D1*
X3756390Y809935D1*
X3757776Y814755D1*
X3759694Y819390D1*
X3762118Y823781D1*
X3765019Y827873D1*
X3768360Y831614D1*
X3772098Y834958D1*
X3776188Y837862D1*
X3780577Y840290D1*
X3785210Y842212D1*
X3790029Y843602D1*
X3794974Y844444D1*
X3799982Y844728D1*
X3804990Y844448D1*
X3809935Y843610D1*
X3814755Y842224D1*
X3819390Y840306D1*
X3823781Y837882D1*
X3827873Y834981D1*
X3831614Y831640D1*
X3834958Y827902D1*
X3837862Y823812D1*
X3840290Y819423D1*
X3842212Y814790D1*
X3843602Y809971D1*
X3844444Y805026D1*
X3844728Y800000D1*
X3844448Y795010D1*
X3744448Y695010D2*
X3743610Y690065D1*
X3742224Y685245D1*
X3740306Y680610D1*
X3737882Y676219D1*
X3734981Y672127D1*
X3731640Y668386D1*
X3727902Y665042D1*
X3723812Y662138D1*
X3719423Y659710D1*
X3714790Y657788D1*
X3709971Y656398D1*
X3705026Y655556D1*
X3700018Y655272D1*
X3695010Y655552D1*
X3690065Y656390D1*
X3685245Y657776D1*
X3680610Y659694D1*
X3676219Y662118D1*
X3672127Y665019D1*
X3668386Y668360D1*
X3665042Y672098D1*
X3662138Y676188D1*
X3659710Y680577D1*
X3657788Y685210D1*
X3656398Y690029D1*
X3655556Y694974D1*
X3655272Y699982D1*
X3655552Y704990D1*
X3656390Y709935D1*
X3657776Y714755D1*
X3659694Y719390D1*
X3662118Y723781D1*
X3665019Y727873D1*
X3668360Y731614D1*
X3672098Y734958D1*
X3676188Y737862D1*
X3680577Y740290D1*
X3685210Y742212D1*
X3690029Y743602D1*
X3694974Y744444D1*
X3699982Y744728D1*
X3704990Y744448D1*
X3709935Y743610D1*
X3714755Y742224D1*
X3719390Y740306D1*
X3723781Y737882D1*
X3727873Y734981D1*
X3731614Y731640D1*
X3734958Y727902D1*
X3737862Y723812D1*
X3740290Y719423D1*
X3742212Y714790D1*
X3743602Y709971D1*
X3744444Y705026D1*
X3744728Y700000D1*
X3744448Y695010D1*
X3844448D2*
X3843610Y690065D1*
X3842224Y685245D1*
X3840306Y680610D1*
X3837882Y676219D1*
X3834981Y672127D1*
X3831640Y668386D1*
X3827902Y665042D1*
X3823812Y662138D1*
X3819423Y659710D1*
X3814790Y657788D1*
X3809971Y656398D1*
X3805026Y655556D1*
X3800018Y655272D1*
X3795010Y655552D1*
X3790065Y656390D1*
X3785245Y657776D1*
X3780610Y659694D1*
X3776219Y662118D1*
X3772127Y665019D1*
X3768386Y668360D1*
X3765042Y672098D1*
X3762138Y676188D1*
X3759710Y680577D1*
X3757788Y685210D1*
X3756398Y690029D1*
X3755556Y694974D1*
X3755272Y699982D1*
X3755552Y704990D1*
X3756390Y709935D1*
X3757776Y714755D1*
X3759694Y719390D1*
X3762118Y723781D1*
X3765019Y727873D1*
X3768360Y731614D1*
X3772098Y734958D1*
X3776188Y737862D1*
X3780577Y740290D1*
X3785210Y742212D1*
X3790029Y743602D1*
X3794974Y744444D1*
X3799982Y744728D1*
X3804990Y744448D1*
X3809935Y743610D1*
X3814755Y742224D1*
X3819390Y740306D1*
X3823781Y737882D1*
X3827873Y734981D1*
X3831614Y731640D1*
X3834958Y727902D1*
X3837862Y723812D1*
X3840290Y719423D1*
X3842212Y714790D1*
X3843602Y709971D1*
X3844444Y705026D1*
X3844728Y700000D1*
X3844448Y695010D1*
X3744448Y595010D2*
X3743610Y590065D1*
X3742224Y585245D1*
X3740306Y580610D1*
X3737882Y576219D1*
X3734981Y572127D1*
X3731640Y568386D1*
X3727902Y565042D1*
X3723812Y562138D1*
X3719423Y559710D1*
X3714790Y557788D1*
X3709971Y556398D1*
X3705026Y555556D1*
X3700018Y555272D1*
X3695010Y555552D1*
X3690065Y556390D1*
X3685245Y557776D1*
X3680610Y559694D1*
X3676219Y562118D1*
X3672127Y565019D1*
X3668386Y568360D1*
X3665042Y572098D1*
X3662138Y576188D1*
X3659710Y580577D1*
X3657788Y585210D1*
X3656398Y590029D1*
X3655556Y594974D1*
X3655272Y599982D1*
X3655552Y604990D1*
X3656390Y609935D1*
X3657776Y614755D1*
X3659694Y619390D1*
X3662118Y623781D1*
X3665019Y627873D1*
X3668360Y631614D1*
X3672098Y634958D1*
X3676188Y637862D1*
X3680577Y640290D1*
X3685210Y642212D1*
X3690029Y643602D1*
X3694974Y644444D1*
X3699982Y644728D1*
X3704990Y644448D1*
X3709935Y643610D1*
X3714755Y642224D1*
X3719390Y640306D1*
X3723781Y637882D1*
X3727873Y634981D1*
X3731614Y631640D1*
X3734958Y627902D1*
X3737862Y623812D1*
X3740290Y619423D1*
X3742212Y614790D1*
X3743602Y609971D1*
X3744444Y605026D1*
X3744728Y600000D1*
X3744448Y595010D1*
X3844448D2*
X3843610Y590065D1*
X3842224Y585245D1*
X3840306Y580610D1*
X3837882Y576219D1*
X3834981Y572127D1*
X3831640Y568386D1*
X3827902Y565042D1*
X3823812Y562138D1*
X3819423Y559710D1*
X3814790Y557788D1*
X3809971Y556398D1*
X3805026Y555556D1*
X3800018Y555272D1*
X3795010Y555552D1*
X3790065Y556390D1*
X3785245Y557776D1*
X3780610Y559694D1*
X3776219Y562118D1*
X3772127Y565019D1*
X3768386Y568360D1*
X3765042Y572098D1*
X3762138Y576188D1*
X3759710Y580577D1*
X3757788Y585210D1*
X3756398Y590029D1*
X3755556Y594974D1*
X3755272Y599982D1*
X3755552Y604990D1*
X3756390Y609935D1*
X3757776Y614755D1*
X3759694Y619390D1*
X3762118Y623781D1*
X3765019Y627873D1*
X3768360Y631614D1*
X3772098Y634958D1*
X3776188Y637862D1*
X3780577Y640290D1*
X3785210Y642212D1*
X3790029Y643602D1*
X3794974Y644444D1*
X3799982Y644728D1*
X3804990Y644448D1*
X3809935Y643610D1*
X3814755Y642224D1*
X3819390Y640306D1*
X3823781Y637882D1*
X3827873Y634981D1*
X3831614Y631640D1*
X3834958Y627902D1*
X3837862Y623812D1*
X3840290Y619423D1*
X3842212Y614790D1*
X3843602Y609971D1*
X3844444Y605026D1*
X3844728Y600000D1*
X3844448Y595010D1*
X3744448Y495010D2*
X3743610Y490065D1*
X3742224Y485245D1*
X3740306Y480610D1*
X3737882Y476219D1*
X3734981Y472127D1*
X3731640Y468386D1*
X3727902Y465042D1*
X3723812Y462138D1*
X3719423Y459710D1*
X3714790Y457788D1*
X3709971Y456398D1*
X3705026Y455556D1*
X3700018Y455272D1*
X3695010Y455552D1*
X3690065Y456390D1*
X3685245Y457776D1*
X3680610Y459694D1*
X3676219Y462118D1*
X3672127Y465019D1*
X3668386Y468360D1*
X3665042Y472098D1*
X3662138Y476188D1*
X3659710Y480577D1*
X3657788Y485210D1*
X3656398Y490029D1*
X3655556Y494974D1*
X3655272Y499982D1*
X3655552Y504990D1*
X3656390Y509935D1*
X3657776Y514755D1*
X3659694Y519390D1*
X3662118Y523781D1*
X3665019Y527873D1*
X3668360Y531614D1*
X3672098Y534958D1*
X3676188Y537862D1*
X3680577Y540290D1*
X3685210Y542212D1*
X3690029Y543602D1*
X3694974Y544444D1*
X3699982Y544728D1*
X3704990Y544448D1*
X3709935Y543610D1*
X3714755Y542224D1*
X3719390Y540306D1*
X3723781Y537882D1*
X3727873Y534981D1*
X3731614Y531640D1*
X3734958Y527902D1*
X3737862Y523812D1*
X3740290Y519423D1*
X3742212Y514790D1*
X3743602Y509971D1*
X3744444Y505026D1*
X3744728Y500000D1*
X3744448Y495010D1*
X3844448D2*
X3843610Y490065D1*
X3842224Y485245D1*
X3840306Y480610D1*
X3837882Y476219D1*
X3834981Y472127D1*
X3831640Y468386D1*
X3827902Y465042D1*
X3823812Y462138D1*
X3819423Y459710D1*
X3814790Y457788D1*
X3809971Y456398D1*
X3805026Y455556D1*
X3800018Y455272D1*
X3795010Y455552D1*
X3790065Y456390D1*
X3785245Y457776D1*
X3780610Y459694D1*
X3776219Y462118D1*
X3772127Y465019D1*
X3768386Y468360D1*
X3765042Y472098D1*
X3762138Y476188D1*
X3759710Y480577D1*
X3757788Y485210D1*
X3756398Y490029D1*
X3755556Y494974D1*
X3755272Y499982D1*
X3755552Y504990D1*
X3756390Y509935D1*
X3757776Y514755D1*
X3759694Y519390D1*
X3762118Y523781D1*
X3765019Y527873D1*
X3768360Y531614D1*
X3772098Y534958D1*
X3776188Y537862D1*
X3780577Y540290D1*
X3785210Y542212D1*
X3790029Y543602D1*
X3794974Y544444D1*
X3799982Y544728D1*
X3804990Y544448D1*
X3809935Y543610D1*
X3814755Y542224D1*
X3819390Y540306D1*
X3823781Y537882D1*
X3827873Y534981D1*
X3831614Y531640D1*
X3834958Y527902D1*
X3837862Y523812D1*
X3840290Y519423D1*
X3842212Y514790D1*
X3843602Y509971D1*
X3844444Y505026D1*
X3844728Y500000D1*
X3844448Y495010D1*
X3744448Y395010D2*
X3743610Y390065D1*
X3742224Y385245D1*
X3740306Y380610D1*
X3737882Y376219D1*
X3734981Y372127D1*
X3731640Y368386D1*
X3727902Y365042D1*
X3723812Y362138D1*
X3719423Y359710D1*
X3714790Y357788D1*
X3709971Y356398D1*
X3705026Y355556D1*
X3700018Y355272D1*
X3695010Y355552D1*
X3690065Y356390D1*
X3685245Y357776D1*
X3680610Y359694D1*
X3676219Y362118D1*
X3672127Y365019D1*
X3668386Y368360D1*
X3665042Y372098D1*
X3662138Y376188D1*
X3659710Y380577D1*
X3657788Y385210D1*
X3656398Y390029D1*
X3655556Y394974D1*
X3655272Y399982D1*
X3655552Y404990D1*
X3656390Y409935D1*
X3657776Y414755D1*
X3659694Y419390D1*
X3662118Y423781D1*
X3665019Y427873D1*
X3668360Y431614D1*
X3672098Y434958D1*
X3676188Y437862D1*
X3680577Y440290D1*
X3685210Y442212D1*
X3690029Y443602D1*
X3694974Y444444D1*
X3699982Y444728D1*
X3704990Y444448D1*
X3709935Y443610D1*
X3714755Y442224D1*
X3719390Y440306D1*
X3723781Y437882D1*
X3727873Y434981D1*
X3731614Y431640D1*
X3734958Y427902D1*
X3737862Y423812D1*
X3740290Y419423D1*
X3742212Y414790D1*
X3743602Y409971D1*
X3744444Y405026D1*
X3744728Y400000D1*
X3744448Y395010D1*
X3844448D2*
X3843610Y390065D1*
X3842224Y385245D1*
X3840306Y380610D1*
X3837882Y376219D1*
X3834981Y372127D1*
X3831640Y368386D1*
X3827902Y365042D1*
X3823812Y362138D1*
X3819423Y359710D1*
X3814790Y357788D1*
X3809971Y356398D1*
X3805026Y355556D1*
X3800018Y355272D1*
X3795010Y355552D1*
X3790065Y356390D1*
X3785245Y357776D1*
X3780610Y359694D1*
X3776219Y362118D1*
X3772127Y365019D1*
X3768386Y368360D1*
X3765042Y372098D1*
X3762138Y376188D1*
X3759710Y380577D1*
X3757788Y385210D1*
X3756398Y390029D1*
X3755556Y394974D1*
X3755272Y399982D1*
X3755552Y404990D1*
X3756390Y409935D1*
X3757776Y414755D1*
X3759694Y419390D1*
X3762118Y423781D1*
X3765019Y427873D1*
X3768360Y431614D1*
X3772098Y434958D1*
X3776188Y437862D1*
X3780577Y440290D1*
X3785210Y442212D1*
X3790029Y443602D1*
X3794974Y444444D1*
X3799982Y444728D1*
X3804990Y444448D1*
X3809935Y443610D1*
X3814755Y442224D1*
X3819390Y440306D1*
X3823781Y437882D1*
X3827873Y434981D1*
X3831614Y431640D1*
X3834958Y427902D1*
X3837862Y423812D1*
X3840290Y419423D1*
X3842212Y414790D1*
X3843602Y409971D1*
X3844444Y405026D1*
X3844728Y400000D1*
X3844448Y395010D1*
X3744697Y298334D2*
X3744604Y296673D1*
X3744449Y295018D1*
X3744233Y293369D1*
X3743956Y291730D1*
X3743618Y290101D1*
X3743220Y288487D1*
X3742763Y286888D1*
X3742246Y285308D1*
X3741670Y283748D1*
X3741038Y282210D1*
X3740348Y280697D1*
X3739603Y279211D1*
X3738802Y277753D1*
X3737949Y276326D1*
X3737043Y274932D1*
X3736085Y273572D1*
X3735078Y272249D1*
X3734022Y270965D1*
X3732919Y269720D1*
X3731771Y268517D1*
X3730579Y267358D1*
X3729345Y266244D1*
X3728070Y265177D1*
X3726756Y264158D1*
X3725405Y263188D1*
X3724019Y262269D1*
X3722600Y261402D1*
X3721150Y260589D1*
X3719670Y259830D1*
X3718164Y259127D1*
X3716632Y258480D1*
X3715077Y257890D1*
X3713501Y257359D1*
X3711907Y256886D1*
X3710296Y256474D1*
X3708671Y256121D1*
X3707034Y255829D1*
X3705388Y255598D1*
X3703733Y255429D1*
X3702074Y255321D1*
X3700412Y255274D1*
X3698749Y255290D1*
X3697088Y255367D1*
X3695431Y255506D1*
X3693781Y255707D1*
X3692138Y255969D1*
X3690507Y256291D1*
X3688889Y256674D1*
X3687286Y257117D1*
X3685701Y257620D1*
X3684136Y258180D1*
X3682592Y258799D1*
X3681073Y259474D1*
X3679580Y260206D1*
X3678115Y260992D1*
X3676680Y261833D1*
X3675277Y262726D1*
X3673909Y263671D1*
X3672577Y264666D1*
X3671282Y265709D1*
X3670027Y266801D1*
X3668814Y267938D1*
X3667644Y269119D1*
X3666518Y270343D1*
X3665439Y271608D1*
X3664408Y272912D1*
X3663426Y274254D1*
X3662494Y275631D1*
X3661614Y277042D1*
X3660787Y278485D1*
X3660014Y279957D1*
X3659297Y281457D1*
X3658636Y282983D1*
X3658032Y284532D1*
X3657486Y286103D1*
X3656999Y287693D1*
X3656571Y289300D1*
X3656204Y290921D1*
X3655896Y292555D1*
X3655650Y294200D1*
X3655465Y295852D1*
X3655342Y297511D1*
X3655280Y299172D1*
Y300835D1*
X3655342Y302497D1*
X3655466Y304155D1*
X3655651Y305807D1*
X3655898Y307452D1*
X3656205Y309086D1*
X3656573Y310708D1*
X3657001Y312314D1*
X3657488Y313904D1*
X3658035Y315475D1*
X3658639Y317024D1*
X3659300Y318550D1*
X3660018Y320050D1*
X3660791Y321522D1*
X3661618Y322964D1*
X3662498Y324375D1*
X3663430Y325752D1*
X3664412Y327094D1*
X3665444Y328398D1*
X3666523Y329663D1*
X3667649Y330886D1*
X3668820Y332068D1*
X3670033Y333204D1*
X3671288Y334295D1*
X3672583Y335339D1*
X3673915Y336334D1*
X3675284Y337278D1*
X3676686Y338171D1*
X3678121Y339011D1*
X3679586Y339797D1*
X3681080Y340529D1*
X3682599Y341204D1*
X3684143Y341822D1*
X3685708Y342383D1*
X3687294Y342885D1*
X3688896Y343327D1*
X3690515Y343710D1*
X3692146Y344033D1*
X3693788Y344294D1*
X3695439Y344494D1*
X3697096Y344633D1*
X3698757Y344710D1*
X3700419Y344726D1*
X3702082Y344679D1*
X3703741Y344571D1*
X3705395Y344401D1*
X3707042Y344170D1*
X3708679Y343878D1*
X3710304Y343525D1*
X3711914Y343112D1*
X3713508Y342639D1*
X3715084Y342107D1*
X3716639Y341518D1*
X3718170Y340870D1*
X3719677Y340167D1*
X3721156Y339408D1*
X3722607Y338594D1*
X3724026Y337727D1*
X3725411Y336808D1*
X3726762Y335838D1*
X3728075Y334818D1*
X3729350Y333751D1*
X3730584Y332637D1*
X3731776Y331477D1*
X3732924Y330274D1*
X3734027Y329030D1*
X3735083Y327745D1*
X3736090Y326422D1*
X3737047Y325062D1*
X3737953Y323667D1*
X3738806Y322240D1*
X3739606Y320783D1*
X3740351Y319296D1*
X3741041Y317783D1*
X3741673Y316245D1*
X3742248Y314685D1*
X3742765Y313104D1*
X3743222Y311506D1*
X3743620Y309891D1*
X3743958Y308263D1*
X3744234Y306623D1*
X3744450Y304975D1*
X3744604Y303319D1*
X3744697Y301659D1*
X3744728Y300000D1*
X3744697Y298334D1*
X3844697D2*
X3844604Y296673D1*
X3844449Y295018D1*
X3844233Y293369D1*
X3843956Y291730D1*
X3843618Y290101D1*
X3843220Y288487D1*
X3842763Y286888D1*
X3842246Y285308D1*
X3841670Y283748D1*
X3841038Y282210D1*
X3840348Y280697D1*
X3839603Y279211D1*
X3838802Y277753D1*
X3837949Y276326D1*
X3837043Y274932D1*
X3836085Y273572D1*
X3835078Y272249D1*
X3834022Y270965D1*
X3832919Y269720D1*
X3831771Y268517D1*
X3830579Y267358D1*
X3829345Y266244D1*
X3828070Y265177D1*
X3826756Y264158D1*
X3825405Y263188D1*
X3824019Y262269D1*
X3822600Y261402D1*
X3821150Y260589D1*
X3819670Y259830D1*
X3818164Y259127D1*
X3816632Y258480D1*
X3815077Y257890D1*
X3813501Y257359D1*
X3811907Y256886D1*
X3810296Y256474D1*
X3808671Y256121D1*
X3807034Y255829D1*
X3805388Y255598D1*
X3803733Y255429D1*
X3802074Y255321D1*
X3800412Y255274D1*
X3798749Y255290D1*
X3797088Y255367D1*
X3795431Y255506D1*
X3793781Y255707D1*
X3792138Y255969D1*
X3790507Y256291D1*
X3788889Y256674D1*
X3787286Y257117D1*
X3785701Y257620D1*
X3784136Y258180D1*
X3782592Y258799D1*
X3781073Y259474D1*
X3779580Y260206D1*
X3778115Y260992D1*
X3776680Y261833D1*
X3775277Y262726D1*
X3773909Y263671D1*
X3772577Y264666D1*
X3771282Y265709D1*
X3770027Y266801D1*
X3768814Y267938D1*
X3767644Y269119D1*
X3766518Y270343D1*
X3765439Y271608D1*
X3764408Y272912D1*
X3763426Y274254D1*
X3762494Y275631D1*
X3761614Y277042D1*
X3760787Y278485D1*
X3760014Y279957D1*
X3759297Y281457D1*
X3758636Y282983D1*
X3758032Y284532D1*
X3757486Y286103D1*
X3756999Y287693D1*
X3756571Y289300D1*
X3756204Y290921D1*
X3755896Y292555D1*
X3755650Y294200D1*
X3755465Y295852D1*
X3755342Y297511D1*
X3755280Y299172D1*
Y300835D1*
X3755342Y302497D1*
X3755466Y304155D1*
X3755651Y305807D1*
X3755898Y307452D1*
X3756205Y309086D1*
X3756573Y310708D1*
X3757001Y312314D1*
X3757488Y313904D1*
X3758035Y315475D1*
X3758639Y317024D1*
X3759300Y318550D1*
X3760018Y320050D1*
X3760791Y321522D1*
X3761618Y322964D1*
X3762498Y324375D1*
X3763430Y325752D1*
X3764412Y327094D1*
X3765444Y328398D1*
X3766523Y329663D1*
X3767649Y330886D1*
X3768820Y332068D1*
X3770033Y333204D1*
X3771288Y334295D1*
X3772583Y335339D1*
X3773915Y336334D1*
X3775284Y337278D1*
X3776686Y338171D1*
X3778121Y339011D1*
X3779586Y339797D1*
X3781080Y340529D1*
X3782599Y341204D1*
X3784143Y341822D1*
X3785708Y342383D1*
X3787294Y342885D1*
X3788896Y343327D1*
X3790515Y343710D1*
X3792146Y344033D1*
X3793788Y344294D1*
X3795439Y344494D1*
X3797096Y344633D1*
X3798757Y344710D1*
X3800419Y344726D1*
X3802082Y344679D1*
X3803741Y344571D1*
X3805395Y344401D1*
X3807042Y344170D1*
X3808679Y343878D1*
X3810304Y343525D1*
X3811914Y343112D1*
X3813508Y342639D1*
X3815084Y342107D1*
X3816639Y341518D1*
X3818170Y340870D1*
X3819677Y340167D1*
X3821156Y339408D1*
X3822607Y338594D1*
X3824026Y337727D1*
X3825411Y336808D1*
X3826762Y335838D1*
X3828075Y334818D1*
X3829350Y333751D1*
X3830584Y332637D1*
X3831776Y331477D1*
X3832924Y330274D1*
X3834027Y329030D1*
X3835083Y327745D1*
X3836090Y326422D1*
X3837047Y325062D1*
X3837953Y323667D1*
X3838806Y322240D1*
X3839606Y320783D1*
X3840351Y319296D1*
X3841041Y317783D1*
X3841673Y316245D1*
X3842248Y314685D1*
X3842765Y313104D1*
X3843222Y311506D1*
X3843620Y309891D1*
X3843958Y308263D1*
X3844234Y306623D1*
X3844450Y304975D1*
X3844604Y303319D1*
X3844697Y301659D1*
X3844728Y300000D1*
X3844697Y298334D1*
X3209845Y132517D2*
X3208782Y127608D1*
X3207030Y122902D1*
X3204626Y118492D1*
X3201620Y114469D1*
X3198071Y110915D1*
X3194053Y107902D1*
X3189647Y105492D1*
X3184942Y103733D1*
X3180036Y102662D1*
X3175027Y102300D1*
X3170017Y102655D1*
X3165108Y103718D1*
X3160402Y105470D1*
X3155992Y107874D1*
X3151969Y110880D1*
X3148415Y114429D1*
X3145402Y118447D1*
X3142992Y122853D1*
X3141233Y127558D1*
X3140162Y132464D1*
X3139800Y137473D1*
X3140155Y142483D1*
X3141218Y147392D1*
X3142970Y152098D1*
X3145374Y156508D1*
X3148380Y160531D1*
X3151929Y164085D1*
X3155947Y167098D1*
X3160353Y169508D1*
X3165058Y171267D1*
X3169964Y172338D1*
X3174973Y172700D1*
X3179983Y172345D1*
X3184892Y171282D1*
X3189598Y169530D1*
X3194008Y167126D1*
X3198031Y164120D1*
X3201585Y160571D1*
X3204598Y156553D1*
X3207008Y152147D1*
X3208767Y147442D1*
X3209838Y142536D1*
X3210200Y137500D1*
X3209845Y132517D1*
X2822345Y726266D2*
X2821282Y721358D1*
X2819530Y716651D1*
X2817126Y712241D1*
X2814120Y708218D1*
X2810571Y704664D1*
X2806553Y701652D1*
X2802147Y699241D1*
X2797442Y697483D1*
X2792536Y696411D1*
X2787527Y696049D1*
X2782517Y696404D1*
X2777608Y697468D1*
X2772902Y699219D1*
X2768492Y701623D1*
X2764469Y704630D1*
X2760915Y708178D1*
X2757902Y712196D1*
X2755492Y716603D1*
X2753733Y721307D1*
X2752662Y726214D1*
X2752300Y731223D1*
X2752655Y736233D1*
X2753718Y741141D1*
X2755470Y745848D1*
X2757874Y750258D1*
X2760880Y754280D1*
X2764429Y757834D1*
X2768447Y760847D1*
X2772853Y763257D1*
X2777558Y765016D1*
X2782464Y766087D1*
X2787473Y766449D1*
X2792483Y766095D1*
X2797392Y765031D1*
X2802098Y763279D1*
X2806508Y760876D1*
X2810531Y757869D1*
X2814085Y754320D1*
X2817098Y750302D1*
X2819508Y745896D1*
X2821267Y741192D1*
X2822338Y736285D1*
X2822700Y731249D1*
X2822345Y726266D1*
X3472345Y1095017D2*
X3471282Y1090108D1*
X3469530Y1085402D1*
X3467126Y1080992D1*
X3464120Y1076969D1*
X3460571Y1073415D1*
X3456553Y1070402D1*
X3452147Y1067992D1*
X3447442Y1066233D1*
X3442536Y1065162D1*
X3437527Y1064800D1*
X3432517Y1065155D1*
X3427608Y1066218D1*
X3422902Y1067970D1*
X3418492Y1070374D1*
X3414469Y1073380D1*
X3410915Y1076929D1*
X3407902Y1080947D1*
X3405492Y1085353D1*
X3403733Y1090058D1*
X3402662Y1094964D1*
X3402300Y1099973D1*
X3402655Y1104983D1*
X3403718Y1109892D1*
X3405470Y1114598D1*
X3407874Y1119008D1*
X3410880Y1123031D1*
X3414429Y1126585D1*
X3418447Y1129598D1*
X3422853Y1132008D1*
X3427558Y1133767D1*
X3432464Y1134838D1*
X3437473Y1135200D1*
X3442483Y1134845D1*
X3447392Y1133782D1*
X3452098Y1132030D1*
X3456508Y1129626D1*
X3460531Y1126620D1*
X3464085Y1123071D1*
X3467098Y1119053D1*
X3469508Y1114647D1*
X3471267Y1109942D1*
X3472338Y1105036D1*
X3472700Y1100000D1*
X3472345Y1095017D1*
X2966095Y707517D2*
X2965032Y702608D1*
X2963280Y697902D1*
X2960876Y693492D1*
X2957870Y689469D1*
X2954321Y685915D1*
X2950303Y682902D1*
X2945897Y680492D1*
X2941192Y678733D1*
X2936286Y677662D1*
X2931277Y677300D1*
X2926267Y677655D1*
X2921358Y678718D1*
X2916652Y680470D1*
X2912242Y682874D1*
X2908219Y685880D1*
X2904665Y689429D1*
X2901652Y693447D1*
X2899242Y697853D1*
X2897483Y702558D1*
X2896412Y707464D1*
X2896050Y712473D1*
X2896405Y717483D1*
X2897468Y722392D1*
X2899220Y727098D1*
X2901624Y731508D1*
X2904630Y735531D1*
X2908179Y739085D1*
X2912197Y742098D1*
X2916603Y744508D1*
X2921308Y746267D1*
X2926214Y747338D1*
X2931223Y747700D1*
X2936233Y747345D1*
X2941142Y746282D1*
X2945848Y744530D1*
X2950258Y742126D1*
X2954281Y739120D1*
X2957835Y735571D1*
X2960848Y731553D1*
X2963258Y727147D1*
X2965017Y722442D1*
X2966088Y717536D1*
X2966450Y712500D1*
X2966095Y707517D1*
X3572345Y670017D2*
X3571282Y665108D1*
X3569530Y660402D1*
X3567126Y655992D1*
X3564120Y651969D1*
X3560571Y648415D1*
X3556553Y645402D1*
X3552147Y642992D1*
X3547442Y641233D1*
X3542536Y640162D1*
X3537527Y639800D1*
X3532517Y640155D1*
X3527608Y641218D1*
X3522902Y642970D1*
X3518492Y645374D1*
X3514469Y648380D1*
X3510915Y651929D1*
X3507902Y655947D1*
X3505492Y660353D1*
X3503733Y665058D1*
X3502662Y669964D1*
X3502300Y674973D1*
X3502655Y679983D1*
X3503718Y684892D1*
X3505470Y689598D1*
X3507874Y694008D1*
X3510880Y698031D1*
X3514429Y701585D1*
X3518447Y704598D1*
X3522853Y707008D1*
X3527558Y708767D1*
X3532464Y709838D1*
X3537473Y710200D1*
X3542483Y709845D1*
X3547392Y708782D1*
X3552098Y707030D1*
X3556508Y704626D1*
X3560531Y701620D1*
X3564085Y698071D1*
X3567098Y694053D1*
X3569508Y689647D1*
X3571267Y684942D1*
X3572338Y680036D1*
X3572700Y675000D1*
X3572345Y670017D1*
X3247345Y870017D2*
X3246282Y865108D1*
X3244530Y860402D1*
X3242126Y855992D1*
X3239120Y851969D1*
X3235571Y848415D1*
X3231553Y845402D1*
X3227147Y842992D1*
X3222442Y841233D1*
X3217536Y840162D1*
X3212527Y839800D1*
X3207517Y840155D1*
X3202608Y841218D1*
X3197902Y842970D1*
X3193492Y845374D1*
X3189469Y848380D1*
X3185915Y851929D1*
X3182902Y855947D1*
X3180492Y860353D1*
X3178733Y865058D1*
X3177662Y869964D1*
X3177300Y874973D1*
X3177655Y879983D1*
X3178718Y884892D1*
X3180470Y889598D1*
X3182874Y894008D1*
X3185880Y898031D1*
X3189429Y901585D1*
X3193447Y904598D1*
X3197853Y907008D1*
X3202558Y908767D1*
X3207464Y909838D1*
X3212473Y910200D1*
X3217483Y909845D1*
X3222392Y908782D1*
X3227098Y907030D1*
X3231508Y904626D1*
X3235531Y901620D1*
X3239085Y898071D1*
X3242098Y894053D1*
X3244508Y889647D1*
X3246267Y884942D1*
X3247338Y880036D1*
X3247700Y875000D1*
X3247345Y870017D1*
X3522345Y457517D2*
X3521282Y452608D1*
X3519530Y447902D1*
X3517126Y443492D1*
X3514120Y439469D1*
X3510571Y435915D1*
X3506553Y432902D1*
X3502147Y430492D1*
X3497442Y428733D1*
X3492536Y427662D1*
X3487527Y427300D1*
X3482517Y427655D1*
X3477608Y428718D1*
X3472902Y430470D1*
X3468492Y432874D1*
X3464469Y435880D1*
X3460915Y439429D1*
X3457902Y443447D1*
X3455492Y447853D1*
X3453733Y452558D1*
X3452662Y457464D1*
X3452300Y462473D1*
X3452655Y467483D1*
X3453718Y472392D1*
X3455470Y477098D1*
X3457874Y481508D1*
X3460880Y485531D1*
X3464429Y489085D1*
X3468447Y492098D1*
X3472853Y494508D1*
X3477558Y496267D1*
X3482464Y497338D1*
X3487473Y497700D1*
X3492483Y497345D1*
X3497392Y496282D1*
X3502098Y494530D1*
X3506508Y492126D1*
X3510531Y489120D1*
X3514085Y485571D1*
X3517098Y481553D1*
X3519508Y477147D1*
X3521267Y472442D1*
X3522338Y467536D1*
X3522700Y462500D1*
X3522345Y457517D1*
Y245017D2*
X3521282Y240108D1*
X3519530Y235402D1*
X3517126Y230992D1*
X3514120Y226969D1*
X3510571Y223415D1*
X3506553Y220402D1*
X3502147Y217992D1*
X3497442Y216233D1*
X3492536Y215162D1*
X3487527Y214800D1*
X3482517Y215155D1*
X3477608Y216218D1*
X3472902Y217970D1*
X3468492Y220374D1*
X3464469Y223380D1*
X3460915Y226929D1*
X3457902Y230947D1*
X3455492Y235353D1*
X3453733Y240058D1*
X3452662Y244964D1*
X3452300Y249973D1*
X3452655Y254983D1*
X3453718Y259892D1*
X3455470Y264598D1*
X3457874Y269008D1*
X3460880Y273031D1*
X3464429Y276585D1*
X3468447Y279598D1*
X3472853Y282008D1*
X3477558Y283767D1*
X3482464Y284838D1*
X3487473Y285200D1*
X3492483Y284845D1*
X3497392Y283782D1*
X3502098Y282030D1*
X3506508Y279626D1*
X3510531Y276620D1*
X3514085Y273071D1*
X3517098Y269053D1*
X3519508Y264647D1*
X3521267Y259942D1*
X3522338Y255036D1*
X3522700Y250000D1*
X3522345Y245017D1*
X2834845Y420017D2*
X2833782Y415108D1*
X2832030Y410402D1*
X2829626Y405992D1*
X2826620Y401969D1*
X2823071Y398415D1*
X2819053Y395402D1*
X2814647Y392992D1*
X2809942Y391233D1*
X2805036Y390162D1*
X2800027Y389800D1*
X2795017Y390155D1*
X2790108Y391218D1*
X2785402Y392970D1*
X2780992Y395374D1*
X2776969Y398380D1*
X2773415Y401929D1*
X2770402Y405947D1*
X2767992Y410353D1*
X2766233Y415058D1*
X2765162Y419964D1*
X2764800Y424973D1*
X2765155Y429983D1*
X2766218Y434892D1*
X2767970Y439598D1*
X2770374Y444008D1*
X2773380Y448031D1*
X2776929Y451585D1*
X2780947Y454598D1*
X2785353Y457008D1*
X2790058Y458767D1*
X2794964Y459838D1*
X2799973Y460200D1*
X2804983Y459845D1*
X2809892Y458782D1*
X2814598Y457030D1*
X2819008Y454626D1*
X2823031Y451620D1*
X2826585Y448071D1*
X2829598Y444053D1*
X2832008Y439647D1*
X2833767Y434942D1*
X2834838Y430036D1*
X2835200Y425000D1*
X2834845Y420017D1*
Y520017D2*
X2833782Y515108D1*
X2832030Y510402D1*
X2829626Y505992D1*
X2826620Y501969D1*
X2823071Y498415D1*
X2819053Y495402D1*
X2814647Y492992D1*
X2809942Y491233D1*
X2805036Y490162D1*
X2800027Y489800D1*
X2795017Y490155D1*
X2790108Y491218D1*
X2785402Y492970D1*
X2780992Y495374D1*
X2776969Y498380D1*
X2773415Y501929D1*
X2770402Y505947D1*
X2767992Y510353D1*
X2766233Y515058D1*
X2765162Y519964D1*
X2764800Y524973D1*
X2765155Y529983D1*
X2766218Y534892D1*
X2767970Y539598D1*
X2770374Y544008D1*
X2773380Y548031D1*
X2776929Y551585D1*
X2780947Y554598D1*
X2785353Y557008D1*
X2790058Y558767D1*
X2794964Y559838D1*
X2799973Y560200D1*
X2804983Y559845D1*
X2809892Y558782D1*
X2814598Y557030D1*
X2819008Y554626D1*
X2823031Y551620D1*
X2826585Y548071D1*
X2829598Y544053D1*
X2832008Y539647D1*
X2833767Y534942D1*
X2834838Y530036D1*
X2835200Y525000D1*
X2834845Y520017D1*
Y620017D2*
X2833782Y615108D1*
X2832030Y610402D1*
X2829626Y605992D1*
X2826620Y601969D1*
X2823071Y598415D1*
X2819053Y595402D1*
X2814647Y592992D1*
X2809942Y591233D1*
X2805036Y590162D1*
X2800027Y589800D1*
X2795017Y590155D1*
X2790108Y591218D1*
X2785402Y592970D1*
X2780992Y595374D1*
X2776969Y598380D1*
X2773415Y601929D1*
X2770402Y605947D1*
X2767992Y610353D1*
X2766233Y615058D1*
X2765162Y619964D1*
X2764800Y624973D1*
X2765155Y629983D1*
X2766218Y634892D1*
X2767970Y639598D1*
X2770374Y644008D1*
X2773380Y648031D1*
X2776929Y651585D1*
X2780947Y654598D1*
X2785353Y657008D1*
X2790058Y658767D1*
X2794964Y659838D1*
X2799973Y660200D1*
X2804983Y659845D1*
X2809892Y658782D1*
X2814598Y657030D1*
X2819008Y654626D1*
X2823031Y651620D1*
X2826585Y648071D1*
X2829598Y644053D1*
X2832008Y639647D1*
X2833767Y634942D1*
X2834838Y630036D1*
X2835200Y625000D1*
X2834845Y620017D1*
X2859845Y132517D2*
X2858782Y127608D1*
X2857030Y122902D1*
X2854626Y118492D1*
X2851620Y114469D1*
X2848071Y110915D1*
X2844053Y107902D1*
X2839647Y105492D1*
X2834942Y103733D1*
X2830036Y102662D1*
X2825027Y102300D1*
X2820017Y102655D1*
X2815108Y103718D1*
X2810402Y105470D1*
X2805992Y107874D1*
X2801969Y110880D1*
X2798415Y114429D1*
X2795402Y118447D1*
X2792992Y122853D1*
X2791233Y127558D1*
X2790162Y132464D1*
X2789800Y137473D1*
X2790155Y142483D1*
X2791218Y147392D1*
X2792970Y152098D1*
X2795374Y156508D1*
X2798380Y160531D1*
X2801929Y164085D1*
X2805947Y167098D1*
X2810353Y169508D1*
X2815058Y171267D1*
X2819964Y172338D1*
X2824973Y172700D1*
X2829983Y172345D1*
X2834892Y171282D1*
X2839598Y169530D1*
X2844008Y167126D1*
X2848031Y164120D1*
X2851585Y160571D1*
X2854598Y156553D1*
X2857008Y152147D1*
X2858767Y147442D1*
X2859838Y142536D1*
X2860200Y137500D1*
X2859845Y132517D1*
X134845Y1992064D2*
X133782Y1987156D1*
X132030Y1982449D1*
X129626Y1978039D1*
X126620Y1974016D1*
X123071Y1970462D1*
X119053Y1967449D1*
X114647Y1965039D1*
X109942Y1963281D1*
X105036Y1962209D1*
X100027Y1961847D1*
X95017Y1962202D1*
X90108Y1963266D1*
X85402Y1965017D1*
X80992Y1967421D1*
X76969Y1970427D1*
X73415Y1973976D1*
X70402Y1977994D1*
X67992Y1982400D1*
X66233Y1987105D1*
X65162Y1992011D1*
X64800Y1997021D1*
X65155Y2002030D1*
X66218Y2006939D1*
X67970Y2011646D1*
X70374Y2016055D1*
X73380Y2020078D1*
X76929Y2023632D1*
X80947Y2026645D1*
X85353Y2029055D1*
X90058Y2030814D1*
X94964Y2031885D1*
X99973Y2032247D1*
X104983Y2031893D1*
X109892Y2030829D1*
X114598Y2029077D1*
X119008Y2026674D1*
X123031Y2023667D1*
X126585Y2020118D1*
X129598Y2016100D1*
X132008Y2011694D1*
X133767Y2006990D1*
X134838Y2002083D1*
X135200Y1997047D1*
X134845Y1992064D1*
X272345Y1991040D2*
X271282Y1986132D1*
X269530Y1981425D1*
X267126Y1977015D1*
X264120Y1972993D1*
X260571Y1969439D1*
X256553Y1966426D1*
X252147Y1964016D1*
X247442Y1962257D1*
X242536Y1961186D1*
X237527Y1960824D1*
X232517Y1961178D1*
X227608Y1962242D1*
X222902Y1963994D1*
X218492Y1966397D1*
X214469Y1969404D1*
X210915Y1972952D1*
X207902Y1976971D1*
X205492Y1981377D1*
X203733Y1986081D1*
X202662Y1990988D1*
X202300Y1995997D1*
X202655Y2001007D1*
X203718Y2005915D1*
X205470Y2010622D1*
X207874Y2015032D1*
X210880Y2019055D1*
X214429Y2022609D1*
X218447Y2025621D1*
X222853Y2028032D1*
X227558Y2029790D1*
X232464Y2030862D1*
X237473Y2031224D1*
X242483Y2030869D1*
X247392Y2029805D1*
X252098Y2028054D1*
X256508Y2025650D1*
X260531Y2022643D1*
X264085Y2019095D1*
X267098Y2015077D1*
X269508Y2010670D1*
X271267Y2005966D1*
X272338Y2001059D1*
X272700Y1996024D1*
X272345Y1991040D1*
X409845Y1992064D2*
X408782Y1987156D1*
X407030Y1982449D1*
X404626Y1978039D1*
X401620Y1974016D1*
X398071Y1970462D1*
X394053Y1967449D1*
X389647Y1965039D1*
X384942Y1963281D1*
X380036Y1962209D1*
X375027Y1961847D1*
X370017Y1962202D1*
X365108Y1963266D1*
X360402Y1965017D1*
X355992Y1967421D1*
X351969Y1970427D1*
X348415Y1973976D1*
X345402Y1977994D1*
X342992Y1982400D1*
X341233Y1987105D1*
X340162Y1992011D1*
X339800Y1997021D1*
X340155Y2002030D1*
X341218Y2006939D1*
X342970Y2011646D1*
X345374Y2016055D1*
X348380Y2020078D1*
X351929Y2023632D1*
X355947Y2026645D1*
X360353Y2029055D1*
X365058Y2030814D1*
X369964Y2031885D1*
X374973Y2032247D1*
X379983Y2031893D1*
X384892Y2030829D1*
X389598Y2029077D1*
X394008Y2026674D1*
X398031Y2023667D1*
X401585Y2020118D1*
X404598Y2016100D1*
X407008Y2011694D1*
X408767Y2006990D1*
X409838Y2002083D1*
X410200Y1997047D1*
X409845Y1992064D1*
X1834845Y1251266D2*
X1833782Y1246358D1*
X1832030Y1241651D1*
X1829626Y1237241D1*
X1826620Y1233218D1*
X1823071Y1229664D1*
X1819053Y1226652D1*
X1814647Y1224241D1*
X1809942Y1222483D1*
X1805036Y1221411D1*
X1800027Y1221049D1*
X1795017Y1221404D1*
X1790108Y1222468D1*
X1785402Y1224219D1*
X1780992Y1226623D1*
X1776969Y1229630D1*
X1773415Y1233178D1*
X1770402Y1237196D1*
X1767992Y1241603D1*
X1766233Y1246307D1*
X1765162Y1251214D1*
X1764800Y1256223D1*
X1765155Y1261233D1*
X1766218Y1266141D1*
X1767970Y1270848D1*
X1770374Y1275258D1*
X1773380Y1279280D1*
X1776929Y1282834D1*
X1780947Y1285847D1*
X1785353Y1288257D1*
X1790058Y1290016D1*
X1794964Y1291087D1*
X1799973Y1291449D1*
X1804983Y1291095D1*
X1809892Y1290031D1*
X1814598Y1288279D1*
X1819008Y1285876D1*
X1823031Y1282869D1*
X1826585Y1279320D1*
X1829598Y1275302D1*
X1832008Y1270896D1*
X1833767Y1266192D1*
X1834838Y1261285D1*
X1835200Y1256249D1*
X1834845Y1251266D1*
X2709845Y1756710D2*
X2708782Y1751801D1*
X2707030Y1747094D1*
X2704626Y1742685D1*
X2701620Y1738662D1*
X2698071Y1735108D1*
X2694053Y1732095D1*
X2689647Y1729685D1*
X2684942Y1727926D1*
X2680036Y1726855D1*
X2675027Y1726493D1*
X2670017Y1726847D1*
X2665108Y1727911D1*
X2660402Y1729663D1*
X2655992Y1732066D1*
X2651969Y1735073D1*
X2648415Y1738622D1*
X2645402Y1742640D1*
X2642992Y1747046D1*
X2641233Y1751750D1*
X2640162Y1756657D1*
X2639800Y1761666D1*
X2640155Y1766676D1*
X2641218Y1771584D1*
X2642970Y1776291D1*
X2645374Y1780701D1*
X2648380Y1784724D1*
X2651929Y1788278D1*
X2655947Y1791291D1*
X2660353Y1793701D1*
X2665058Y1795460D1*
X2669964Y1796531D1*
X2674973Y1796893D1*
X2679983Y1796538D1*
X2684892Y1795475D1*
X2689598Y1793723D1*
X2694008Y1791319D1*
X2698031Y1788313D1*
X2701585Y1784764D1*
X2704598Y1780746D1*
X2707008Y1776340D1*
X2708767Y1771635D1*
X2709838Y1766729D1*
X2710200Y1761693D1*
X2709845Y1756710D1*
X3247345Y1095017D2*
X3246282Y1090108D1*
X3244530Y1085402D1*
X3242126Y1080992D1*
X3239120Y1076969D1*
X3235571Y1073415D1*
X3231553Y1070402D1*
X3227147Y1067992D1*
X3222442Y1066233D1*
X3217536Y1065162D1*
X3212527Y1064800D1*
X3207517Y1065155D1*
X3202608Y1066218D1*
X3197902Y1067970D1*
X3193492Y1070374D1*
X3189469Y1073380D1*
X3185915Y1076929D1*
X3182902Y1080947D1*
X3180492Y1085353D1*
X3178733Y1090058D1*
X3177662Y1094964D1*
X3177300Y1099973D1*
X3177655Y1104983D1*
X3178718Y1109892D1*
X3180470Y1114598D1*
X3182874Y1119008D1*
X3185880Y1123031D1*
X3189429Y1126585D1*
X3193447Y1129598D1*
X3197853Y1132008D1*
X3202558Y1133767D1*
X3207464Y1134838D1*
X3212473Y1135200D1*
X3217483Y1134845D1*
X3222392Y1133782D1*
X3227098Y1132030D1*
X3231508Y1129626D1*
X3235531Y1126620D1*
X3239085Y1123071D1*
X3242098Y1119053D1*
X3244508Y1114647D1*
X3246267Y1109942D1*
X3247338Y1105036D1*
X3247700Y1100000D1*
X3247345Y1095017D1*
X1034845Y1045017D2*
X1033782Y1040108D1*
X1032030Y1035402D1*
X1029626Y1030992D1*
X1026620Y1026969D1*
X1023071Y1023415D1*
X1019053Y1020402D1*
X1014647Y1017992D1*
X1009942Y1016233D1*
X1005036Y1015162D1*
X1000027Y1014800D1*
X995017Y1015155D1*
X990108Y1016218D1*
X985402Y1017970D1*
X980992Y1020374D1*
X976969Y1023380D1*
X973415Y1026929D1*
X970402Y1030947D1*
X967992Y1035353D1*
X966233Y1040058D1*
X965162Y1044964D1*
X964800Y1049973D1*
X965155Y1054983D1*
X966218Y1059892D1*
X967970Y1064598D1*
X970374Y1069008D1*
X973380Y1073031D1*
X976929Y1076585D1*
X980947Y1079598D1*
X985353Y1082008D1*
X990058Y1083767D1*
X994964Y1084838D1*
X999973Y1085200D1*
X1004983Y1084845D1*
X1009892Y1083782D1*
X1014598Y1082030D1*
X1019008Y1079626D1*
X1023031Y1076620D1*
X1026585Y1073071D1*
X1029598Y1069053D1*
X1032008Y1064647D1*
X1033767Y1059942D1*
X1034838Y1055036D1*
X1035200Y1050000D1*
X1034845Y1045017D1*
X2184845D2*
X2183782Y1040108D1*
X2182030Y1035402D1*
X2179626Y1030992D1*
X2176620Y1026969D1*
X2173071Y1023415D1*
X2169053Y1020402D1*
X2164647Y1017992D1*
X2159942Y1016233D1*
X2155036Y1015162D1*
X2150027Y1014800D1*
X2145017Y1015155D1*
X2140108Y1016218D1*
X2135402Y1017970D1*
X2130992Y1020374D1*
X2126969Y1023380D1*
X2123415Y1026929D1*
X2120402Y1030947D1*
X2117992Y1035353D1*
X2116233Y1040058D1*
X2115162Y1044964D1*
X2114800Y1049973D1*
X2115155Y1054983D1*
X2116218Y1059892D1*
X2117970Y1064598D1*
X2120374Y1069008D1*
X2123380Y1073031D1*
X2126929Y1076585D1*
X2130947Y1079598D1*
X2135353Y1082008D1*
X2140058Y1083767D1*
X2144964Y1084838D1*
X2149973Y1085200D1*
X2154983Y1084845D1*
X2159892Y1083782D1*
X2164598Y1082030D1*
X2169008Y1079626D1*
X2173031Y1076620D1*
X2176585Y1073071D1*
X2179598Y1069053D1*
X2182008Y1064647D1*
X2183767Y1059942D1*
X2184838Y1055036D1*
X2185200Y1050000D1*
X2184845Y1045017D1*
X1634845D2*
X1633782Y1040108D1*
X1632030Y1035402D1*
X1629626Y1030992D1*
X1626620Y1026969D1*
X1623071Y1023415D1*
X1619053Y1020402D1*
X1614647Y1017992D1*
X1609942Y1016233D1*
X1605036Y1015162D1*
X1600027Y1014800D1*
X1595017Y1015155D1*
X1590108Y1016218D1*
X1585402Y1017970D1*
X1580992Y1020374D1*
X1576969Y1023380D1*
X1573415Y1026929D1*
X1570402Y1030947D1*
X1567992Y1035353D1*
X1566233Y1040058D1*
X1565162Y1044964D1*
X1564800Y1049973D1*
X1565155Y1054983D1*
X1566218Y1059892D1*
X1567970Y1064598D1*
X1570374Y1069008D1*
X1573380Y1073031D1*
X1576929Y1076585D1*
X1580947Y1079598D1*
X1585353Y1082008D1*
X1590058Y1083767D1*
X1594964Y1084838D1*
X1599973Y1085200D1*
X1604983Y1084845D1*
X1609892Y1083782D1*
X1614598Y1082030D1*
X1619008Y1079626D1*
X1623031Y1076620D1*
X1626585Y1073071D1*
X1629598Y1069053D1*
X1632008Y1064647D1*
X1633767Y1059942D1*
X1634838Y1055036D1*
X1635200Y1050000D1*
X1634845Y1045017D1*
X1234845D2*
X1233782Y1040108D1*
X1232030Y1035402D1*
X1229626Y1030992D1*
X1226620Y1026969D1*
X1223071Y1023415D1*
X1219053Y1020402D1*
X1214647Y1017992D1*
X1209942Y1016233D1*
X1205036Y1015162D1*
X1200027Y1014800D1*
X1195017Y1015155D1*
X1190108Y1016218D1*
X1185402Y1017970D1*
X1180992Y1020374D1*
X1176969Y1023380D1*
X1173415Y1026929D1*
X1170402Y1030947D1*
X1167992Y1035353D1*
X1166233Y1040058D1*
X1165162Y1044964D1*
X1164800Y1049973D1*
X1165155Y1054983D1*
X1166218Y1059892D1*
X1167970Y1064598D1*
X1170374Y1069008D1*
X1173380Y1073031D1*
X1176929Y1076585D1*
X1180947Y1079598D1*
X1185353Y1082008D1*
X1190058Y1083767D1*
X1194964Y1084838D1*
X1199973Y1085200D1*
X1204983Y1084845D1*
X1209892Y1083782D1*
X1214598Y1082030D1*
X1219008Y1079626D1*
X1223031Y1076620D1*
X1226585Y1073071D1*
X1229598Y1069053D1*
X1232008Y1064647D1*
X1233767Y1059942D1*
X1234838Y1055036D1*
X1235200Y1050000D1*
X1234845Y1045017D1*
X1434845D2*
X1433782Y1040108D1*
X1432030Y1035402D1*
X1429626Y1030992D1*
X1426620Y1026969D1*
X1423071Y1023415D1*
X1419053Y1020402D1*
X1414647Y1017992D1*
X1409942Y1016233D1*
X1405036Y1015162D1*
X1400027Y1014800D1*
X1395017Y1015155D1*
X1390108Y1016218D1*
X1385402Y1017970D1*
X1380992Y1020374D1*
X1376969Y1023380D1*
X1373415Y1026929D1*
X1370402Y1030947D1*
X1367992Y1035353D1*
X1366233Y1040058D1*
X1365162Y1044964D1*
X1364800Y1049973D1*
X1365155Y1054983D1*
X1366218Y1059892D1*
X1367970Y1064598D1*
X1370374Y1069008D1*
X1373380Y1073031D1*
X1376929Y1076585D1*
X1380947Y1079598D1*
X1385353Y1082008D1*
X1390058Y1083767D1*
X1394964Y1084838D1*
X1399973Y1085200D1*
X1404983Y1084845D1*
X1409892Y1083782D1*
X1414598Y1082030D1*
X1419008Y1079626D1*
X1423031Y1076620D1*
X1426585Y1073071D1*
X1429598Y1069053D1*
X1432008Y1064647D1*
X1433767Y1059942D1*
X1434838Y1055036D1*
X1435200Y1050000D1*
X1434845Y1045017D1*
X2009845D2*
X2008782Y1040108D1*
X2007030Y1035402D1*
X2004626Y1030992D1*
X2001620Y1026969D1*
X1998071Y1023415D1*
X1994053Y1020402D1*
X1989647Y1017992D1*
X1984942Y1016233D1*
X1980036Y1015162D1*
X1975027Y1014800D1*
X1970017Y1015155D1*
X1965108Y1016218D1*
X1960402Y1017970D1*
X1955992Y1020374D1*
X1951969Y1023380D1*
X1948415Y1026929D1*
X1945402Y1030947D1*
X1942992Y1035353D1*
X1941233Y1040058D1*
X1940162Y1044964D1*
X1939800Y1049973D1*
X1940155Y1054983D1*
X1941218Y1059892D1*
X1942970Y1064598D1*
X1945374Y1069008D1*
X1948380Y1073031D1*
X1951929Y1076585D1*
X1955947Y1079598D1*
X1960353Y1082008D1*
X1965058Y1083767D1*
X1969964Y1084838D1*
X1974973Y1085200D1*
X1979983Y1084845D1*
X1984892Y1083782D1*
X1989598Y1082030D1*
X1994008Y1079626D1*
X1998031Y1076620D1*
X2001585Y1073071D1*
X2004598Y1069053D1*
X2007008Y1064647D1*
X2008767Y1059942D1*
X2009838Y1055036D1*
X2010200Y1050000D1*
X2009845Y1045017D1*
X2359845D2*
X2358782Y1040108D1*
X2357030Y1035402D1*
X2354626Y1030992D1*
X2351620Y1026969D1*
X2348071Y1023415D1*
X2344053Y1020402D1*
X2339647Y1017992D1*
X2334942Y1016233D1*
X2330036Y1015162D1*
X2325027Y1014800D1*
X2320017Y1015155D1*
X2315108Y1016218D1*
X2310402Y1017970D1*
X2305992Y1020374D1*
X2301969Y1023380D1*
X2298415Y1026929D1*
X2295402Y1030947D1*
X2292992Y1035353D1*
X2291233Y1040058D1*
X2290162Y1044964D1*
X2289800Y1049973D1*
X2290155Y1054983D1*
X2291218Y1059892D1*
X2292970Y1064598D1*
X2295374Y1069008D1*
X2298380Y1073031D1*
X2301929Y1076585D1*
X2305947Y1079598D1*
X2310353Y1082008D1*
X2315058Y1083767D1*
X2319964Y1084838D1*
X2324973Y1085200D1*
X2329983Y1084845D1*
X2334892Y1083782D1*
X2339598Y1082030D1*
X2344008Y1079626D1*
X2348031Y1076620D1*
X2351585Y1073071D1*
X2354598Y1069053D1*
X2357008Y1064647D1*
X2358767Y1059942D1*
X2359838Y1055036D1*
X2360200Y1050000D1*
X2359845Y1045017D1*
X1834845D2*
X1833782Y1040108D1*
X1832030Y1035402D1*
X1829626Y1030992D1*
X1826620Y1026969D1*
X1823071Y1023415D1*
X1819053Y1020402D1*
X1814647Y1017992D1*
X1809942Y1016233D1*
X1805036Y1015162D1*
X1800027Y1014800D1*
X1795017Y1015155D1*
X1790108Y1016218D1*
X1785402Y1017970D1*
X1780992Y1020374D1*
X1776969Y1023380D1*
X1773415Y1026929D1*
X1770402Y1030947D1*
X1767992Y1035353D1*
X1766233Y1040058D1*
X1765162Y1044964D1*
X1764800Y1049973D1*
X1765155Y1054983D1*
X1766218Y1059892D1*
X1767970Y1064598D1*
X1770374Y1069008D1*
X1773380Y1073031D1*
X1776929Y1076585D1*
X1780947Y1079598D1*
X1785353Y1082008D1*
X1790058Y1083767D1*
X1794964Y1084838D1*
X1799973Y1085200D1*
X1804983Y1084845D1*
X1809892Y1083782D1*
X1814598Y1082030D1*
X1819008Y1079626D1*
X1823031Y1076620D1*
X1826585Y1073071D1*
X1829598Y1069053D1*
X1832008Y1064647D1*
X1833767Y1059942D1*
X1834838Y1055036D1*
X1835200Y1050000D1*
X1834845Y1045017D1*
X2328596Y1632517D2*
X2327532Y1627608D1*
X2325781Y1622902D1*
X2323377Y1618492D1*
X2320370Y1614469D1*
X2316822Y1610915D1*
X2312804Y1607902D1*
X2308397Y1605492D1*
X2303693Y1603733D1*
X2298786Y1602662D1*
X2293777Y1602300D1*
X2288767Y1602655D1*
X2283859Y1603718D1*
X2279152Y1605470D1*
X2274742Y1607874D1*
X2270720Y1610880D1*
X2267166Y1614429D1*
X2264153Y1618447D1*
X2261743Y1622853D1*
X2259984Y1627558D1*
X2258913Y1632464D1*
X2258551Y1637473D1*
X2258905Y1642483D1*
X2259969Y1647392D1*
X2261721Y1652098D1*
X2264124Y1656508D1*
X2267131Y1660531D1*
X2270680Y1664085D1*
X2274698Y1667098D1*
X2279104Y1669508D1*
X2283808Y1671267D1*
X2288715Y1672338D1*
X2293724Y1672700D1*
X2298734Y1672345D1*
X2303642Y1671282D1*
X2308349Y1669530D1*
X2312759Y1667126D1*
X2316782Y1664120D1*
X2320336Y1660571D1*
X2323348Y1656553D1*
X2325759Y1652147D1*
X2327517Y1647442D1*
X2328589Y1642536D1*
X2328951Y1637500D1*
X2328596Y1632517D1*
X1028596Y1251266D2*
X1027532Y1246358D1*
X1025781Y1241651D1*
X1023377Y1237241D1*
X1020370Y1233218D1*
X1016822Y1229664D1*
X1012804Y1226652D1*
X1008397Y1224241D1*
X1003693Y1222483D1*
X998786Y1221411D1*
X993777Y1221049D1*
X988767Y1221404D1*
X983859Y1222468D1*
X979152Y1224219D1*
X974742Y1226623D1*
X970720Y1229630D1*
X967166Y1233178D1*
X964153Y1237196D1*
X961743Y1241603D1*
X959984Y1246307D1*
X958913Y1251214D1*
X958551Y1256223D1*
X958905Y1261233D1*
X959969Y1266141D1*
X961721Y1270848D1*
X964124Y1275258D1*
X967131Y1279280D1*
X970680Y1282834D1*
X974698Y1285847D1*
X979104Y1288257D1*
X983808Y1290016D1*
X988715Y1291087D1*
X993724Y1291449D1*
X998734Y1291095D1*
X1003642Y1290031D1*
X1008349Y1288279D1*
X1012759Y1285876D1*
X1016782Y1282869D1*
X1020336Y1279320D1*
X1023348Y1275302D1*
X1025759Y1270896D1*
X1027517Y1266192D1*
X1028589Y1261285D1*
X1028951Y1256249D1*
X1028596Y1251266D1*
X2628595Y1682517D2*
X2627531Y1677608D1*
X2625779Y1672902D1*
X2623376Y1668492D1*
X2620369Y1664469D1*
X2616820Y1660915D1*
X2612802Y1657902D1*
X2608396Y1655492D1*
X2603692Y1653733D1*
X2598785Y1652662D1*
X2593776Y1652300D1*
X2588766Y1652655D1*
X2583858Y1653718D1*
X2579151Y1655470D1*
X2574741Y1657874D1*
X2570718Y1660880D1*
X2567164Y1664429D1*
X2564152Y1668447D1*
X2561741Y1672853D1*
X2559983Y1677558D1*
X2558911Y1682464D1*
X2558549Y1687473D1*
X2558904Y1692483D1*
X2559968Y1697392D1*
X2561719Y1702098D1*
X2564123Y1706508D1*
X2567130Y1710531D1*
X2570678Y1714085D1*
X2574696Y1717098D1*
X2579103Y1719508D1*
X2583807Y1721267D1*
X2588714Y1722338D1*
X2593723Y1722700D1*
X2598733Y1722345D1*
X2603641Y1721282D1*
X2608348Y1719530D1*
X2612758Y1717126D1*
X2616780Y1714120D1*
X2620334Y1710571D1*
X2623347Y1706553D1*
X2625757Y1702147D1*
X2627516Y1697442D1*
X2628587Y1692536D1*
X2628949Y1687500D1*
X2628595Y1682517D1*
X639094Y1045017D2*
X638030Y1040108D1*
X636278Y1035402D1*
X633875Y1030992D1*
X630868Y1026969D1*
X627319Y1023415D1*
X623301Y1020402D1*
X618895Y1017992D1*
X614190Y1016233D1*
X609284Y1015162D1*
X604275Y1014800D1*
X599265Y1015155D1*
X594357Y1016218D1*
X589650Y1017970D1*
X585240Y1020374D1*
X581217Y1023380D1*
X577663Y1026929D1*
X574650Y1030947D1*
X572240Y1035353D1*
X570481Y1040058D1*
X569410Y1044964D1*
X569048Y1049973D1*
X569403Y1054983D1*
X570466Y1059892D1*
X572218Y1064598D1*
X574622Y1069008D1*
X577628Y1073031D1*
X581177Y1076585D1*
X585195Y1079598D1*
X589601Y1082008D1*
X594306Y1083767D1*
X599212Y1084838D1*
X604221Y1085200D1*
X609231Y1084845D1*
X614140Y1083782D1*
X618846Y1082030D1*
X623256Y1079626D1*
X627279Y1076620D1*
X630833Y1073071D1*
X633846Y1069053D1*
X636256Y1064647D1*
X638015Y1059942D1*
X639086Y1055036D1*
X639448Y1050000D1*
X639094Y1045017D1*
X439094D2*
X438030Y1040108D1*
X436278Y1035402D1*
X433875Y1030992D1*
X430868Y1026969D1*
X427319Y1023415D1*
X423301Y1020402D1*
X418895Y1017992D1*
X414190Y1016233D1*
X409284Y1015162D1*
X404275Y1014800D1*
X399265Y1015155D1*
X394357Y1016218D1*
X389650Y1017970D1*
X385240Y1020374D1*
X381217Y1023380D1*
X377663Y1026929D1*
X374650Y1030947D1*
X372240Y1035353D1*
X370481Y1040058D1*
X369410Y1044964D1*
X369048Y1049973D1*
X369403Y1054983D1*
X370466Y1059892D1*
X372218Y1064598D1*
X374622Y1069008D1*
X377628Y1073031D1*
X381177Y1076585D1*
X385195Y1079598D1*
X389601Y1082008D1*
X394306Y1083767D1*
X399212Y1084838D1*
X404221Y1085200D1*
X409231Y1084845D1*
X414140Y1083782D1*
X418846Y1082030D1*
X423256Y1079626D1*
X427279Y1076620D1*
X430833Y1073071D1*
X433846Y1069053D1*
X436256Y1064647D1*
X438015Y1059942D1*
X439086Y1055036D1*
X439448Y1050000D1*
X439094Y1045017D1*
X839094D2*
X838030Y1040108D1*
X836278Y1035402D1*
X833875Y1030992D1*
X830868Y1026969D1*
X827319Y1023415D1*
X823301Y1020402D1*
X818895Y1017992D1*
X814190Y1016233D1*
X809284Y1015162D1*
X804275Y1014800D1*
X799265Y1015155D1*
X794357Y1016218D1*
X789650Y1017970D1*
X785240Y1020374D1*
X781217Y1023380D1*
X777663Y1026929D1*
X774650Y1030947D1*
X772240Y1035353D1*
X770481Y1040058D1*
X769410Y1044964D1*
X769048Y1049973D1*
X769403Y1054983D1*
X770466Y1059892D1*
X772218Y1064598D1*
X774622Y1069008D1*
X777628Y1073031D1*
X781177Y1076585D1*
X785195Y1079598D1*
X789601Y1082008D1*
X794306Y1083767D1*
X799212Y1084838D1*
X804221Y1085200D1*
X809231Y1084845D1*
X814140Y1083782D1*
X818846Y1082030D1*
X823256Y1079626D1*
X827279Y1076620D1*
X830833Y1073071D1*
X833846Y1069053D1*
X836256Y1064647D1*
X838015Y1059942D1*
X839086Y1055036D1*
X839448Y1050000D1*
X839094Y1045017D1*
X2859845Y1570017D2*
X2858782Y1565108D1*
X2857030Y1560402D1*
X2854626Y1555992D1*
X2851620Y1551969D1*
X2848071Y1548415D1*
X2844053Y1545402D1*
X2839647Y1542992D1*
X2834942Y1541233D1*
X2830036Y1540162D1*
X2825027Y1539800D1*
X2820017Y1540155D1*
X2815108Y1541218D1*
X2810402Y1542970D1*
X2805992Y1545374D1*
X2801969Y1548380D1*
X2798415Y1551929D1*
X2795402Y1555947D1*
X2792992Y1560353D1*
X2791233Y1565058D1*
X2790162Y1569964D1*
X2789800Y1574973D1*
X2790155Y1579983D1*
X2791218Y1584892D1*
X2792970Y1589598D1*
X2795374Y1594008D1*
X2798380Y1598031D1*
X2801929Y1601585D1*
X2805947Y1604598D1*
X2810353Y1607008D1*
X2815058Y1608767D1*
X2819964Y1609838D1*
X2824973Y1610200D1*
X2829983Y1609845D1*
X2834892Y1608782D1*
X2839598Y1607030D1*
X2844008Y1604626D1*
X2848031Y1601620D1*
X2851585Y1598071D1*
X2854598Y1594053D1*
X2857008Y1589647D1*
X2858767Y1584942D1*
X2859838Y1580036D1*
X2860200Y1575000D1*
X2859845Y1570017D1*
X2899939Y1737786D2*
X2898071Y1735915D1*
X2894053Y1732902D1*
X2889647Y1730492D1*
X2884942Y1728733D1*
X2880036Y1727662D1*
X2875027Y1727300D1*
X2870017Y1727655D1*
X2865108Y1728718D1*
X2860402Y1730470D1*
X2855992Y1732874D1*
X2851969Y1735880D1*
X2848415Y1739429D1*
X2845402Y1743447D1*
X2842992Y1747853D1*
X2841233Y1752558D1*
X2840162Y1757464D1*
X2839800Y1762473D1*
X2840155Y1767483D1*
X2841218Y1772392D1*
X2842970Y1777098D1*
X2845374Y1781508D1*
X2848380Y1785531D1*
X2851929Y1789085D1*
X2855947Y1792098D1*
X2860353Y1794508D1*
X2865058Y1796267D1*
X2869964Y1797338D1*
X2874973Y1797700D1*
X2879983Y1797345D1*
X2884892Y1796282D1*
X2889598Y1794530D1*
X2894008Y1792126D1*
X2898031Y1789120D1*
X2899936Y1787217D1*
X2901929Y1789085D1*
X2905947Y1792098D1*
X2910353Y1794508D1*
X2915058Y1796267D1*
X2919964Y1797338D1*
X2924973Y1797700D1*
X2929983Y1797345D1*
X2934892Y1796282D1*
X2939598Y1794530D1*
X2944008Y1792126D1*
X2948031Y1789120D1*
X2949936Y1787217D1*
X2951929Y1789085D1*
X2955947Y1792098D1*
X2960353Y1794508D1*
X2965058Y1796267D1*
X2969964Y1797338D1*
X2974973Y1797700D1*
X2979983Y1797345D1*
X2984892Y1796282D1*
X2989598Y1794530D1*
X2994008Y1792126D1*
X2998031Y1789120D1*
X3001585Y1785571D1*
X3004598Y1781553D1*
X3007008Y1777147D1*
X3008767Y1772442D1*
X3009838Y1767536D1*
X3010200Y1762500D1*
X3009845Y1757517D1*
X3008782Y1752608D1*
X3007030Y1747902D1*
X3004626Y1743492D1*
X3001620Y1739469D1*
X2998071Y1735915D1*
X2994053Y1732902D1*
X2989647Y1730492D1*
X2984942Y1728733D1*
X2980036Y1727662D1*
X2975027Y1727300D1*
X2970017Y1727655D1*
X2965108Y1728718D1*
X2960402Y1730470D1*
X2955992Y1732874D1*
X2951969Y1735880D1*
X2950064Y1737783D1*
X2948071Y1735915D1*
X2944053Y1732902D1*
X2939647Y1730492D1*
X2934942Y1728733D1*
X2930036Y1727662D1*
X2925027Y1727300D1*
X2920017Y1727655D1*
X2915108Y1728718D1*
X2910402Y1730470D1*
X2905992Y1732874D1*
X2901969Y1735880D1*
X2900064Y1737783D1*
X3134845Y1245017D2*
X3133782Y1240108D1*
X3132030Y1235402D1*
X3129626Y1230992D1*
X3126620Y1226969D1*
X3123071Y1223415D1*
X3119053Y1220402D1*
X3114647Y1217992D1*
X3109942Y1216233D1*
X3105036Y1215162D1*
X3100027Y1214800D1*
X3095017Y1215155D1*
X3090108Y1216218D1*
X3085402Y1217970D1*
X3080992Y1220374D1*
X3076969Y1223380D1*
X3073415Y1226929D1*
X3070402Y1230947D1*
X3067992Y1235353D1*
X3066233Y1240058D1*
X3065162Y1244964D1*
X3064800Y1249973D1*
X3065155Y1254983D1*
X3066218Y1259892D1*
X3067970Y1264598D1*
X3070374Y1269008D1*
X3073380Y1273031D1*
X3076929Y1276585D1*
X3080947Y1279598D1*
X3085353Y1282008D1*
X3090058Y1283767D1*
X3094964Y1284838D1*
X3099973Y1285200D1*
X3104983Y1284845D1*
X3109892Y1283782D1*
X3114598Y1282030D1*
X3119008Y1279626D1*
X3123031Y1276620D1*
X3126585Y1273071D1*
X3129598Y1269053D1*
X3132008Y1264647D1*
X3133767Y1259942D1*
X3134838Y1255036D1*
X3135200Y1250000D1*
X3134845Y1245017D1*
X3334845Y963766D2*
X3333782Y958858D1*
X3332030Y954151D1*
X3329626Y949741D1*
X3326620Y945718D1*
X3323071Y942164D1*
X3319053Y939152D1*
X3314647Y936741D1*
X3309942Y934983D1*
X3305036Y933911D1*
X3300027Y933549D1*
X3295017Y933904D1*
X3290108Y934968D1*
X3285402Y936719D1*
X3280992Y939123D1*
X3276969Y942130D1*
X3273415Y945678D1*
X3270402Y949696D1*
X3267992Y954103D1*
X3266233Y958807D1*
X3265162Y963714D1*
X3264800Y968723D1*
X3265155Y973733D1*
X3266218Y978641D1*
X3267970Y983348D1*
X3270374Y987758D1*
X3273380Y991780D1*
X3276929Y995334D1*
X3280947Y998347D1*
X3285353Y1000757D1*
X3290058Y1002516D1*
X3294964Y1003587D1*
X3299973Y1003949D1*
X3304983Y1003595D1*
X3309892Y1002531D1*
X3314598Y1000779D1*
X3319008Y998376D1*
X3323031Y995369D1*
X3326585Y991820D1*
X3329598Y987802D1*
X3332008Y983396D1*
X3333767Y978692D1*
X3334838Y973785D1*
X3335200Y968749D1*
X3334845Y963766D1*
X3509845Y1032517D2*
X3508782Y1027608D1*
X3507030Y1022902D1*
X3504626Y1018492D1*
X3501620Y1014469D1*
X3498071Y1010915D1*
X3494053Y1007902D1*
X3489647Y1005492D1*
X3484942Y1003733D1*
X3480036Y1002662D1*
X3475027Y1002300D1*
X3470017Y1002655D1*
X3465108Y1003718D1*
X3460402Y1005470D1*
X3455992Y1007874D1*
X3451969Y1010880D1*
X3448415Y1014429D1*
X3445402Y1018447D1*
X3442992Y1022853D1*
X3441233Y1027558D1*
X3440162Y1032464D1*
X3439800Y1037473D1*
X3440155Y1042483D1*
X3441218Y1047392D1*
X3442970Y1052098D1*
X3445374Y1056508D1*
X3448380Y1060531D1*
X3451929Y1064085D1*
X3455947Y1067098D1*
X3460353Y1069508D1*
X3465058Y1071267D1*
X3469964Y1072338D1*
X3474973Y1072700D1*
X3479983Y1072345D1*
X3484892Y1071282D1*
X3489598Y1069530D1*
X3494008Y1067126D1*
X3498031Y1064120D1*
X3501585Y1060571D1*
X3504598Y1056553D1*
X3507008Y1052147D1*
X3508767Y1047442D1*
X3509838Y1042536D1*
X3510200Y1037500D1*
X3509845Y1032517D1*
X3259845Y1007517D2*
X3258782Y1002608D1*
X3257030Y997902D1*
X3254626Y993492D1*
X3251620Y989469D1*
X3248071Y985915D1*
X3244053Y982902D1*
X3239647Y980492D1*
X3234942Y978733D1*
X3230036Y977662D1*
X3225027Y977300D1*
X3220017Y977655D1*
X3215108Y978718D1*
X3210402Y980470D1*
X3205992Y982874D1*
X3201969Y985880D1*
X3198415Y989429D1*
X3195402Y993447D1*
X3192992Y997853D1*
X3191233Y1002558D1*
X3190162Y1007464D1*
X3189800Y1012473D1*
X3190155Y1017483D1*
X3191218Y1022392D1*
X3192970Y1027098D1*
X3195374Y1031508D1*
X3198380Y1035531D1*
X3201929Y1039085D1*
X3205947Y1042098D1*
X3210353Y1044508D1*
X3215058Y1046267D1*
X3219964Y1047338D1*
X3224973Y1047700D1*
X3229983Y1047345D1*
X3234892Y1046282D1*
X3239598Y1044530D1*
X3244008Y1042126D1*
X3248031Y1039120D1*
X3251585Y1035571D1*
X3254598Y1031553D1*
X3257008Y1027147D1*
X3258767Y1022442D1*
X3259838Y1017536D1*
X3260200Y1012500D1*
X3259845Y1007517D1*
X1397345Y1507517D2*
X1396282Y1502608D1*
X1394530Y1497902D1*
X1392126Y1493492D1*
X1389120Y1489469D1*
X1385571Y1485915D1*
X1381553Y1482902D1*
X1377147Y1480492D1*
X1372442Y1478733D1*
X1367536Y1477662D1*
X1362527Y1477300D1*
X1357517Y1477655D1*
X1352608Y1478718D1*
X1347902Y1480470D1*
X1343492Y1482874D1*
X1339469Y1485880D1*
X1335915Y1489429D1*
X1332902Y1493447D1*
X1330492Y1497853D1*
X1328733Y1502558D1*
X1327662Y1507464D1*
X1327300Y1512473D1*
X1327655Y1517483D1*
X1328718Y1522392D1*
X1330470Y1527098D1*
X1332874Y1531508D1*
X1335880Y1535531D1*
X1339429Y1539085D1*
X1343447Y1542098D1*
X1347853Y1544508D1*
X1352558Y1546267D1*
X1357464Y1547338D1*
X1362473Y1547700D1*
X1367483Y1547345D1*
X1372392Y1546282D1*
X1377098Y1544530D1*
X1381508Y1542126D1*
X1385531Y1539120D1*
X1389085Y1535571D1*
X1392098Y1531553D1*
X1394508Y1527147D1*
X1396267Y1522442D1*
X1397338Y1517536D1*
X1397700Y1512500D1*
X1397345Y1507517D1*
X1197345Y1420017D2*
X1196282Y1415108D1*
X1194530Y1410402D1*
X1192126Y1405992D1*
X1189120Y1401969D1*
X1185571Y1398415D1*
X1181553Y1395402D1*
X1177147Y1392992D1*
X1172442Y1391233D1*
X1167536Y1390162D1*
X1162527Y1389800D1*
X1157517Y1390155D1*
X1152608Y1391218D1*
X1147902Y1392970D1*
X1143492Y1395374D1*
X1139469Y1398380D1*
X1135915Y1401929D1*
X1132902Y1405947D1*
X1130492Y1410353D1*
X1128733Y1415058D1*
X1127662Y1419964D1*
X1127300Y1424973D1*
X1127655Y1429983D1*
X1128718Y1434892D1*
X1130470Y1439598D1*
X1132874Y1444008D1*
X1135880Y1448031D1*
X1139429Y1451585D1*
X1143447Y1454598D1*
X1147853Y1457008D1*
X1152558Y1458767D1*
X1157464Y1459838D1*
X1162473Y1460200D1*
X1167483Y1459845D1*
X1172392Y1458782D1*
X1177098Y1457030D1*
X1181508Y1454626D1*
X1185531Y1451620D1*
X1189085Y1448071D1*
X1192098Y1444053D1*
X1194508Y1439647D1*
X1196267Y1434942D1*
X1197338Y1430036D1*
X1197700Y1425000D1*
X1197345Y1420017D1*
X1597345D2*
X1596282Y1415108D1*
X1594530Y1410402D1*
X1592126Y1405992D1*
X1589120Y1401969D1*
X1585571Y1398415D1*
X1581553Y1395402D1*
X1577147Y1392992D1*
X1572442Y1391233D1*
X1567536Y1390162D1*
X1562527Y1389800D1*
X1557517Y1390155D1*
X1552608Y1391218D1*
X1547902Y1392970D1*
X1543492Y1395374D1*
X1539469Y1398380D1*
X1535915Y1401929D1*
X1532902Y1405947D1*
X1530492Y1410353D1*
X1528733Y1415058D1*
X1527662Y1419964D1*
X1527300Y1424973D1*
X1527655Y1429983D1*
X1528718Y1434892D1*
X1530470Y1439598D1*
X1532874Y1444008D1*
X1535880Y1448031D1*
X1539429Y1451585D1*
X1543447Y1454598D1*
X1547853Y1457008D1*
X1552558Y1458767D1*
X1557464Y1459838D1*
X1562473Y1460200D1*
X1567483Y1459845D1*
X1572392Y1458782D1*
X1577098Y1457030D1*
X1581508Y1454626D1*
X1585531Y1451620D1*
X1589085Y1448071D1*
X1592098Y1444053D1*
X1594508Y1439647D1*
X1596267Y1434942D1*
X1597338Y1430036D1*
X1597700Y1425000D1*
X1597345Y1420017D1*
X2222345Y1257517D2*
X2221282Y1252608D1*
X2219530Y1247902D1*
X2217126Y1243492D1*
X2214120Y1239469D1*
X2210571Y1235915D1*
X2206553Y1232902D1*
X2202147Y1230492D1*
X2197442Y1228733D1*
X2192536Y1227662D1*
X2187527Y1227300D1*
X2182517Y1227655D1*
X2177608Y1228718D1*
X2172902Y1230470D1*
X2168492Y1232874D1*
X2164469Y1235880D1*
X2160915Y1239429D1*
X2157902Y1243447D1*
X2155492Y1247853D1*
X2153733Y1252558D1*
X2152662Y1257464D1*
X2152300Y1262473D1*
X2152655Y1267483D1*
X2153718Y1272392D1*
X2155470Y1277098D1*
X2157874Y1281508D1*
X2160880Y1285531D1*
X2164429Y1289085D1*
X2168447Y1292098D1*
X2172853Y1294508D1*
X2177558Y1296267D1*
X2182464Y1297338D1*
X2187473Y1297700D1*
X2192483Y1297345D1*
X2197392Y1296282D1*
X2202098Y1294530D1*
X2206508Y1292126D1*
X2210531Y1289120D1*
X2214085Y1285571D1*
X2217098Y1281553D1*
X2219508Y1277147D1*
X2221267Y1272442D1*
X2222338Y1267536D1*
X2222700Y1262500D1*
X2222345Y1257517D1*
X2047345D2*
X2046282Y1252608D1*
X2044530Y1247902D1*
X2042126Y1243492D1*
X2039120Y1239469D1*
X2035571Y1235915D1*
X2031553Y1232902D1*
X2027147Y1230492D1*
X2022442Y1228733D1*
X2017536Y1227662D1*
X2012527Y1227300D1*
X2007517Y1227655D1*
X2002608Y1228718D1*
X1997902Y1230470D1*
X1993492Y1232874D1*
X1989469Y1235880D1*
X1985915Y1239429D1*
X1982902Y1243447D1*
X1980492Y1247853D1*
X1978733Y1252558D1*
X1977662Y1257464D1*
X1977300Y1262473D1*
X1977655Y1267483D1*
X1978718Y1272392D1*
X1980470Y1277098D1*
X1982874Y1281508D1*
X1985880Y1285531D1*
X1989429Y1289085D1*
X1993447Y1292098D1*
X1997853Y1294508D1*
X2002558Y1296267D1*
X2007464Y1297338D1*
X2012473Y1297700D1*
X2017483Y1297345D1*
X2022392Y1296282D1*
X2027098Y1294530D1*
X2031508Y1292126D1*
X2035531Y1289120D1*
X2039085Y1285571D1*
X2042098Y1281553D1*
X2044508Y1277147D1*
X2046267Y1272442D1*
X2047338Y1267536D1*
X2047700Y1262500D1*
X2047345Y1257517D1*
X2409845Y1195017D2*
X2408782Y1190108D1*
X2407030Y1185402D1*
X2404626Y1180992D1*
X2401620Y1176969D1*
X2398071Y1173415D1*
X2394053Y1170402D1*
X2389647Y1167992D1*
X2384942Y1166233D1*
X2380036Y1165162D1*
X2375027Y1164800D1*
X2370017Y1165155D1*
X2365108Y1166218D1*
X2360402Y1167970D1*
X2355992Y1170374D1*
X2351969Y1173380D1*
X2348415Y1176929D1*
X2345402Y1180947D1*
X2342992Y1185353D1*
X2341233Y1190058D1*
X2340162Y1194964D1*
X2339800Y1199973D1*
X2340155Y1204983D1*
X2341218Y1209892D1*
X2342970Y1214598D1*
X2345374Y1219008D1*
X2348380Y1223031D1*
X2351929Y1226585D1*
X2355947Y1229598D1*
X2360353Y1232008D1*
X2365058Y1233767D1*
X2369964Y1234838D1*
X2374973Y1235200D1*
X2379983Y1234845D1*
X2384892Y1233782D1*
X2389598Y1232030D1*
X2394008Y1229626D1*
X2398031Y1226620D1*
X2401585Y1223071D1*
X2404598Y1219053D1*
X2407008Y1214647D1*
X2408767Y1209942D1*
X2409838Y1205036D1*
X2410200Y1200000D1*
X2409845Y1195017D1*
X2759845Y1570017D2*
X2758782Y1565108D1*
X2757030Y1560402D1*
X2754626Y1555992D1*
X2751620Y1551969D1*
X2748071Y1548415D1*
X2744053Y1545402D1*
X2739647Y1542992D1*
X2734942Y1541233D1*
X2730036Y1540162D1*
X2725027Y1539800D1*
X2720017Y1540155D1*
X2715108Y1541218D1*
X2710402Y1542970D1*
X2705992Y1545374D1*
X2701969Y1548380D1*
X2698415Y1551929D1*
X2695402Y1555947D1*
X2692992Y1560353D1*
X2691233Y1565058D1*
X2690162Y1569964D1*
X2689800Y1574973D1*
X2690155Y1579983D1*
X2691218Y1584892D1*
X2692970Y1589598D1*
X2695374Y1594008D1*
X2698380Y1598031D1*
X2701929Y1601585D1*
X2705947Y1604598D1*
X2710353Y1607008D1*
X2715058Y1608767D1*
X2719964Y1609838D1*
X2724973Y1610200D1*
X2729983Y1609845D1*
X2734892Y1608782D1*
X2739598Y1607030D1*
X2744008Y1604626D1*
X2748031Y1601620D1*
X2751585Y1598071D1*
X2754598Y1594053D1*
X2757008Y1589647D1*
X2758767Y1584942D1*
X2759838Y1580036D1*
X2760200Y1575000D1*
X2759845Y1570017D1*
X3559845Y1607517D2*
X3558782Y1602608D1*
X3557030Y1597902D1*
X3554626Y1593492D1*
X3551620Y1589469D1*
X3548071Y1585915D1*
X3544053Y1582902D1*
X3539647Y1580492D1*
X3534942Y1578733D1*
X3530036Y1577662D1*
X3525027Y1577300D1*
X3520017Y1577655D1*
X3515108Y1578718D1*
X3510402Y1580470D1*
X3505992Y1582874D1*
X3501969Y1585880D1*
X3498415Y1589429D1*
X3495402Y1593447D1*
X3492992Y1597853D1*
X3491233Y1602558D1*
X3490162Y1607464D1*
X3489800Y1612473D1*
X3490155Y1617483D1*
X3491218Y1622392D1*
X3492970Y1627098D1*
X3495374Y1631508D1*
X3498380Y1635531D1*
X3501929Y1639085D1*
X3505947Y1642098D1*
X3510353Y1644508D1*
X3515058Y1646267D1*
X3519964Y1647338D1*
X3524973Y1647700D1*
X3529983Y1647345D1*
X3534892Y1646282D1*
X3539598Y1644530D1*
X3544008Y1642126D1*
X3548031Y1639120D1*
X3551585Y1635571D1*
X3554598Y1631553D1*
X3557008Y1627147D1*
X3558767Y1622442D1*
X3559838Y1617536D1*
X3560200Y1612500D1*
X3559845Y1607517D1*
X2684845Y132517D2*
X2683782Y127608D1*
X2682030Y122902D1*
X2679626Y118492D1*
X2676620Y114469D1*
X2673071Y110915D1*
X2669053Y107902D1*
X2664647Y105492D1*
X2659942Y103733D1*
X2655036Y102662D1*
X2650027Y102300D1*
X2645017Y102655D1*
X2640108Y103718D1*
X2635402Y105470D1*
X2630992Y107874D1*
X2626969Y110880D1*
X2623415Y114429D1*
X2620402Y118447D1*
X2617992Y122853D1*
X2616233Y127558D1*
X2615162Y132464D1*
X2614800Y137473D1*
X2615155Y142483D1*
X2616218Y147392D1*
X2617970Y152098D1*
X2620374Y156508D1*
X2623380Y160531D1*
X2626929Y164085D1*
X2630947Y167098D1*
X2635353Y169508D1*
X2640058Y171267D1*
X2644964Y172338D1*
X2649973Y172700D1*
X2654983Y172345D1*
X2659892Y171282D1*
X2664598Y169530D1*
X2669008Y167126D1*
X2673031Y164120D1*
X2676585Y160571D1*
X2679598Y156553D1*
X2682008Y152147D1*
X2683767Y147442D1*
X2684838Y142536D1*
X2685200Y137500D1*
X2684845Y132517D1*
X2959845Y1907517D2*
X2958782Y1902608D1*
X2957030Y1897902D1*
X2954626Y1893492D1*
X2951620Y1889469D1*
X2948071Y1885915D1*
X2944053Y1882902D1*
X2939647Y1880492D1*
X2934942Y1878733D1*
X2930036Y1877662D1*
X2925027Y1877300D1*
X2920017Y1877655D1*
X2915108Y1878718D1*
X2910402Y1880470D1*
X2905992Y1882874D1*
X2901969Y1885880D1*
X2898415Y1889429D1*
X2895402Y1893447D1*
X2892992Y1897853D1*
X2891233Y1902558D1*
X2890162Y1907464D1*
X2889800Y1912473D1*
X2890155Y1917483D1*
X2891218Y1922392D1*
X2892970Y1927098D1*
X2895374Y1931508D1*
X2898380Y1935531D1*
X2901929Y1939085D1*
X2905947Y1942098D1*
X2910353Y1944508D1*
X2915058Y1946267D1*
X2919964Y1947338D1*
X2924973Y1947700D1*
X2929983Y1947345D1*
X2934892Y1946282D1*
X2939598Y1944530D1*
X2944008Y1942126D1*
X2948031Y1939120D1*
X2951585Y1935571D1*
X2954598Y1931553D1*
X2957008Y1927147D1*
X2958767Y1922442D1*
X2959838Y1917536D1*
X2960200Y1912500D1*
X2959845Y1907517D1*
X209845Y1420017D2*
X208782Y1415108D1*
X207030Y1410402D1*
X204626Y1405992D1*
X201620Y1401969D1*
X198071Y1398415D1*
X194053Y1395402D1*
X189647Y1392992D1*
X184942Y1391233D1*
X180036Y1390162D1*
X175027Y1389800D1*
X170017Y1390155D1*
X165108Y1391218D1*
X160402Y1392970D1*
X155992Y1395374D1*
X151969Y1398380D1*
X148415Y1401929D1*
X145402Y1405947D1*
X142992Y1410353D1*
X141233Y1415058D1*
X140162Y1419964D1*
X139800Y1424973D1*
X140155Y1429983D1*
X141218Y1434892D1*
X142970Y1439598D1*
X145374Y1444008D1*
X148380Y1448031D1*
X151929Y1451585D1*
X155947Y1454598D1*
X160353Y1457008D1*
X165058Y1458767D1*
X169964Y1459838D1*
X174973Y1460200D1*
X179983Y1459845D1*
X184892Y1458782D1*
X189598Y1457030D1*
X194008Y1454626D1*
X198031Y1451620D1*
X201585Y1448071D1*
X204598Y1444053D1*
X207008Y1439647D1*
X208767Y1434942D1*
X209838Y1430036D1*
X210200Y1425000D1*
X209845Y1420017D1*
X409847Y1820017D2*
X408783Y1815108D1*
X407031Y1810402D1*
X404628Y1805992D1*
X401621Y1801969D1*
X398072Y1798415D1*
X394054Y1795402D1*
X389648Y1792992D1*
X384944Y1791233D1*
X380037Y1790162D1*
X375028Y1789800D1*
X370018Y1790155D1*
X365110Y1791218D1*
X360403Y1792970D1*
X355993Y1795374D1*
X351970Y1798380D1*
X348416Y1801929D1*
X345404Y1805947D1*
X342993Y1810353D1*
X341235Y1815058D1*
X340163Y1819964D1*
X339801Y1824973D1*
X340156Y1829983D1*
X341220Y1834892D1*
X342971Y1839598D1*
X345375Y1844008D1*
X348382Y1848031D1*
X351930Y1851585D1*
X355948Y1854598D1*
X360355Y1857008D1*
X365059Y1858767D1*
X369966Y1859838D1*
X374975Y1860200D1*
X379985Y1859845D1*
X384893Y1858782D1*
X389600Y1857030D1*
X394010Y1854626D1*
X398032Y1851620D1*
X401586Y1848071D1*
X404599Y1844053D1*
X407009Y1839647D1*
X408768Y1834942D1*
X409839Y1830036D1*
X410201Y1825000D1*
X409847Y1820017D1*
X134847D2*
X133783Y1815108D1*
X132031Y1810402D1*
X129628Y1805992D1*
X126621Y1801969D1*
X123072Y1798415D1*
X119054Y1795402D1*
X114648Y1792992D1*
X109944Y1791233D1*
X105037Y1790162D1*
X100028Y1789800D1*
X95018Y1790155D1*
X90110Y1791218D1*
X85403Y1792970D1*
X80993Y1795374D1*
X76970Y1798380D1*
X73416Y1801929D1*
X70404Y1805947D1*
X67993Y1810353D1*
X66235Y1815058D1*
X65163Y1819964D1*
X64801Y1824973D1*
X65156Y1829983D1*
X66220Y1834892D1*
X67971Y1839598D1*
X70375Y1844008D1*
X73382Y1848031D1*
X76930Y1851585D1*
X80948Y1854598D1*
X85355Y1857008D1*
X90059Y1858767D1*
X94966Y1859838D1*
X99975Y1860200D1*
X104985Y1859845D1*
X109893Y1858782D1*
X114600Y1857030D1*
X119010Y1854626D1*
X123032Y1851620D1*
X126586Y1848071D1*
X129599Y1844053D1*
X132009Y1839647D1*
X133768Y1834942D1*
X134839Y1830036D1*
X135201Y1825000D1*
X134847Y1820017D1*
X209845Y1770017D2*
X208782Y1765108D1*
X207030Y1760402D1*
X204626Y1755992D1*
X201620Y1751969D1*
X198071Y1748415D1*
X194053Y1745402D1*
X189647Y1742992D1*
X184942Y1741233D1*
X180036Y1740162D1*
X175027Y1739800D1*
X170017Y1740155D1*
X165108Y1741218D1*
X160402Y1742970D1*
X155992Y1745374D1*
X151969Y1748380D1*
X148415Y1751929D1*
X145402Y1755947D1*
X142992Y1760353D1*
X141233Y1765058D1*
X140162Y1769964D1*
X139800Y1774973D1*
X140155Y1779983D1*
X141218Y1784892D1*
X142970Y1789598D1*
X145374Y1794008D1*
X148380Y1798031D1*
X151929Y1801585D1*
X155947Y1804598D1*
X160353Y1807008D1*
X165058Y1808767D1*
X169964Y1809838D1*
X174973Y1810200D1*
X179983Y1809845D1*
X184892Y1808782D1*
X189598Y1807030D1*
X194008Y1804626D1*
X198031Y1801620D1*
X201585Y1798071D1*
X204598Y1794053D1*
X207008Y1789647D1*
X208767Y1784942D1*
X209838Y1780036D1*
X210200Y1775000D1*
X209845Y1770017D1*
X272345Y1820017D2*
X271282Y1815108D1*
X269530Y1810402D1*
X267126Y1805992D1*
X264120Y1801969D1*
X260571Y1798415D1*
X256553Y1795402D1*
X252147Y1792992D1*
X247442Y1791233D1*
X242536Y1790162D1*
X237527Y1789800D1*
X232517Y1790155D1*
X227608Y1791218D1*
X222902Y1792970D1*
X218492Y1795374D1*
X214469Y1798380D1*
X210915Y1801929D1*
X207902Y1805947D1*
X205492Y1810353D1*
X203733Y1815058D1*
X202662Y1819964D1*
X202300Y1824973D1*
X202655Y1829983D1*
X203718Y1834892D1*
X205470Y1839598D1*
X207874Y1844008D1*
X210880Y1848031D1*
X214429Y1851585D1*
X218447Y1854598D1*
X222853Y1857008D1*
X227558Y1858767D1*
X232464Y1859838D1*
X237473Y1860200D1*
X242483Y1859845D1*
X247392Y1858782D1*
X252098Y1857030D1*
X256508Y1854626D1*
X260531Y1851620D1*
X264085Y1848071D1*
X267098Y1844053D1*
X269508Y1839647D1*
X271267Y1834942D1*
X272338Y1830036D1*
X272700Y1825000D1*
X272345Y1820017D1*
X209845Y1595017D2*
X208782Y1590108D1*
X207030Y1585402D1*
X204626Y1580992D1*
X201620Y1576969D1*
X198071Y1573415D1*
X194053Y1570402D1*
X189647Y1567992D1*
X184942Y1566233D1*
X180036Y1565162D1*
X175027Y1564800D1*
X170017Y1565155D1*
X165108Y1566218D1*
X160402Y1567970D1*
X155992Y1570374D1*
X151969Y1573380D1*
X148415Y1576929D1*
X145402Y1580947D1*
X142992Y1585353D1*
X141233Y1590058D1*
X140162Y1594964D1*
X139800Y1599973D1*
X140155Y1604983D1*
X141218Y1609892D1*
X142970Y1614598D1*
X145374Y1619008D1*
X148380Y1623031D1*
X151929Y1626585D1*
X155947Y1629598D1*
X160353Y1632008D1*
X165058Y1633767D1*
X169964Y1634838D1*
X174973Y1635200D1*
X179983Y1634845D1*
X184892Y1633782D1*
X189598Y1632030D1*
X194008Y1629626D1*
X198031Y1626620D1*
X201585Y1623071D1*
X204598Y1619053D1*
X207008Y1614647D1*
X208767Y1609942D1*
X209838Y1605036D1*
X210200Y1600000D1*
X209845Y1595017D1*
X510464Y30000D2*
X30000Y30005D1*
X30005Y2070000D1*
X560541Y2069999D1*
X558367Y2068774D1*
X554172Y2066053D1*
X550154Y2063076D1*
X546329Y2059855D1*
X542712Y2056402D1*
X539316Y2052732D1*
X536155Y2048857D1*
X533241Y2044793D1*
X530586Y2040556D1*
X528199Y2036162D1*
X526089Y2031628D1*
X524266Y2026972D1*
X522736Y2022212D1*
X521504Y2017365D1*
X520576Y2012452D1*
X519956Y2007490D1*
X519645Y2002499D1*
Y1997498D1*
X519956Y1992508D1*
X520577Y1987546D1*
X521505Y1982632D1*
X522736Y1977786D1*
X524267Y1973025D1*
X526090Y1968369D1*
X528200Y1963835D1*
X530587Y1959442D1*
X533243Y1955205D1*
X536157Y1951141D1*
X539318Y1947267D1*
X542714Y1943596D1*
X546331Y1940144D1*
X550156Y1936923D1*
X554174Y1933946D1*
X558369Y1931225D1*
X562726Y1928770D1*
X567226Y1926590D1*
X571853Y1924695D1*
X576589Y1923090D1*
X581416Y1921784D1*
X586315Y1920780D1*
X591266Y1920082D1*
X596252Y1919694D1*
X601252Y1919616D1*
X606247Y1919849D1*
X611217Y1920393D1*
X616145Y1921244D1*
X621010Y1922400D1*
X625794Y1923856D1*
X630477Y1925607D1*
X635044Y1927646D1*
X639474Y1929965D1*
X643752Y1932554D1*
X647860Y1935405D1*
X651783Y1938505D1*
X655506Y1941843D1*
X659015Y1945407D1*
X662294Y1949181D1*
X665333Y1953152D1*
X668119Y1957305D1*
X670642Y1961622D1*
X672891Y1966088D1*
X674859Y1970685D1*
X676536Y1975396D1*
X677918Y1980202D1*
X678998Y1985084D1*
X679772Y1990025D1*
X680238Y1995003D1*
X680394Y2000001D1*
X680238Y2004999D1*
X679772Y2009978D1*
X678997Y2014918D1*
X677917Y2019801D1*
X676535Y2024606D1*
X674858Y2029317D1*
X672890Y2033914D1*
X670641Y2038380D1*
X668118Y2042697D1*
X665332Y2046850D1*
X662293Y2050821D1*
X659013Y2054595D1*
X655505Y2058158D1*
X651781Y2061497D1*
X647858Y2064597D1*
X643750Y2067447D1*
X639536Y2070000D1*
X3510541Y2069999D1*
X3508367Y2068774D1*
X3504172Y2066053D1*
X3500154Y2063076D1*
X3496329Y2059855D1*
X3492712Y2056402D1*
X3489316Y2052732D1*
X3486155Y2048857D1*
X3483241Y2044793D1*
X3480586Y2040556D1*
X3478199Y2036162D1*
X3476089Y2031628D1*
X3474266Y2026972D1*
X3472736Y2022212D1*
X3471504Y2017365D1*
X3470576Y2012452D1*
X3469956Y2007490D1*
X3469645Y2002499D1*
Y1997498D1*
X3469956Y1992508D1*
X3470577Y1987546D1*
X3471505Y1982632D1*
X3472736Y1977786D1*
X3474267Y1973025D1*
X3476090Y1968369D1*
X3478200Y1963835D1*
X3480587Y1959442D1*
X3483243Y1955205D1*
X3486157Y1951141D1*
X3489318Y1947267D1*
X3492714Y1943596D1*
X3496331Y1940144D1*
X3500156Y1936923D1*
X3504174Y1933946D1*
X3508369Y1931225D1*
X3512726Y1928770D1*
X3517226Y1926590D1*
X3521853Y1924695D1*
X3526589Y1923090D1*
X3531416Y1921784D1*
X3536315Y1920780D1*
X3541266Y1920082D1*
X3546252Y1919694D1*
X3551252Y1919616D1*
X3556247Y1919849D1*
X3561217Y1920393D1*
X3566145Y1921244D1*
X3571010Y1922400D1*
X3575794Y1923856D1*
X3580477Y1925607D1*
X3585044Y1927646D1*
X3589474Y1929965D1*
X3593752Y1932554D1*
X3597860Y1935405D1*
X3601783Y1938505D1*
X3605506Y1941843D1*
X3609015Y1945407D1*
X3612294Y1949181D1*
X3615333Y1953152D1*
X3618119Y1957305D1*
X3620642Y1961622D1*
X3622891Y1966088D1*
X3624859Y1970685D1*
X3626536Y1975396D1*
X3627918Y1980202D1*
X3628998Y1985084D1*
X3629772Y1990025D1*
X3630238Y1995003D1*
X3630394Y2000001D1*
X3630238Y2004999D1*
X3629772Y2009978D1*
X3628997Y2014918D1*
X3627917Y2019801D1*
X3626535Y2024606D1*
X3624858Y2029317D1*
X3622890Y2033914D1*
X3620641Y2038380D1*
X3618118Y2042697D1*
X3615332Y2046850D1*
X3612293Y2050821D1*
X3609013Y2054595D1*
X3605505Y2058158D1*
X3601781Y2061497D1*
X3597858Y2064597D1*
X3593750Y2067447D1*
X3589536Y2070000D1*
X3870000Y2069995D1*
X3869998Y139480D1*
X3868118Y142697D1*
X3865332Y146850D1*
X3862293Y150821D1*
X3859013Y154595D1*
X3855505Y158158D1*
X3851781Y161497D1*
X3847858Y164597D1*
X3843750Y167447D1*
X3839472Y170037D1*
X3835041Y172355D1*
X3830475Y174394D1*
X3825791Y176144D1*
X3821007Y177600D1*
X3816142Y178756D1*
X3811215Y179608D1*
X3806244Y180151D1*
X3801249Y180384D1*
X3796249Y180306D1*
X3791264Y179918D1*
X3786312Y179220D1*
X3781414Y178216D1*
X3776587Y176909D1*
X3771851Y175305D1*
X3767224Y173409D1*
X3762723Y171229D1*
X3758367Y168774D1*
X3754172Y166053D1*
X3750154Y163076D1*
X3746329Y159855D1*
X3742712Y156402D1*
X3739316Y152732D1*
X3736155Y148857D1*
X3733241Y144793D1*
X3730586Y140556D1*
X3728199Y136162D1*
X3726089Y131628D1*
X3724266Y126972D1*
X3722736Y122212D1*
X3721504Y117365D1*
X3720576Y112452D1*
X3719956Y107490D1*
X3719645Y102499D1*
Y97498D1*
X3719956Y92508D1*
X3720577Y87546D1*
X3721505Y82632D1*
X3722736Y77786D1*
X3724267Y73025D1*
X3726090Y68369D1*
X3728200Y63835D1*
X3730587Y59442D1*
X3733243Y55205D1*
X3736157Y51141D1*
X3739318Y47267D1*
X3742714Y43596D1*
X3746331Y40144D1*
X3750156Y36923D1*
X3754174Y33946D1*
X3758369Y31225D1*
X3760464Y30000D1*
X589537Y30003D1*
X593752Y32554D1*
X597860Y35405D1*
X601783Y38505D1*
X605506Y41843D1*
X609015Y45407D1*
X612294Y49181D1*
X615333Y53152D1*
X618119Y57305D1*
X620642Y61622D1*
X622891Y66088D1*
X624859Y70685D1*
X626536Y75396D1*
X627918Y80202D1*
X628998Y85084D1*
X629772Y90025D1*
X630238Y95003D1*
X630394Y100001D1*
X630238Y104999D1*
X629772Y109978D1*
X628997Y114918D1*
X627917Y119801D1*
X626535Y124606D1*
X624858Y129317D1*
X622890Y133914D1*
X620641Y138380D1*
X618118Y142697D1*
X615332Y146850D1*
X612293Y150821D1*
X609013Y154595D1*
X605505Y158158D1*
X601781Y161497D1*
X597858Y164597D1*
X593750Y167447D1*
X589472Y170037D1*
X585041Y172355D1*
X580475Y174394D1*
X575791Y176144D1*
X571007Y177600D1*
X566142Y178756D1*
X561215Y179608D1*
X556244Y180151D1*
X551249Y180384D1*
X546249Y180306D1*
X541264Y179918D1*
X536312Y179220D1*
X531414Y178216D1*
X526587Y176909D1*
X521851Y175305D1*
X517224Y173409D1*
X512723Y171229D1*
X508367Y168774D1*
X504172Y166053D1*
X500154Y163076D1*
X496329Y159855D1*
X492712Y156402D1*
X489316Y152732D1*
X486155Y148857D1*
X483241Y144793D1*
X480586Y140556D1*
X478199Y136162D1*
X476089Y131628D1*
X474266Y126972D1*
X472736Y122212D1*
X471504Y117365D1*
X470576Y112452D1*
X469956Y107490D1*
X469645Y102499D1*
Y97498D1*
X469956Y92508D1*
X470577Y87546D1*
X471505Y82632D1*
X472736Y77786D1*
X474267Y73025D1*
X476090Y68369D1*
X478200Y63835D1*
X480587Y59442D1*
X483243Y55205D1*
X486157Y51141D1*
X489318Y47267D1*
X492714Y43596D1*
X496331Y40144D1*
X500156Y36923D1*
X504174Y33946D1*
X508369Y31225D1*
X510543Y30000D1*
X1568387Y131613D2*
D19*
X1631613Y68387D1*
Y131613D2*
X1568387Y68387D1*
X1668387Y131613D2*
X1731613Y68387D1*
Y131613D2*
X1668387Y68387D1*
X1008387Y2031613D2*
X1071613Y1968387D1*
Y2031613D2*
X1008387Y1968387D1*
X3731613Y331613D2*
X3668387Y268387D1*
X3731613D2*
X3668387Y331613D1*
X3831613D2*
X3768387Y268387D1*
X3831613D2*
X3768387Y331613D1*
D26*
X1100000Y100000D3*
X1200000D3*
X1300000D3*
X1400000D3*
X1500000D3*
X1600000D3*
X1700000D3*
X1800000D3*
X2500000Y2000000D3*
X2400000D3*
X2300000D3*
X2200000D3*
X2100000D3*
X2000000D3*
X1900000D3*
X1800000D3*
X740000D3*
X840000D3*
X940000D3*
X1040000D3*
X1140000D3*
X1240000D3*
X1340000D3*
X1440000D3*
X1540000D3*
X1640000D3*
X3700000D3*
X3800000D3*
X3700000Y1900000D3*
X3800000D3*
X3700000Y1800000D3*
X3800000D3*
X3700000Y1700000D3*
X3800000D3*
X3700000Y1600000D3*
X3800000D3*
X3700000Y1500000D3*
X3800000D3*
X3700000Y1400000D3*
X3800000D3*
X3700000Y1300000D3*
X3800000D3*
X3700000Y1200000D3*
X3800000D3*
X3700000Y1100000D3*
X3800000D3*
X3700000Y1000000D3*
X3800000D3*
X3700000Y900000D3*
X3800000D3*
X3700000Y800000D3*
X3800000D3*
X3700000Y700000D3*
X3800000D3*
X3700000Y600000D3*
X3800000D3*
X3700000Y500000D3*
X3800000D3*
X3700000Y400000D3*
X3800000D3*
X3700000Y300000D3*
X3800000D3*
M02*
