G04 DipTrace 4.3.0.2*
G04 4 - Bottom.gbr*
%MOIN*%
G04 #@! TF.FileFunction,Copper,L4,Bot*
G04 #@! TF.Part,Single*
G04 #@! TA.AperFunction,Conductor*
%ADD10C,0.01*%
G04 #@! TA.AperFunction,ComponentPad*
%ADD17C,0.06*%
%ADD18R,0.06X0.06*%
%ADD19C,0.05*%
%ADD20R,0.05X0.05*%
%ADD21R,0.059055X0.059055*%
%ADD23C,0.059055*%
%ADD24R,0.047244X0.047244*%
%ADD26C,0.047244*%
%ADD27C,0.06*%
%ADD28C,0.05*%
G04 #@! TA.AperFunction,ViaPad*
%ADD29C,0.04*%
%FSLAX26Y26*%
G04*
G70*
G90*
G75*
G01*
G04 Bottom*
%LPD*%
X3700000Y1600000D2*
D10*
X3237500D1*
X3137500Y1500000D1*
X2400000D1*
X2312500Y1587500D1*
X1325000D1*
X1262500Y1525000D1*
Y1337500D1*
X1225000Y1300000D1*
X3375000Y1650000D2*
X3237500D1*
X3212500Y1675000D1*
X1075000D1*
X875000Y1475000D1*
Y1350000D1*
X825000Y1300000D1*
X3700000Y1500000D2*
X3625000D1*
X3437500Y1312500D1*
X3275000D1*
X3150000Y1437500D1*
X2775000D1*
X2700000Y1362500D1*
Y1300000D1*
X3700000Y1400000D2*
X3625000D1*
X3450000Y1225000D1*
X2350000D1*
X2062500Y1512500D1*
X1512500D1*
X1462500Y1462500D1*
Y1337500D1*
X1425000Y1300000D1*
X3700000D2*
X3625000D1*
X3500000Y1175000D1*
X2325000D1*
X2050000Y1450000D1*
X1912500D1*
X1862500Y1400000D1*
Y1337500D1*
X1825000Y1300000D1*
X3700000Y1200000D2*
X3625000D1*
X3550000Y1125000D1*
X2300000D1*
X2125000Y1300000D1*
X2025000D1*
X3200000D2*
X3112500Y1387500D1*
X2925000D1*
X2900000Y1362500D1*
Y1300000D1*
X3375000Y400000D2*
X3325000D1*
X3300000Y425000D1*
Y950000D1*
X3325000Y975000D1*
X3425000D1*
X3450000Y950000D1*
Y825000D1*
X3625000Y650000D1*
X3750000D1*
X3800000Y600000D1*
X3375000Y500000D2*
X3700000D1*
X3375000Y700000D2*
X3425000D1*
X3575000Y550000D1*
X3750000D1*
X3800000Y500000D1*
X400000Y1175000D2*
Y1125000D1*
X425000Y1100000D1*
X528787D1*
X550000Y1121213D1*
Y1575000D1*
X625000Y1650000D1*
X750000D1*
X875000Y1775000D1*
X3025000D1*
X3200000Y1950000D1*
Y2000000D1*
X400000Y1825000D2*
X462500Y1762500D1*
X712500D1*
X825000Y1875000D1*
X2925000D1*
X3000000Y1950000D1*
Y2000000D1*
X1900000Y1050000D2*
X1825000Y1125000D1*
X1450000D1*
X1375000Y1200000D1*
Y1250000D1*
X2600000Y1300000D2*
Y1362500D1*
X2512500Y1450000D1*
X2225000D1*
X2155083Y1519917D1*
X775000Y1250000D2*
Y1200000D1*
X850000Y1125000D1*
X1025000D1*
X1100000Y1050000D1*
X2350000Y1625000D2*
X2437500Y1537500D1*
X2678787D1*
X2700000Y1558713D1*
Y1600000D1*
X800000Y1050000D2*
X712500Y1137500D1*
Y1400000D1*
X1037500Y1725000D1*
X2900000D1*
X1575000Y1250000D2*
Y1200000D1*
X1600000Y1175000D1*
X1850000D1*
X1900000Y1125000D1*
X2225000D1*
X2300000Y1050000D1*
X500000Y1175000D2*
Y1600000D1*
X600000Y1700000D1*
X725000D1*
X850000Y1825000D1*
X2975000D1*
X3100000Y1950000D1*
Y2000000D1*
X500000Y1825000D2*
X562500Y1887500D1*
X762500D1*
X800000Y1925000D1*
X2875000D1*
X2900000Y1950000D1*
Y2000000D1*
D29*
X3375000Y1650000D3*
X3200000Y1300000D3*
X2155083Y1519917D3*
X2350000Y1625000D3*
X2900000Y1725000D3*
D17*
X3300000Y1500000D3*
D18*
Y1400000D3*
D17*
X2300000Y1500000D3*
D18*
Y1400000D3*
D17*
X625000Y1550000D3*
D18*
Y1450000D3*
X600000Y900000D3*
D17*
Y1000000D3*
D18*
X3100000Y900000D3*
D17*
Y1000000D3*
D19*
X200000Y150000D3*
D20*
X100000D3*
D19*
X200000Y500000D3*
D20*
X100000D3*
D19*
X200000Y850000D3*
D20*
X100000D3*
D17*
X2800000Y350000D3*
X2700000D3*
X2600000D3*
X2500000D3*
X2400000D3*
X2300000D3*
X2200000D3*
X2100000D3*
X2000000D3*
X1900000D3*
X1800000D3*
X1700000D3*
X1600000D3*
X1500000D3*
X1400000D3*
X1300000D3*
X1200000D3*
X1100000D3*
X1000000D3*
D18*
X900000D3*
D17*
Y450000D3*
X1000000D3*
X1100000D3*
X1200000D3*
X1300000D3*
X1400000D3*
X1500000D3*
X1600000D3*
X1700000D3*
X1800000D3*
X1900000D3*
X2000000D3*
X2100000D3*
X2200000D3*
X2300000D3*
X2400000D3*
X2500000D3*
X2600000D3*
X2700000D3*
X2800000D3*
D21*
X2000000Y100000D3*
D23*
X2100000D3*
X2200000D3*
X2300000D3*
X2400000D3*
X2500000D3*
X2600000D3*
X2700000D3*
D21*
X1100000D3*
D23*
X1200000D3*
X1300000D3*
X1400000D3*
X1500000D3*
X1600000D3*
X1700000D3*
X1800000D3*
D21*
X2500000Y2000000D3*
D23*
X2400000D3*
X2300000D3*
X2200000D3*
X2100000D3*
X2000000D3*
X1900000D3*
X1800000D3*
D21*
X740000D3*
D23*
X840000D3*
X940000D3*
X1040000D3*
X1140000D3*
X1240000D3*
X1340000D3*
X1440000D3*
X1540000D3*
X1640000D3*
D21*
X2900000Y100000D3*
D23*
X3000000D3*
X3100000D3*
X3200000D3*
X3300000D3*
X3400000D3*
X3500000D3*
X3600000D3*
D21*
X3400000Y2000000D3*
D23*
X3300000D3*
X3200000D3*
X3100000D3*
X3000000D3*
X2900000D3*
X2800000D3*
X2700000D3*
D21*
X3700000D3*
D23*
X3800000D3*
X3700000Y1900000D3*
X3800000D3*
X3700000Y1800000D3*
X3800000D3*
X3700000Y1700000D3*
X3800000D3*
X3700000Y1600000D3*
X3800000D3*
X3700000Y1500000D3*
X3800000D3*
X3700000Y1400000D3*
X3800000D3*
X3700000Y1300000D3*
X3800000D3*
X3700000Y1200000D3*
X3800000D3*
X3700000Y1100000D3*
X3800000D3*
X3700000Y1000000D3*
X3800000D3*
X3700000Y900000D3*
X3800000D3*
X3700000Y800000D3*
X3800000D3*
X3700000Y700000D3*
X3800000D3*
X3700000Y600000D3*
X3800000D3*
X3700000Y500000D3*
X3800000D3*
X3700000Y400000D3*
X3800000D3*
X3700000Y300000D3*
X3800000D3*
D21*
X100000Y1175000D3*
D23*
X200000D3*
X300000D3*
X400000D3*
X500000D3*
X600000D3*
D21*
X100000Y1825000D3*
D23*
X200000D3*
X300000D3*
X400000D3*
X500000D3*
X600000D3*
D21*
X3375000Y300000D3*
D23*
Y400000D3*
Y500000D3*
Y600000D3*
Y700000D3*
Y800000D3*
Y900000D3*
D24*
X1775000Y1250000D3*
D26*
X1825000Y1300000D3*
X1775000Y1350000D3*
D24*
X1975000Y1250000D3*
D26*
X2025000Y1300000D3*
X1975000Y1350000D3*
D24*
X1575000Y1250000D3*
D26*
X1625000Y1300000D3*
X1575000Y1350000D3*
D24*
X1175000Y1250000D3*
D26*
X1225000Y1300000D3*
X1175000Y1350000D3*
D24*
X1375000Y1250000D3*
D26*
X1425000Y1300000D3*
X1375000Y1350000D3*
D24*
X975000Y1250000D3*
D26*
X1025000Y1300000D3*
X975000Y1350000D3*
D24*
X775000Y1250000D3*
D26*
X825000Y1300000D3*
X775000Y1350000D3*
D17*
X2900000Y1050000D3*
D27*
Y650000D3*
D17*
X2800000Y1050000D3*
D27*
Y650000D3*
D17*
X2600000Y1050000D3*
D27*
Y650000D3*
D17*
X2700000Y1050000D3*
D27*
Y650000D3*
D17*
X2500000Y1050000D3*
D27*
Y650000D3*
D17*
X2400000Y1050000D3*
D27*
Y650000D3*
D17*
X2200000Y1050000D3*
D27*
Y650000D3*
D17*
X2300000Y1050000D3*
D27*
Y650000D3*
D17*
X2100000Y1050000D3*
D27*
Y650000D3*
D17*
X1800000Y1050000D3*
D27*
Y650000D3*
D17*
X1900000Y1050000D3*
D27*
Y650000D3*
D17*
X1700000Y1050000D3*
D27*
Y650000D3*
D17*
X1600000Y1050000D3*
D27*
Y650000D3*
D17*
X1400000Y1050000D3*
D27*
Y650000D3*
D17*
X1500000Y1050000D3*
D27*
Y650000D3*
D17*
X1300000Y1050000D3*
D27*
Y650000D3*
D17*
X1200000Y1050000D3*
D27*
Y650000D3*
D17*
X1000000Y1050000D3*
D27*
Y650000D3*
D17*
X1100000Y1050000D3*
D27*
Y650000D3*
D17*
X900000Y1050000D3*
D27*
Y650000D3*
D17*
X800000Y1050000D3*
D27*
Y650000D3*
D17*
X2000000Y1050000D3*
D27*
Y650000D3*
D19*
X500000Y850000D3*
D28*
Y550000D3*
D19*
X425000Y850000D3*
D28*
Y550000D3*
D19*
X350000Y850000D3*
D28*
Y550000D3*
D21*
X3100000Y1600000D3*
D23*
X3000000D3*
X2900000D3*
X2800000D3*
X2700000D3*
X2600000D3*
X2500000D3*
Y1300000D3*
X2600000D3*
X2700000D3*
X2800000D3*
X2900000D3*
X3000000D3*
X3100000D3*
M02*
