G04 DipTrace 4.3.0.2*
G04 TopSilk.gbr*
%MOIN*%
G04 #@! TF.FileFunction,Legend,Top*
G04 #@! TF.Part,Single*
%ADD10C,0.01*%
%ADD65C,0.00772*%
%ADD66C,0.012351*%
%ADD67C,0.015439*%
%FSLAX26Y26*%
G04*
G70*
G90*
G75*
G01*
G04 TopSilk*
%LPD*%
X3360000Y1380060D2*
D10*
Y1519940D1*
X3240000Y1380060D2*
Y1519940D1*
X3360000D2*
G03X3240000Y1519940I-60000J60D01*
G01*
Y1380060D2*
G03X3360000Y1380060I60000J-60D01*
G01*
X2360000D2*
Y1519940D1*
X2240000Y1380060D2*
Y1519940D1*
X2360000D2*
G03X2240000Y1519940I-60000J60D01*
G01*
Y1380060D2*
G03X2360000Y1380060I60000J-60D01*
G01*
X685000Y1430060D2*
Y1569940D1*
X565000Y1430060D2*
Y1569940D1*
X685000D2*
G03X565000Y1569940I-60000J60D01*
G01*
Y1430060D2*
G03X685000Y1430060I60000J-60D01*
G01*
X600000Y774993D2*
Y825043D1*
X625000Y800018D2*
X575000D1*
X500037Y950031D2*
G02X500037Y950031I99963J0D01*
G01*
X3100000Y774993D2*
Y825043D1*
X3125000Y800018D2*
X3075000D1*
X3000037Y950031D2*
G02X3000037Y950031I99963J0D01*
G01*
X50007Y75064D2*
Y224936D1*
X50231Y74764D2*
G03X50231Y225236I99796J75236D01*
G01*
X50007Y425064D2*
Y574936D1*
X50231Y424764D2*
G03X50231Y575236I99796J75236D01*
G01*
X50007Y775064D2*
Y924936D1*
X50231Y774764D2*
G03X50231Y925236I99796J75236D01*
G01*
X700000Y575000D2*
Y225000D1*
X3000000Y575000D2*
X700000D1*
X3000000D2*
Y225000D1*
Y450050D2*
X2974699D1*
Y349950D1*
X725301Y450050D2*
Y349950D1*
Y450050D2*
X700000D1*
X3000000Y225000D2*
X1930500D1*
X1769500D2*
X700000D1*
X1769500Y255100D2*
Y225000D1*
X1930500Y255100D2*
X1769500D1*
X1930500D2*
Y225000D1*
X3000000Y349950D2*
X2974699D1*
X725301D2*
X700000D1*
X1950000Y150000D2*
X2750000D1*
X1950000Y50000D2*
Y150000D1*
Y50000D2*
X2750000D1*
Y150000D1*
X1050000D2*
X1850000D1*
X1050000Y50000D2*
Y150000D1*
Y50000D2*
X1850000D1*
Y150000D1*
X2550000Y1950000D2*
X1750000D1*
X2550000Y2050000D2*
Y1950000D1*
Y2050000D2*
X1750000D1*
Y1950000D1*
X1690000D2*
Y2050000D1*
X690000Y1950000D2*
X1690000D1*
X690000D2*
Y2050000D1*
X765000D1*
X1690000D1*
X2850000Y150000D2*
X3650000D1*
X2850000Y50000D2*
Y150000D1*
Y50000D2*
X3650000D1*
Y150000D1*
X3450000Y1950000D2*
X2650000D1*
X3450000Y2050000D2*
Y1950000D1*
Y2050000D2*
X2650000D1*
Y1950000D1*
X3650000Y250000D2*
X3850000D1*
X3650000Y2050000D2*
X3850000D1*
Y250000D1*
X3650000Y2050000D2*
Y250000D1*
X50000Y1125000D2*
X650000D1*
X50000Y1225000D2*
X650000D1*
X50000Y1125000D2*
Y1225000D1*
X650000Y1125000D2*
Y1225000D1*
X50000Y1775000D2*
X650000D1*
X50000Y1875000D2*
X650000D1*
X50000Y1775000D2*
Y1875000D1*
X650000Y1775000D2*
Y1875000D1*
X3425000Y950000D2*
X3325000D1*
X3425000Y250000D2*
Y950000D1*
Y250000D2*
X3325000D1*
Y950000D1*
X1721857Y1224409D2*
G03X1721857Y1375591I66584J75591D01*
G01*
Y1224409D1*
X1921857D2*
G03X1921857Y1375591I66584J75591D01*
G01*
Y1224409D1*
X1521857D2*
G03X1521857Y1375591I66584J75591D01*
G01*
Y1224409D1*
X1121857D2*
G03X1121857Y1375591I66584J75591D01*
G01*
Y1224409D1*
X1321857D2*
G03X1321857Y1375591I66584J75591D01*
G01*
Y1224409D1*
X921857D2*
G03X921857Y1375591I66584J75591D01*
G01*
Y1224409D1*
X721857D2*
G03X721857Y1375591I66584J75591D01*
G01*
Y1224409D1*
X2850000Y750180D2*
Y949820D1*
X2950000D2*
X2850000D1*
X2950000Y750180D2*
Y949820D1*
Y750180D2*
X2850000D1*
X2750000D2*
Y949820D1*
X2850000D2*
X2750000D1*
X2850000Y750180D2*
Y949820D1*
Y750180D2*
X2750000D1*
X2550000D2*
Y949820D1*
X2650000D2*
X2550000D1*
X2650000Y750180D2*
Y949820D1*
Y750180D2*
X2550000D1*
X2650000D2*
Y949820D1*
X2750000D2*
X2650000D1*
X2750000Y750180D2*
Y949820D1*
Y750180D2*
X2650000D1*
X2450000D2*
Y949820D1*
X2550000D2*
X2450000D1*
X2550000Y750180D2*
Y949820D1*
Y750180D2*
X2450000D1*
X2350000D2*
Y949820D1*
X2450000D2*
X2350000D1*
X2450000Y750180D2*
Y949820D1*
Y750180D2*
X2350000D1*
X2150000D2*
Y949820D1*
X2250000D2*
X2150000D1*
X2250000Y750180D2*
Y949820D1*
Y750180D2*
X2150000D1*
X2250000D2*
Y949820D1*
X2350000D2*
X2250000D1*
X2350000Y750180D2*
Y949820D1*
Y750180D2*
X2250000D1*
X2050000D2*
Y949820D1*
X2150000D2*
X2050000D1*
X2150000Y750180D2*
Y949820D1*
Y750180D2*
X2050000D1*
X1750000D2*
Y949820D1*
X1850000D2*
X1750000D1*
X1850000Y750180D2*
Y949820D1*
Y750180D2*
X1750000D1*
X1850000D2*
Y949820D1*
X1950000D2*
X1850000D1*
X1950000Y750180D2*
Y949820D1*
Y750180D2*
X1850000D1*
X1650000D2*
Y949820D1*
X1750000D2*
X1650000D1*
X1750000Y750180D2*
Y949820D1*
Y750180D2*
X1650000D1*
X1550000D2*
Y949820D1*
X1650000D2*
X1550000D1*
X1650000Y750180D2*
Y949820D1*
Y750180D2*
X1550000D1*
X1350000D2*
Y949820D1*
X1450000D2*
X1350000D1*
X1450000Y750180D2*
Y949820D1*
Y750180D2*
X1350000D1*
X1450000D2*
Y949820D1*
X1550000D2*
X1450000D1*
X1550000Y750180D2*
Y949820D1*
Y750180D2*
X1450000D1*
X1250000D2*
Y949820D1*
X1350000D2*
X1250000D1*
X1350000Y750180D2*
Y949820D1*
Y750180D2*
X1250000D1*
X1150000D2*
Y949820D1*
X1250000D2*
X1150000D1*
X1250000Y750180D2*
Y949820D1*
Y750180D2*
X1150000D1*
X950000D2*
Y949820D1*
X1050000D2*
X950000D1*
X1050000Y750180D2*
Y949820D1*
Y750180D2*
X950000D1*
X1050000D2*
Y949820D1*
X1150000D2*
X1050000D1*
X1150000Y750180D2*
Y949820D1*
Y750180D2*
X1050000D1*
X850000D2*
Y949820D1*
X950000D2*
X850000D1*
X950000Y750180D2*
Y949820D1*
Y750180D2*
X850000D1*
X750000D2*
Y949820D1*
X850000D2*
X750000D1*
X850000Y750180D2*
Y949820D1*
Y750180D2*
X750000D1*
X1950000D2*
Y949820D1*
X2050000D2*
X1950000D1*
X2050000Y750180D2*
Y949820D1*
Y750180D2*
X1950000D1*
X530000Y780150D2*
X470000D1*
X530000Y619850D2*
Y780150D1*
Y619850D2*
X470000D1*
Y780150D1*
X455000D2*
X395000D1*
X455000Y619850D2*
Y780150D1*
Y619850D2*
X395000D1*
Y780150D1*
X380000D2*
X320000D1*
X380000Y619850D2*
Y780150D1*
Y619850D2*
X320000D1*
Y780150D1*
X3185827Y1347634D2*
X2414173D1*
Y1552366D2*
Y1347634D1*
X3185827Y1552366D2*
X2414173D1*
X3185827D2*
Y1473626D1*
Y1347634D2*
Y1426374D1*
Y1473626D2*
G03X3185827Y1426374I13J-23626D01*
G01*
X3425000Y950000D2*
X3850000D1*
Y250000D2*
X3400000D1*
G36*
X680000Y262500D2*
X679126Y254703D1*
X676542Y247248D1*
X672361Y240458D1*
X666765Y234633D1*
X660000Y230024D1*
X652361Y226836D1*
X644181Y225206D1*
X635819D1*
X627639Y226836D1*
X620000Y230024D1*
X613235Y234633D1*
X607639Y240458D1*
X603458Y247248D1*
X600874Y254703D1*
X600000Y262500D1*
X600874Y270297D1*
X603458Y277752D1*
X607639Y284542D1*
X613235Y290367D1*
X620000Y294976D1*
X627639Y298164D1*
X635819Y299794D1*
X644181D1*
X652361Y298164D1*
X660000Y294976D1*
X666765Y290367D1*
X672361Y284542D1*
X676542Y277752D1*
X679126Y270297D1*
X680000Y262500D1*
G37*
X380233Y1303988D2*
D65*
Y1268118D1*
X382609Y1260933D1*
X387418Y1256179D1*
X394603Y1253747D1*
X399356D1*
X406541Y1256179D1*
X411349Y1260933D1*
X413726Y1268118D1*
Y1303988D1*
X467467Y1253747D2*
X448288Y1303988D1*
X429165Y1253747D1*
X436350Y1270494D2*
X460282D1*
X482906Y1280056D2*
X504406D1*
X511591Y1282488D1*
X514023Y1284864D1*
X516399Y1289617D1*
Y1294426D1*
X514023Y1299179D1*
X511591Y1301611D1*
X504406Y1303988D1*
X482906D1*
Y1253747D1*
X499653Y1280056D2*
X516399Y1253747D1*
X548585Y1303988D2*
Y1253747D1*
X531839Y1303988D2*
X565332D1*
X580771Y1294371D2*
X585580Y1296802D1*
X592765Y1303932D1*
Y1253747D1*
X359482Y1749738D2*
Y1713868D1*
X361858Y1706683D1*
X366667Y1701930D1*
X373852Y1699498D1*
X378605D1*
X385790Y1701930D1*
X390599Y1706683D1*
X392975Y1713868D1*
Y1749738D1*
X446716Y1699498D2*
X427538Y1749738D1*
X408414Y1699498D1*
X415599Y1716245D2*
X439531D1*
X462155Y1725806D2*
X483655D1*
X490840Y1728238D1*
X493272Y1730615D1*
X495649Y1735368D1*
Y1740177D1*
X493272Y1744930D1*
X490840Y1747362D1*
X483655Y1749738D1*
X462155D1*
Y1699498D1*
X478902Y1725806D2*
X495649Y1699498D1*
X527835Y1749738D2*
Y1699498D1*
X511088Y1749738D2*
X544581D1*
X562453Y1737745D2*
Y1740121D1*
X564829Y1744930D1*
X567206Y1747306D1*
X572014Y1749683D1*
X581576D1*
X586329Y1747306D1*
X588706Y1744930D1*
X591137Y1740121D1*
Y1735368D1*
X588706Y1730560D1*
X583952Y1723430D1*
X560021Y1699498D1*
X593514D1*
X3298606Y317836D2*
X3248366D1*
X3298606Y298713D1*
X3248366Y279589D1*
X3298606D1*
X3248366Y333275D2*
X3250742Y335652D1*
X3248366Y338084D1*
X3245934Y335652D1*
X3248366Y333275D1*
X3265112Y335652D2*
X3298606D1*
X3272297Y382263D2*
X3267489Y377455D1*
X3265112Y372646D1*
Y365516D1*
X3267489Y360708D1*
X3272297Y355955D1*
X3279482Y353523D1*
X3284235D1*
X3291420Y355955D1*
X3296174Y360708D1*
X3298606Y365516D1*
Y372646D1*
X3296174Y377455D1*
X3291420Y382263D1*
X3265112Y397702D2*
X3298606D1*
X3279482D2*
X3272297Y400134D1*
X3267489Y404887D1*
X3265112Y409696D1*
Y416881D1*
Y444258D2*
X3267489Y439505D1*
X3272297Y434697D1*
X3279482Y432320D1*
X3284235D1*
X3291420Y434697D1*
X3296174Y439505D1*
X3298606Y444258D1*
Y451443D1*
X3296174Y456252D1*
X3291420Y461005D1*
X3284235Y463437D1*
X3279482D1*
X3272297Y461005D1*
X3267489Y456252D1*
X3265112Y451443D1*
Y444258D1*
X3255551Y512369D2*
X3250742Y507616D1*
X3248366Y500431D1*
Y490870D1*
X3250742Y483685D1*
X3255551Y478876D1*
X3260304D1*
X3265112Y481308D1*
X3267489Y483685D1*
X3269865Y488438D1*
X3274674Y502808D1*
X3277050Y507616D1*
X3279482Y509993D1*
X3284235Y512369D1*
X3291420D1*
X3296174Y507616D1*
X3298606Y500431D1*
Y490870D1*
X3296174Y483685D1*
X3291420Y478876D1*
X3248366Y527809D2*
X3298606D1*
Y544555D1*
X3296174Y551740D1*
X3291420Y556549D1*
X3286612Y558925D1*
X3279482Y561302D1*
X3267489D1*
X3260304Y558925D1*
X3255551Y556549D1*
X3250742Y551740D1*
X3248366Y544555D1*
Y527809D1*
X2637751Y1856324D2*
D66*
X2630058Y1848719D1*
X2622453Y1837223D1*
X2614759Y1821925D1*
X2610957Y1802735D1*
Y1787436D1*
X2614759Y1768335D1*
X2622453Y1753037D1*
X2630058Y1741541D1*
X2637751Y1733935D1*
X2719846Y1816265D2*
X2716043Y1823870D1*
X2708350Y1831564D1*
X2700745Y1835366D1*
X2685446D1*
X2677753Y1831564D1*
X2670148Y1823870D1*
X2666257Y1816265D1*
X2662454Y1804769D1*
Y1785579D1*
X2666257Y1774172D1*
X2670148Y1766478D1*
X2677753Y1758873D1*
X2685446Y1754982D1*
X2700745D1*
X2708350Y1758873D1*
X2716043Y1766478D1*
X2719846Y1774172D1*
X2744549Y1856324D2*
X2752242Y1848719D1*
X2759847Y1837223D1*
X2767541Y1821925D1*
X2771343Y1802735D1*
Y1787436D1*
X2767541Y1768335D1*
X2759847Y1753037D1*
X2752242Y1741541D1*
X2744549Y1733935D1*
X2799937Y1816177D2*
Y1819979D1*
X2803740Y1827673D1*
X2807542Y1831475D1*
X2815236Y1835278D1*
X2830534D1*
X2838139Y1831475D1*
X2841942Y1827673D1*
X2845833Y1819979D1*
Y1812374D1*
X2841942Y1804680D1*
X2834337Y1793273D1*
X2796046Y1754982D1*
X2849635D1*
X2897330Y1835278D2*
X2885834Y1831475D1*
X2878141Y1819979D1*
X2874338Y1800878D1*
Y1789382D1*
X2878141Y1770281D1*
X2885834Y1758785D1*
X2897330Y1754982D1*
X2904935D1*
X2916432Y1758785D1*
X2924037Y1770281D1*
X2927928Y1789382D1*
Y1800878D1*
X2924037Y1819979D1*
X2916432Y1831475D1*
X2904935Y1835278D1*
X2897330D1*
X2924037Y1819979D2*
X2878141Y1770281D1*
X2952630Y1819979D2*
X2960324Y1823870D1*
X2971820Y1835278D1*
Y1754982D1*
X3042419Y1823870D2*
X3038616Y1831475D1*
X3027120Y1835278D1*
X3019515D1*
X3008019Y1831475D1*
X3000325Y1819979D1*
X2996523Y1800878D1*
Y1781777D1*
X3000325Y1766478D1*
X3008019Y1758785D1*
X3019515Y1754982D1*
X3023317D1*
X3034725Y1758785D1*
X3042419Y1766478D1*
X3046221Y1777974D1*
Y1781777D1*
X3042419Y1793273D1*
X3034725Y1800878D1*
X3023317Y1804680D1*
X3019515D1*
X3008019Y1800878D1*
X3000325Y1793273D1*
X2996523Y1781777D1*
X3209968Y1754982D2*
X3179283Y1835366D1*
X3148685Y1754982D1*
X3160182Y1781777D2*
X3198472D1*
X3234671Y1835366D2*
Y1754982D1*
X3288260Y1835366D2*
X3234671Y1781777D1*
X3253772Y1800966D2*
X3288260Y1754982D1*
X3358859Y1823870D2*
X3355057Y1831475D1*
X3343560Y1835278D1*
X3335955D1*
X3324459Y1831475D1*
X3316766Y1819979D1*
X3312963Y1800878D1*
Y1781777D1*
X3316766Y1766478D1*
X3324459Y1758785D1*
X3335955Y1754982D1*
X3339758D1*
X3351166Y1758785D1*
X3358859Y1766478D1*
X3362662Y1777974D1*
Y1781777D1*
X3358859Y1793273D1*
X3351166Y1800878D1*
X3339758Y1804680D1*
X3335955D1*
X3324459Y1800878D1*
X3316766Y1793273D1*
X3312963Y1781777D1*
X3387364Y1835366D2*
Y1754982D1*
X3414159D1*
X3425655Y1758873D1*
X3433349Y1766478D1*
X3437151Y1774172D1*
X3440954Y1785579D1*
Y1804769D1*
X3437151Y1816265D1*
X3433349Y1823870D1*
X3425655Y1831564D1*
X3414159Y1835366D1*
X3387364D1*
X3519246D2*
Y1754982D1*
X3465657Y1835366D1*
Y1754982D1*
X712500Y1763438D2*
D67*
X755500D1*
X769870Y1768302D1*
X774734Y1773055D1*
X779487Y1782562D1*
Y1792179D1*
X774734Y1801685D1*
X769870Y1806549D1*
X755500Y1811302D1*
X712500D1*
Y1710822D1*
X745994Y1763438D2*
X779487Y1710822D1*
X810366Y1811302D2*
X877352Y1710822D1*
Y1811302D2*
X810366Y1710822D1*
X1067556Y1811302D2*
X1005433D1*
Y1710822D1*
X1067556D1*
X1005433Y1763438D2*
X1043679D1*
X1098434Y1777808D2*
Y1710822D1*
Y1758685D2*
X1112804Y1773055D1*
X1122421Y1777808D1*
X1136681D1*
X1146298Y1773055D1*
X1151051Y1758685D1*
Y1710822D1*
Y1758685D2*
X1165421Y1773055D1*
X1175038Y1777808D1*
X1189297D1*
X1198914Y1773055D1*
X1203778Y1758685D1*
Y1710822D1*
X1234656Y1777808D2*
Y1729945D1*
X1239410Y1715685D1*
X1249026Y1710822D1*
X1263397D1*
X1272903Y1715685D1*
X1287273Y1729945D1*
Y1777808D2*
Y1710822D1*
X1318151Y1811302D2*
Y1710822D1*
X1406400Y1777808D2*
Y1710822D1*
Y1763438D2*
X1396893Y1773055D1*
X1387277Y1777808D1*
X1373017D1*
X1363400Y1773055D1*
X1353894Y1763438D1*
X1349030Y1749068D1*
Y1739562D1*
X1353894Y1725192D1*
X1363400Y1715685D1*
X1373017Y1710822D1*
X1387277D1*
X1396893Y1715685D1*
X1406400Y1725192D1*
X1451648Y1811302D2*
Y1729945D1*
X1456402Y1715685D1*
X1466018Y1710822D1*
X1475525D1*
X1437278Y1777808D2*
X1470772D1*
X1530280D2*
X1520773Y1773055D1*
X1511156Y1763438D1*
X1506403Y1749068D1*
Y1739562D1*
X1511156Y1725192D1*
X1520773Y1715685D1*
X1530280Y1710822D1*
X1544650D1*
X1554267Y1715685D1*
X1563773Y1725192D1*
X1568637Y1739562D1*
Y1749068D1*
X1563773Y1763438D1*
X1554267Y1773055D1*
X1544650Y1777808D1*
X1530280D1*
X1599515D2*
Y1710822D1*
Y1749068D2*
X1604379Y1763438D1*
X1613885Y1773055D1*
X1623502Y1777808D1*
X1637872D1*
X1832939Y1796932D2*
X1823433Y1806549D1*
X1809063Y1811302D1*
X1789940D1*
X1775570Y1806549D1*
X1765953Y1796932D1*
Y1787425D1*
X1770816Y1777808D1*
X1775570Y1773055D1*
X1785076Y1768302D1*
X1813816Y1758685D1*
X1823433Y1753932D1*
X1828186Y1749068D1*
X1832939Y1739562D1*
Y1725192D1*
X1823433Y1715685D1*
X1809063Y1710822D1*
X1789940D1*
X1775570Y1715685D1*
X1765953Y1725192D1*
X1863818Y1811302D2*
Y1710822D1*
Y1758685D2*
X1878188Y1773055D1*
X1887805Y1777808D1*
X1902175D1*
X1911681Y1773055D1*
X1916435Y1758685D1*
Y1710822D1*
X1947313Y1811302D2*
X1952066Y1806549D1*
X1956930Y1811302D1*
X1952066Y1816165D1*
X1947313Y1811302D1*
X1952066Y1777808D2*
Y1710822D1*
X1987808Y1749068D2*
X2045178D1*
Y1758685D1*
X2040425Y1768302D1*
X2035672Y1773055D1*
X2026055Y1777808D1*
X2011685D1*
X2002178Y1773055D1*
X1992562Y1763438D1*
X1987808Y1749068D1*
Y1739562D1*
X1992562Y1725192D1*
X2002178Y1715685D1*
X2011685Y1710822D1*
X2026055D1*
X2035672Y1715685D1*
X2045178Y1725192D1*
X2076057Y1811302D2*
Y1710822D1*
X2164305Y1811302D2*
Y1710822D1*
Y1763438D2*
X2154799Y1773055D1*
X2145182Y1777808D1*
X2130812D1*
X2121305Y1773055D1*
X2111688Y1763438D1*
X2106935Y1749068D1*
Y1739562D1*
X2111688Y1725192D1*
X2121305Y1715685D1*
X2130812Y1710822D1*
X2145182D1*
X2154799Y1715685D1*
X2164305Y1725192D1*
X2262500Y1802808D2*
X2291241Y1735822D1*
X2319870Y1802808D1*
X2398612Y1735822D2*
Y1836191D1*
X2350749Y1769315D1*
X2422489D1*
X3283806Y1654219D2*
D65*
X3279053Y1651842D1*
X3274244Y1647034D1*
X3271868Y1642280D1*
Y1632719D1*
X3274244Y1627910D1*
X3279053Y1623157D1*
X3283806Y1620725D1*
X3290991Y1618349D1*
X3302985D1*
X3310114Y1620725D1*
X3314923Y1623157D1*
X3319676Y1627910D1*
X3322108Y1632719D1*
Y1642280D1*
X3319676Y1647034D1*
X3314923Y1651842D1*
X3310114Y1654219D1*
X3281485Y1669658D2*
X3279053Y1674466D1*
X3271923Y1681651D1*
X3322108D1*
X2283806Y1643469D2*
X2279053Y1641092D1*
X2274244Y1636284D1*
X2271868Y1631530D1*
Y1621969D1*
X2274244Y1617160D1*
X2279053Y1612407D1*
X2283806Y1609975D1*
X2290991Y1607599D1*
X2302985D1*
X2310114Y1609975D1*
X2314923Y1612407D1*
X2319676Y1617160D1*
X2322108Y1621969D1*
Y1631530D1*
X2319676Y1636284D1*
X2314923Y1641092D1*
X2310114Y1643469D1*
X2283861Y1661340D2*
X2281485D1*
X2276676Y1663716D1*
X2274300Y1666093D1*
X2271923Y1670901D1*
Y1680463D1*
X2274300Y1685216D1*
X2276676Y1687593D1*
X2281485Y1690025D1*
X2286238D1*
X2291046Y1687593D1*
X2298176Y1682840D1*
X2322108Y1658908D1*
Y1692401D1*
X508806Y1493469D2*
X504053Y1491092D1*
X499244Y1486284D1*
X496868Y1481530D1*
Y1471969D1*
X499244Y1467160D1*
X504053Y1462407D1*
X508806Y1459975D1*
X515991Y1457599D1*
X527985D1*
X535114Y1459975D1*
X539923Y1462407D1*
X544676Y1467160D1*
X547108Y1471969D1*
Y1481530D1*
X544676Y1486284D1*
X539923Y1491092D1*
X535114Y1493469D1*
X496923Y1513716D2*
Y1539969D1*
X516046Y1525655D1*
Y1532840D1*
X518423Y1537593D1*
X520800Y1539969D1*
X527985Y1542401D1*
X532738D1*
X539923Y1539969D1*
X544731Y1535216D1*
X547108Y1528031D1*
Y1520846D1*
X544731Y1513716D1*
X542299Y1511340D1*
X537546Y1508908D1*
X433806Y929774D2*
X429053Y927397D1*
X424244Y922589D1*
X421868Y917836D1*
Y908274D1*
X424244Y903466D1*
X429053Y898712D1*
X433806Y896280D1*
X440991Y893904D1*
X452985D1*
X460114Y896280D1*
X464923Y898712D1*
X469676Y903466D1*
X472108Y908274D1*
Y917836D1*
X469676Y922589D1*
X464923Y927397D1*
X460114Y929774D1*
X472108Y969145D2*
X421923D1*
X455361Y945213D1*
Y981083D1*
X3233806Y930962D2*
X3229053Y928586D1*
X3224244Y923777D1*
X3221868Y919024D1*
Y909462D1*
X3224244Y904654D1*
X3229053Y899901D1*
X3233806Y897469D1*
X3240991Y895092D1*
X3252985D1*
X3260114Y897469D1*
X3264923Y899901D1*
X3269676Y904654D1*
X3272108Y909462D1*
Y919024D1*
X3269676Y923777D1*
X3264923Y928586D1*
X3260114Y930962D1*
X3221923Y975086D2*
Y951210D1*
X3243423Y948833D1*
X3241046Y951210D1*
X3238614Y958395D1*
Y965525D1*
X3241046Y972710D1*
X3245800Y977518D1*
X3252985Y979895D1*
X3257738D1*
X3264923Y977518D1*
X3269731Y972710D1*
X3272108Y965525D1*
Y958395D1*
X3269731Y951210D1*
X3267299Y948833D1*
X3262546Y946401D1*
X132044Y348223D2*
Y297983D1*
X148790D1*
X155975Y300415D1*
X160784Y305168D1*
X163160Y309977D1*
X165537Y317106D1*
Y329100D1*
X163160Y336285D1*
X160784Y341038D1*
X155975Y345846D1*
X148790Y348223D1*
X132044D1*
X180976Y338606D2*
X185785Y341038D1*
X192970Y348168D1*
Y297983D1*
X121294Y698223D2*
Y647983D1*
X138040D1*
X145225Y650415D1*
X150034Y655168D1*
X152410Y659977D1*
X154787Y667106D1*
Y679100D1*
X152410Y686285D1*
X150034Y691038D1*
X145225Y695846D1*
X138040Y698223D1*
X121294D1*
X172658Y686230D2*
Y688606D1*
X175035Y693415D1*
X177411Y695791D1*
X182220Y698168D1*
X191781D1*
X196534Y695791D1*
X198911Y693415D1*
X201343Y688606D1*
Y683853D1*
X198911Y679045D1*
X194158Y671915D1*
X170226Y647983D1*
X203720D1*
X121294Y1048223D2*
Y997983D1*
X138040D1*
X145225Y1000415D1*
X150034Y1005168D1*
X152410Y1009977D1*
X154787Y1017106D1*
Y1029100D1*
X152410Y1036285D1*
X150034Y1041038D1*
X145225Y1045846D1*
X138040Y1048223D1*
X121294D1*
X175035Y1048168D2*
X201288D1*
X186973Y1029045D1*
X194158D1*
X198911Y1026668D1*
X201288Y1024291D1*
X203720Y1017106D1*
Y1012353D1*
X201288Y1005168D1*
X196534Y1000360D1*
X189349Y997983D1*
X182164D1*
X175035Y1000360D1*
X172658Y1002792D1*
X170226Y1007545D1*
X601777Y398249D2*
X640023D1*
X647208Y395873D1*
X649585Y393441D1*
X652017Y388688D1*
Y383879D1*
X649585Y379126D1*
X647208Y376750D1*
X640023Y374318D1*
X635270D1*
X611394Y413689D2*
X608962Y418497D1*
X601832Y425682D1*
X652017D1*
X1969537Y189324D2*
X1991092D1*
X1998222Y191700D1*
X2000654Y194132D1*
X2003030Y198886D1*
Y206071D1*
X2000654Y210824D1*
X1998222Y213256D1*
X1991092Y215632D1*
X1969537D1*
Y165392D1*
X2018470Y206015D2*
X2023278Y208447D1*
X2030463Y215577D1*
Y165392D1*
X1058787Y189324D2*
X1080342D1*
X1087472Y191700D1*
X1089904Y194132D1*
X1092280Y198886D1*
Y206071D1*
X1089904Y210824D1*
X1087472Y213256D1*
X1080342Y215632D1*
X1058787D1*
Y165392D1*
X1110151Y203639D2*
Y206015D1*
X1112528Y210824D1*
X1114905Y213200D1*
X1119713Y215577D1*
X1129275D1*
X1134028Y213200D1*
X1136405Y210824D1*
X1138836Y206015D1*
Y201262D1*
X1136405Y196454D1*
X1131651Y189324D1*
X1107720Y165392D1*
X1141213D1*
X2471287Y1906733D2*
X2492842D1*
X2499972Y1909110D1*
X2502404Y1911541D1*
X2504780Y1916295D1*
Y1923480D1*
X2502404Y1928233D1*
X2499972Y1930665D1*
X2492842Y1933041D1*
X2471287D1*
Y1882801D1*
X2525028Y1932986D2*
X2551281D1*
X2536966Y1913863D1*
X2544151D1*
X2548905Y1911486D1*
X2551281Y1909110D1*
X2553713Y1901925D1*
Y1897171D1*
X2551281Y1889986D1*
X2546528Y1885178D1*
X2539343Y1882801D1*
X2532158D1*
X2525028Y1885178D1*
X2522651Y1887610D1*
X2520220Y1892363D1*
X697599Y1906733D2*
X719154D1*
X726284Y1909110D1*
X728715Y1911541D1*
X731092Y1916295D1*
Y1923480D1*
X728715Y1928233D1*
X726284Y1930665D1*
X719154Y1933041D1*
X697599D1*
Y1882801D1*
X770463D2*
Y1932986D1*
X746531Y1899548D1*
X782401D1*
X2858787Y189324D2*
X2880342D1*
X2887472Y191700D1*
X2889904Y194132D1*
X2892280Y198886D1*
Y206071D1*
X2889904Y210824D1*
X2887472Y213256D1*
X2880342Y215632D1*
X2858787D1*
Y165392D1*
X2936405Y215577D2*
X2912528D1*
X2910151Y194077D1*
X2912528Y196454D1*
X2919713Y198886D1*
X2926843D1*
X2934028Y196454D1*
X2938836Y191700D1*
X2941213Y184515D1*
Y179762D1*
X2938836Y172577D1*
X2934028Y167769D1*
X2926843Y165392D1*
X2919713D1*
X2912528Y167769D1*
X2910151Y170201D1*
X2907720Y174954D1*
X3372503Y1906733D2*
X3394058D1*
X3401188Y1909110D1*
X3403620Y1911541D1*
X3405996Y1916295D1*
Y1923480D1*
X3403620Y1928233D1*
X3401188Y1930665D1*
X3394058Y1933041D1*
X3372503D1*
Y1882801D1*
X3450120Y1925856D2*
X3447744Y1930609D1*
X3440559Y1932986D1*
X3435806D1*
X3428621Y1930609D1*
X3423812Y1923424D1*
X3421436Y1911486D1*
Y1899548D1*
X3423812Y1889986D1*
X3428621Y1885178D1*
X3435806Y1882801D1*
X3438182D1*
X3445312Y1885178D1*
X3450120Y1889986D1*
X3452497Y1897171D1*
Y1899548D1*
X3450120Y1906733D1*
X3445312Y1911486D1*
X3438182Y1913863D1*
X3435806D1*
X3428621Y1911486D1*
X3423812Y1906733D1*
X3421436Y1899548D1*
X3601824Y1891213D2*
Y1869658D1*
X3604200Y1862528D1*
X3606632Y1860096D1*
X3611386Y1857720D1*
X3618571D1*
X3623324Y1860096D1*
X3625756Y1862528D1*
X3628132Y1869658D1*
Y1891213D1*
X3577892D1*
Y1832719D2*
X3628077Y1808787D1*
Y1842280D1*
X108815Y1276824D2*
X130370D1*
X137500Y1279200D1*
X139931Y1281632D1*
X142308Y1286386D1*
Y1293571D1*
X139931Y1298324D1*
X137500Y1300756D1*
X130370Y1303132D1*
X108815D1*
Y1252892D1*
X169685Y1303077D2*
X162556Y1300700D1*
X160124Y1295947D1*
Y1291139D1*
X162556Y1286386D1*
X167309Y1283954D1*
X176871Y1281577D1*
X184056Y1279200D1*
X188809Y1274392D1*
X191185Y1269639D1*
Y1262454D1*
X188809Y1257701D1*
X186432Y1255269D1*
X179247Y1252892D1*
X169685D1*
X162556Y1255269D1*
X160124Y1257701D1*
X157747Y1262454D1*
Y1269639D1*
X160124Y1274392D1*
X164932Y1279200D1*
X172062Y1281577D1*
X181624Y1283954D1*
X186432Y1286386D1*
X188809Y1291139D1*
Y1295947D1*
X186432Y1300700D1*
X179247Y1303077D1*
X169685D1*
X109975Y1726824D2*
X131530D1*
X138660Y1729200D1*
X141092Y1731632D1*
X143469Y1736386D1*
Y1743571D1*
X141092Y1748324D1*
X138660Y1750756D1*
X131530Y1753132D1*
X109975D1*
Y1702892D1*
X190025Y1736386D2*
X187593Y1729200D1*
X182840Y1724392D1*
X175655Y1722015D1*
X173278D1*
X166093Y1724392D1*
X161340Y1729200D1*
X158908Y1736386D1*
Y1738762D1*
X161340Y1745947D1*
X166093Y1750700D1*
X173278Y1753077D1*
X175655D1*
X182840Y1750700D1*
X187593Y1745947D1*
X190025Y1736386D1*
Y1724392D1*
X187593Y1712454D1*
X182840Y1705269D1*
X175655Y1702892D1*
X170901D1*
X163716Y1705269D1*
X161340Y1710077D1*
X3473176Y270071D2*
Y291626D1*
X3470800Y298756D1*
X3468368Y301187D1*
X3463614Y303564D1*
X3456429D1*
X3451676Y301187D1*
X3449244Y298756D1*
X3446868Y291626D1*
Y270071D1*
X3497108D1*
X3456485Y319003D2*
X3454053Y323812D1*
X3446923Y330997D1*
X3497108D1*
X3446923Y360806D2*
X3449300Y353621D1*
X3456485Y348813D1*
X3468423Y346436D1*
X3475608D1*
X3487546Y348813D1*
X3494731Y353621D1*
X3497108Y360806D1*
Y365559D1*
X3494731Y372744D1*
X3487546Y377497D1*
X3475608Y379929D1*
X3468423D1*
X3456485Y377497D1*
X3449300Y372744D1*
X3446923Y365559D1*
Y360806D1*
X3456485Y377497D2*
X3487546Y348813D1*
X1752384Y1456503D2*
X1754705Y1451750D1*
X1759513Y1446941D1*
X1764322Y1444565D1*
X1771507Y1442133D1*
X1783445D1*
X1790630Y1444565D1*
X1795383Y1446941D1*
X1800192Y1451750D1*
X1802568Y1456503D1*
Y1466064D1*
X1800192Y1470873D1*
X1795383Y1475626D1*
X1790630Y1478003D1*
X1783445Y1480435D1*
X1771507D1*
X1764322Y1478003D1*
X1759513Y1475626D1*
X1754705Y1470873D1*
X1752384Y1466064D1*
Y1456503D1*
X1793007Y1463688D2*
X1807377Y1478003D1*
X1762000Y1495874D2*
X1759569Y1500682D1*
X1752439Y1507867D1*
X1802624D1*
X1952384Y1445753D2*
X1954705Y1441000D1*
X1959513Y1436191D1*
X1964322Y1433815D1*
X1971507Y1431383D1*
X1983445D1*
X1990630Y1433815D1*
X1995383Y1436191D1*
X2000192Y1441000D1*
X2002568Y1445753D1*
Y1455315D1*
X2000192Y1460123D1*
X1995383Y1464876D1*
X1990630Y1467253D1*
X1983445Y1469685D1*
X1971507D1*
X1964322Y1467253D1*
X1959513Y1464876D1*
X1954705Y1460123D1*
X1952384Y1455315D1*
Y1445753D1*
X1993007Y1452938D2*
X2007377Y1467253D1*
X1964377Y1487556D2*
X1962000D1*
X1957192Y1489932D1*
X1954815Y1492309D1*
X1952439Y1497117D1*
Y1506679D1*
X1954815Y1511432D1*
X1957192Y1513809D1*
X1962000Y1516241D1*
X1966754D1*
X1971562Y1513809D1*
X1978692Y1509056D1*
X2002624Y1485124D1*
Y1518617D1*
X1552384Y1445753D2*
X1554705Y1441000D1*
X1559513Y1436191D1*
X1564322Y1433815D1*
X1571507Y1431383D1*
X1583445D1*
X1590630Y1433815D1*
X1595383Y1436191D1*
X1600192Y1441000D1*
X1602568Y1445753D1*
Y1455315D1*
X1600192Y1460123D1*
X1595383Y1464876D1*
X1590630Y1467253D1*
X1583445Y1469685D1*
X1571507D1*
X1564322Y1467253D1*
X1559513Y1464876D1*
X1554705Y1460123D1*
X1552384Y1455315D1*
Y1445753D1*
X1593007Y1452938D2*
X1607377Y1467253D1*
X1552439Y1489932D2*
Y1516185D1*
X1571562Y1501871D1*
Y1509056D1*
X1573939Y1513809D1*
X1576315Y1516185D1*
X1583500Y1518617D1*
X1588253D1*
X1595439Y1516185D1*
X1600247Y1511432D1*
X1602624Y1504247D1*
Y1497062D1*
X1600247Y1489932D1*
X1597815Y1487556D1*
X1593062Y1485124D1*
X1152384Y1444565D2*
X1154705Y1439811D1*
X1159513Y1435003D1*
X1164322Y1432626D1*
X1171507Y1430195D1*
X1183445D1*
X1190630Y1432626D1*
X1195383Y1435003D1*
X1200192Y1439811D1*
X1202568Y1444565D1*
Y1454126D1*
X1200192Y1458935D1*
X1195383Y1463688D1*
X1190630Y1466064D1*
X1183445Y1468496D1*
X1171507D1*
X1164322Y1466064D1*
X1159513Y1463688D1*
X1154705Y1458935D1*
X1152384Y1454126D1*
Y1444565D1*
X1193007Y1451750D2*
X1207377Y1466064D1*
X1202624Y1507867D2*
X1152439D1*
X1185877Y1483936D1*
Y1519805D1*
X1352384Y1445753D2*
X1354705Y1441000D1*
X1359513Y1436191D1*
X1364322Y1433815D1*
X1371507Y1431383D1*
X1383445D1*
X1390630Y1433815D1*
X1395383Y1436191D1*
X1400192Y1441000D1*
X1402568Y1445753D1*
Y1455315D1*
X1400192Y1460123D1*
X1395383Y1464876D1*
X1390630Y1467253D1*
X1383445Y1469685D1*
X1371507D1*
X1364322Y1467253D1*
X1359513Y1464876D1*
X1354705Y1460123D1*
X1352384Y1455315D1*
Y1445753D1*
X1393007Y1452938D2*
X1407377Y1467253D1*
X1352439Y1513809D2*
Y1489932D1*
X1373939Y1487556D1*
X1371562Y1489932D1*
X1369130Y1497117D1*
Y1504247D1*
X1371562Y1511432D1*
X1376315Y1516241D1*
X1383500Y1518617D1*
X1388253D1*
X1395439Y1516241D1*
X1400247Y1511432D1*
X1402624Y1504247D1*
Y1497117D1*
X1400247Y1489932D1*
X1397815Y1487556D1*
X1393062Y1485124D1*
X952384Y1446969D2*
X954705Y1442216D1*
X959513Y1437407D1*
X964322Y1435031D1*
X971507Y1432599D1*
X983445D1*
X990630Y1435031D1*
X995383Y1437407D1*
X1000192Y1442216D1*
X1002568Y1446969D1*
Y1456530D1*
X1000192Y1461339D1*
X995383Y1466092D1*
X990630Y1468469D1*
X983445Y1470901D1*
X971507D1*
X964322Y1468469D1*
X959513Y1466092D1*
X954705Y1461339D1*
X952384Y1456530D1*
Y1446969D1*
X993007Y1454154D2*
X1007377Y1468469D1*
X959569Y1515025D2*
X954815Y1512648D1*
X952439Y1505463D1*
Y1500710D1*
X954815Y1493525D1*
X962000Y1488716D1*
X973939Y1486340D1*
X985877D1*
X995439Y1488716D1*
X1000247Y1493525D1*
X1002624Y1500710D1*
Y1503086D1*
X1000247Y1510216D1*
X995439Y1515025D1*
X988253Y1517401D1*
X985877D1*
X978692Y1515025D1*
X973939Y1510216D1*
X971562Y1503086D1*
Y1500710D1*
X973939Y1493525D1*
X978692Y1488716D1*
X985877Y1486340D1*
X752384Y1445753D2*
X754705Y1441000D1*
X759513Y1436191D1*
X764322Y1433815D1*
X771507Y1431383D1*
X783445D1*
X790630Y1433815D1*
X795383Y1436191D1*
X800192Y1441000D1*
X802568Y1445753D1*
Y1455315D1*
X800192Y1460123D1*
X795383Y1464876D1*
X790630Y1467253D1*
X783445Y1469685D1*
X771507D1*
X764322Y1467253D1*
X759513Y1464876D1*
X754705Y1460123D1*
X752384Y1455315D1*
Y1445753D1*
X793007Y1452938D2*
X807377Y1467253D1*
X802624Y1494685D2*
X752439Y1518617D1*
Y1485124D1*
X2895800Y808787D2*
Y830287D1*
X2893368Y837472D1*
X2890991Y839904D1*
X2886238Y842280D1*
X2881429D1*
X2876676Y839904D1*
X2874244Y837472D1*
X2871868Y830287D1*
Y808787D1*
X2922108D1*
X2895800Y825534D2*
X2922108Y842280D1*
X2883861Y860151D2*
X2881485D1*
X2876676Y862528D1*
X2874300Y864905D1*
X2871923Y869713D1*
Y879275D1*
X2874300Y884028D1*
X2876676Y886405D1*
X2881485Y888836D1*
X2886238D1*
X2891046Y886405D1*
X2898176Y881651D1*
X2922108Y857720D1*
Y891213D1*
X2795800Y808787D2*
Y830287D1*
X2793368Y837472D1*
X2790991Y839904D1*
X2786238Y842280D1*
X2781429D1*
X2776676Y839904D1*
X2774244Y837472D1*
X2771868Y830287D1*
Y808787D1*
X2822108D1*
X2795800Y825534D2*
X2822108Y842280D1*
X2771923Y862528D2*
Y888781D1*
X2791046Y874466D1*
Y881651D1*
X2793423Y886405D1*
X2795800Y888781D1*
X2802985Y891213D1*
X2807738D1*
X2814923Y888781D1*
X2819731Y884028D1*
X2822108Y876843D1*
Y869658D1*
X2819731Y862528D1*
X2817299Y860151D1*
X2812546Y857720D1*
X2595800Y807599D2*
Y829099D1*
X2593368Y836284D1*
X2590991Y838715D1*
X2586238Y841092D1*
X2581429D1*
X2576676Y838715D1*
X2574244Y836284D1*
X2571868Y829099D1*
Y807599D1*
X2622108D1*
X2595800Y824345D2*
X2622108Y841092D1*
Y880463D2*
X2571923D1*
X2605361Y856531D1*
Y892401D1*
X2695800Y808787D2*
Y830287D1*
X2693368Y837472D1*
X2690991Y839904D1*
X2686238Y842280D1*
X2681429D1*
X2676676Y839904D1*
X2674244Y837472D1*
X2671868Y830287D1*
Y808787D1*
X2722108D1*
X2695800Y825534D2*
X2722108Y842280D1*
X2671923Y886405D2*
Y862528D1*
X2693423Y860151D1*
X2691046Y862528D1*
X2688614Y869713D1*
Y876843D1*
X2691046Y884028D1*
X2695800Y888836D1*
X2702985Y891213D1*
X2707738D1*
X2714923Y888836D1*
X2719731Y884028D1*
X2722108Y876843D1*
Y869713D1*
X2719731Y862528D1*
X2717299Y860151D1*
X2712546Y857720D1*
X2495800Y810003D2*
Y831503D1*
X2493368Y838688D1*
X2490991Y841120D1*
X2486238Y843496D1*
X2481429D1*
X2476676Y841120D1*
X2474244Y838688D1*
X2471868Y831503D1*
Y810003D1*
X2522108D1*
X2495800Y826750D2*
X2522108Y843496D1*
X2479053Y887620D2*
X2474300Y885244D1*
X2471923Y878059D1*
Y873306D1*
X2474300Y866121D1*
X2481485Y861312D1*
X2493423Y858936D1*
X2505361D1*
X2514923Y861312D1*
X2519731Y866121D1*
X2522108Y873306D1*
Y875682D1*
X2519731Y882812D1*
X2514923Y887620D1*
X2507738Y889997D1*
X2505361D1*
X2498176Y887620D1*
X2493423Y882812D1*
X2491046Y875682D1*
Y873306D1*
X2493423Y866121D1*
X2498176Y861312D1*
X2505361Y858936D1*
X2395800Y808787D2*
Y830287D1*
X2393368Y837472D1*
X2390991Y839904D1*
X2386238Y842280D1*
X2381429D1*
X2376676Y839904D1*
X2374244Y837472D1*
X2371868Y830287D1*
Y808787D1*
X2422108D1*
X2395800Y825534D2*
X2422108Y842280D1*
Y867281D2*
X2371923Y891213D1*
Y857720D1*
X2195800Y808815D2*
Y830315D1*
X2193368Y837500D1*
X2190991Y839931D1*
X2186238Y842308D1*
X2181429D1*
X2176676Y839931D1*
X2174244Y837500D1*
X2171868Y830315D1*
Y808815D1*
X2222108D1*
X2195800Y825561D2*
X2222108Y842308D1*
X2171923Y869685D2*
X2174300Y862556D1*
X2179053Y860124D1*
X2183861D1*
X2188614Y862556D1*
X2191046Y867309D1*
X2193423Y876871D1*
X2195800Y884056D1*
X2200608Y888809D1*
X2205361Y891185D1*
X2212546D1*
X2217299Y888809D1*
X2219731Y886432D1*
X2222108Y879247D1*
Y869685D1*
X2219731Y862556D1*
X2217299Y860124D1*
X2212546Y857747D1*
X2205361D1*
X2200608Y860124D1*
X2195800Y864932D1*
X2193423Y872062D1*
X2191046Y881624D1*
X2188614Y886432D1*
X2183861Y888809D1*
X2179053D1*
X2174300Y886432D1*
X2171923Y879247D1*
Y869685D1*
X2295800Y809975D2*
Y831475D1*
X2293368Y838660D1*
X2290991Y841092D1*
X2286238Y843469D1*
X2281429D1*
X2276676Y841092D1*
X2274244Y838660D1*
X2271868Y831475D1*
Y809975D1*
X2322108D1*
X2295800Y826722D2*
X2322108Y843469D1*
X2288614Y890025D2*
X2295800Y887593D1*
X2300608Y882840D1*
X2302985Y875655D1*
Y873278D1*
X2300608Y866093D1*
X2295800Y861340D1*
X2288614Y858908D1*
X2286238D1*
X2279053Y861340D1*
X2274300Y866093D1*
X2271923Y873278D1*
Y875655D1*
X2274300Y882840D1*
X2279053Y887593D1*
X2288614Y890025D1*
X2300608D1*
X2312546Y887593D1*
X2319731Y882840D1*
X2322108Y875655D1*
Y870901D1*
X2319731Y863716D1*
X2314923Y861340D1*
X2095800Y795071D2*
Y816571D1*
X2093368Y823756D1*
X2090991Y826187D1*
X2086238Y828564D1*
X2081429D1*
X2076676Y826187D1*
X2074244Y823756D1*
X2071868Y816571D1*
Y795071D1*
X2122108D1*
X2095800Y811817D2*
X2122108Y828564D1*
X2081485Y844003D2*
X2079053Y848812D1*
X2071923Y855997D1*
X2122108D1*
X2071923Y885806D2*
X2074300Y878621D1*
X2081485Y873813D1*
X2093423Y871436D1*
X2100608D1*
X2112546Y873813D1*
X2119731Y878621D1*
X2122108Y885806D1*
Y890559D1*
X2119731Y897744D1*
X2112546Y902497D1*
X2100608Y904929D1*
X2093423D1*
X2081485Y902497D1*
X2074300Y897744D1*
X2071923Y890559D1*
Y885806D1*
X2081485Y902497D2*
X2112546Y873813D1*
X1795800Y805821D2*
Y827320D1*
X1793368Y834505D1*
X1790991Y836937D1*
X1786238Y839314D1*
X1781429D1*
X1776676Y836937D1*
X1774244Y834505D1*
X1771868Y827320D1*
Y805821D1*
X1822108D1*
X1795800Y822567D2*
X1822108Y839314D1*
X1781485Y854753D2*
X1779053Y859562D1*
X1771923Y866747D1*
X1822108D1*
X1781485Y882186D2*
X1779053Y886994D1*
X1771923Y894179D1*
X1822108D1*
X1895800Y795071D2*
Y816571D1*
X1893368Y823756D1*
X1890991Y826187D1*
X1886238Y828564D1*
X1881429D1*
X1876676Y826187D1*
X1874244Y823756D1*
X1871868Y816571D1*
Y795071D1*
X1922108D1*
X1895800Y811817D2*
X1922108Y828564D1*
X1881485Y844003D2*
X1879053Y848812D1*
X1871923Y855997D1*
X1922108D1*
X1883861Y873868D2*
X1881485D1*
X1876676Y876244D1*
X1874300Y878621D1*
X1871923Y883429D1*
Y892991D1*
X1874300Y897744D1*
X1876676Y900121D1*
X1881485Y902553D1*
X1886238D1*
X1891046Y900121D1*
X1898176Y895368D1*
X1922108Y871436D1*
Y904929D1*
X1695800Y795071D2*
Y816571D1*
X1693368Y823756D1*
X1690991Y826187D1*
X1686238Y828564D1*
X1681429D1*
X1676676Y826187D1*
X1674244Y823756D1*
X1671868Y816571D1*
Y795071D1*
X1722108D1*
X1695800Y811817D2*
X1722108Y828564D1*
X1681485Y844003D2*
X1679053Y848812D1*
X1671923Y855997D1*
X1722108D1*
X1671923Y876244D2*
Y902497D1*
X1691046Y888183D1*
Y895368D1*
X1693423Y900121D1*
X1695800Y902497D1*
X1702985Y904929D1*
X1707738D1*
X1714923Y902497D1*
X1719731Y897744D1*
X1722108Y890559D1*
Y883374D1*
X1719731Y876244D1*
X1717299Y873868D1*
X1712546Y871436D1*
X1595800Y793882D2*
Y815382D1*
X1593368Y822567D1*
X1590991Y824999D1*
X1586238Y827376D1*
X1581429D1*
X1576676Y824999D1*
X1574244Y822567D1*
X1571868Y815382D1*
Y793882D1*
X1622108D1*
X1595800Y810629D2*
X1622108Y827376D1*
X1581485Y842815D2*
X1579053Y847623D1*
X1571923Y854808D1*
X1622108D1*
Y894179D2*
X1571923D1*
X1605361Y870248D1*
Y906118D1*
X1395800Y795071D2*
Y816571D1*
X1393368Y823756D1*
X1390991Y826187D1*
X1386238Y828564D1*
X1381429D1*
X1376676Y826187D1*
X1374244Y823756D1*
X1371868Y816571D1*
Y795071D1*
X1422108D1*
X1395800Y811817D2*
X1422108Y828564D1*
X1381485Y844003D2*
X1379053Y848812D1*
X1371923Y855997D1*
X1422108D1*
X1371923Y900121D2*
Y876244D1*
X1393423Y873868D1*
X1391046Y876244D1*
X1388614Y883429D1*
Y890559D1*
X1391046Y897744D1*
X1395800Y902553D1*
X1402985Y904929D1*
X1407738D1*
X1414923Y902553D1*
X1419731Y897744D1*
X1422108Y890559D1*
Y883429D1*
X1419731Y876244D1*
X1417299Y873868D1*
X1412546Y871436D1*
X1495800Y796287D2*
Y817786D1*
X1493368Y824971D1*
X1490991Y827403D1*
X1486238Y829780D1*
X1481429D1*
X1476676Y827403D1*
X1474244Y824971D1*
X1471868Y817786D1*
Y796287D1*
X1522108D1*
X1495800Y813033D2*
X1522108Y829780D1*
X1481485Y845219D2*
X1479053Y850028D1*
X1471923Y857213D1*
X1522108D1*
X1479053Y901337D2*
X1474300Y898960D1*
X1471923Y891775D1*
Y887022D1*
X1474300Y879837D1*
X1481485Y875029D1*
X1493423Y872652D1*
X1505361D1*
X1514923Y875029D1*
X1519731Y879837D1*
X1522108Y887022D1*
Y889399D1*
X1519731Y896528D1*
X1514923Y901337D1*
X1507738Y903713D1*
X1505361D1*
X1498176Y901337D1*
X1493423Y896528D1*
X1491046Y889399D1*
Y887022D1*
X1493423Y879837D1*
X1498176Y875029D1*
X1505361Y872652D1*
X1295800Y795071D2*
Y816571D1*
X1293368Y823756D1*
X1290991Y826187D1*
X1286238Y828564D1*
X1281429D1*
X1276676Y826187D1*
X1274244Y823756D1*
X1271868Y816571D1*
Y795071D1*
X1322108D1*
X1295800Y811817D2*
X1322108Y828564D1*
X1281485Y844003D2*
X1279053Y848812D1*
X1271923Y855997D1*
X1322108D1*
Y880998D2*
X1271923Y904929D1*
Y871436D1*
X1195800Y795098D2*
Y816598D1*
X1193368Y823783D1*
X1190991Y826215D1*
X1186238Y828592D1*
X1181429D1*
X1176676Y826215D1*
X1174244Y823783D1*
X1171868Y816598D1*
Y795098D1*
X1222108D1*
X1195800Y811845D2*
X1222108Y828592D1*
X1181485Y844031D2*
X1179053Y848839D1*
X1171923Y856024D1*
X1222108D1*
X1171923Y883402D2*
X1174300Y876272D1*
X1179053Y873840D1*
X1183861D1*
X1188614Y876272D1*
X1191046Y881025D1*
X1193423Y890587D1*
X1195800Y897772D1*
X1200608Y902525D1*
X1205361Y904902D1*
X1212546D1*
X1217299Y902525D1*
X1219731Y900149D1*
X1222108Y892963D1*
Y883402D1*
X1219731Y876272D1*
X1217299Y873840D1*
X1212546Y871464D1*
X1205361D1*
X1200608Y873840D1*
X1195800Y878649D1*
X1193423Y885778D1*
X1191046Y895340D1*
X1188614Y900149D1*
X1183861Y902525D1*
X1179053D1*
X1174300Y900149D1*
X1171923Y892963D1*
Y883402D1*
X995800Y796259D2*
Y817759D1*
X993368Y824944D1*
X990991Y827376D1*
X986238Y829752D1*
X981429D1*
X976676Y827376D1*
X974244Y824944D1*
X971868Y817759D1*
Y796259D1*
X1022108D1*
X995800Y813006D2*
X1022108Y829752D1*
X981485Y845192D2*
X979053Y850000D1*
X971923Y857185D1*
X1022108D1*
X988614Y903741D2*
X995800Y901309D1*
X1000608Y896556D1*
X1002985Y889371D1*
Y886994D1*
X1000608Y879809D1*
X995800Y875056D1*
X988614Y872624D1*
X986238D1*
X979053Y875056D1*
X974300Y879809D1*
X971923Y886994D1*
Y889371D1*
X974300Y896556D1*
X979053Y901309D1*
X988614Y903741D1*
X1000608D1*
X1012546Y901309D1*
X1019731Y896556D1*
X1022108Y889371D1*
Y884618D1*
X1019731Y877433D1*
X1014923Y875056D1*
X1095800Y784321D2*
Y805821D1*
X1093368Y813006D1*
X1090991Y815437D1*
X1086238Y817814D1*
X1081429D1*
X1076676Y815437D1*
X1074244Y813006D1*
X1071868Y805821D1*
Y784321D1*
X1122108D1*
X1095800Y801067D2*
X1122108Y817814D1*
X1083861Y835685D2*
X1081485D1*
X1076676Y838062D1*
X1074300Y840438D1*
X1071923Y845247D1*
Y854808D1*
X1074300Y859562D1*
X1076676Y861938D1*
X1081485Y864370D1*
X1086238D1*
X1091046Y861938D1*
X1098176Y857185D1*
X1122108Y833253D1*
Y866747D1*
X1071923Y896556D2*
X1074300Y889371D1*
X1081485Y884563D1*
X1093423Y882186D1*
X1100608D1*
X1112546Y884563D1*
X1119731Y889371D1*
X1122108Y896556D1*
Y901309D1*
X1119731Y908494D1*
X1112546Y913247D1*
X1100608Y915679D1*
X1093423D1*
X1081485Y913247D1*
X1074300Y908494D1*
X1071923Y901309D1*
Y896556D1*
X1081485Y913247D2*
X1112546Y884563D1*
X895800Y795071D2*
Y816571D1*
X893368Y823756D1*
X890991Y826187D1*
X886238Y828564D1*
X881429D1*
X876676Y826187D1*
X874244Y823756D1*
X871868Y816571D1*
Y795071D1*
X922108D1*
X895800Y811817D2*
X922108Y828564D1*
X883861Y846435D2*
X881485D1*
X876676Y848812D1*
X874300Y851188D1*
X871923Y855997D1*
Y865558D1*
X874300Y870312D1*
X876676Y872688D1*
X881485Y875120D1*
X886238D1*
X891046Y872688D1*
X898176Y867935D1*
X922108Y844003D1*
Y877497D1*
X881485Y892936D2*
X879053Y897744D1*
X871923Y904929D1*
X922108D1*
X795800Y784321D2*
Y805821D1*
X793368Y813006D1*
X790991Y815437D1*
X786238Y817814D1*
X781429D1*
X776676Y815437D1*
X774244Y813006D1*
X771868Y805821D1*
Y784321D1*
X822108D1*
X795800Y801067D2*
X822108Y817814D1*
X783861Y835685D2*
X781485D1*
X776676Y838062D1*
X774300Y840438D1*
X771923Y845247D1*
Y854808D1*
X774300Y859562D1*
X776676Y861938D1*
X781485Y864370D1*
X786238D1*
X791046Y861938D1*
X798176Y857185D1*
X822108Y833253D1*
Y866747D1*
X783861Y884618D2*
X781485D1*
X776676Y886994D1*
X774300Y889371D1*
X771923Y894179D1*
Y903741D1*
X774300Y908494D1*
X776676Y910871D1*
X781485Y913303D1*
X786238D1*
X791046Y910871D1*
X798176Y906118D1*
X822108Y882186D1*
Y915679D1*
X1995800Y784321D2*
Y805821D1*
X1993368Y813006D1*
X1990991Y815437D1*
X1986238Y817814D1*
X1981429D1*
X1976676Y815437D1*
X1974244Y813006D1*
X1971868Y805821D1*
Y784321D1*
X2022108D1*
X1995800Y801067D2*
X2022108Y817814D1*
X1983861Y835685D2*
X1981485D1*
X1976676Y838062D1*
X1974300Y840438D1*
X1971923Y845247D1*
Y854808D1*
X1974300Y859562D1*
X1976676Y861938D1*
X1981485Y864370D1*
X1986238D1*
X1991046Y861938D1*
X1998176Y857185D1*
X2022108Y833253D1*
Y866747D1*
X1971923Y886994D2*
Y913247D1*
X1991046Y898933D1*
Y906118D1*
X1993423Y910871D1*
X1995800Y913247D1*
X2002985Y915679D1*
X2007738D1*
X2014923Y913247D1*
X2019731Y908494D1*
X2022108Y901309D1*
Y894124D1*
X2019731Y886994D1*
X2017299Y884618D1*
X2012546Y882186D1*
X495800Y633132D2*
Y654632D1*
X493368Y661817D1*
X490991Y664249D1*
X486238Y666626D1*
X481429D1*
X476676Y664249D1*
X474244Y661817D1*
X471868Y654632D1*
Y633132D1*
X522108D1*
X495800Y649879D2*
X522108Y666626D1*
X483861Y684497D2*
X481485D1*
X476676Y686873D1*
X474300Y689250D1*
X471923Y694059D1*
Y703620D1*
X474300Y708373D1*
X476676Y710750D1*
X481485Y713182D1*
X486238D1*
X491046Y710750D1*
X498176Y705997D1*
X522108Y682065D1*
Y715558D1*
Y754929D2*
X471923D1*
X505361Y730998D1*
Y766868D1*
X420800Y634321D2*
Y655821D1*
X418368Y663006D1*
X415991Y665437D1*
X411238Y667814D1*
X406429D1*
X401676Y665437D1*
X399244Y663006D1*
X396868Y655821D1*
Y634321D1*
X447108D1*
X420800Y651067D2*
X447108Y667814D1*
X408861Y685685D2*
X406485D1*
X401676Y688062D1*
X399300Y690438D1*
X396923Y695247D1*
Y704808D1*
X399300Y709562D1*
X401676Y711938D1*
X406485Y714370D1*
X411238D1*
X416046Y711938D1*
X423176Y707185D1*
X447108Y683253D1*
Y716747D1*
X396923Y760871D2*
Y736994D1*
X418423Y734618D1*
X416046Y736994D1*
X413614Y744179D1*
Y751309D1*
X416046Y758494D1*
X420800Y763303D1*
X427985Y765679D1*
X432738D1*
X439923Y763303D1*
X444731Y758494D1*
X447108Y751309D1*
Y744179D1*
X444731Y736994D1*
X442299Y734618D1*
X437546Y732186D1*
X345800Y635537D2*
Y657037D1*
X343368Y664222D1*
X340991Y666653D1*
X336238Y669030D1*
X331429D1*
X326676Y666653D1*
X324244Y664222D1*
X321868Y657037D1*
Y635537D1*
X372108D1*
X345800Y652283D2*
X372108Y669030D1*
X333861Y686901D2*
X331485D1*
X326676Y689278D1*
X324300Y691654D1*
X321923Y696463D1*
Y706024D1*
X324300Y710778D1*
X326676Y713154D1*
X331485Y715586D1*
X336238D1*
X341046Y713154D1*
X348176Y708401D1*
X372108Y684469D1*
Y717963D1*
X329053Y762087D2*
X324300Y759710D1*
X321923Y752525D1*
Y747772D1*
X324300Y740587D1*
X331485Y735778D1*
X343423Y733402D1*
X355361D1*
X364923Y735778D1*
X369731Y740587D1*
X372108Y747772D1*
Y750149D1*
X369731Y757278D1*
X364923Y762087D1*
X357738Y764463D1*
X355361D1*
X348176Y762087D1*
X343423Y757278D1*
X341046Y750149D1*
Y747772D1*
X343423Y740587D1*
X348176Y735778D1*
X355361Y733402D1*
X3119537Y1703132D2*
Y1667262D1*
X3121914Y1660077D1*
X3126722Y1655324D1*
X3133907Y1652892D1*
X3138660D1*
X3145845Y1655324D1*
X3150654Y1660077D1*
X3153030Y1667262D1*
Y1703132D1*
X3168470Y1693515D2*
X3173278Y1695947D1*
X3180463Y1703077D1*
Y1652892D1*
M02*
