G04 DipTrace 2.4.0.2*
%INBottom.gbr*%
%MOIN*%
%ADD10C,0.01*%
%ADD16C,0.06*%
%ADD17R,0.06X0.06*%
%ADD18C,0.05*%
%ADD19R,0.05X0.05*%
%ADD20R,0.0591X0.0591*%
%ADD22C,0.0591*%
%ADD23C,0.06*%
%ADD24C,0.05*%
%ADD25C,0.01*%
%FSLAX44Y44*%
G04*
G70*
G90*
G75*
G01*
%LNBottom*%
%LPD*%
X39687Y18937D2*
D10*
X37687Y20937D1*
X24437D1*
X23437Y19937D1*
Y16687D1*
X22937Y16187D1*
Y15437D1*
X39687Y15937D2*
X36187Y19437D1*
X35187D1*
X34937Y19187D1*
Y18437D1*
X39687Y17937D2*
X37187Y20437D1*
X25437D1*
X24937Y19937D1*
Y18437D1*
X39687Y19937D2*
X38187Y21437D1*
X22937D1*
X21437Y19937D1*
Y16687D1*
X20937Y16187D1*
Y15437D1*
X39687Y16937D2*
X36687Y19937D1*
X34187D1*
X33437Y19187D1*
Y17687D1*
X32937Y17187D1*
X31437D1*
X30937Y16687D1*
Y15437D1*
X40187Y19937D2*
X40937D1*
X40187Y18937D2*
X40937D1*
X40187Y17937D2*
X40937D1*
X40187Y16937D2*
X40937D1*
X40187Y15937D2*
X40937D1*
X37687Y7937D2*
X37187D1*
X36937Y8187D1*
Y13437D1*
X37187Y13687D1*
X38187D1*
X38437Y13437D1*
Y12437D1*
X40437Y10437D1*
X41437D1*
X41937Y9937D1*
X37687Y8937D2*
X40937D1*
X37687Y10937D2*
X38687D1*
X40187Y9437D1*
X41437D1*
X41937Y8937D1*
X16187Y22187D2*
Y21687D1*
X18687D1*
X19437Y22437D1*
X34937D1*
X35937Y23437D1*
Y23937D1*
X7937Y22187D2*
Y21687D1*
X10437D1*
X11687Y22937D1*
X33437D1*
X33937Y23437D1*
Y23937D1*
X35937Y18437D2*
Y17687D1*
X35062Y16812D1*
X34312D1*
X33437Y15937D1*
Y15187D1*
X33187Y14937D1*
X31437D1*
X30937Y14437D1*
X32937Y18437D2*
Y17937D1*
X32687Y17687D1*
X30187D1*
X26937Y14437D1*
X17187Y22187D2*
Y22687D1*
X34187D1*
X34937Y23437D1*
Y23937D1*
X8937Y22187D2*
Y22687D1*
X10437D1*
X10937Y23187D1*
X32687D1*
X32937Y23437D1*
Y23937D1*
D16*
X37437Y17437D3*
D17*
Y16437D3*
D16*
X27437Y17437D3*
D17*
Y16437D3*
D16*
X17437Y17437D3*
D17*
Y16437D3*
X9937Y12437D3*
D16*
Y13437D3*
D17*
X34937Y12437D3*
D16*
Y13437D3*
D18*
X5937Y5437D3*
D19*
X4937D3*
D18*
X5937Y8937D3*
D19*
X4937D3*
D18*
X5937Y12437D3*
D19*
X4937D3*
D16*
X31937Y7437D3*
X30937D3*
X29937D3*
X28937D3*
X27937D3*
X26937D3*
X25937D3*
X24937D3*
X23937D3*
X22937D3*
X21937D3*
X20937D3*
X19937D3*
X18937D3*
X17937D3*
X16937D3*
X15937D3*
X14937D3*
X13937D3*
D17*
X12937D3*
D16*
Y8437D3*
X13937D3*
X14937D3*
X15937D3*
X16937D3*
X17937D3*
X18937D3*
X19937D3*
X20937D3*
X21937D3*
X22937D3*
X23937D3*
X24937D3*
X25937D3*
X26937D3*
X27937D3*
X28937D3*
X29937D3*
X30937D3*
X31937D3*
D20*
X23937Y4937D3*
D22*
X24937D3*
X25937D3*
X26937D3*
X27937D3*
X28937D3*
X29937D3*
X30937D3*
D20*
X14937D3*
D22*
X15937D3*
X16937D3*
X17937D3*
X18937D3*
X19937D3*
X20937D3*
X21937D3*
D20*
X28937Y23937D3*
D22*
X27937D3*
X26937D3*
X25937D3*
X24937D3*
X23937D3*
X22937D3*
X21937D3*
D20*
X11337D3*
D22*
X12337D3*
X13337D3*
X14337D3*
X15337D3*
X16337D3*
X17337D3*
X18337D3*
X19337D3*
X20337D3*
D20*
X32937Y4937D3*
D22*
X33937D3*
X34937D3*
X35937D3*
X36937D3*
X37937D3*
X38937D3*
X39937D3*
D20*
X37937Y23937D3*
D22*
X36937D3*
X35937D3*
X34937D3*
X33937D3*
X32937D3*
X31937D3*
X30937D3*
D20*
X40937D3*
D22*
X41937D3*
X40937Y22937D3*
X41937D3*
X40937Y21937D3*
X41937D3*
X40937Y20937D3*
X41937D3*
X40937Y19937D3*
X41937D3*
X40937Y18937D3*
X41937D3*
X40937Y17937D3*
X41937D3*
X40937Y16937D3*
X41937D3*
X40937Y15937D3*
X41937D3*
X40937Y14937D3*
X41937D3*
X40937Y13937D3*
X41937D3*
X40937Y12937D3*
X41937D3*
X40937Y11937D3*
X41937D3*
X40937Y10937D3*
X41937D3*
X40937Y9937D3*
X41937D3*
X40937Y8937D3*
X41937D3*
X40937Y7937D3*
X41937D3*
X40937Y6937D3*
X41937D3*
D20*
X13187Y22187D3*
D22*
X14187D3*
X15187D3*
X16187D3*
X17187D3*
X18187D3*
D20*
X4937D3*
D22*
X5937D3*
X6937D3*
X7937D3*
X8937D3*
X9937D3*
D20*
X37687Y6937D3*
D22*
Y7937D3*
Y8937D3*
Y9937D3*
Y10937D3*
Y11937D3*
Y12937D3*
D16*
X32937Y14437D3*
D23*
Y10437D3*
D16*
X31937Y14437D3*
D23*
Y10437D3*
D16*
X29937Y14437D3*
D23*
Y10437D3*
D16*
X30937Y14437D3*
D23*
Y10437D3*
D16*
X28937Y14437D3*
D23*
Y10437D3*
D16*
X27937Y14437D3*
D23*
Y10437D3*
D16*
X25937Y14437D3*
D23*
Y10437D3*
D16*
X26937Y14437D3*
D23*
Y10437D3*
D16*
X24937Y14437D3*
D23*
Y10437D3*
D16*
X21937Y14437D3*
D23*
Y10437D3*
D16*
X22937Y14437D3*
D23*
Y10437D3*
D16*
X20937Y14437D3*
D23*
Y10437D3*
D16*
X19937Y14437D3*
D23*
Y10437D3*
D16*
X17937Y14437D3*
D23*
Y10437D3*
D16*
X18937Y14437D3*
D23*
Y10437D3*
D16*
X16937Y14437D3*
D23*
Y10437D3*
D16*
X15937Y14437D3*
D23*
Y10437D3*
D16*
X13937Y14437D3*
D23*
Y10437D3*
D16*
X14937Y14437D3*
D23*
Y10437D3*
D16*
X12937Y14437D3*
D23*
Y10437D3*
D16*
X11937Y14437D3*
D23*
Y10437D3*
D16*
X23937Y14437D3*
D23*
Y10437D3*
D18*
X8937Y11937D3*
D24*
Y8937D3*
D18*
X8187Y11937D3*
D24*
Y8937D3*
D18*
X7437Y11937D3*
D24*
Y8937D3*
D20*
X35937Y18437D3*
D22*
X34937D3*
X33937D3*
X32937D3*
X31937D3*
X30937D3*
X29937D3*
X28937D3*
Y15437D3*
X29937D3*
X30937D3*
X31937D3*
X32937D3*
X33937D3*
X34937D3*
X35937D3*
D20*
X25937Y18437D3*
D22*
X24937D3*
X23937D3*
X22937D3*
X21937D3*
X20937D3*
X19937D3*
X18937D3*
Y15437D3*
X19937D3*
X20937D3*
X21937D3*
X22937D3*
X23937D3*
X24937D3*
X25937D3*
D20*
X15937Y18437D3*
D22*
X14937D3*
X13937D3*
X12937D3*
X11937D3*
X10937D3*
X9937D3*
X8937D3*
Y15437D3*
X9937D3*
X10937D3*
X11937D3*
X12937D3*
X13937D3*
X14937D3*
X15937D3*
D25*
X40187Y16937D3*
X39687D3*
Y18937D3*
X40187D3*
Y15937D3*
X39687D3*
X40187Y19937D3*
X39687D3*
X40187Y17937D3*
X39687D3*
X40187Y16937D2*
D10*
X39687D1*
Y18937D2*
X40187D1*
Y15937D2*
X39687D1*
X40187Y19937D2*
X39687D1*
X40187Y17937D2*
X39687D1*
M02*
