G04 DipTrace 2.4.0.2*
%INBottomSilk.gbr*%
%MOIN*%
%ADD10C,0.01*%
%ADD53C,0.0124*%
%ADD54C,0.0154*%
%FSLAX44Y44*%
G04*
G70*
G90*
G75*
G01*
%LNBotSilk*%
%LPD*%
X3937Y21437D2*
D10*
X7937D1*
Y16437D1*
X3937D1*
Y21437D1*
Y8937D2*
X8937D1*
Y5437D1*
X3937D1*
Y8937D1*
X20237Y21125D2*
D53*
X20313Y21049D1*
X20390Y20934D1*
X20466Y20781D1*
X20504Y20589D1*
Y20436D1*
X20466Y20245D1*
X20390Y20092D1*
X20313Y19977D1*
X20237Y19901D1*
X19416Y20725D2*
X19454Y20801D1*
X19531Y20878D1*
X19607Y20916D1*
X19760D1*
X19837Y20878D1*
X19913Y20801D1*
X19951Y20725D1*
X19989Y20610D1*
Y20418D1*
X19951Y20304D1*
X19913Y20227D1*
X19837Y20151D1*
X19760Y20112D1*
X19607D1*
X19531Y20151D1*
X19454Y20227D1*
X19416Y20304D1*
X19169Y21125D2*
X19092Y21049D1*
X19016Y20934D1*
X18939Y20781D1*
X18901Y20589D1*
Y20436D1*
X18939Y20245D1*
X19016Y20092D1*
X19092Y19977D1*
X19169Y19901D1*
X18615Y20724D2*
Y20762D1*
X18577Y20839D1*
X18539Y20877D1*
X18462Y20915D1*
X18309D1*
X18233Y20877D1*
X18195Y20839D1*
X18156Y20762D1*
Y20686D1*
X18195Y20609D1*
X18271Y20495D1*
X18654Y20112D1*
X18118D1*
X17641Y20915D2*
X17756Y20877D1*
X17833Y20762D1*
X17871Y20571D1*
Y20456D1*
X17833Y20265D1*
X17756Y20150D1*
X17641Y20112D1*
X17565D1*
X17450Y20150D1*
X17374Y20265D1*
X17335Y20456D1*
Y20571D1*
X17374Y20762D1*
X17450Y20877D1*
X17565Y20915D1*
X17641D1*
X17374Y20762D2*
X17833Y20265D1*
X17088Y20762D2*
X17011Y20801D1*
X16896Y20915D1*
Y20112D1*
X16190Y20801D2*
X16228Y20877D1*
X16343Y20915D1*
X16419D1*
X16534Y20877D1*
X16611Y20762D1*
X16649Y20571D1*
Y20380D1*
X16611Y20227D1*
X16534Y20150D1*
X16419Y20112D1*
X16381D1*
X16267Y20150D1*
X16190Y20227D1*
X16152Y20342D1*
Y20380D1*
X16190Y20495D1*
X16267Y20571D1*
X16381Y20609D1*
X16419D1*
X16534Y20571D1*
X16611Y20495D1*
X16649Y20380D1*
X14514Y20112D2*
X14821Y20916D1*
X15127Y20112D1*
X15012Y20380D2*
X14629D1*
X14267Y20916D2*
Y20112D1*
X13731Y20916D2*
X14267Y20380D1*
X14076Y20572D2*
X13731Y20112D1*
X13025Y20801D2*
X13063Y20877D1*
X13178Y20915D1*
X13254D1*
X13369Y20877D1*
X13446Y20762D1*
X13484Y20571D1*
Y20380D1*
X13446Y20227D1*
X13369Y20150D1*
X13254Y20112D1*
X13216D1*
X13102Y20150D1*
X13025Y20227D1*
X12987Y20342D1*
Y20380D1*
X13025Y20495D1*
X13102Y20571D1*
X13216Y20609D1*
X13254D1*
X13369Y20571D1*
X13446Y20495D1*
X13484Y20380D1*
X12740Y20916D2*
Y20112D1*
X12472D1*
X12357Y20151D1*
X12281Y20227D1*
X12243Y20304D1*
X12204Y20418D1*
Y20610D1*
X12243Y20725D1*
X12281Y20801D1*
X12357Y20878D1*
X12472Y20916D1*
X12740D1*
X11422D2*
Y20112D1*
X11957Y20916D1*
Y20112D1*
X32705Y12696D2*
D54*
X32275D1*
X32131Y12745D1*
X32083Y12793D1*
X32035Y12888D1*
Y12984D1*
X32083Y13079D1*
X32131Y13127D1*
X32275Y13175D1*
X32705D1*
Y12170D1*
X32370Y12696D2*
X32035Y12170D1*
X31726Y13175D2*
X31057Y12170D1*
Y13175D2*
X31726Y12170D1*
X29155Y13175D2*
X29776D1*
Y12170D1*
X29155D1*
X29776Y12696D2*
X29393D1*
X28846Y12840D2*
Y12170D1*
Y12649D2*
X28702Y12793D1*
X28606Y12840D1*
X28463D1*
X28367Y12793D1*
X28320Y12649D1*
Y12170D1*
Y12649D2*
X28176Y12793D1*
X28080Y12840D1*
X27937D1*
X27841Y12793D1*
X27792Y12649D1*
Y12170D1*
X27483Y12840D2*
Y12361D1*
X27436Y12219D1*
X27340Y12170D1*
X27196D1*
X27101Y12219D1*
X26957Y12361D1*
Y12840D2*
Y12170D1*
X26649Y13175D2*
Y12170D1*
X25766Y12840D2*
Y12170D1*
Y12696D2*
X25861Y12793D1*
X25957Y12840D1*
X26100D1*
X26196Y12793D1*
X26291Y12696D1*
X26340Y12553D1*
Y12458D1*
X26291Y12314D1*
X26196Y12219D1*
X26100Y12170D1*
X25957D1*
X25861Y12219D1*
X25766Y12314D1*
X25314Y13175D2*
Y12361D1*
X25266Y12219D1*
X25170Y12170D1*
X25075D1*
X25457Y12840D2*
X25122D1*
X24527D2*
X24622Y12793D1*
X24718Y12696D1*
X24766Y12553D1*
Y12458D1*
X24718Y12314D1*
X24622Y12219D1*
X24527Y12170D1*
X24384D1*
X24287Y12219D1*
X24192Y12314D1*
X24144Y12458D1*
Y12553D1*
X24192Y12696D1*
X24287Y12793D1*
X24384Y12840D1*
X24527D1*
X23835D2*
Y12170D1*
Y12553D2*
X23786Y12696D1*
X23691Y12793D1*
X23595Y12840D1*
X23451D1*
X21501Y13031D2*
X21596Y13127D1*
X21739Y13175D1*
X21931D1*
X22074Y13127D1*
X22171Y13031D1*
Y12936D1*
X22122Y12840D1*
X22074Y12793D1*
X21979Y12745D1*
X21692Y12649D1*
X21596Y12601D1*
X21548Y12553D1*
X21501Y12458D1*
Y12314D1*
X21596Y12219D1*
X21739Y12170D1*
X21931D1*
X22074Y12219D1*
X22171Y12314D1*
X21192Y13175D2*
Y12170D1*
Y12649D2*
X21048Y12793D1*
X20952Y12840D1*
X20808D1*
X20713Y12793D1*
X20666Y12649D1*
Y12170D1*
X20357Y13175D2*
X20309Y13127D1*
X20261Y13175D1*
X20309Y13224D1*
X20357Y13175D1*
X20309Y12840D2*
Y12170D1*
X19952Y12553D2*
X19378D1*
Y12649D1*
X19426Y12745D1*
X19473Y12793D1*
X19570Y12840D1*
X19713D1*
X19808Y12793D1*
X19904Y12696D1*
X19952Y12553D1*
Y12458D1*
X19904Y12314D1*
X19808Y12219D1*
X19713Y12170D1*
X19570D1*
X19473Y12219D1*
X19378Y12314D1*
X19069Y13175D2*
Y12170D1*
X18187Y13175D2*
Y12170D1*
Y12696D2*
X18282Y12793D1*
X18378Y12840D1*
X18522D1*
X18617Y12793D1*
X18713Y12696D1*
X18761Y12553D1*
Y12458D1*
X18713Y12314D1*
X18617Y12219D1*
X18522Y12170D1*
X18378D1*
X18282Y12219D1*
X18187Y12314D1*
X16489Y12840D2*
X16202Y12170D1*
X15916Y12840D1*
X15511Y13174D2*
X14986D1*
X15272Y12791D1*
X15128D1*
X15033Y12744D1*
X14986Y12696D1*
X14937Y12553D1*
Y12458D1*
X14986Y12314D1*
X15081Y12218D1*
X15224Y12170D1*
X15368D1*
X15511Y12218D1*
X15558Y12266D1*
X15607Y12361D1*
M02*
