G04 DipTrace 2.4.0.2*
%INTopMask.gbr*%
%MOIN*%
%ADD26C,0.125*%
%ADD32C,0.018*%
%ADD34C,0.058*%
%ADD36C,0.068*%
%ADD38C,0.0671*%
%ADD42R,0.0671X0.0671*%
%ADD44R,0.058X0.058*%
%ADD46C,0.058*%
%ADD48R,0.068X0.068*%
%ADD50C,0.068*%
%FSLAX44Y44*%
G04*
G70*
G90*
G75*
G01*
%LNTopMask*%
%LPD*%
D50*
X37437Y17437D3*
D48*
Y16437D3*
D50*
X27437Y17437D3*
D48*
Y16437D3*
D50*
X17437Y17437D3*
D48*
Y16437D3*
X9937Y12437D3*
D50*
Y13437D3*
D48*
X34937Y12437D3*
D50*
Y13437D3*
D46*
X5937Y5437D3*
D44*
X4937D3*
D46*
X5937Y8937D3*
D44*
X4937D3*
D46*
X5937Y12437D3*
D44*
X4937D3*
D50*
X31937Y7437D3*
X30937D3*
X29937D3*
X28937D3*
X27937D3*
X26937D3*
X25937D3*
X24937D3*
X23937D3*
X22937D3*
X21937D3*
X20937D3*
X19937D3*
X18937D3*
X17937D3*
X16937D3*
X15937D3*
X14937D3*
X13937D3*
D48*
X12937D3*
D50*
Y8437D3*
X13937D3*
X14937D3*
X15937D3*
X16937D3*
X17937D3*
X18937D3*
X19937D3*
X20937D3*
X21937D3*
X22937D3*
X23937D3*
X24937D3*
X25937D3*
X26937D3*
X27937D3*
X28937D3*
X29937D3*
X30937D3*
X31937D3*
D42*
X23937Y4937D3*
D38*
X24937D3*
X25937D3*
X26937D3*
X27937D3*
X28937D3*
X29937D3*
X30937D3*
D42*
X14937D3*
D38*
X15937D3*
X16937D3*
X17937D3*
X18937D3*
X19937D3*
X20937D3*
X21937D3*
D42*
X28937Y23937D3*
D38*
X27937D3*
X26937D3*
X25937D3*
X24937D3*
X23937D3*
X22937D3*
X21937D3*
D42*
X11337D3*
D38*
X12337D3*
X13337D3*
X14337D3*
X15337D3*
X16337D3*
X17337D3*
X18337D3*
X19337D3*
X20337D3*
D42*
X32937Y4937D3*
D38*
X33937D3*
X34937D3*
X35937D3*
X36937D3*
X37937D3*
X38937D3*
X39937D3*
D42*
X37937Y23937D3*
D38*
X36937D3*
X35937D3*
X34937D3*
X33937D3*
X32937D3*
X31937D3*
X30937D3*
D42*
X40937D3*
D38*
X41937D3*
X40937Y22937D3*
X41937D3*
X40937Y21937D3*
X41937D3*
X40937Y20937D3*
X41937D3*
X40937Y19937D3*
X41937D3*
X40937Y18937D3*
X41937D3*
X40937Y17937D3*
X41937D3*
X40937Y16937D3*
X41937D3*
X40937Y15937D3*
X41937D3*
X40937Y14937D3*
X41937D3*
X40937Y13937D3*
X41937D3*
X40937Y12937D3*
X41937D3*
X40937Y11937D3*
X41937D3*
X40937Y10937D3*
X41937D3*
X40937Y9937D3*
X41937D3*
X40937Y8937D3*
X41937D3*
X40937Y7937D3*
X41937D3*
X40937Y6937D3*
X41937D3*
D42*
X13187Y22187D3*
D38*
X14187D3*
X15187D3*
X16187D3*
X17187D3*
X18187D3*
D42*
X4937D3*
D38*
X5937D3*
X6937D3*
X7937D3*
X8937D3*
X9937D3*
D42*
X37687Y6937D3*
D38*
Y7937D3*
Y8937D3*
Y9937D3*
Y10937D3*
Y11937D3*
Y12937D3*
D50*
X32937Y14437D3*
D36*
Y10437D3*
D50*
X31937Y14437D3*
D36*
Y10437D3*
D50*
X29937Y14437D3*
D36*
Y10437D3*
D50*
X30937Y14437D3*
D36*
Y10437D3*
D50*
X28937Y14437D3*
D36*
Y10437D3*
D50*
X27937Y14437D3*
D36*
Y10437D3*
D50*
X25937Y14437D3*
D36*
Y10437D3*
D50*
X26937Y14437D3*
D36*
Y10437D3*
D50*
X24937Y14437D3*
D36*
Y10437D3*
D50*
X21937Y14437D3*
D36*
Y10437D3*
D50*
X22937Y14437D3*
D36*
Y10437D3*
D50*
X20937Y14437D3*
D36*
Y10437D3*
D50*
X19937Y14437D3*
D36*
Y10437D3*
D50*
X17937Y14437D3*
D36*
Y10437D3*
D50*
X18937Y14437D3*
D36*
Y10437D3*
D50*
X16937Y14437D3*
D36*
Y10437D3*
D50*
X15937Y14437D3*
D36*
Y10437D3*
D50*
X13937Y14437D3*
D36*
Y10437D3*
D50*
X14937Y14437D3*
D36*
Y10437D3*
D50*
X12937Y14437D3*
D36*
Y10437D3*
D50*
X11937Y14437D3*
D36*
Y10437D3*
D50*
X23937Y14437D3*
D36*
Y10437D3*
D46*
X8937Y11937D3*
D34*
Y8937D3*
D46*
X8187Y11937D3*
D34*
Y8937D3*
D46*
X7437Y11937D3*
D34*
Y8937D3*
D42*
X35937Y18437D3*
D38*
X34937D3*
X33937D3*
X32937D3*
X31937D3*
X30937D3*
X29937D3*
X28937D3*
Y15437D3*
X29937D3*
X30937D3*
X31937D3*
X32937D3*
X33937D3*
X34937D3*
X35937D3*
D42*
X25937Y18437D3*
D38*
X24937D3*
X23937D3*
X22937D3*
X21937D3*
X20937D3*
X19937D3*
X18937D3*
Y15437D3*
X19937D3*
X20937D3*
X21937D3*
X22937D3*
X23937D3*
X24937D3*
X25937D3*
D42*
X15937Y18437D3*
D38*
X14937D3*
X13937D3*
X12937D3*
X11937D3*
X10937D3*
X9937D3*
X8937D3*
Y15437D3*
X9937D3*
X10937D3*
X11937D3*
X12937D3*
X13937D3*
X14937D3*
X15937D3*
D32*
X39937Y16437D3*
X40437D3*
X39937Y18437D3*
X40437D3*
X12437Y18937D3*
Y19437D3*
X11437Y18937D3*
Y19437D3*
X40437Y20437D3*
X39937D3*
X40437Y17437D3*
X39937D3*
X40437Y19437D3*
X39937D3*
D26*
X9437Y4937D3*
X9937Y23937D3*
X39437D3*
X41937Y4937D3*
M02*
