M48
INCH
T01C0.022
T02C0.028
T03C0.0354
T04C0.038
T05C0.125
%
T01
X+008937Y+011937
X+008187Y+011937
X+007437Y+011937
X+007437Y+008937
X+008187Y+008937
X+008937Y+008937
T02
X+005937Y+005437
X+004937Y+005437
X+004937Y+008937
X+005937Y+008937
X+005937Y+012437
X+004937Y+012437
T03
X+023937Y+004937
X+024937Y+004937
X+025937Y+004937
X+026937Y+004937
X+027937Y+004937
X+028937Y+004937
X+029937Y+004937
X+030937Y+004937
X+032937Y+004937
X+033937Y+004937
X+034937Y+004937
X+035937Y+004937
X+036937Y+004937
X+037937Y+004937
X+038937Y+004937
X+039937Y+004937
X+040937Y+006937
X+041937Y+006937
X+041937Y+007937
X+041937Y+008937
X+041937Y+009937
X+041937Y+010937
X+041937Y+011937
X+041937Y+012937
X+041937Y+013937
X+041937Y+014937
X+041937Y+015937
X+041937Y+016937
X+041937Y+017937
X+041937Y+018937
X+041937Y+019937
X+041937Y+020937
X+041937Y+021937
X+041937Y+022937
X+040937Y+022937
X+040937Y+021937
X+040937Y+020937
X+040937Y+019937
X+040937Y+018937
X+040937Y+017937
X+040937Y+016937
X+040937Y+015937
X+040937Y+014937
X+040937Y+013937
X+040937Y+012937
X+040937Y+011937
X+040937Y+010937
X+040937Y+009937
X+040937Y+008937
X+040937Y+007937
X+037687Y+007937
X+037687Y+006937
X+037687Y+008937
X+037687Y+009937
X+037687Y+010937
X+037687Y+011937
X+037687Y+012937
X+035937Y+015437
X+034937Y+015437
X+033937Y+015437
X+032937Y+015437
X+031937Y+015437
X+030937Y+015437
X+029937Y+015437
X+028937Y+015437
X+025937Y+015437
X+024937Y+015437
X+023937Y+015437
X+022937Y+015437
X+021937Y+015437
X+020937Y+015437
X+019937Y+015437
X+018937Y+015437
X+018937Y+018437
X+019937Y+018437
X+020937Y+018437
X+021937Y+018437
X+022937Y+018437
X+023937Y+018437
X+024937Y+018437
X+025937Y+018437
X+028937Y+018437
X+029937Y+018437
X+030937Y+018437
X+031937Y+018437
X+032937Y+018437
X+033937Y+018437
X+034937Y+018437
X+035937Y+018437
X+035937Y+023937
X+036937Y+023937
X+037937Y+023937
X+034937Y+023937
X+033937Y+023937
X+032937Y+023937
X+031937Y+023937
X+030937Y+023937
X+028937Y+023937
X+027937Y+023937
X+026937Y+023937
X+025937Y+023937
X+024937Y+023937
X+023937Y+023937
X+022937Y+023937
X+021937Y+023937
X+020337Y+023937
X+019337Y+023937
X+018337Y+023937
X+017337Y+023937
X+016337Y+023937
X+015337Y+023937
X+014337Y+023937
X+013337Y+023937
X+012337Y+023937
X+011337Y+023937
X+009937Y+022187
X+008937Y+022187
X+007937Y+022187
X+006937Y+022187
X+005937Y+022187
X+004937Y+022187
X+008937Y+018437
X+009937Y+018437
X+010937Y+018437
X+011937Y+018437
X+012937Y+018437
X+013937Y+018437
X+014937Y+018437
X+015937Y+018437
X+015937Y+015437
X+014937Y+015437
X+013937Y+015437
X+012937Y+015437
X+011937Y+015437
X+010937Y+015437
X+009937Y+015437
X+008937Y+015437
X+013187Y+022187
X+014187Y+022187
X+015187Y+022187
X+016187Y+022187
X+017187Y+022187
X+018187Y+022187
X+017937Y+004937
X+016937Y+004937
X+015937Y+004937
X+014937Y+004937
X+018937Y+004937
X+019937Y+004937
X+020937Y+004937
X+021937Y+004937
X+040937Y+023937
X+041937Y+023937
T04
X+037437Y+017437
X+037437Y+016437
X+034937Y+013437
X+034937Y+012437
X+032937Y+014437
X+031937Y+014437
X+030937Y+014437
X+029937Y+014437
X+028937Y+014437
X+027937Y+014437
X+026937Y+014437
X+025937Y+014437
X+024937Y+014437
X+023937Y+014437
X+022937Y+014437
X+021937Y+014437
X+020937Y+014437
X+019937Y+014437
X+018937Y+014437
X+017937Y+014437
X+016937Y+014437
X+015937Y+014437
X+014937Y+014437
X+013937Y+014437
X+012937Y+014437
X+011937Y+014437
X+009937Y+013437
X+009937Y+012437
X+011937Y+010437
X+012937Y+010437
X+013937Y+010437
X+014937Y+010437
X+015937Y+010437
X+016937Y+010437
X+017937Y+010437
X+018937Y+010437
X+019937Y+010437
X+020937Y+010437
X+021937Y+010437
X+022937Y+010437
X+023937Y+010437
X+024937Y+010437
X+025937Y+010437
X+026937Y+010437
X+027937Y+010437
X+028937Y+010437
X+029937Y+010437
X+030937Y+010437
X+031937Y+010437
X+032937Y+010437
X+031937Y+008437
X+030937Y+008437
X+030937Y+007437
X+031937Y+007437
X+029937Y+007437
X+028937Y+007437
X+028937Y+008437
X+029937Y+008437
X+027937Y+008437
X+026937Y+008437
X+025937Y+008437
X+024937Y+008437
X+023937Y+008437
X+022937Y+008437
X+021937Y+008437
X+020937Y+008437
X+019937Y+008437
X+018937Y+008437
X+017937Y+008437
X+016937Y+008437
X+015937Y+008437
X+014937Y+008437
X+014937Y+007437
X+015937Y+007437
X+016937Y+007437
X+017937Y+007437
X+018937Y+007437
X+019937Y+007437
X+020937Y+007437
X+021937Y+007437
X+022937Y+007437
X+023937Y+007437
X+024937Y+007437
X+025937Y+007437
X+026937Y+007437
X+027937Y+007437
X+027437Y+016437
X+027437Y+017437
X+017437Y+017437
X+017437Y+016437
X+013937Y+008437
X+012937Y+008437
X+012937Y+007437
X+013937Y+007437
T05
X+009437Y+004937
X+009937Y+023937
X+039437Y+023937
X+041937Y+004937
T00
M30
