G04 DipTrace 4.3.0.2*
G04 TopMask.gbr*
%MOIN*%
G04 #@! TF.FileFunction,Soldermask,Top*
G04 #@! TF.Part,Single*
%ADD30C,0.125*%
%ADD41C,0.054*%
%ADD43C,0.064*%
%ADD45C,0.051244*%
%ADD49R,0.051244X0.051244*%
%ADD51C,0.063055*%
%ADD55R,0.063055X0.063055*%
%ADD57R,0.054X0.054*%
%ADD59C,0.054*%
%ADD61R,0.064X0.064*%
%ADD63C,0.064*%
%FSLAX26Y26*%
G04*
G70*
G90*
G75*
G01*
G04 TopMask*
%LPD*%
D63*
X3300000Y1500000D3*
D61*
Y1400000D3*
D63*
X2300000Y1500000D3*
D61*
Y1400000D3*
D63*
X625000Y1550000D3*
D61*
Y1450000D3*
X600000Y900000D3*
D63*
Y1000000D3*
D61*
X3100000Y900000D3*
D63*
Y1000000D3*
D59*
X200000Y150000D3*
D57*
X100000D3*
D59*
X200000Y500000D3*
D57*
X100000D3*
D59*
X200000Y850000D3*
D57*
X100000D3*
D30*
X600000Y2000000D3*
X550000Y100000D3*
X3550000Y2000000D3*
X3800000Y100000D3*
D63*
X2800000Y350000D3*
X2700000D3*
X2600000D3*
X2500000D3*
X2400000D3*
X2300000D3*
X2200000D3*
X2100000D3*
X2000000D3*
X1900000D3*
X1800000D3*
X1700000D3*
X1600000D3*
X1500000D3*
X1400000D3*
X1300000D3*
X1200000D3*
X1100000D3*
X1000000D3*
D61*
X900000D3*
D63*
Y450000D3*
X1000000D3*
X1100000D3*
X1200000D3*
X1300000D3*
X1400000D3*
X1500000D3*
X1600000D3*
X1700000D3*
X1800000D3*
X1900000D3*
X2000000D3*
X2100000D3*
X2200000D3*
X2300000D3*
X2400000D3*
X2500000D3*
X2600000D3*
X2700000D3*
X2800000D3*
D55*
X2000000Y100000D3*
D51*
X2100000D3*
X2200000D3*
X2300000D3*
X2400000D3*
X2500000D3*
X2600000D3*
X2700000D3*
D55*
X1100000D3*
D51*
X1200000D3*
X1300000D3*
X1400000D3*
X1500000D3*
X1600000D3*
X1700000D3*
X1800000D3*
D55*
X2500000Y2000000D3*
D51*
X2400000D3*
X2300000D3*
X2200000D3*
X2100000D3*
X2000000D3*
X1900000D3*
X1800000D3*
D55*
X740000D3*
D51*
X840000D3*
X940000D3*
X1040000D3*
X1140000D3*
X1240000D3*
X1340000D3*
X1440000D3*
X1540000D3*
X1640000D3*
D55*
X2900000Y100000D3*
D51*
X3000000D3*
X3100000D3*
X3200000D3*
X3300000D3*
X3400000D3*
X3500000D3*
X3600000D3*
D55*
X3400000Y2000000D3*
D51*
X3300000D3*
X3200000D3*
X3100000D3*
X3000000D3*
X2900000D3*
X2800000D3*
X2700000D3*
D55*
X3700000D3*
D51*
X3800000D3*
X3700000Y1900000D3*
X3800000D3*
X3700000Y1800000D3*
X3800000D3*
X3700000Y1700000D3*
X3800000D3*
X3700000Y1600000D3*
X3800000D3*
X3700000Y1500000D3*
X3800000D3*
X3700000Y1400000D3*
X3800000D3*
X3700000Y1300000D3*
X3800000D3*
X3700000Y1200000D3*
X3800000D3*
X3700000Y1100000D3*
X3800000D3*
X3700000Y1000000D3*
X3800000D3*
X3700000Y900000D3*
X3800000D3*
X3700000Y800000D3*
X3800000D3*
X3700000Y700000D3*
X3800000D3*
X3700000Y600000D3*
X3800000D3*
X3700000Y500000D3*
X3800000D3*
X3700000Y400000D3*
X3800000D3*
X3700000Y300000D3*
X3800000D3*
D55*
X100000Y1175000D3*
D51*
X200000D3*
X300000D3*
X400000D3*
X500000D3*
X600000D3*
D55*
X100000Y1825000D3*
D51*
X200000D3*
X300000D3*
X400000D3*
X500000D3*
X600000D3*
D55*
X3375000Y300000D3*
D51*
Y400000D3*
Y500000D3*
Y600000D3*
Y700000D3*
Y800000D3*
Y900000D3*
D49*
X1775000Y1250000D3*
D45*
X1825000Y1300000D3*
X1775000Y1350000D3*
D49*
X1975000Y1250000D3*
D45*
X2025000Y1300000D3*
X1975000Y1350000D3*
D49*
X1575000Y1250000D3*
D45*
X1625000Y1300000D3*
X1575000Y1350000D3*
D49*
X1175000Y1250000D3*
D45*
X1225000Y1300000D3*
X1175000Y1350000D3*
D49*
X1375000Y1250000D3*
D45*
X1425000Y1300000D3*
X1375000Y1350000D3*
D49*
X975000Y1250000D3*
D45*
X1025000Y1300000D3*
X975000Y1350000D3*
D49*
X775000Y1250000D3*
D45*
X825000Y1300000D3*
X775000Y1350000D3*
D63*
X2900000Y1050000D3*
D43*
Y650000D3*
D63*
X2800000Y1050000D3*
D43*
Y650000D3*
D63*
X2600000Y1050000D3*
D43*
Y650000D3*
D63*
X2700000Y1050000D3*
D43*
Y650000D3*
D63*
X2500000Y1050000D3*
D43*
Y650000D3*
D63*
X2400000Y1050000D3*
D43*
Y650000D3*
D63*
X2200000Y1050000D3*
D43*
Y650000D3*
D63*
X2300000Y1050000D3*
D43*
Y650000D3*
D63*
X2100000Y1050000D3*
D43*
Y650000D3*
D63*
X1800000Y1050000D3*
D43*
Y650000D3*
D63*
X1900000Y1050000D3*
D43*
Y650000D3*
D63*
X1700000Y1050000D3*
D43*
Y650000D3*
D63*
X1600000Y1050000D3*
D43*
Y650000D3*
D63*
X1400000Y1050000D3*
D43*
Y650000D3*
D63*
X1500000Y1050000D3*
D43*
Y650000D3*
D63*
X1300000Y1050000D3*
D43*
Y650000D3*
D63*
X1200000Y1050000D3*
D43*
Y650000D3*
D63*
X1000000Y1050000D3*
D43*
Y650000D3*
D63*
X1100000Y1050000D3*
D43*
Y650000D3*
D63*
X900000Y1050000D3*
D43*
Y650000D3*
D63*
X800000Y1050000D3*
D43*
Y650000D3*
D63*
X2000000Y1050000D3*
D43*
Y650000D3*
D59*
X500000Y850000D3*
D41*
Y550000D3*
D59*
X425000Y850000D3*
D41*
Y550000D3*
D59*
X350000Y850000D3*
D41*
Y550000D3*
D55*
X3100000Y1600000D3*
D51*
X3000000D3*
X2900000D3*
X2800000D3*
X2700000D3*
X2600000D3*
X2500000D3*
Y1300000D3*
X2600000D3*
X2700000D3*
X2800000D3*
X2900000D3*
X3000000D3*
X3100000D3*
M02*
