M48
INCH
T01C0.022
T02C0.028
T03C0.0354
T04C0.038
T05C0.125
%
T01
X+005000Y+008000
X+004250Y+008000
X+003500Y+008000
X+003500Y+005000
X+004250Y+005000
X+005000Y+005000
T02
X+002000Y+001500
X+001000Y+001500
X+001000Y+005000
X+002000Y+005000
X+002000Y+008500
X+001000Y+008500
T03
X+020000Y+001000
X+021000Y+001000
X+022000Y+001000
X+023000Y+001000
X+024000Y+001000
X+025000Y+001000
X+026000Y+001000
X+027000Y+001000
X+029000Y+001000
X+030000Y+001000
X+031000Y+001000
X+032000Y+001000
X+033000Y+001000
X+034000Y+001000
X+035000Y+001000
X+036000Y+001000
X+037000Y+003000
X+038000Y+003000
X+038000Y+004000
X+038000Y+005000
X+038000Y+006000
X+037000Y+006000
X+037000Y+005000
X+037000Y+004000
X+037000Y+007000
X+038000Y+007000
X+038000Y+008000
X+038000Y+009000
X+037000Y+009000
X+037000Y+008000
X+037000Y+010000
X+037000Y+011000
X+037000Y+012000
X+037000Y+013000
X+038000Y+013000
X+038000Y+012000
X+038000Y+011000
X+038000Y+010000
X+038000Y+014000
X+038000Y+015000
X+038000Y+016000
X+037000Y+016000
X+037000Y+015000
X+037000Y+014000
X+037000Y+017000
X+037000Y+018000
X+037000Y+019000
X+038000Y+019000
X+038000Y+018000
X+038000Y+017000
X+038000Y+020000
X+037000Y+020000
X+034000Y+020000
X+033000Y+020000
X+032000Y+020000
X+031000Y+020000
X+030000Y+020000
X+029000Y+020000
X+028000Y+020000
X+027000Y+020000
X+025000Y+020000
X+024000Y+020000
X+023000Y+020000
X+022000Y+020000
X+021000Y+020000
X+020000Y+020000
X+019000Y+020000
X+018000Y+020000
X+016400Y+020000
X+015400Y+020000
X+014400Y+020000
X+013400Y+020000
X+012400Y+020000
X+011400Y+020000
X+010400Y+020000
X+009400Y+020000
X+008400Y+020000
X+007400Y+020000
X+006000Y+018250
X+005000Y+018250
X+004000Y+018250
X+003000Y+018250
X+002000Y+018250
X+001000Y+018250
X+005000Y+014500
X+006000Y+014500
X+007000Y+014500
X+008000Y+014500
X+009000Y+014500
X+010000Y+014500
X+011000Y+014500
X+012000Y+014500
X+012000Y+011500
X+011000Y+011500
X+010000Y+011500
X+009000Y+011500
X+008000Y+011500
X+007000Y+011500
X+006000Y+011500
X+005000Y+011500
X+009250Y+018250
X+010250Y+018250
X+011250Y+018250
X+012250Y+018250
X+013250Y+018250
X+014250Y+018250
X+015000Y+014500
X+016000Y+014500
X+017000Y+014500
X+018000Y+014500
X+019000Y+014500
X+020000Y+014500
X+021000Y+014500
X+022000Y+014500
X+022000Y+011500
X+021000Y+011500
X+020000Y+011500
X+019000Y+011500
X+018000Y+011500
X+017000Y+011500
X+016000Y+011500
X+015000Y+011500
X+025000Y+011500
X+026000Y+011500
X+027000Y+011500
X+028000Y+011500
X+029000Y+011500
X+030000Y+011500
X+031000Y+011500
X+032000Y+011500
X+032000Y+014500
X+031000Y+014500
X+030000Y+014500
X+029000Y+014500
X+028000Y+014500
X+027000Y+014500
X+026000Y+014500
X+025000Y+014500
X+033750Y+009000
X+033750Y+008000
X+033750Y+007000
X+033750Y+006000
X+033750Y+005000
X+033750Y+004000
X+033750Y+003000
X+018000Y+001000
X+017000Y+001000
X+016000Y+001000
X+015000Y+001000
X+014000Y+001000
X+013000Y+001000
X+012000Y+001000
X+011000Y+001000
T04
X+033500Y+013500
X+033500Y+012500
X+031000Y+009500
X+031000Y+008500
X+029000Y+010500
X+028000Y+010500
X+027000Y+010500
X+026000Y+010500
X+025000Y+010500
X+024000Y+010500
X+023000Y+010500
X+022000Y+010500
X+021000Y+010500
X+020000Y+010500
X+019000Y+010500
X+018000Y+010500
X+017000Y+010500
X+016000Y+010500
X+015000Y+010500
X+014000Y+010500
X+013000Y+010500
X+012000Y+010500
X+011000Y+010500
X+010000Y+010500
X+009000Y+010500
X+008000Y+010500
X+006000Y+009500
X+006000Y+008500
X+008000Y+006500
X+009000Y+006500
X+010000Y+006500
X+011000Y+006500
X+012000Y+006500
X+013000Y+006500
X+014000Y+006500
X+015000Y+006500
X+016000Y+006500
X+017000Y+006500
X+018000Y+006500
X+019000Y+006500
X+020000Y+006500
X+021000Y+006500
X+022000Y+006500
X+023000Y+006500
X+024000Y+006500
X+025000Y+006500
X+026000Y+006500
X+027000Y+006500
X+028000Y+006500
X+029000Y+006500
X+028000Y+004500
X+028000Y+003500
X+027000Y+003500
X+027000Y+004500
X+026000Y+004500
X+025000Y+004500
X+024000Y+004500
X+024000Y+003500
X+025000Y+003500
X+026000Y+003500
X+023000Y+003500
X+022000Y+003500
X+022000Y+004500
X+021000Y+004500
X+021000Y+003500
X+020000Y+003500
X+020000Y+004500
X+019000Y+004500
X+018000Y+004500
X+017000Y+004500
X+017000Y+003500
X+018000Y+003500
X+019000Y+003500
X+016000Y+003500
X+015000Y+003500
X+014000Y+003500
X+014000Y+004500
X+015000Y+004500
X+016000Y+004500
X+013000Y+004500
X+013000Y+003500
X+012000Y+003500
X+012000Y+004500
X+011000Y+004500
X+011000Y+003500
X+010000Y+003500
X+009000Y+003500
X+009000Y+004500
X+010000Y+004500
X+013500Y+012500
X+013500Y+013500
X+023500Y+013500
X+023500Y+012500
X+023000Y+004500
T05
X+006000Y+020000
X+005500Y+001000
X+038000Y+001000
X+035500Y+020000
T00
M30
