G04 DipTrace 4.3.0.2*
G04 1 - Top.gbr*
%MOIN*%
G04 #@! TF.FileFunction,Copper,L1,Top*
G04 #@! TF.Part,Single*
G04 #@! TA.AperFunction,Conductor*
%ADD10C,0.01*%
G04 #@! TA.AperFunction,ComponentPad*
%ADD17C,0.06*%
%ADD18R,0.06X0.06*%
%ADD19C,0.05*%
%ADD20R,0.05X0.05*%
%ADD21R,0.059055X0.059055*%
%ADD23C,0.059055*%
%ADD24C,0.06*%
%ADD25C,0.05*%
%FSLAX26Y26*%
G04*
G70*
G90*
G75*
G01*
G04 Top*
%LPD*%
X600000Y1150000D2*
D10*
Y1225000D1*
X750000Y1375000D1*
Y1625000D1*
X837500Y1712500D1*
X1537500D1*
X1712500Y1887500D1*
Y2012500D1*
X1762500Y2062500D1*
X2237500D1*
X2300000Y2000000D1*
X900000Y1150000D2*
Y1225000D1*
X850000Y1275000D1*
Y1600000D1*
X912500Y1662500D1*
X1562500D1*
X1837500Y1937500D1*
X2137500D1*
X2200000Y2000000D1*
X500000Y800000D2*
Y1025000D1*
X550000Y1075000D1*
Y1275000D1*
X650000Y1375000D1*
Y1600000D1*
X812500Y1762500D1*
X1462500D1*
X1487500Y1787500D1*
Y1887500D1*
X1440000Y1935000D1*
Y2000000D1*
X425000Y800000D2*
Y850000D1*
X450000Y875000D1*
Y1275000D1*
X550000Y1375000D1*
Y1575000D1*
X862500Y1887500D1*
X1287500D1*
X1340000Y1940000D1*
Y2000000D1*
X350000Y800000D2*
Y875000D1*
X400000Y925000D1*
Y1500000D1*
X825000Y1925000D1*
X1225000D1*
X1240000Y1940000D1*
Y2000000D1*
X1100000Y1450000D2*
Y1550000D1*
X1162500Y1612500D1*
X1587500D1*
X1750000Y1775000D1*
X3512500D1*
X3637500Y1650000D1*
X3750000D1*
X3800000Y1600000D1*
Y1500000D2*
X3750000Y1550000D1*
X3637500D1*
X3462500Y1725000D1*
X1862500D1*
X1800000Y1662500D1*
Y1450000D1*
X3800000Y1400000D2*
X3750000Y1450000D1*
X3637500D1*
X3412500Y1675000D1*
X2050000D1*
X2000000Y1625000D1*
Y1450000D1*
X3800000Y1300000D2*
X3750000Y1350000D1*
X3637500D1*
X3362500Y1625000D1*
X2837500D1*
X2800000Y1587500D1*
Y1450000D1*
X3800000Y1200000D2*
X3750000Y1250000D1*
X3637500D1*
X3312500Y1575000D1*
X3087500D1*
X3050000Y1537500D1*
Y1387500D1*
X2900000Y1237500D1*
Y1150000D1*
X3375000Y600000D2*
X3437500D1*
X3637500Y400000D1*
X3700000D1*
X3375000Y800000D2*
X3512500D1*
X3600000Y712500D1*
Y512500D1*
X3662500Y450000D1*
X3750000D1*
X3800000Y400000D1*
X500000Y500000D2*
Y450000D1*
X200000Y150000D1*
X350000Y500000D2*
Y600000D1*
X200000Y750000D1*
Y850000D1*
X425000Y500000D2*
Y450000D1*
X400000Y425000D1*
X275000D1*
X200000Y500000D1*
X2000000Y1050000D2*
Y875000D1*
X2100000Y775000D1*
Y650000D1*
Y1150000D2*
X2000000Y1050000D1*
X2100000Y650000D2*
Y600000D1*
X2200000Y500000D1*
Y450000D1*
X2700000Y1050000D2*
Y875000D1*
X2600000Y775000D1*
Y650000D1*
Y600000D1*
X2700000Y500000D1*
Y450000D1*
X1900000Y1050000D2*
Y875000D1*
X1800000Y775000D1*
Y650000D1*
X2200000Y1450000D2*
Y1375000D1*
X2050000Y1225000D1*
X1975000D1*
X1950000Y1200000D1*
Y1100000D1*
X1900000Y1050000D1*
X1800000Y650000D2*
Y600000D1*
X1850000Y550000D1*
X1950000D1*
X2000000Y500000D1*
Y450000D1*
X2800000Y1050000D2*
Y875000D1*
X2900000Y775000D1*
Y650000D1*
X2800000Y1050000D2*
X2850000Y1100000D1*
X3050000D1*
X3100000Y1150000D1*
X2900000Y650000D2*
Y600000D1*
X2800000Y500000D1*
Y450000D1*
X1600000Y1050000D2*
Y875000D1*
X1700000Y775000D1*
Y650000D1*
X1800000Y1150000D2*
X1750000Y1100000D1*
X1650000D1*
X1600000Y1050000D1*
X1700000Y650000D2*
Y600000D1*
X1800000Y500000D1*
Y450000D1*
X1000000Y650000D2*
Y775000D1*
X1100000Y875000D1*
Y1050000D1*
X1050000Y1100000D1*
Y1225000D1*
X1200000Y1375000D1*
Y1450000D1*
X1000000Y650000D2*
Y600000D1*
X1050000Y550000D1*
X1150000D1*
X1200000Y500000D1*
Y450000D1*
X1100000Y1150000D2*
X1200000Y1050000D1*
Y875000D1*
X1300000Y775000D1*
Y650000D1*
Y600000D1*
X1400000Y500000D1*
Y450000D1*
X2400000Y1050000D2*
Y875000D1*
X2500000Y775000D1*
Y650000D1*
X2800000Y1150000D2*
X2775000D1*
X2800000Y1175000D1*
Y1200000D1*
X2775000Y1225000D1*
X2450000D1*
X2400000Y1175000D1*
Y1050000D1*
X2500000Y650000D2*
Y600000D1*
X2600000Y500000D1*
Y450000D1*
X900000Y650000D2*
Y775000D1*
X800000Y875000D1*
Y1050000D1*
Y1150000D1*
X900000Y650000D2*
Y600000D1*
X1000000Y500000D1*
Y450000D1*
X2300000Y1050000D2*
Y875000D1*
X2200000Y775000D1*
Y650000D1*
Y600000D1*
X2250000Y550000D1*
X2350000D1*
X2400000Y500000D1*
Y450000D1*
X1400000Y650000D2*
Y775000D1*
X1500000Y875000D1*
Y1050000D1*
X1900000Y1450000D2*
Y1400000D1*
X1875000Y1375000D1*
X1700000D1*
X1550000Y1225000D1*
Y1100000D1*
X1500000Y1050000D1*
X1400000Y650000D2*
Y600000D1*
X1450000Y550000D1*
X1550000D1*
X1600000Y500000D1*
Y450000D1*
D17*
X3350000Y1350000D3*
D18*
Y1250000D3*
D17*
X2350000Y1350000D3*
D18*
Y1250000D3*
D17*
X1350000Y1350000D3*
D18*
Y1250000D3*
X600000Y850000D3*
D17*
Y950000D3*
D18*
X3100000Y850000D3*
D17*
Y950000D3*
D19*
X200000Y150000D3*
D20*
X100000D3*
D19*
X200000Y500000D3*
D20*
X100000D3*
D19*
X200000Y850000D3*
D20*
X100000D3*
D17*
X2800000Y350000D3*
X2700000D3*
X2600000D3*
X2500000D3*
X2400000D3*
X2300000D3*
X2200000D3*
X2100000D3*
X2000000D3*
X1900000D3*
X1800000D3*
X1700000D3*
X1600000D3*
X1500000D3*
X1400000D3*
X1300000D3*
X1200000D3*
X1100000D3*
X1000000D3*
D18*
X900000D3*
D17*
Y450000D3*
X1000000D3*
X1100000D3*
X1200000D3*
X1300000D3*
X1400000D3*
X1500000D3*
X1600000D3*
X1700000D3*
X1800000D3*
X1900000D3*
X2000000D3*
X2100000D3*
X2200000D3*
X2300000D3*
X2400000D3*
X2500000D3*
X2600000D3*
X2700000D3*
X2800000D3*
D21*
X2000000Y100000D3*
D23*
X2100000D3*
X2200000D3*
X2300000D3*
X2400000D3*
X2500000D3*
X2600000D3*
X2700000D3*
D21*
X1100000D3*
D23*
X1200000D3*
X1300000D3*
X1400000D3*
X1500000D3*
X1600000D3*
X1700000D3*
X1800000D3*
D21*
X2500000Y2000000D3*
D23*
X2400000D3*
X2300000D3*
X2200000D3*
X2100000D3*
X2000000D3*
X1900000D3*
X1800000D3*
D21*
X740000D3*
D23*
X840000D3*
X940000D3*
X1040000D3*
X1140000D3*
X1240000D3*
X1340000D3*
X1440000D3*
X1540000D3*
X1640000D3*
D21*
X2900000Y100000D3*
D23*
X3000000D3*
X3100000D3*
X3200000D3*
X3300000D3*
X3400000D3*
X3500000D3*
X3600000D3*
D21*
X3400000Y2000000D3*
D23*
X3300000D3*
X3200000D3*
X3100000D3*
X3000000D3*
X2900000D3*
X2800000D3*
X2700000D3*
D21*
X3700000D3*
D23*
X3800000D3*
X3700000Y1900000D3*
X3800000D3*
X3700000Y1800000D3*
X3800000D3*
X3700000Y1700000D3*
X3800000D3*
X3700000Y1600000D3*
X3800000D3*
X3700000Y1500000D3*
X3800000D3*
X3700000Y1400000D3*
X3800000D3*
X3700000Y1300000D3*
X3800000D3*
X3700000Y1200000D3*
X3800000D3*
X3700000Y1100000D3*
X3800000D3*
X3700000Y1000000D3*
X3800000D3*
X3700000Y900000D3*
X3800000D3*
X3700000Y800000D3*
X3800000D3*
X3700000Y700000D3*
X3800000D3*
X3700000Y600000D3*
X3800000D3*
X3700000Y500000D3*
X3800000D3*
X3700000Y400000D3*
X3800000D3*
X3700000Y300000D3*
X3800000D3*
D21*
X925000Y1825000D3*
D23*
X1025000D3*
X1125000D3*
X1225000D3*
X1325000D3*
X1425000D3*
D21*
X100000D3*
D23*
X200000D3*
X300000D3*
X400000D3*
X500000D3*
X600000D3*
D21*
X3375000Y300000D3*
D23*
Y400000D3*
Y500000D3*
Y600000D3*
Y700000D3*
Y800000D3*
Y900000D3*
D17*
X2900000Y1050000D3*
D24*
Y650000D3*
D17*
X2800000Y1050000D3*
D24*
Y650000D3*
D17*
X2600000Y1050000D3*
D24*
Y650000D3*
D17*
X2700000Y1050000D3*
D24*
Y650000D3*
D17*
X2500000Y1050000D3*
D24*
Y650000D3*
D17*
X2400000Y1050000D3*
D24*
Y650000D3*
D17*
X2200000Y1050000D3*
D24*
Y650000D3*
D17*
X2300000Y1050000D3*
D24*
Y650000D3*
D17*
X2100000Y1050000D3*
D24*
Y650000D3*
D17*
X1800000Y1050000D3*
D24*
Y650000D3*
D17*
X1900000Y1050000D3*
D24*
Y650000D3*
D17*
X1700000Y1050000D3*
D24*
Y650000D3*
D17*
X1600000Y1050000D3*
D24*
Y650000D3*
D17*
X1400000Y1050000D3*
D24*
Y650000D3*
D17*
X1500000Y1050000D3*
D24*
Y650000D3*
D17*
X1300000Y1050000D3*
D24*
Y650000D3*
D17*
X1200000Y1050000D3*
D24*
Y650000D3*
D17*
X1000000Y1050000D3*
D24*
Y650000D3*
D17*
X1100000Y1050000D3*
D24*
Y650000D3*
D17*
X900000Y1050000D3*
D24*
Y650000D3*
D17*
X800000Y1050000D3*
D24*
Y650000D3*
D17*
X2000000Y1050000D3*
D24*
Y650000D3*
D19*
X500000Y800000D3*
D25*
Y500000D3*
D19*
X425000Y800000D3*
D25*
Y500000D3*
D19*
X350000Y800000D3*
D25*
Y500000D3*
D21*
X3200000Y1450000D3*
D23*
X3100000D3*
X3000000D3*
X2900000D3*
X2800000D3*
X2700000D3*
X2600000D3*
X2500000D3*
Y1150000D3*
X2600000D3*
X2700000D3*
X2800000D3*
X2900000D3*
X3000000D3*
X3100000D3*
X3200000D3*
D21*
X2200000Y1450000D3*
D23*
X2100000D3*
X2000000D3*
X1900000D3*
X1800000D3*
X1700000D3*
X1600000D3*
X1500000D3*
Y1150000D3*
X1600000D3*
X1700000D3*
X1800000D3*
X1900000D3*
X2000000D3*
X2100000D3*
X2200000D3*
D21*
X1200000Y1450000D3*
D23*
X1100000D3*
X1000000D3*
X900000D3*
X800000D3*
X700000D3*
X600000D3*
X500000D3*
Y1150000D3*
X600000D3*
X700000D3*
X800000D3*
X900000D3*
X1000000D3*
X1100000D3*
X1200000D3*
M02*
