G04 DipTrace 4.3.0.2*
G04 BottomSilk.gbr*
%MOIN*%
G04 #@! TF.FileFunction,Legend,Bot*
G04 #@! TF.Part,Single*
%ADD10C,0.01*%
%ADD53C,0.012351*%
%ADD54C,0.015439*%
%FSLAX26Y26*%
G04*
G70*
G90*
G75*
G01*
G04 BotSilk*
%LPD*%
X0Y1750000D2*
D10*
X400000D1*
Y1250000D1*
X0D1*
Y1750000D1*
Y500000D2*
X500000D1*
Y150000D1*
X0D1*
Y500000D1*
X1629951Y1718824D2*
D53*
X1637645Y1711219D1*
X1645250Y1699723D1*
X1652943Y1684425D1*
X1656746Y1665235D1*
Y1649936D1*
X1652943Y1630835D1*
X1645250Y1615537D1*
X1637645Y1604041D1*
X1629951Y1596435D1*
X1547857Y1678765D2*
X1551659Y1686370D1*
X1559353Y1694064D1*
X1566958Y1697866D1*
X1582256D1*
X1589950Y1694064D1*
X1597555Y1686370D1*
X1601446Y1678765D1*
X1605248Y1667269D1*
Y1648079D1*
X1601446Y1636672D1*
X1597555Y1628978D1*
X1589950Y1621373D1*
X1582256Y1617482D1*
X1566958D1*
X1559353Y1621373D1*
X1551659Y1628978D1*
X1547857Y1636672D1*
X1523154Y1718824D2*
X1515460Y1711219D1*
X1507855Y1699723D1*
X1500162Y1684425D1*
X1496359Y1665235D1*
Y1649936D1*
X1500162Y1630835D1*
X1507855Y1615537D1*
X1515460Y1604041D1*
X1523154Y1596435D1*
X1467765Y1678677D2*
Y1682479D1*
X1463963Y1690173D1*
X1460160Y1693975D1*
X1452467Y1697778D1*
X1437168D1*
X1429563Y1693975D1*
X1425760Y1690173D1*
X1421870Y1682479D1*
Y1674874D1*
X1425760Y1667180D1*
X1433366Y1655773D1*
X1471656Y1617482D1*
X1418067D1*
X1370372Y1697778D2*
X1381868Y1693975D1*
X1389562Y1682479D1*
X1393364Y1663378D1*
Y1651882D1*
X1389562Y1632781D1*
X1381868Y1621285D1*
X1370372Y1617482D1*
X1362767D1*
X1351271Y1621285D1*
X1343666Y1632781D1*
X1339775Y1651882D1*
Y1663378D1*
X1343666Y1682479D1*
X1351271Y1693975D1*
X1362767Y1697778D1*
X1370372D1*
X1343666Y1682479D2*
X1389562Y1632781D1*
X1315072Y1682479D2*
X1307379Y1686370D1*
X1295882Y1697778D1*
Y1617482D1*
X1225284Y1686370D2*
X1229086Y1693975D1*
X1240582Y1697778D1*
X1248188D1*
X1259684Y1693975D1*
X1267377Y1682479D1*
X1271180Y1663378D1*
Y1644277D1*
X1267377Y1628978D1*
X1259684Y1621285D1*
X1248188Y1617482D1*
X1244385D1*
X1232977Y1621285D1*
X1225284Y1628978D1*
X1221481Y1640474D1*
Y1644277D1*
X1225284Y1655773D1*
X1232977Y1663378D1*
X1244385Y1667180D1*
X1248188D1*
X1259684Y1663378D1*
X1267377Y1655773D1*
X1271180Y1644277D1*
X1057734Y1617482D2*
X1088420Y1697866D1*
X1119017Y1617482D1*
X1107521Y1644277D2*
X1069230D1*
X1033031Y1697866D2*
Y1617482D1*
X979442Y1697866D2*
X1033031Y1644277D1*
X1013930Y1663466D2*
X979442Y1617482D1*
X908843Y1686370D2*
X912646Y1693975D1*
X924142Y1697778D1*
X931747D1*
X943243Y1693975D1*
X950937Y1682479D1*
X954739Y1663378D1*
Y1644277D1*
X950937Y1628978D1*
X943243Y1621285D1*
X931747Y1617482D1*
X927945D1*
X916537Y1621285D1*
X908843Y1628978D1*
X905041Y1640474D1*
Y1644277D1*
X908843Y1655773D1*
X916537Y1663378D1*
X927945Y1667180D1*
X931747D1*
X943243Y1663378D1*
X950937Y1655773D1*
X954739Y1644277D1*
X880338Y1697866D2*
Y1617482D1*
X853543D1*
X842047Y1621373D1*
X834354Y1628978D1*
X830551Y1636672D1*
X826749Y1648079D1*
Y1667269D1*
X830551Y1678765D1*
X834354Y1686370D1*
X842047Y1694064D1*
X853543Y1697866D1*
X880338D1*
X748457D2*
Y1617482D1*
X802046Y1697866D1*
Y1617482D1*
X2876805Y875938D2*
D54*
X2833805D1*
X2819435Y880802D1*
X2814571Y885555D1*
X2809818Y895062D1*
Y904679D1*
X2814571Y914185D1*
X2819435Y919049D1*
X2833805Y923802D1*
X2876805D1*
Y823322D1*
X2843312Y875938D2*
X2809818Y823322D1*
X2778940Y923802D2*
X2711953Y823322D1*
Y923802D2*
X2778940Y823322D1*
X2521750Y923802D2*
X2583873D1*
Y823322D1*
X2521750D1*
X2583873Y875938D2*
X2545626D1*
X2490871Y890308D2*
Y823322D1*
Y871185D2*
X2476501Y885555D1*
X2466884Y890308D1*
X2452625D1*
X2443008Y885555D1*
X2438255Y871185D1*
Y823322D1*
Y871185D2*
X2423885Y885555D1*
X2414268Y890308D1*
X2400008D1*
X2390391Y885555D1*
X2385527Y871185D1*
Y823322D1*
X2354649Y890308D2*
Y842445D1*
X2349896Y828185D1*
X2340279Y823322D1*
X2325909D1*
X2316402Y828185D1*
X2302032Y842445D1*
Y890308D2*
Y823322D1*
X2271154Y923802D2*
Y823322D1*
X2182906Y890308D2*
Y823322D1*
Y875938D2*
X2192412Y885555D1*
X2202029Y890308D1*
X2216288D1*
X2225905Y885555D1*
X2235412Y875938D1*
X2240275Y861568D1*
Y852062D1*
X2235412Y837692D1*
X2225905Y828185D1*
X2216288Y823322D1*
X2202029D1*
X2192412Y828185D1*
X2182906Y837692D1*
X2137657Y923802D2*
Y842445D1*
X2132904Y828185D1*
X2123287Y823322D1*
X2113781D1*
X2152027Y890308D2*
X2118534D1*
X2059026D2*
X2068532Y885555D1*
X2078149Y875938D1*
X2082902Y861568D1*
Y852062D1*
X2078149Y837692D1*
X2068532Y828185D1*
X2059026Y823322D1*
X2044656D1*
X2035039Y828185D1*
X2025532Y837692D1*
X2020669Y852062D1*
Y861568D1*
X2025532Y875938D1*
X2035039Y885555D1*
X2044656Y890308D1*
X2059026D1*
X1989790D2*
Y823322D1*
Y861568D2*
X1984926Y875938D1*
X1975420Y885555D1*
X1965803Y890308D1*
X1951433D1*
X1756366Y909432D2*
X1765872Y919049D1*
X1780242Y923802D1*
X1799366D1*
X1813736Y919049D1*
X1823353Y909432D1*
Y899925D1*
X1818489Y890308D1*
X1813736Y885555D1*
X1804229Y880802D1*
X1775489Y871185D1*
X1765872Y866432D1*
X1761119Y861568D1*
X1756366Y852062D1*
Y837692D1*
X1765872Y828185D1*
X1780242Y823322D1*
X1799366D1*
X1813736Y828185D1*
X1823353Y837692D1*
X1725487Y923802D2*
Y823322D1*
Y871185D2*
X1711117Y885555D1*
X1701501Y890308D1*
X1687130D1*
X1677624Y885555D1*
X1672871Y871185D1*
Y823322D1*
X1641992Y923802D2*
X1637239Y919049D1*
X1632375Y923802D1*
X1637239Y928665D1*
X1641992Y923802D1*
X1637239Y890308D2*
Y823322D1*
X1601497Y861568D2*
X1544127D1*
Y871185D1*
X1548880Y880802D1*
X1553634Y885555D1*
X1563250Y890308D1*
X1577621D1*
X1587127Y885555D1*
X1596744Y875938D1*
X1601497Y861568D1*
Y852062D1*
X1596744Y837692D1*
X1587127Y828185D1*
X1577621Y823322D1*
X1563250D1*
X1553634Y828185D1*
X1544127Y837692D1*
X1513249Y923802D2*
Y823322D1*
X1425000Y923802D2*
Y823322D1*
Y875938D2*
X1434507Y885555D1*
X1444124Y890308D1*
X1458494D1*
X1468000Y885555D1*
X1477617Y875938D1*
X1482370Y861568D1*
Y852062D1*
X1477617Y837692D1*
X1468000Y828185D1*
X1458494Y823322D1*
X1444124D1*
X1434507Y828185D1*
X1425000Y837692D1*
X1255235Y890308D2*
X1226495Y823322D1*
X1197866Y890308D1*
X1157370Y923691D2*
X1104864D1*
X1133494Y885445D1*
X1119124D1*
X1109617Y880692D1*
X1104864Y875938D1*
X1100000Y861568D1*
Y852062D1*
X1104864Y837692D1*
X1114371Y828075D1*
X1128741Y823322D1*
X1143111D1*
X1157370Y828075D1*
X1162123Y832939D1*
X1166987Y842445D1*
M02*
