G04 DipTrace 4.3.0.2*
G04 TopMask.gbr*
%MOIN*%
G04 #@! TF.FileFunction,Soldermask,Top*
G04 #@! TF.Part,Single*
%ADD26C,0.125*%
%ADD34C,0.054*%
%ADD36C,0.064*%
%ADD38C,0.063055*%
%ADD42R,0.063055X0.063055*%
%ADD44R,0.054X0.054*%
%ADD46C,0.054*%
%ADD48R,0.064X0.064*%
%ADD50C,0.064*%
%FSLAX26Y26*%
G04*
G70*
G90*
G75*
G01*
G04 TopMask*
%LPD*%
D50*
X3350000Y1350000D3*
D48*
Y1250000D3*
D50*
X2350000Y1350000D3*
D48*
Y1250000D3*
D50*
X1350000Y1350000D3*
D48*
Y1250000D3*
X600000Y850000D3*
D50*
Y950000D3*
D48*
X3100000Y850000D3*
D50*
Y950000D3*
D46*
X200000Y150000D3*
D44*
X100000D3*
D46*
X200000Y500000D3*
D44*
X100000D3*
D46*
X200000Y850000D3*
D44*
X100000D3*
D26*
X600000Y2000000D3*
X550000Y100000D3*
X3550000Y2000000D3*
X3800000Y100000D3*
D50*
X2800000Y350000D3*
X2700000D3*
X2600000D3*
X2500000D3*
X2400000D3*
X2300000D3*
X2200000D3*
X2100000D3*
X2000000D3*
X1900000D3*
X1800000D3*
X1700000D3*
X1600000D3*
X1500000D3*
X1400000D3*
X1300000D3*
X1200000D3*
X1100000D3*
X1000000D3*
D48*
X900000D3*
D50*
Y450000D3*
X1000000D3*
X1100000D3*
X1200000D3*
X1300000D3*
X1400000D3*
X1500000D3*
X1600000D3*
X1700000D3*
X1800000D3*
X1900000D3*
X2000000D3*
X2100000D3*
X2200000D3*
X2300000D3*
X2400000D3*
X2500000D3*
X2600000D3*
X2700000D3*
X2800000D3*
D42*
X2000000Y100000D3*
D38*
X2100000D3*
X2200000D3*
X2300000D3*
X2400000D3*
X2500000D3*
X2600000D3*
X2700000D3*
D42*
X1100000D3*
D38*
X1200000D3*
X1300000D3*
X1400000D3*
X1500000D3*
X1600000D3*
X1700000D3*
X1800000D3*
D42*
X2500000Y2000000D3*
D38*
X2400000D3*
X2300000D3*
X2200000D3*
X2100000D3*
X2000000D3*
X1900000D3*
X1800000D3*
D42*
X740000D3*
D38*
X840000D3*
X940000D3*
X1040000D3*
X1140000D3*
X1240000D3*
X1340000D3*
X1440000D3*
X1540000D3*
X1640000D3*
D42*
X2900000Y100000D3*
D38*
X3000000D3*
X3100000D3*
X3200000D3*
X3300000D3*
X3400000D3*
X3500000D3*
X3600000D3*
D42*
X3400000Y2000000D3*
D38*
X3300000D3*
X3200000D3*
X3100000D3*
X3000000D3*
X2900000D3*
X2800000D3*
X2700000D3*
D42*
X3700000D3*
D38*
X3800000D3*
X3700000Y1900000D3*
X3800000D3*
X3700000Y1800000D3*
X3800000D3*
X3700000Y1700000D3*
X3800000D3*
X3700000Y1600000D3*
X3800000D3*
X3700000Y1500000D3*
X3800000D3*
X3700000Y1400000D3*
X3800000D3*
X3700000Y1300000D3*
X3800000D3*
X3700000Y1200000D3*
X3800000D3*
X3700000Y1100000D3*
X3800000D3*
X3700000Y1000000D3*
X3800000D3*
X3700000Y900000D3*
X3800000D3*
X3700000Y800000D3*
X3800000D3*
X3700000Y700000D3*
X3800000D3*
X3700000Y600000D3*
X3800000D3*
X3700000Y500000D3*
X3800000D3*
X3700000Y400000D3*
X3800000D3*
X3700000Y300000D3*
X3800000D3*
D42*
X925000Y1825000D3*
D38*
X1025000D3*
X1125000D3*
X1225000D3*
X1325000D3*
X1425000D3*
D42*
X100000D3*
D38*
X200000D3*
X300000D3*
X400000D3*
X500000D3*
X600000D3*
D42*
X3375000Y300000D3*
D38*
Y400000D3*
Y500000D3*
Y600000D3*
Y700000D3*
Y800000D3*
Y900000D3*
D50*
X2900000Y1050000D3*
D36*
Y650000D3*
D50*
X2800000Y1050000D3*
D36*
Y650000D3*
D50*
X2600000Y1050000D3*
D36*
Y650000D3*
D50*
X2700000Y1050000D3*
D36*
Y650000D3*
D50*
X2500000Y1050000D3*
D36*
Y650000D3*
D50*
X2400000Y1050000D3*
D36*
Y650000D3*
D50*
X2200000Y1050000D3*
D36*
Y650000D3*
D50*
X2300000Y1050000D3*
D36*
Y650000D3*
D50*
X2100000Y1050000D3*
D36*
Y650000D3*
D50*
X1800000Y1050000D3*
D36*
Y650000D3*
D50*
X1900000Y1050000D3*
D36*
Y650000D3*
D50*
X1700000Y1050000D3*
D36*
Y650000D3*
D50*
X1600000Y1050000D3*
D36*
Y650000D3*
D50*
X1400000Y1050000D3*
D36*
Y650000D3*
D50*
X1500000Y1050000D3*
D36*
Y650000D3*
D50*
X1300000Y1050000D3*
D36*
Y650000D3*
D50*
X1200000Y1050000D3*
D36*
Y650000D3*
D50*
X1000000Y1050000D3*
D36*
Y650000D3*
D50*
X1100000Y1050000D3*
D36*
Y650000D3*
D50*
X900000Y1050000D3*
D36*
Y650000D3*
D50*
X800000Y1050000D3*
D36*
Y650000D3*
D50*
X2000000Y1050000D3*
D36*
Y650000D3*
D46*
X500000Y800000D3*
D34*
Y500000D3*
D46*
X425000Y800000D3*
D34*
Y500000D3*
D46*
X350000Y800000D3*
D34*
Y500000D3*
D42*
X3200000Y1450000D3*
D38*
X3100000D3*
X3000000D3*
X2900000D3*
X2800000D3*
X2700000D3*
X2600000D3*
X2500000D3*
Y1150000D3*
X2600000D3*
X2700000D3*
X2800000D3*
X2900000D3*
X3000000D3*
X3100000D3*
X3200000D3*
D42*
X2200000Y1450000D3*
D38*
X2100000D3*
X2000000D3*
X1900000D3*
X1800000D3*
X1700000D3*
X1600000D3*
X1500000D3*
Y1150000D3*
X1600000D3*
X1700000D3*
X1800000D3*
X1900000D3*
X2000000D3*
X2100000D3*
X2200000D3*
D42*
X1200000Y1450000D3*
D38*
X1100000D3*
X1000000D3*
X900000D3*
X800000D3*
X700000D3*
X600000D3*
X500000D3*
Y1150000D3*
X600000D3*
X700000D3*
X800000D3*
X900000D3*
X1000000D3*
X1100000D3*
X1200000D3*
M02*
